<?xml version="1.0" encoding="UTF-8" standalone="no"?>
<svg font-family='-apple-system, BlinkMacSystemFont, "Segoe UI", Roboto, Helvetica, Arial, sans-serif, "Apple Color Emoji", "Segoe UI Emoji", "Segoe UI Symbol"' width="272px" height="247px" viewBox="0 0 272 247" version="1.1" xmlns="http://www.w3.org/2000/svg" xmlns:xlink="http://www.w3.org/1999/xlink">
    <!-- Generator: Sketch 47.1 (45422) - http://www.bohemiancoding.com/sketch -->
    <title>189 entities have registered</title>
    <desc>Created with Sketch.</desc>
    <defs></defs>
    <g id="Mocks" stroke="none" stroke-width="1" fill="none" fill-rule="evenodd">
        <g id="Nov-monthly-report-greater-than-768px" transform="translate(-320.000000, -521.000000)">
            <g id="189-entities-have-registered" transform="translate(318.000000, 518.000000)">
                <g stroke-width="1" fill-rule="evenodd" transform="translate(2.000000, 10.000000)">
                    <text id="69-entities-have-pub"  font-size="16" font-weight="bold" line-spacing="22" fill="#4A4A4A">
                        <tspan x="144" y="17">195 entities have </tspan>
                        <tspan x="144" y="39">registered</tspan>
                        <tspan x="272.609375" y="39"  font-weight="normal"></tspan>
                        <tspan x="144" y="61"  font-weight="normal">49% of which are </tspan>
                        <tspan x="144" y="83"  font-weight="normal">Commonwealth </tspan>
                        <tspan x="144" y="105"  font-weight="normal">government</tspan>
                    </text>
                    <path d="M130,52 L130,62" id="Line-Copy-15" stroke="#224A61" stroke-width="2" stroke-linecap="round" transform="translate(130.000000, 57.000000) rotate(-90.000000) translate(-130.000000, -57.000000) "></path>
                    <text id="Commonwealth-CCE"  font-size="14" font-weight="normal" fill="#808184">
                        <tspan x="22" y="160">Commonwealth </tspan>
                        <tspan x="22" y="177">CCE</tspan>
                    </text>
                    <text id="State-/-Territory-Copy-2"  font-size="14" font-weight="normal" fill="#808184">
                        <tspan x="22" y="210">State / Territory</tspan>
                    </text>
                    <text id="Commonwealth-NCCE"  font-size="14" font-weight="normal" fill="#808184">
                        <tspan x="166" y="160">Commonwealth </tspan>
                        <tspan x="166" y="177">NCCE</tspan>
                    </text>
                    <text id="Local-Copy"  font-size="14" font-weight="normal" fill="#808184">
                        <tspan x="166" y="210">Local</tspan>
                    </text>
                    <rect id="Rectangle-3-Copy-11" fill="#0C7B92" x="0" y="148" width="16" height="16"></rect>
                    <rect id="Rectangle-3-Copy-12" fill="#6C81DA" x="0" y="196" width="16" height="16"></rect>
                    <rect id="Rectangle-3-Copy-13" fill="#C35D8E" x="144" y="148" width="16" height="16"></rect>
                    <rect id="Rectangle-3-Copy-14" fill="#F17465" x="144" y="196" width="16" height="16"></rect>
                    <text id="Other-Copy-2"  font-size="14" font-weight="normal" fill="#808184">
                        <tspan x="21" y="238">Other</tspan>
                    </text>
                    <rect id="Rectangle-3-Copy-15" fill="#4E9774" x="0" y="224" width="16" height="16"></rect>
                </g>
                <g id="Group-8" stroke-width="1" fill-rule="evenodd" transform="translate(3.000000, 9.000000)" stroke="#FFFFFF" stroke-linejoin="round">
                    <path d="M77.04,76.7394366 C86.36,67.3615023 86.32,52.1971831 76.92,42.8591549 C72.4,38.4295775 66.32,35.915493 60,35.915493 L60,0 C93.12,0 120,26.8169014 120,59.8591549 C120,75.6619718 113.76,90.786385 102.6,102 L77.04,76.7394366 Z" id="Shape" fill="#C35D8E" fill-rule="nonzero"></path>
                    <path d="M70,81.8123667 C72.5221675,80.6289979 74.8472906,79.0117271 76.817734,77 L102,102.008529 C97.0738916,106.978678 91.2807882,111.041578 84.9359606,114 L70,81.8123667 Z" id="Shape" fill="#4E9774" fill-rule="nonzero"></path>
                    <path d="M59.8786982,35.7954858 C53.8136095,35.7954858 47.9506903,37.9829748 43.5029586,42 L19,15.5512696 C30.2001972,5.52859284 44.8372781,-0.0395609194 60,0.000211607454 L59.8786982,35.7954858 Z" id="Shape" fill="#0C7B92" fill-rule="nonzero"></path>
                    <path d="M43.8002516,41.5802691 C34.0125785,50.4802691 33.2934841,65.6461883 42.2022641,75.4242152 C42.7615597,76.02287 43.360805,76.6215247 44,77.1802691 L20.070138,104 C-4.65871776,82.009417 -6.81600082,44.1744395 15.1563266,19.4699552 C16.5545656,17.9134529 18.032704,16.4367713 19.5507921,15 L43.8002516,41.5802691 Z" id="Shape" fill="#F17465" fill-rule="nonzero"></path>
                    <path d="M43.9452645,78 C51.0608856,84.347985 61.2945879,85.8651135 69.9292743,81.8726701 L85,114.490933 C63.3333333,124.472041 37.8290283,120.67922 20,104.82922 L43.9452645,78 Z" id="Shape" fill="#6C81DA" fill-rule="nonzero"></path>
                </g>
                <path d="M149.364377,67.6607176 C149.279068,67.2102654 149.189038,66.7614833 149.094341,66.3144244 C142.96223,37.3650803 117.259958,15.6421579 86.4840256,15.6421579 C51.1378016,15.6421579 22.4840256,44.2959339 22.4840256,79.6421579 C22.4840256,82.0918912 22.621662,84.5094778 22.8896238,86.8876066" id="Oval-2" stroke="#224A61" stroke-width="2" stroke-linecap="round" transform="translate(85.924201, 51.264882) rotate(55.000000) translate(-85.924201, -51.264882) "></path>
            </g>
        </g>
    </g>
</svg>