<?xml version="1.0" encoding="UTF-8" standalone="no"?>
<svg font-family='-apple-system, BlinkMacSystemFont, "Segoe UI", Roboto, Helvetica, Arial, sans-serif, "Apple Color Emoji", "Segoe UI Emoji", "Segoe UI Symbol"' width="289px" height="251px" viewBox="0 0 289 251" version="1.1" xmlns="http://www.w3.org/2000/svg" xmlns:xlink="http://www.w3.org/1999/xlink" style="background: #FFFFFF;">
    <!-- Generator: Sketch 48.2 (47327) - http://www.bohemiancoding.com/sketch -->
    <title>189 entities have registered</title>
    <desc>Created with Sketch.</desc>
    <defs></defs>
    <g id="Symbols" stroke="none" stroke-width="1" fill="none" fill-rule="evenodd">
        <g id="189-entities-have-registered">
            <g transform="translate(2.000000, 10.000000)">
                <text id="202-entities-have-re" font-size="16" font-weight="bold" line-spacing="22" fill="#4A4A4A">
                    <tspan x="144" y="17">202 entities </tspan>
                    <tspan x="144" y="39">have registered,</tspan>
                    <tspan x="273.367188" y="39" font-weight="normal"> </tspan>
                    <tspan x="144" y="61" font-weight="normal">48% of which are </tspan>
                    <tspan x="144" y="83" font-weight="normal">Commonwealth </tspan>
                    <tspan x="144" y="105" font-weight="normal">government</tspan>
                </text>
                <path d="M130,52 L130,62" id="Line-Copy-15" stroke="#224A61" stroke-width="2" stroke-linecap="round" transform="translate(130.000000, 57.000000) rotate(-90.000000) translate(-130.000000, -57.000000) "></path>
                <text id="Commonwealth-CCE" font-size="14" font-weight="normal" fill="#808184">
                    <tspan x="22" y="160">Commonwealth </tspan>
                    <tspan x="22" y="177">CCE</tspan>
                </text>
                <text id="State-/-Territory-Copy-2" font-size="14" font-weight="normal" fill="#808184">
                    <tspan x="22" y="210">State / Territory</tspan>
                </text>
                <text id="Commonwealth-NCCE" font-size="14" font-weight="normal" fill="#808184">
                    <tspan x="166" y="160">Commonwealth </tspan>
                    <tspan x="166" y="177">NCCE</tspan>
                </text>
                <text id="Local-Copy" font-size="14" font-weight="normal" fill="#808184">
                    <tspan x="166" y="210">Local</tspan>
                </text>
                <rect id="Rectangle-3-Copy-11" fill="#0C7B92" x="0" y="148" width="16" height="16"></rect>
                <rect id="Rectangle-3-Copy-12" fill="#6C81DA" x="0" y="196" width="16" height="16"></rect>
                <rect id="Rectangle-3-Copy-13" fill="#C35D8E" x="144" y="148" width="16" height="16"></rect>
                <rect id="Rectangle-3-Copy-14" fill="#F17465" x="144" y="196" width="16" height="16"></rect>
                <text id="Other-Copy-2" font-size="14" font-weight="normal" fill="#808184">
                    <tspan x="21" y="238">Other</tspan>
                </text>
                <rect id="Rectangle-3-Copy-15" fill="#4E9774" x="0" y="224" width="16" height="16"></rect>
            </g>
            <g id="Group-21" transform="translate(3.000000, 9.000000)" fill-rule="nonzero" stroke="#FFFFFF">
                <path d="M60,60 L60,0 C83.2787705,9.63447777e-15 104.448347,13.5151604 114.281775,34.6547744 C124.115203,55.7943884 120.83055,80.7277084 105.859461,98.5873179 L60,60 Z" id="Shape" fill="#C35D8E"></path>
                <path d="M60,60 L19.2630617,16.0199419 C30.3386414,5.72240696 44.8900886,0 60,0 L60,60 Z" id="Shape" fill="#0C7B92"></path>
                <path d="M60,60 L6.8836146,32.2869518 C10.0502885,26.1946448 14.237613,20.6923595 19.2630617,16.0199419 L60,60 Z" id="Shape" fill="#4E9774"></path>
                <path d="M60,60 L14.2618233,98.7315424 C-1.42671576,80.1350609 -4.34179015,53.8833063 6.8836146,32.2869518 L60,60 Z" id="Shape" fill="#6C81DA"></path>
                <path d="M60,60 L105.859461,98.5873179 C94.5018099,112.136314 77.7542786,119.972119 60.0941176,119.999926 C42.4339567,120.027733 25.6619253,112.244705 14.2618233,98.7315424 L60,60 Z" id="Shape" fill="#F17465"></path>
            </g>
            <circle id="Oval" fill="#FFFFFF" cx="63" cy="69" r="25"></circle>
            <path d="M148.017814,63.0234969 C140.462701,36.1769029 115.703944,16.4887066 86.3265146,16.4887066 C50.9469591,16.4887066 22.2661625,45.0437671 22.2661625,80.2682193 C22.2661625,82.709513 22.4039287,85.1187707 22.6721432,87.4887066" id="Oval-2" stroke="#224A61" stroke-width="2" stroke-linecap="round" transform="translate(85.141988, 51.988707) rotate(55.000000) translate(-85.141988, -51.988707) "></path>
        </g>
    </g>
</svg>