<?xml version="1.0" encoding="UTF-8" standalone="no"?>
<svg font-family='-apple-system, BlinkMacSystemFont, "Segoe UI", Roboto, Helvetica, Arial, sans-serif, "Apple Color Emoji", "Segoe UI Emoji", "Segoe UI Symbol"'  width="284px" height="251px" viewBox="0 0 284 251" version="1.1" xmlns="http://www.w3.org/2000/svg" xmlns:xlink="http://www.w3.org/1999/xlink" style="background: #FFFFFF;">
    <!-- Generator: Sketch 45.2 (43514) - http://www.bohemiancoding.com/sketch -->
    <title>189 entities have registered</title>
    <desc>Created with Sketch.</desc>
    <defs></defs>
    <g id="Symbols" stroke="none" stroke-width="1" fill="none" fill-rule="evenodd">
        <g id="189-entities-have-registered">
            <g>
                <text id="189-entities-have-re"  font-size="16" font-weight="bold" line-spacing="22" fill="#4A4A4A">
                    <tspan x="146" y="25">189 entities have </tspan>
                    <tspan x="146" y="47">registered</tspan>
                    <tspan x="146" y="69" font-weight="normal">50% of which are </tspan>
                    <tspan x="146" y="91" font-weight="normal">Commonwealth </tspan>
                    <tspan x="146" y="113" font-weight="normal">government</tspan>
                </text>
                <path d="M133,62 L133,72" id="Line-Copy-15" stroke="#224A61" stroke-width="2" stroke-linecap="round" transform="translate(133.000000, 67.000000) rotate(-90.000000) translate(-133.000000, -67.000000) "></path>
                <text id="Commonwealth-CCE" font-size="14" font-weight="normal" fill="#808184">
                    <tspan x="24" y="170">Commonwealth </tspan>
                    <tspan x="24" y="187">CCE</tspan>
                </text>
                <text id="State-/-Territory-Copy-2" font-size="14" font-weight="normal" fill="#808184">
                    <tspan x="24" y="220">State / Territory</tspan>
                </text>
                <text id="Commonwealth-NCCE" font-size="14" font-weight="normal" fill="#808184">
                    <tspan x="168" y="170">Commonwealth </tspan>
                    <tspan x="168" y="187">NCCE</tspan>
                </text>
                <text id="Local-Copy" font-size="14" font-weight="normal" fill="#808184">
                    <tspan x="168" y="220">Local</tspan>
                </text>
                <rect id="Rectangle-3-Copy-11" fill="#0C7B92" x="2" y="158" width="16" height="16"></rect>
                <rect id="Rectangle-3-Copy-12" fill="#6C81DA" x="2" y="206" width="16" height="16"></rect>
                <rect id="Rectangle-3-Copy-13" fill="#C35D8E" x="146" y="158" width="16" height="16"></rect>
                <rect id="Rectangle-3-Copy-14" fill="#F17465" x="146" y="206" width="16" height="16"></rect>
                <text id="Other-Copy-2" font-size="14" font-weight="normal" fill="#808184">
                    <tspan x="23" y="248">Other</tspan>
                </text>
                <rect id="Rectangle-3-Copy-15" fill="#4E9774" x="2" y="234" width="16" height="16"></rect>
                <g id="Group" transform="translate(63.000000, 64.500000) rotate(-1.000000) translate(-63.000000, -64.500000) translate(2.000000, 3.000000)" fill-rule="nonzero" stroke="#FFFFFF">
                    <g id="Shape">
                        <g>
                            <g transform="translate(58.770764, 79.300000)" fill="#C35D8E">
                                <path d="M1.21825933,6.08651795 C7.2106749,6.28646972 13.0654949,4.25831098 17.6584894,0.391484412 L41.1063563,28.428711 C29.6238701,38.0957775 14.9868201,43.1661743 0.00578120928,42.6662949 L1.21825933,6.08651795 Z"></path>
                            </g>
                            <g transform="translate(60.797342, 0.000000)" fill="#0C7B92">
                                <path d="M15.6319113,79.6914844 C23.4069714,73.1456875 26.3126519,62.4434866 22.9206635,52.8455554 C19.5286752,43.2476242 10.5524333,36.7726342 0.404215213,36.6033707 L1.01053803,0.00842686384 C26.3810831,0.431585403 48.821688,16.6190606 57.3016588,40.6138885 C65.7816297,64.6087164 58.5174286,91.3642187 39.0797783,107.728711 L15.6319113,79.6914844 Z"></path>
                            </g>
                            <g fill="#F17465">
                                <path d="M61.2015574,36.6033707 C54.6475574,36.4940557 48.3271035,39.0439435 43.6728644,43.6750464 C39.0186253,48.3061493 36.4247674,54.6262602 36.4792452,61.2027883 L0.00209975316,61.5069708 C-0.134094731,45.0656506 6.35054995,29.2653732 17.9861477,17.687616 C29.6217455,6.10985879 45.4228802,-0.264860629 61.8078802,0.00842686384 L61.2015574,36.6033707 Z"></path>
                            </g>
                            <g transform="translate(0.000000, 61.000000)" fill="#4E9774">
                                <path d="M36.4792452,0.202788302 C36.503951,3.18526204 37.0734447,6.13791859 38.1594823,8.91432099 L4.20269236,22.2858025 C1.48759856,15.3447965 0.0638643298,7.96315511 0.00209975316,0.506970756 L36.4792452,0.202788302 Z"></path>
                            </g>
                            <g transform="translate(4.053156, 69.540000)" fill="#6C81DA">
                                <path d="M34.1063261,0.374320995 C37.6528677,9.44088295 46.2337488,15.5227828 55.9358673,15.8465179 L54.7233892,52.4262949 C30.4680928,51.6169569 9.01589008,36.4122074 0.149536212,13.7458025 L34.1063261,0.374320995 Z"></path>
                            </g>
                        </g>
                    </g>
                </g>
                <path d="M63,128 C98.346224,128 127,99.346224 127,64 C127,28.653776 98.346224,0 63,0" id="Oval-2" stroke="#224A61" stroke-width="2"></path>
            </g>
        </g>
    </g>
</svg>
