<?xml version="1.0" encoding="UTF-8" standalone="no"?>
<svg font-family='-apple-system, BlinkMacSystemFont, "Segoe UI", Roboto, Helvetica, Arial, sans-serif, "Apple Color Emoji", "Segoe UI Emoji", "Segoe UI Symbol"' width="274px" height="251px" viewBox="0 0 274 251" version="1.1" xmlns="http://www.w3.org/2000/svg" xmlns:xlink="http://www.w3.org/1999/xlink" style="background: #FFFFFF;">
    <!-- Generator: Sketch 47.1 (45422) - http://www.bohemiancoding.com/sketch -->
    <title>189 entities have registered</title>
    <desc>Created with Sketch.</desc>
    <defs></defs>
    <g id="Symbols" stroke="none" stroke-width="1" fill="none" fill-rule="evenodd">
        <g id="189-entities-have-registered">
            <path d="M63.4806588,132.108059 C98.5507404,132.108059 126.980659,103.678141 126.980659,68.608059 C126.980659,33.5379774 98.5507404,5.10805902 63.4806588,5.10805902" id="Oval-3" stroke="#224A61" stroke-width="2" stroke-linecap="round" transform="translate(95.230659, 68.608059) rotate(2.000000) translate(-95.230659, -68.608059) "></path>
            <g transform="translate(2.000000, 10.000000)">
                <text id="186-entities-have-re" font-size="16" font-weight="bold" line-spacing="22" fill="#4A4A4A">
                    <tspan x="144" y="15">186 entities </tspan>
                    <tspan x="144" y="37">have registered</tspan>
                    <tspan x="262.28125" y="37" font-weight="normal"></tspan>
                    <tspan x="144" y="59" font-weight="normal">50% of which are </tspan>
                    <tspan x="144" y="81" font-weight="normal">Commonwealth </tspan>
                    <tspan x="144" y="103" font-weight="normal">government</tspan>
                </text>
                <path d="M130,52 L130,62" id="Line-Copy-15" stroke="#224A61" stroke-width="2" stroke-linecap="round" transform="translate(130.000000, 57.000000) rotate(-90.000000) translate(-130.000000, -57.000000) "></path>
                <text id="Commonwealth-CCE" font-size="14" font-weight="normal" fill="#808184">
                    <tspan x="22" y="160">Commonwealth </tspan>
                    <tspan x="22" y="177">CCE</tspan>
                </text>
                <text id="State-/-Territory-Copy-2" font-size="14" font-weight="normal" fill="#808184">
                    <tspan x="22" y="210">State / Territory</tspan>
                </text>
                <text id="Commonwealth-NCCE" font-size="14" font-weight="normal" fill="#808184">
                    <tspan x="166" y="160">Commonwealth </tspan>
                    <tspan x="166" y="177">NCCE</tspan>
                </text>
                <text id="Local-Copy" font-size="14" font-weight="normal" fill="#808184">
                    <tspan x="166" y="210">Local</tspan>
                </text>
                <rect id="Rectangle-3-Copy-11" fill="#0C7B92" x="0" y="148" width="16" height="16"></rect>
                <rect id="Rectangle-3-Copy-12" fill="#6C81DA" x="0" y="196" width="16" height="16"></rect>
                <rect id="Rectangle-3-Copy-13" fill="#C35D8E" x="144" y="148" width="16" height="16"></rect>
                <rect id="Rectangle-3-Copy-14" fill="#F17465" x="144" y="196" width="16" height="16"></rect>
                <text id="Other-Copy-2" font-size="14" font-weight="normal" fill="#808184">
                    <tspan x="21" y="238">Other</tspan>
                </text>
                <rect id="Rectangle-3-Copy-15" fill="#4E9774" x="0" y="224" width="16" height="16"></rect>
            </g>
            <g id="Group-8" transform="translate(5.000000, 9.000000)" fill-rule="nonzero" stroke="#FFFFFF">
                <g id="Group">
                    <path d="M57.5304569,81.8870705 C63.2772817,82.0788275 68.89215,80.13379 73.296907,76.42544 L95.7837958,103.3136 C84.7719034,112.584475 70.7347324,117.447069 56.3676705,116.967676 L57.5304569,81.8870705 Z" id="Shape" fill="#0C7B92"></path>
                    <path d="M73.296907,76.42544 C80.7533172,70.1479134 83.5399123,59.8843273 80.2869399,50.6797539 C77.0339675,41.4751806 68.4256043,35.265559 58.6932969,35.1032326 L59.2747704,0.00808150057 C83.6055391,0.413897476 105.126447,15.9379515 113.258878,38.9493849 C121.391309,61.9608182 114.424821,87.6197835 95.7837958,103.3136 L73.296907,76.42544 Z" id="Shape" fill="#C35D8E"></path>
                    <path d="M58.6932969,35.1032326 C52.4079034,34.9983977 46.3464845,37.4437819 41.8829929,41.8850855 C37.4195013,46.3263891 34.9319491,52.3874791 34.9841942,58.6944773 L0.00201369771,58.9861933 C-0.128599045,43.2186977 6.09028151,28.0659727 17.2490105,16.9627137 C28.4077395,5.85945474 43.5612868,-0.254005685 59.2747704,0.00808150057 L58.6932969,35.1032326 Z" id="Shape" fill="#F17465"></path>
                    <path d="M34.9841942,58.6944773 C35.0078875,61.5547185 35.5540413,64.3863646 36.5955691,67.04898 L4.03045087,79.8724499 C1.4266314,73.2159114 0.0612469393,66.1367963 0.00201369771,58.9861933 L34.9841942,58.6944773 Z" id="Shape" fill="#4E9774"></path>
                    <path d="M36.5955691,67.04898 C39.9967605,75.7439615 48.2259662,81.5766031 57.5304569,81.8870705 L56.3676705,116.967676 C33.1064437,116.191508 12.5334296,101.609904 4.03045087,79.8724499 L36.5955691,67.04898 Z" id="Shape" fill="#6C81DA"></path>
                </g>
            </g>
        </g>
    </g>
</svg>
