<?xml version="1.0" encoding="UTF-8" standalone="no"?>
<svg font-family='-apple-system, BlinkMacSystemFont, "Segoe UI", Roboto, Helvetica, Arial, sans-serif, "Apple Color Emoji", "Segoe UI Emoji", "Segoe UI Symbol"' width="273px" height="161px" viewBox="0 0 273 161" version="1.1" xmlns="http://www.w3.org/2000/svg" xmlns:xlink="http://www.w3.org/1999/xlink" style="background: #FFFFFF;">
    <!-- Generator: Sketch 45.2 (43514) - http://www.bohemiancoding.com/sketch -->
    <title>56% of briefs have been for digital specialists</title>
    <desc>Created with Sketch.</desc>
    <defs></defs>
    <g id="Symbols" stroke="none" stroke-width="1" fill="none" fill-rule="evenodd">
        <g id="56%-of-briefs-have-been-for-digital-specialists">
            <g>
                <g id="Group-11">
                    <path d="M137,79 L147,79" id="Line-Copy-15" stroke="#224A61" stroke-width="2" stroke-linecap="round" transform="translate(142.000000, 80.000000) scale(-1, 1) translate(-142.000000, -80.000000) "></path>
                    <text id="56%-of-briefs-have-b"  font-size="16" font-weight="bold" line-spacing="22" fill="#333333">
                        <tspan x="0" y="61">56% of briefs </tspan>
                        <tspan x="0" y="83"  font-weight="normal">have been for</tspan>
                        <tspan x="95.25" y="83"> </tspan>
                        <tspan x="0" y="105"  font-weight="normal">digital</tspan>
                        <tspan x="49.578125" y="105"> specialists</tspan>
                    </text>
                    <path d="M168.175785,150.790153 C203.798152,150.790153 232.675785,121.912519 232.675785,86.290153 C232.675785,50.6677866 203.798152,21.790153 168.175785,21.790153 C161.454514,21.790153 154.973359,22.8182141 148.880992,24.7256659" id="Oval-21-Copy-2" stroke="#224A61" stroke-width="2" stroke-linecap="round" transform="translate(190.778389, 86.290153) scale(-1, 1) rotate(18.000000) translate(-190.778389, -86.290153) "></path>
                    <text id="Outcome-Copy-3"  font-size="11" font-weight="bold" fill="#808184">
                        <tspan x="223" y="11">Outcome</tspan>
                    </text>
                    <text id="Specialist-Copy-2"  font-size="11" font-weight="bold" fill="#808184">
                        <tspan x="135" y="152">Specialist</tspan>
                    </text>
                    <path d="M170.912141,55.8414524 L170.912141,19 C194.682246,19 216.225607,33.0269509 225.89378,54.7987192 C235.561952,76.5704874 231.54354,102.007988 215.638235,119.71874 C199.732931,137.429492 174.920699,144.095268 152.313986,136.730724 L163.129591,103.356803 C165.8225,104.372056 168.740857,104.927536 171.788953,104.927536 C185.347944,104.927536 196.339678,93.9358024 196.339678,80.3768116 C196.339678,66.8178208 185.347944,55.826087 171.788953,55.826087 C171.495449,55.826087 171.203148,55.8312373 170.912136,55.8414526 Z" id="Combined-Shape" stroke="#FFFFFF" stroke-width="2" fill="#152D3B" fill-rule="nonzero" transform="translate(191.706071, 79.343168) scale(-1, 1) translate(-191.706071, -79.343168) "></path>
                    <path d="M264.907723,103.356803 L254.092118,136.730724 C225.936558,127.558542 208.615188,99.2188335 213.246354,69.9024623 C217.877519,40.5860912 243.085766,19 272.690273,19 L272.690273,55.8414524 C259.537381,56.3031534 249.01636,67.1113245 249.01636,80.3768116 C249.01636,90.8877064 255.621635,99.8558568 264.907723,103.356803 Z" id="Combined-Shape" stroke="#FFFFFF" stroke-width="2" fill="#00BFE9" fill-rule="nonzero" transform="translate(242.595137, 77.865362) scale(-1, 1) translate(-242.595137, -77.865362) "></path>
                </g>
                <g id="Group-10" transform="translate(152.000000, 19.000000)"></g>
            </g>
        </g>
    </g>
</svg>
