<?xml version="1.0" encoding="UTF-8" standalone="no"?>
<svg font-family='-apple-system, BlinkMacSystemFont, "Segoe UI", Roboto, Helvetica, Arial, sans-serif, "Apple Color Emoji", "Segoe UI Emoji", "Segoe UI Symbol"' width="273px" height="161px" viewBox="0 0 273 161" version="1.1" xmlns="http://www.w3.org/2000/svg" xmlns:xlink="http://www.w3.org/1999/xlink" style="background: #FFFFFF;">
    <!-- Generator: Sketch 48.2 (47327) - http://www.bohemiancoding.com/sketch -->
    <title>56% of briefs have been for digital specialists</title>
    <desc>Created with Sketch.</desc>
    <defs></defs>
    <g id="Symbols" stroke="none" stroke-width="1" fill="none" fill-rule="evenodd">
        <g id="56%-of-briefs-have-been-for-digital-specialists">
            <path d="M137,79 L147,79" id="Line-Copy-15" stroke="#224A61" stroke-width="2" stroke-linecap="round" transform="translate(142.000000, 80.000000) scale(-1, 1) translate(-142.000000, -80.000000) "></path>
            <text id="58%-of-briefs-have-b" font-size="16" font-weight="bold" line-spacing="22" fill="#333333">
                <tspan x="0" y="63">58% </tspan>
                <tspan x="36.8359375" y="63" font-weight="normal">of briefs have </tspan>
                <tspan x="0" y="85" font-weight="normal">been for</tspan>
                <tspan x="63.3515625" y="85"> digital </tspan>
                <tspan x="0" y="107">specialists</tspan>
            </text>
            <text id="Outcome-Copy-3" font-size="11" font-weight="bold" fill="#808184">
                <tspan x="223" y="11">Outcome</tspan>
            </text>
            <text id="Specialist-Copy-2" font-size="11" font-weight="bold" fill="#808184">
                <tspan x="135" y="152">Specialist</tspan>
            </text>
            <g id="Group-13" transform="translate(213.500000, 79.500000) scale(-1, 1) translate(-213.500000, -79.500000) translate(153.000000, 19.000000)" fill-rule="nonzero" stroke="#FFFFFF">
                <path d="M48.3509023,81.1117934 C57.0873536,86.2454838 68.0932135,85.3370321 75.8759666,78.8398046 C83.6587197,72.342577 86.5500211,61.6493477 83.1069562,52.0966124 C79.6638912,42.5438771 70.6245302,36.179402 60.5,36.179402 L60.5,0 C85.8113256,0 108.409728,15.9111878 117.01739,39.793026 C125.625053,63.6748642 118.396799,90.4079376 98.9399165,106.651006 C79.4830337,122.894075 51.9683841,125.165205 30.1272558,112.330978 L48.3509023,81.1117934 Z" id="Shape" fill="#152D3B"></path>
                <path d="M60.5,36.179402 C49.6472583,36.179402 40.1403336,43.4750256 37.2988568,53.9839828 C34.45738,64.4929399 38.9860777,75.6088599 48.3509023,81.1117934 L30.1272558,112.330978 C6.71519437,98.5736448 -4.60654988,70.7838449 2.49714208,44.5114519 C9.60083404,18.239059 33.3681456,8.54067647e-14 60.5,5.68434189e-14 L60.5,36.179402 Z" id="Shape" fill="#00BFE9"></path>
            </g>
            <path d="M249.944602,140.540614 C262.097846,128.729853 269.648304,112.207916 269.648304,93.9224756 C269.648304,58.0239669 240.546813,28.9224756 204.648304,28.9224756 C174.530364,28.9224756 149.196698,49.4063906 141.818908,77.2026197" id="Oval-4" stroke="#224A61" stroke-width="2" stroke-linecap="round" transform="translate(205.733606, 84.731545) rotate(-135.000000) translate(-205.733606, -84.731545) "></path>
        </g>
    </g>
</svg>