<?xml version="1.0" encoding="UTF-8" standalone="no"?>
<svg font-family='-apple-system, BlinkMacSystemFont, "Segoe UI", Roboto, Helvetica, Arial, sans-serif, "Apple Color Emoji", "Segoe UI Emoji", "Segoe UI Symbol"' width="274px" height="151px" viewBox="0 0 274 151" version="1.1" xmlns="http://www.w3.org/2000/svg" xmlns:xlink="http://www.w3.org/1999/xlink">
    <!-- Generator: Sketch 47.1 (45422) - http://www.bohemiancoding.com/sketch -->
    <title>56% of briefs have been for digital specialists</title>
    <desc>Created with Sketch.</desc>
    <defs></defs>
    <g id="Mocks" stroke="none" stroke-width="1" fill="none" fill-rule="evenodd">
        <g id="Nov-monthly-report-greater-than-768px" transform="translate(-738.000000, -900.000000)">
            <g id="56%-of-briefs-have-been-for-digital-specialists" transform="translate(738.000000, 897.000000)">
                <g id="Group-17" stroke-width="1" fill-rule="evenodd" transform="translate(152.000000, 19.000000)" stroke="#FFFFFF">
                    <g id="Group-15" transform="translate(60.500000, 60.299669) scale(-1, 1) translate(-60.500000, -60.299669) " fill-rule="nonzero">
                        <path d="M50.3302026,81.8819933 C59.2571514,86.0497708 69.8234796,84.3489228 76.9916264,77.590339 C84.1597731,70.8317551 86.4786224,60.3836398 82.8426487,51.2271952 C79.206675,42.0707505 70.3519431,36.0596026 60.5,36.0596026 L60.5,0 C85.1298579,3.41625183e-14 107.266687,15.0278696 116.356622,37.9189813 C125.446556,60.810093 119.649433,86.9303812 101.729066,103.826841 C83.808699,120.7233 57.3928785,124.97542 35.0755065,114.555977 L50.3302026,81.8819933 Z" id="Shape" fill="#152D3B"></path>
                        <path d="M60.5,36.0596026 C49.2301826,36.0596026 39.4731195,43.8886023 37.0313173,54.8907106 C34.5895152,65.8928189 40.1185031,77.1143967 50.3302026,81.8819933 L35.0755065,114.555977 C9.54625768,102.636985 -4.2762121,74.5830407 1.82829329,47.0777699 C7.93279867,19.5724991 32.3254564,3.41625183e-14 60.5,0 L60.5,36.0596026 Z" id="Shape" fill="#00BFE9"></path>
                    </g>
                </g>
                <path d="M137,79 L147,79" id="Line-Copy-15" stroke="#224A61" stroke-width="2" stroke-linecap="round" transform="translate(142.000000, 80.000000) scale(-1, 1) translate(-142.000000, -80.000000) "></path>
                <text id="57%-of-briefs-have-b"  font-size="16" font-weight="bold" line-spacing="22" fill="#333333">
                    <tspan x="0" y="63">57% </tspan>
                    <tspan x="36.8359375" y="63"  font-weight="normal">of briefs have </tspan>
                    <tspan x="0" y="85"  font-weight="normal">been for</tspan>
                    <tspan x="63.3515625" y="85"> digital </tspan>
                    <tspan x="0" y="107">specialists</tspan>
                </text>
                <text id="Outcome-Copy-3"  font-size="11" font-weight="bold" fill="#808184">
                    <tspan x="223" y="11">Outcome</tspan>
                </text>
                <text id="Specialist-Copy-2"  font-size="11" font-weight="bold" fill="#808184">
                    <tspan x="135" y="152">Specialist</tspan>
                </text>
                <path d="M206.607778,140.960634 C233.883019,133.435516 253.913721,108.445815 253.913721,78.7776944 C253.913721,43.1553281 225.036087,14.2776944 189.413721,14.2776944 C173.693182,14.2776944 159.286216,19.9017669 148.095093,29.2476412" id="Oval-3" stroke="#224A61" stroke-width="2" stroke-linecap="round" transform="translate(201.004407, 77.619164) rotate(-165.000000) translate(-201.004407, -77.619164) "></path>
            </g>
        </g>
    </g>
</svg>