<?xml version="1.0" encoding="UTF-8" standalone="no"?>
<svg font-family='-apple-system, BlinkMacSystemFont, "Segoe UI", Roboto, Helvetica, Arial, sans-serif, "Apple Color Emoji", "Segoe UI Emoji", "Segoe UI Symbol"' width="274px" height="131px" viewBox="0 0 274 131" version="1.1" xmlns="http://www.w3.org/2000/svg" xmlns:xlink="http://www.w3.org/1999/xlink">
    <!-- Generator: Sketch 47.1 (45422) - http://www.bohemiancoding.com/sketch -->
    <title>67% of all briefs have been open to all</title>
    <desc>Created with Sketch.</desc>
    <defs></defs>
    <g id="Mocks" stroke="none" stroke-width="1" fill="none" fill-rule="evenodd">
        <g id="Nov-monthly-report-greater-than-768px" transform="translate(-372.000000, -907.000000)">
            <g id="67%-of-all-briefs-have-been-open-to-all" transform="translate(371.000000, 898.000000)">
                <g id="Group" stroke-width="1" fill-rule="evenodd" transform="translate(212.000000, 74.000000) scale(-1, 1) translate(-212.000000, -74.000000) translate(151.000000, 13.000000)">
                    <g>
                        <g id="Group-2">
                            <g></g>
                        </g>
                        <g transform="translate(2.342037, 0.000000)"></g>
                    </g>
                </g>
                <path d="M138,74 L148,74" id="Line-Copy-15" stroke="#224A61" stroke-width="2" stroke-linecap="round" transform="translate(143.000000, 75.000000) scale(-1, 1) translate(-143.000000, -75.000000) "></path>
                <text id="68%-of-all-briefs-ha"  font-size="16" font-weight="bold" line-spacing="22" fill="#333333">
                    <tspan x="1" y="59">68% </tspan>
                    <tspan x="37.8359375" y="59"  font-weight="normal">of all briefs </tspan>
                    <tspan x="1" y="81"  font-weight="normal">have been</tspan>
                    <tspan x="78.4453125" y="81"> open </tspan>
                    <tspan x="1" y="103">to all</tspan>
                </text>
                <g id="Group-13" stroke-width="1" fill-rule="evenodd" transform="translate(213.000000, 75.000000) scale(-1, 1) translate(-213.000000, -75.000000) translate(152.000000, 14.000000)" stroke="#FFFFFF">
                    <path d="M38.8488936,71.2699873 C44.034763,82.1384724 56.3938928,87.5748988 67.9096818,84.0529935 C79.4254707,80.5310882 86.6295112,69.1116038 84.8489888,57.201652 C83.0684663,45.2917003 72.8396514,36.4784053 60.7973422,36.4784053 L60.7973422,0 C90.9031153,1.72796439e-14 116.475153,22.0332374 120.926459,51.8081168 C125.377765,81.5829963 107.367663,110.131707 78.5781912,118.93647 C49.7887188,127.741234 18.8908942,114.150168 5.92622068,86.9789549 L38.8488936,71.2699873 Z" id="Shape" fill="#17788D" fill-rule="nonzero"></path>
                    <path d="M60.7973422,36.4784053 C52.1576591,36.4784053 44.1666215,41.062248 39.8049478,48.5201247 L8.31635622,30.1042985 C19.2205405,11.4596066 39.1981345,0 60.7973422,0 L60.7973422,36.4784053 Z" id="Shape" fill="#152D3B" fill-rule="nonzero"></path>
                    <path d="M39.8049478,48.5201247 C35.7365223,55.4765863 35.3784675,63.9967083 38.8488936,71.2699873 L5.92622068,86.9789549 C-2.74984455,68.7957575 -1.85470743,47.4954525 8.31635622,30.1042985 L39.8049478,48.5201247 Z" id="Shape" fill="#870F48" fill-rule="nonzero"></path>
                </g>
                <text id="One"  font-size="11" font-weight="bold" fill="#FFFFFF">
                    <tspan x="245" y="78">One</tspan>
                </text>
                <text id="Some"  font-size="11" font-weight="bold" fill="#FFFFFF">
                    <tspan x="221" y="42">Some</tspan>
                </text>
                <text id="All"  font-size="11" font-weight="bold" fill="#FFFFFF">
                    <tspan x="165" y="79">All</tspan>
                </text>
                <path d="M228.772749,138.8147 C256.309874,131.463255 276.592505,106.346408 276.592505,76.4922988 C276.592505,40.8699325 247.714872,11.9922988 212.092505,11.9922988 C180.628257,11.9922988 154.426047,34.5217591 148.737709,64.328844" id="Oval-3" stroke="#224A61" stroke-width="2" stroke-linecap="round" transform="translate(212.665107, 75.403499) rotate(-165.000000) translate(-212.665107, -75.403499) "></path>
            </g>
        </g>
    </g>
</svg>