<?xml version="1.0" encoding="UTF-8" standalone="no"?>
<svg font-family='-apple-system, BlinkMacSystemFont, "Segoe UI", Roboto, Helvetica, Arial, sans-serif, "Apple Color Emoji", "Segoe UI Emoji", "Segoe UI Symbol"' width="275px" height="160px" viewBox="0 0 275 160" version="1.1" xmlns="http://www.w3.org/2000/svg" xmlns:xlink="http://www.w3.org/1999/xlink" style="background: #FFFFFF;">
    <!-- Generator: Sketch 48.2 (47327) - http://www.bohemiancoding.com/sketch -->
    <title>67% of all briefs have been open to all</title>
    <desc>Created with Sketch.</desc>
    <defs></defs>
    <g id="Symbols" stroke="none" stroke-width="1" fill="none" fill-rule="evenodd">
        <g id="67%-of-all-briefs-have-been-open-to-all">
            <g id="Group-12" transform="translate(152.000000, 14.000000)" fill-rule="nonzero" stroke="#FFFFFF">
                <path d="M32.6068517,72.2161718 C38.1984261,82.7302907 50.5812264,87.6486719 61.8630897,83.8365911 C73.144953,80.0245103 80.0067549,68.6034818 78.0751341,56.8526843 C76.1435134,45.1018868 65.9867529,36.4784053 54.0782517,36.4784053 L54.0782517,-2.84217094e-14 C83.8495046,-1.11420655e-14 109.241406,21.5587038 114.070458,50.9356974 C118.89951,80.3126911 101.745005,108.865262 73.5403467,118.395464 C45.3356884,127.925666 14.3786876,115.629713 0.399751541,89.3444162 L32.6068517,72.2161718 Z" id="Shape" fill="#17788D" transform="translate(57.640455, 60.801592) scale(-1, 1) translate(-57.640455, -60.801592) "></path>
                <path d="M113.778924,36.4784053 C105.112212,36.4784053 97.1004293,41.0907343 92.7484175,48.5855246 L61.2026578,30.2677983 C72.0826873,11.5308224 92.1121451,-2.84217094e-14 113.778924,-2.84217094e-14 L113.778924,36.4784053 Z" id="Shape" fill="#152D3B" transform="translate(87.490791, 24.292762) scale(-1, 1) translate(-87.490791, -24.292762) "></path>
                <path d="M122.000011,48.5855246 C117.777926,55.856563 117.611198,64.7926999 121.559118,72.2161718 L89.3520175,89.3444162 C79.4822185,70.7857364 79.899038,48.4453943 90.4542514,30.2677983 L122.000011,48.5855246 Z" id="Shape" fill="#870F48" transform="translate(102.116588, 59.806107) scale(-1, 1) translate(-102.116588, -59.806107) "></path>
            </g>
            <g id="Group" transform="translate(212.000000, 74.000000) scale(-1, 1) translate(-212.000000, -74.000000) translate(151.000000, 13.000000)">
                <g>
                    <g id="Group-2">
                        <g></g>
                    </g>
                    <g transform="translate(2.342037, 0.000000)"></g>
                </g>
            </g>
            <path d="M138,74 L148,74" id="Line-Copy-15" stroke="#224A61" stroke-width="2" stroke-linecap="round" transform="translate(143.000000, 75.000000) scale(-1, 1) translate(-143.000000, -75.000000) "></path>
            <text id="67%-of-all-briefs-ha" font-size="16" font-weight="bold" line-spacing="22" fill="#333333">
                <tspan x="1" y="59">67% </tspan>
                <tspan x="37.8359375" y="59" font-weight="normal">of all briefs </tspan>
                <tspan x="1" y="81" font-weight="normal">have been</tspan>
                <tspan x="78.4453125" y="81"> open </tspan>
                <tspan x="1" y="103">to all</tspan>
            </text>
            <text id="One" font-size="11" font-weight="bold" fill="#FFFFFF">
                <tspan x="245" y="78">One</tspan>
            </text>
            <text id="Some" font-size="11" font-weight="bold" fill="#FFFFFF">
                <tspan x="221" y="42">Some</tspan>
            </text>
            <text id="All" font-size="11" font-weight="bold" fill="#FFFFFF">
                <tspan x="165" y="79">All</tspan>
            </text>
            <path d="M228.445919,138.726192 C255.807052,131.25763 275.920221,106.226181 275.920221,76.4970501 C275.920221,40.8746837 247.042587,11.9970501 211.420221,11.9970501 C181.056703,11.9970501 155.593494,32.9777628 148.737083,61.2326971" id="Oval-3" stroke="#224A61" stroke-width="2" stroke-linecap="round" transform="translate(212.328652, 75.361621) rotate(-165.000000) translate(-212.328652, -75.361621) "></path>
        </g>
    </g>
</svg>