<?xml version="1.0" encoding="UTF-8" standalone="no"?>
<svg font-family='-apple-system, BlinkMacSystemFont, "Segoe UI", Roboto, Helvetica, Arial, sans-serif, "Apple Color Emoji", "Segoe UI Emoji", "Segoe UI Symbol"' width="272px" height="221px" viewBox="0 0 272 221" version="1.1" xmlns="http://www.w3.org/2000/svg" xmlns:xlink="http://www.w3.org/1999/xlink" style="background: #FFFFFF;">
    <!-- Generator: Sketch 45.2 (43514) - http://www.bohemiancoding.com/sketch -->
    <title>767 $ contracted since launch</title>
    <desc>Created with Sketch.</desc>
    <defs>
        <rect id="path-1" x="0" y="0" width="272" height="221"></rect>
        <linearGradient x1="50%" y1="0%" x2="50%" y2="100%" id="linearGradient-2">
            <stop stop-color="#33B0C1" offset="0%"></stop>
            <stop stop-color="#17788D" offset="100%"></stop>
        </linearGradient>
    </defs>
    <g id="Symbols" stroke="none" stroke-width="1" fill="none" fill-rule="evenodd">
        <g id="767-$-contracted-since-launch">
            <g>
                <g id="Rectangle-Copy">
                    <use fill="#FAFBFC" fill-rule="evenodd" xlink:href="#path-1"></use>
                    <rect stroke="#BBBBBB" stroke-width="1" x="0.5" y="0.5" width="271" height="220"></rect>
                </g>
                <text id="$47.19M" font-size="36" font-weight="bold" letter-spacing="-1.50000024" fill="#17788D">
                    <tspan x="12" y="59">$47.19M</tspan>
                </text>
                <text id="Contracted-through-t" font-size="17" font-weight="normal" line-spacing="28" fill="#313131">
                    <tspan x="12" y="89">Contracted through the </tspan>
                    <tspan x="12" y="117">Marketplace since 29 August </tspan>
                    <tspan x="12" y="145">2016 *</tspan>
                </text>
                <text id="$2.95M-this-month" font-size="20" font-weight="bold" line-spacing="28" fill="#313131">
                    <tspan x="13" y="188">$2.95M this month</tspan>
                </text>
                <polyline id="Shape" stroke="url(#linearGradient-2)" stroke-width="3" stroke-linecap="round" points="170 66 173.033389 66 174.045515 65.5180723 175.056146 58.7337349 176.066777 58.7337349 177.078904 58.7337349 178.089535 58.3108434 180.112292 58.3108434 181.122924 57.7373494 182.13505 56.5963855 183.145681 56.2349398 184.157807 56.2349398 185.168439 55.6240964 187.191196 55.6240964 188.201827 49.1987952 189.213953 49.0783133 190.224585 47.6795181 191.235216 47.6795181 192.247342 47.3445783 194.2701 47.3445783 195.280731 47.113253 196.292857 47.113253 197.303488 46.6686747 199.326246 46.3662651 200.336877 46.3662651 203.370266 46.2927711 204.382392 41.6891566 205.393023 41.1903614 206.40515 41.0445783 209.438538 41.0445783 210.449169 40.4662651 211.461296 35.5578313 212.471927 35.1951807 217.528073 35.1951807 218.538704 34.6457831 219.550831 34.0987952 220.561462 32.9554217 223.59485 32.9554217 224.606977 32.4638554 225.617608 32.1975904 226.629734 31.7831325 232.696512 31.7831325 233.707143 30.0542169 234.719269 29.4746988 235.7299 29.4746988 238.764784 29.4746988 239.775415 28.8783133 240.786047 28.6072289 241.798173 28.6072289 243.82093 28.6072289 244.831561 28.139759 245.842193 28.139759 246.854319 25.0506024 247.86495 23.6759036 248.877076 23.6759036 250.898339 23.6759036 251.910465 23.4506024 252.921096 22.5746988 253.933223 22.5746988 254.943854 21.8481928 255.954485 21.3855422 258.989369 21.3855422 260 21"></polyline>
            </g>
        </g>
    </g>
</svg>
