<?xml version="1.0" encoding="UTF-8" standalone="no"?>
<svg font-family='-apple-system, BlinkMacSystemFont, "Segoe UI", Roboto, Helvetica, Arial, sans-serif, "Apple Color Emoji", "Segoe UI Emoji", "Segoe UI Symbol"' width="274px" height="343px" viewBox="0 0 274 343" version="1.1" xmlns="http://www.w3.org/2000/svg" xmlns:xlink="http://www.w3.org/1999/xlink" style="background: #FFFFFF;">
    <!-- Generator: Sketch 48.2 (47327) - http://www.bohemiancoding.com/sketch -->
    <title>767 seller bids per role</title>
    <desc>Created with Sketch.</desc>
    <defs></defs>
    <g id="Symbols" stroke="none" stroke-width="1" fill="none" fill-rule="evenodd">
        <g id="767-seller-bids-per-role">
            <text id="Daily-rates-sellers" font-size="17" font-weight="normal" line-spacing="26" fill="#313131">
                <tspan x="26.5666504" y="14">Daily rates sellers have bid for </tspan>
                <tspan x="81.9536133" y="40">specialist roles</tspan>
            </text>
            <g id="Group-9" transform="translate(146.000000, 72.000000)">
                <g id="Group-22" transform="translate(0.000000, 165.000000)">
                    <polygon id="Shape" fill="#8BBBC6" fill-rule="nonzero" points="0.0501037344 6.22301136 3.95165975 6.70681818 4.15643154 6.75113636 7.85321577 7.87386364 8.05798755 7.94772727 15.4493776 10.3519886 15.6541494 10.4036932 23.2503112 12.0434659 23.455083 12.0619318 26.7401452 12.0360795 26.9470954 12.0176136 35.5692946 11.5005682 35.7740664 11.4857955 39.4708506 10.8838068 39.6756224 10.8321023 43.3702282 9.55795455 43.5771784 9.47301136 49.3260373 7.33096591 49.5308091 7.27926136 53.0206432 6.73636364 53.2254149 6.71789773 59.1790456 6.44829545 59.3859959 6.44460227 61.2332988 6.02357955 61.4380705 5.83892045 61.2332988 5.83522727 53.2254149 5.52869318 53.0206432 5.51022727 49.5308091 4.96363636 49.3260373 4.91193182 43.5771784 2.76988636 43.3702282 2.68494318 39.6756224 1.41079545 39.4708506 1.35909091 35.9788382 0.775568182 35.7740664 0.760795455 26.9470954 0.225284091 26.7401452 0.206818182 23.455083 0.180965909 23.2503112 0.199431818 15.6541494 1.83920455 15.4493776 1.89090909 8.05798755 4.29517045 7.85321577 4.37272727 4.56815353 5.39573864 4.36338174 5.44744318 0.0501037344 6.02357955"></polygon>
                    <polyline id="Shape" stroke="#0C788E" stroke-width="2" stroke-linecap="round" points="0.0501037344 6.02357955 4.36338174 5.44744318 4.56815353 5.39573864 7.85321577 4.37272727 8.05798755 4.29517045 15.4493776 1.89090909 15.6541494 1.83920455 23.2503112 0.199431818 23.455083 0.180965909 26.7401452 0.206818182 26.9470954 0.225284091 35.7740664 0.760795455 35.9788382 0.775568182 39.4708506 1.35909091 39.6756224 1.41079545 43.3702282 2.68494318 43.5771784 2.76988636 49.3260373 4.91193182 49.5308091 4.96363636 53.0206432 5.51022727 53.2254149 5.52869318 72.6098923 5.86463435"></polyline>
                    <polyline id="Shape" stroke="#0C788E" stroke-width="2" stroke-linecap="round" points="0.1793735 6.04322139 3.90479651 6.32618159 4.10973837 6.37468905 7.80959302 7.60354478 8.01453488 7.68439055 15.412064 10.3159204 15.6170058 10.3725124 23.2194767 12.1672886 23.4244186 12.1875 26.7122093 12.159204 26.9193314 12.1389925 35.5486919 11.5730721 35.7536337 11.556903 39.4534884 10.89801 39.6584302 10.8414179 43.3561047 9.44682836 43.5632267 9.35385572 49.3168605 7.00932836 49.5218023 6.95273632 53.0145349 6.3585199 53.2194767 6.33830846 72.6216974 5.91642921"></polyline>
                </g>
                <g id="Group-23" transform="translate(6.000000, 132.000000)">
                    <polygon id="Shape" fill="#8BBBC6" fill-rule="nonzero" points="2.91601562 6.44647059 8.01161826 6.72176471 15.4030083 7.55147059 15.6077801 7.58205882 23.6156639 9.05794118 23.8204357 9.1 33.2639004 10.9429412 33.4708506 10.9697059 46.6089212 12.6520588 50.715249 12.3729412 50.9221992 12.3423529 72.4798755 9.32176471 72.6846473 9.27588235 81.1020747 7.51323529 81.3068465 7.48264706 87.4674274 6.96264706 90.5455394 6.03352941 83.5658714 5.67411765 70.4256224 3.13911765 70.2208506 3.09705882 63.4459544 2.17941176 50.9221992 0.546764706 50.715249 0.52 46.8158714 0.237058824 33.6756224 1.89264706 33.4708506 1.91941176 23.8204357 3.79294118 23.6156639 3.835 15.6077801 5.31088235 15.4030083 5.34147059 8.21639004 6.15588235"></polygon>
                    <polyline id="Shape" stroke="#0C788E" stroke-width="2" stroke-linecap="round" points="0.516356945 6.31719769 8.01161826 6.16735294 15.4030083 5.34147059 15.6077801 5.31088235 23.6156639 3.835 23.8204357 3.79294118 33.4708506 1.91941176 33.6756224 1.89264706 46.6089212 0.237058824 50.715249 0.52 50.9221992 0.546764706 63.2390041 2.16029412 63.4459544 2.17941176 70.2208506 3.09705882 70.4256224 3.13911765 83.3610996 5.655 83.5658714 5.67411765 90.3407676 6.02588235 98.9629668 6.22852941"></polyline>
                    <polyline id="Shape" stroke="#0C788E" stroke-width="2" stroke-linecap="round" points="0.344376763 6.63084457 7.97311047 6.78817734 8.17805233 6.80418719 15.3706395 7.65671182 15.5755814 7.68873153 23.5901163 9.23368227 23.7950581 9.27770936 33.2463663 11.2068966 33.4534884 11.2349138 46.6024709 12.9959975 50.7122093 12.7038177 50.9193314 12.671798 72.4949128 9.50985222 72.6998547 9.46182266 81.1242733 7.61668719 81.3292151 7.58466749 87.4949128 7.04033251 99 6.72814039"></polyline>
                </g>
                <g id="Group-24" transform="translate(0.000000, 101.000000)">
                    <polygon id="Shape" fill="#8BBBC6" fill-rule="nonzero" points="0.0501037344 6.91294118 8.05798755 7.78852941 8.26275934 7.81911765 16.2706432 9.29117647 16.4754149 9.33705882 24.2763485 11.3673529 24.4832988 11.4208824 29.2039419 12.4723529 29.4108921 12.5029412 32.9007261 12.7629412 37.2118257 12.4914706 48.9143154 11.4055882 55.6892116 10.8741176 62.0545643 9.77676471 62.2593361 9.73470588 74.3735477 7.70058824 81.3532158 7.33352941 99.2758789 6.55544118 79.5059129 5.70470588 72.9357884 5.26117647 64.7231328 3.86558824 64.518361 3.82352941 57.126971 2.43941176 56.9221992 2.40882353 49.1190871 1.71294118 38.2378631 0.741764706 33.7219917 0.355588235 29.4108921 0.604117647 29.2039419 0.634705882 24.4832988 1.68617647 24.2763485 1.73970588 16.4754149 3.77 16.2706432 3.81588235 8.26275934 5.28794118 8.05798755 5.31852941 0.0501037344 6.19411765"></polygon>
                    <polyline id="Shape" stroke="#0C788E" stroke-width="2" stroke-linecap="round" points="0.0501037344 6.19411765 8.05798755 5.31852941 8.26275934 5.28794118 16.2706432 3.81588235 16.4754149 3.77 24.2763485 1.73970588 24.4832988 1.68617647 29.2039419 0.634705882 29.4108921 0.604117647 33.5172199 0.347941176 38.0330913 0.715 38.2378631 0.741764706 48.9143154 1.70529412 56.9221992 2.40882353 57.126971 2.43941176 64.518361 3.82352941 64.7231328 3.86558824 72.7310166 5.23441176 72.9357884 5.26117647 79.3011411 5.69705882 102.131348 6.65551758"></polyline>
                    <polyline id="Shape" stroke="#0C788E" stroke-width="2" stroke-linecap="round" points="0 6.79600749 8.01453488 7.72457891 8.21947674 7.75701809 16.2340116 9.31815346 16.4389535 9.36681223 24.2463663 11.5199626 24.4534884 11.5767311 29.1780523 12.6918278 29.3851744 12.724267 32.877907 13 37.1925872 12.7121023 37.3975291 12.683718 48.9047965 11.5605115 55.6853198 10.9968808 55.8902616 10.9684966 62.0559593 9.83312539 62.2609012 9.78852152 74.3851744 7.63131628 74.5901163 7.6110418 81.3706395 7.24204616 95.118717 6.80960141 102.205112 6.58756974"></polyline>
                </g>
                <g id="Group-25" transform="translate(0.000000, 68.000000)">
                    <polygon id="Shape" fill="#8BBBC6" fill-rule="nonzero" points="7.44149378 6.78125745 16.4754149 8.06996678 16.6801867 8.11253676 20.5817427 9.19613619 20.7865145 9.26966615 28.3826763 11.8548248 28.5896266 11.8896548 31.8746888 12.1218547 38.0330913 12.5088545 41.3181535 12.5591644 41.5229253 12.5320745 43.986722 11.8973948 44.1914938 11.8238648 50.3520747 9.76502589 50.5568465 9.71858592 56.715249 8.72399644 64.7231328 8.00417681 64.9279046 7.97321683 68.8294606 7.58621703 74.3735477 7.09859728 74.5783195 7.0637673 79.9154564 6.42908763 88.9493776 6.37877766 81.3532158 6.31685769 65.9539419 4.87721844 65.7491701 4.85012846 56.9221992 3.9909889 50.5568465 2.98091943 50.3520747 2.93447945 44.1914938 0.875640526 43.986722 0.802110564 41.5229253 0.167430895 41.3181535 0.140340909 38.2378631 0.167430895 32.6959544 0.569910685 28.9991701 0.751800591 28.7943983 0.778890576 19.7604772 3.78200901 19.5557054 3.84779898 14.628112 4.9546184 14.4233402 4.98557838 6.41545643 6.02660784 0.0501037344 6.33233768"></polygon>
                    <polyline id="Shape" stroke="#17788D" stroke-width="2" stroke-linecap="round" points="0.0501037344 6.04943182 6.21068465 5.77613636 6.41545643 5.75767045 14.4233402 4.76420455 14.628112 4.73465909 19.5557054 3.67840909 19.7604772 3.615625 28.7943983 0.749715909 28.9991701 0.723863636 32.4890041 0.550284091 38.0330913 0.184659091 38.2378631 0.166193182 41.3181535 0.140340909 41.5229253 0.166193182 43.986722 0.771875 44.1914938 0.842045455 50.3520747 2.80681818 50.5568465 2.85113636 56.715249 3.80028409 56.9221992 3.81505682 65.7491701 4.63494318 65.9539419 4.66079545 81.148444 6.03096591 88.3152032 6.55675241"></polyline>
                    <polyline id="Shape" stroke="#17788D" stroke-width="2" stroke-linecap="round" points="0 6.51215711 7.39752907 6.94981297 7.60247093 6.97412718 16.4389535 8.29925187 16.6438953 8.34382793 20.5486919 9.47849127 20.7536337 9.55548628 28.3561047 12.2624688 28.5632267 12.2989401 31.8510174 12.5420823 38.0145349 12.9473192 38.2194767 12.9716334 41.3023256 13 41.5072674 12.9716334 43.9731105 12.3070449 44.1780523 12.2300499 50.34375 10.0741895 50.5486919 10.0255611 56.7122093 8.98410224 56.9193314 8.9638404 64.7267442 8.2303616 64.931686 8.19794264 68.8364826 7.79270574 74.3851744 7.28210723 74.5901163 7.24563591 79.931686 6.58104738 88.9731105 6.52836658"></polyline>
                </g>
                <g id="Group-26" transform="translate(0.000000, 34.000000)">
                    <polygon id="Shape" fill="#8BBBC6" fill-rule="nonzero" points="0.0501037344 6.64662493 9.90529046 7.12253318 10.1100622 7.14236269 16.2706432 8.1338382 16.4754149 8.17746312 26.3306017 10.572868 26.5353734 10.6204588 34.9528008 12.2782058 35.1575726 12.309933 41.5229253 12.9920682 41.7276971 13 47.476556 12.9405115 47.6835062 12.9286138 57.7434647 12.0521494 57.9482365 12.0323199 67.1869295 10.6839132 67.3917012 10.6442542 82.7909751 7.7412139 82.9957469 7.72138439 90.3871369 7.43583944 90.5919087 7.43583944 104.962967 6.93613578 104.962967 6.28572785 93.2604772 5.81775141 93.0557054 5.8137855 85.2547718 5.65118352 85.0478216 5.63928582 80.1202282 5.17130937 79.9154564 5.14354806 70.6767635 3.2795741 70.4719917 3.23594918 62.4641079 1.7249405 62.2593361 1.69717919 47.6835062 0.289283964 47.476556 0.277386258 41.7276971 0.217897727 41.5229253 0.229795433 35.1575726 0.907964682 34.9528008 0.939691898 26.5353734 2.59743895 26.3306017 2.64899568 16.4754149 5.04043461 16.2706432 5.08405953 10.1100622 6.07553504 9.90529046 6.09933045 0.0501037344 6.57127279"></polygon>
                    <polyline id="Shape" stroke="#17788D" stroke-width="2" stroke-linecap="round" points="0.0501037344 6.134375 9.90529046 5.69488636 10.1100622 5.67272727 16.2706432 4.74943182 16.4754149 4.70880682 26.3306017 2.48181818 26.5353734 2.43380682 34.9528008 0.890056818 35.1575726 0.860511364 41.5229253 0.228977273 41.7276971 0.217897727 47.476556 0.273295455 47.6835062 0.284375 62.2593361 1.59545455 62.4641079 1.62130682 70.4719917 3.02840909 70.6767635 3.06903409 79.9154564 4.80482955 80.1202282 4.83068182 85.0478216 5.26647727 85.2547718 5.27755682 93.0557054 5.42897727 93.2604772 5.43267045 104.962967 5.86846591"></polyline>
                    <path d="M0,6.5 L9.86337209,6.98689139 L10.068314,7.00717853 L16.2340116,8.02153558 L16.4389535,8.06616729 L26.3023256,10.5168539 L26.5072674,10.5655431 L34.931686,12.2615481 L35.1366279,12.2940075 L41.5072674,12.9918851 L47.465843,12.9391386 L57.7412791,12.0302747 L57.9462209,12.0099875 L67.1925872,10.6304619 L67.3975291,10.5898876 L82.809593,7.61985019 L83.0145349,7.59956305 L90.412064,7.30742821 L105,6.79619226 C105.205836,6.77483048 105.308754,6.62021317 105.308754,6.33234034 C105.308754,6.0444675 105.17952,5.89390139 104.921053,5.880642" id="Shape" stroke="#17788D" stroke-width="2" stroke-linecap="round"></path>
                </g>
                <g id="Group-27" transform="translate(3.000000, 0.000000)">
                    <polygon id="Shape" fill="#8BBBC6" fill-rule="nonzero" points="2.06665279 6.49617647 7.31701245 6.77147059 13.8871369 7.64323529 14.0919087 7.68529412 19.4290456 8.96617647 19.6338174 9.02735294 27.6417012 11.5164706 27.846473 11.5585294 35.4426349 12.7055882 38.5229253 12.3652941 38.7276971 12.3232353 44.888278 11.3061765 48.7876556 10.6676471 48.9946058 10.6179412 53.715249 9.75382353 59.2593361 9.165 59.4641079 9.11911765 65.4177386 8.04088235 71.9878631 7.18441176 72.1948133 7.14617647 76.3011411 6.64911765 83.4855809 6.52294118 83.6903527 6.46941176 76.5059129 6.35470588 71.3735477 5.69323529 71.1665975 5.655 65.6246888 4.96676471 59.8758299 3.965 59.6710581 3.91529412 53.9221992 3.25382353 48.9946058 2.37441176 48.7876556 2.32470588 45.0930498 1.70529412 38.9346473 0.711176471 38.7276971 0.669117647 35.6495851 0.286764706 27.4369295 1.51411765 27.2321577 1.55617647 20.455083 3.69352941 20.2503112 3.76235294 14.2966805 5.26882353 14.0919087 5.30705882 7.52178423 6.20558824"></polygon>
                    <polyline id="Shape" stroke="#17788D" stroke-width="2" stroke-linecap="round" points="0.230462946 6.41089918 7.31701245 6.22088235 7.52178423 6.20558824 14.0919087 5.30705882 14.2966805 5.26882353 20.2503112 3.76235294 20.455083 3.69352941 27.2321577 1.55617647 27.4369295 1.51411765 35.4426349 0.286764706 38.7276971 0.669117647 38.9346473 0.711176471 44.888278 1.68617647 45.0930498 1.70529412 48.7876556 2.32470588 48.9946058 2.37441176 53.715249 3.23852941 53.9221992 3.25382353 59.6710581 3.91529412 59.8758299 3.965 65.4177386 4.95147059 65.6246888 4.96676471 71.1665975 5.655 71.3735477 5.69323529 76.3011411 6.34323529 83.4855809 6.46941176"></polyline>
                    <polyline id="Shape" stroke="#17788D" stroke-width="2" stroke-linecap="round" points="0.444175662 6.59659282 7.27543605 6.78817734 7.48037791 6.80418719 13.8510174 7.70073892 14.0559593 7.74476601 19.3975291 9.08559113 19.6024709 9.14963054 27.6170058 11.755234 27.8219477 11.7992611 35.4244186 13 38.5072674 12.6437808 38.7122093 12.5997537 44.877907 11.5350985 45.0828488 11.5150862 48.7805233 10.8666872 48.9876453 10.8146552 53.7122093 9.91009852 53.9193314 9.89008621 59.2609012 9.29371921 59.465843 9.24568966 65.4244186 8.11699507 65.6315407 8.10098522 72 7.22044335 72.2071221 7.18041872 76.3168605 6.66009852 83.5072674 6.52801724"></polyline>
                </g>
                <g id="Group-17" transform="translate(3.000000, 197.000000)">
                    <polygon id="Shape" fill="#8BBBC6" fill-rule="nonzero" points="1.7265625 5.92363636 7.31701245 6.19272727 7.52178423 6.21454545 12.6541494 7.02545455 12.8589212 7.05818182 15.9392116 7.21818182 21.2763485 7.13090909 21.4832988 7.16 23.9470954 7.84727273 24.1518672 7.92727273 33.1857884 11.5636364 33.3905602 11.6072727 35.8543568 11.8290909 38.7276971 11.6 38.9346473 11.5527273 41.1914938 10.7381818 41.398444 10.6472727 44.6835062 9.39272727 44.888278 9.33818182 52.6892116 7.66181818 52.8939834 7.62545455 60.2853734 6.71272727 77.2899306 5.85818182 74.4516598 5.85818182 59.4641079 5.08363636 52.8939834 4.22181818 52.6892116 4.18909091 45.0930498 2.56 44.888278 2.50909091 42.2197095 1.57090909 42.0127593 1.48 39.3441909 0.403636364 39.1394191 0.345454545 36.0591286 0.0181818182 33.1857884 0.283636364 32.9788382 0.330909091 29.2842324 1.63272727 29.0794606 1.72 23.9470954 4 23.7401452 4.08 21.2763485 4.72 21.0715768 4.74909091 16.1439834 4.64363636 12.8589212 4.79272727 12.6541494 4.82545455 7.52178423 5.63636364 7.31701245 5.65818182"></polygon>
                    <polyline id="Shape" stroke="#0C788E" stroke-width="2" stroke-linecap="round" points="1.30208333 5.92363636 7.31701245 5.65818182 7.52178423 5.63636364 12.6541494 4.82545455 12.8589212 4.79272727 15.9392116 4.63272727 21.0715768 4.74909091 21.2763485 4.72 23.7401452 4.08 23.9470954 4 29.0794606 1.72 29.2842324 1.63272727 32.9788382 0.330909091 33.1857884 0.283636364 35.8543568 0.0218181818 39.1394191 0.345454545 39.3441909 0.403636364 42.0127593 1.48 42.2197095 1.57090909 44.888278 2.50909091 45.0930498 2.56 52.6892116 4.18909091 52.8939834 4.22181818 59.2593361 5.06909091 59.4641079 5.08363636 74.246888 5.85090909"></polyline>
                    <polyline id="Shape" stroke="#0C788E" stroke-width="2" stroke-linecap="round" points="0.98828125 5.91527094 7.27543605 5.89162562 7.48037791 5.91527094 12.6170058 6.79408867 12.8219477 6.82955665 15.9047965 7.00295567 16.1097384 6.98719212 21.2463663 6.90837438 21.4534884 6.93990148 23.9193314 7.68472906 24.1242733 7.77142857 33.1656977 11.7123153 33.3706395 11.7596059 35.8364826 12 38.7122093 11.7517241 38.9193314 11.7004926 41.1780523 10.817734 41.3851744 10.7192118 44.6729651 9.35960591 44.877907 9.30049261 52.6853198 7.48374384 52.8902616 7.44433498 60.2877907 6.45517241 60.4949128 6.43940887 76.8087793 5.78231242"></polyline>
                </g>
            </g>
            <text id="Daily-rate-inc-GST" font-size="14" font-weight="bold" fill="#224A61">
                <tspan x="79" y="340">Daily rate inc GST</tspan>
            </text>
            <g id="Group-14" transform="translate(134.000000, 291.000000)">
                <path d="M0,0 L137.361111,0" id="Shape-Copy" stroke="#BBBBBB" fill-opacity="0.300000012" fill="#001F5F" fill-rule="nonzero"></path>
                <text id="1000-copy" fill="#444444" font-size="7" font-weight="normal">
                    <tspan x="36.5" y="18">1000</tspan>
                </text>
                <text id="2000-copy" fill="#444444" font-size="7" font-weight="normal">
                    <tspan x="81.2222222" y="18">2000</tspan>
                </text>
                <text id="3000-copy" fill="#444444" font-size="7" font-weight="normal">
                    <tspan x="122.75" y="19">3000</tspan>
                </text>
            </g>
            <g id="Group-8" transform="translate(0.000000, 61.000000)" fill="#224A61" font-size="11" font-weight="normal">
                <g id="Group-3" transform="translate(1.000000, 0.000000)">
                    <text id="User-research-and-de">
                        <tspan x="27.5316287" y="12">User research and </tspan>
                        <tspan x="87.7308474" y="27">design</tspan>
                    </text>
                </g>
                <g id="Group-7" transform="translate(0.000000, 71.000000)">
                    <text id="Software-engineering">
                        <tspan x="12.6391602" y="12">Software engineering </tspan>
                        <tspan x="31.7333984" y="27">and development</tspan>
                    </text>
                </g>
                <g id="Group-7-Copy" transform="translate(0.000000, 40.000000)">
                    <text id="Strategy-and-policy">
                        <tspan x="24.7939453" y="12">Strategy and policy</tspan>
                    </text>
                </g>
                <g id="Group-4" transform="translate(0.000000, 109.000000)">
                    <text id="Data-science">
                        <tspan x="57.4072266" y="12">Data science</tspan>
                    </text>
                </g>
                <g id="Group-5" transform="translate(1.000000, 139.000000)">
                    <text id="Cyber-security">
                        <tspan x="49.1518555" y="12">Cyber security</tspan>
                    </text>
                </g>
                <text id="Content-and-publishi">
                    <tspan x="2.29443359" y="181">Content and publishing</tspan>
                </text>
                <g id="Group-6" transform="translate(1.000000, 198.000000)">
                    <text id="Agile-delivery-and-g">
                        <tspan x="31.2108279" y="12">Agile delivery and </tspan>
                        <tspan x="61.5789919" y="27">governance</tspan>
                    </text>
                </g>
            </g>
        </g>
    </g>
</svg>