<?xml version="1.0" encoding="UTF-8" standalone="no"?>
<svg font-family='-apple-system, BlinkMacSystemFont, "Segoe UI", Roboto, Helvetica, Arial, sans-serif, "Apple Color Emoji", "Segoe UI Emoji", "Segoe UI Symbol"' width="272px" height="339px" viewBox="0 0 272 339" version="1.1" xmlns="http://www.w3.org/2000/svg" xmlns:xlink="http://www.w3.org/1999/xlink">
    <!-- Generator: Sketch 47.1 (45422) - http://www.bohemiancoding.com/sketch -->
    <title>767 seller bids per role</title>
    <desc>Created with Sketch.</desc>
    <defs></defs>
    <g id="Mocks" stroke="none" stroke-width="1" fill="none" fill-rule="evenodd">
        <g id="Nov-monthly-report-less-than-767px" transform="translate(-26.000000, -3031.000000)">
            <g id="767-seller-bids-per-role" transform="translate(24.000000, 3027.000000)">
                <text id="Daily-rates-sellers"  font-size="17" font-weight="normal" line-spacing="26" fill="#313131">
                    <tspan x="26.5666504" y="20">Daily rates sellers have bid for </tspan>
                    <tspan x="81.9536133" y="40">specialist roles</tspan>
                </text>
                <text id="Daily-rate-inc-GST"  font-size="14" font-weight="bold" fill="#224A61">
                    <tspan x="79" y="340">Daily rate inc GST</tspan>
                </text>
                <g id="Group-14" stroke-width="1" fill-rule="evenodd" transform="translate(134.000000, 291.000000)">
                    <path d="M0,0 L137.361111,0" id="Shape-Copy" stroke="#BBBBBB" fill-opacity="0.300000012" fill="#001F5F" fill-rule="nonzero"></path>
                    <text id="1000-copy" fill="#444444"  font-size="7" font-weight="normal">
                        <tspan x="36.5" y="18">1000</tspan>
                    </text>
                    <text id="2000-copy" fill="#444444"  font-size="7" font-weight="normal">
                        <tspan x="81.2222222" y="18">2000</tspan>
                    </text>
                    <text id="3000-copy" fill="#444444"  font-size="7" font-weight="normal">
                        <tspan x="122.75" y="19">3000</tspan>
                    </text>
                </g>
                <g id="Group-8" stroke-width="1" fill-rule="evenodd" transform="translate(0.000000, 61.000000)" font-size="11"  fill="#224A61" font-weight="normal">
                    <g id="Group-3" transform="translate(1.000000, 0.000000)">
                        <text id="User-research-and-de">
                            <tspan x="27.5316287" y="12">User research and </tspan>
                            <tspan x="87.7308474" y="27">design</tspan>
                        </text>
                    </g>
                    <g id="Group-7" transform="translate(0.000000, 71.000000)">
                        <text id="Software-engineering">
                            <tspan x="12.6391602" y="12">Software engineering </tspan>
                            <tspan x="31.7333984" y="27">and development</tspan>
                        </text>
                    </g>
                    <g id="Group-7-Copy" transform="translate(0.000000, 40.000000)">
                        <text id="Strategy-and-policy">
                            <tspan x="24.7939453" y="12">Strategy and policy</tspan>
                        </text>
                    </g>
                    <g id="Group-4" transform="translate(0.000000, 109.000000)">
                        <text id="Data-science">
                            <tspan x="57.4072266" y="12">Data science</tspan>
                        </text>
                    </g>
                    <g id="Group-5" transform="translate(1.000000, 139.000000)">
                        <text id="Cyber-security">
                            <tspan x="49.1518555" y="12">Cyber security</tspan>
                        </text>
                    </g>
                    <text id="Content-and-publishi">
                        <tspan x="2.29443359" y="181">Content and publishing</tspan>
                    </text>
                    <g id="Group-6" transform="translate(1.000000, 198.000000)">
                        <text id="Agile-delivery-and-g">
                            <tspan x="31.2108279" y="12">Agile delivery and </tspan>
                            <tspan x="61.5789919" y="27">governance</tspan>
                        </text>
                    </g>
                </g>
                <g id="Group-2" stroke-width="1" fill-rule="evenodd" transform="translate(149.000000, 73.000000)">
                    <g id="Group-11" transform="translate(7.000000, 0.000000)">
                        <polygon id="Shape" fill="#8BBBC6" fill-rule="nonzero" points="6.206607 5.69605841 3.82916678 5.94087571 10.464758 6.73049771 10.6715702 6.76497902 16.8935371 8.05113188 17.1003492 8.10630197 24.9790138 10.1510436 25.1880261 10.1820768 33.2735028 11.2958231 36.3844862 11.002732 36.5912984 10.9682507 42.1906286 10.292417 45.9220486 9.7338198 46.1288608 9.68554597 51.5213787 8.67179545 57.9501577 7.89596598 58.1569699 7.85458841 63.3404755 7.13737717 68.9398057 6.43051031 69.1466179 6.39258087 73.9164991 5.84087991 81.3793391 5.72364346 81.3377866 5.67536963 79.6788888 5.65468084 81.5883514 5.66847336 74.1233113 5.5615813 69.3534301 5.03401726 69.1466179 4.99608782 63.5472877 4.27198031 58.1569699 3.53752841 57.9501577 3.49615084 51.7281909 2.73756203 46.1288608 1.70657086 45.9220486 1.65829703 42.1906286 1.09625168 37.4207473 0.561791372 37.2139351 0.527310062 33.8961395 0.110086213 25.1880261 1.20659187 24.9790138 1.24107318 17.1003492 3.28581485 16.8935371 3.34098495 10.6715702 4.62713781 10.464758 4.66161912 4.03597897 5.43400046"></polygon>
                        <polyline id="Shape" stroke="#17788D" stroke-width="2" stroke-linecap="round" points="0.0411934668 5.69605841 3.82916678 5.44779298 4.03597897 5.43400046 10.464758 4.66161912 10.6715702 4.62713781 16.8935371 3.34098495 17.1003492 3.28581485 24.9790138 1.24107318 25.1880261 1.20659187 33.6893273 0.103189951 37.2139351 0.527310062 37.4207473 0.561791372 41.9838164 1.08245915 42.1906286 1.09625168 45.9220486 1.65829703 46.1288608 1.70657086 51.5213787 2.72032137 51.7281909 2.73756203 57.9501577 3.49615084 58.1569699 3.53752841 63.3404755 4.25473966 63.5472877 4.27198031 69.1466179 4.99608782 69.3534301 5.03401726 73.9164991 5.55123691 71.5146775 5.66847336 75.7728285 5.65123271 77.6385385 5.67536963"></polyline>
                        <polyline id="Shape" stroke="#17788D" stroke-width="2" stroke-linecap="round" points="0.0411934668 5.69605841 3.82916678 5.94087571 4.03597897 5.95811637 10.464758 6.73049771 10.6715702 6.76497902 16.8935371 8.05113188 17.1003492 8.10630197 24.9790138 10.1510436 25.1880261 10.1820768 33.2735028 11.2958231 36.3844862 11.002732 36.5912984 10.9682507 42.1906286 10.292417 42.3974408 10.2751764 45.9220486 9.7338198 46.1288608 9.68554597 51.5213787 8.67179545 51.7281909 8.6545548 57.9501577 7.89596598 58.1569699 7.85458841 63.3404755 7.13737717 63.5472877 7.12013651 68.9398057 6.43051031 69.1466179 6.39258087 73.9164991 5.84087991 75.2139256 5.72364346 81.3377866 5.7167472"></polyline>
                    </g>
                    <g id="Group-19-Copy" transform="translate(0.000000, 68.000000)">
                        <polygon id="Shape" fill="#8BBBC6" fill-rule="nonzero" points="8.58651305 6.28770009 15.8821417 7.16206326 16.0900196 7.20100251 20.0507564 8.12492473 20.2586343 8.18864351 25.6789392 10.1179064 25.886817 10.188705 28.8037416 10.9356306 29.0138309 10.96749 32.3487227 11.1657262 37.3488489 11.4913999 37.5589383 11.5161795 41.1017079 11.746275 43.6028767 11.3073235 43.8107546 11.2436047 52.1479841 8.74087288 52.3558619 8.6983937 57.7761668 7.91606875 65.069584 7.57623529 65.2796733 7.54791584 70.0719217 7.14082367 74.8663815 6.81161001 75.0742593 6.77975062 81.3260757 6.07530418 84.2959297 6.03990486 71.489723 6.04344479 87.9540926 6.01866527 82.9963461 6.01512533 76.9078164 5.9443267 71.7421921 5.9443267 81.536165 5.96556629 75.0742593 5.25050005 74.8663815 5.22218059 70.9056446 4.90712666 66.529152 4.65225156 66.3212741 4.62747204 57.5660775 4.10710205 51.3142611 3.11946106 51.1063833 3.07698188 44.2287218 0.921163362 44.0186325 0.853904656 41.5174636 0.315835011 36.9330932 0.595489629 36.7252153 0.620269153 32.1386334 0.868064384 28.8037416 1.09815996 28.5958637 1.13355927 24.427249 2.36191564 24.2193711 2.43979414 19.6350007 4.02922355 19.4249113 4.08586246 14.8405409 5.04164407 14.632663 5.07350345 8.79660239 5.72839085 0.0414057313 6.0115854"></polygon>
                        <polyline id="Shape" stroke="#17788D" stroke-width="2" stroke-linecap="round" points="0.0414057313 6.0115854 8.58651305 5.74609051 8.79660239 5.72839085 14.632663 5.07350345 14.8405409 5.04164407 19.4249113 4.08586246 19.6350007 4.02922355 24.2193711 2.43979414 24.427249 2.36191564 28.5958637 1.13355927 28.8037416 1.09815996 31.9307555 0.871604316 36.7252153 0.620269153 36.9330932 0.595489629 41.3095858 0.298135352 41.5174636 0.315835011 44.0186325 0.853904656 44.2287218 0.921163362 51.1063833 3.07698188 51.3142611 3.11946106 57.3581996 4.09648226 57.5660775 4.10710205 66.3212741 4.62747204 66.529152 4.65225156 70.6977667 4.90358672 74.8663815 5.22218059 75.0742593 5.25050005 81.3260757 5.95494649 81.536165 5.96556629 87.8548682 5.9443267 84.9641545 5.9443267 87.3343743 6.01512533"></polyline>
                        <polyline id="Shape" stroke="#17788D" stroke-width="2" stroke-linecap="round" points="0.0414057313 6.0222052 8.58651305 6.28770009 8.79660239 6.30185982 15.8821417 7.16206326 16.0900196 7.20100251 20.0507564 8.12492473 20.2586343 8.18864351 25.6789392 10.1179064 25.886817 10.188705 28.8037416 10.9356306 29.0138309 10.96749 32.3487227 11.1657262 37.3488489 11.4913999 37.5589383 11.5161795 41.1017079 11.746275 41.3095858 11.7321153 43.6028767 11.3073235 43.8107546 11.2436047 52.1479841 8.74087288 52.3558619 8.6983937 57.7761668 7.91606875 57.9840447 7.90544896 65.069584 7.57623529 65.2796733 7.54791584 70.0719217 7.14082367 74.8663815 6.81161001 75.0742593 6.77975062 81.3260757 6.07530418 83.6762114 6.03990486 87.9540926 6.01866527"></polyline>
                    </g>
                    <g id="Group-20-Copy" transform="translate(0.000000, 100.000000)">
                        <polygon id="Shape" fill="#8BBBC6" fill-rule="nonzero" points="0.041758621 6.03798114 8.03074489 6.82262448 8.24039445 6.85077312 19.1711654 8.57839592 19.380815 8.6171003 30.311586 10.3763903 35.3565572 10.5558379 44.3937913 10.6508396 54.4837337 11.4706687 58.2685773 11.0273276 58.4782269 10.9886232 63.7328477 9.66563715 63.9424972 9.60582129 73.1916111 7.37504155 73.4012607 7.33985575 78.4462319 6.7487343 88.3816237 5.921868 82.8628728 5.77760621 83.7037013 5.77760621 82.4537013 5.77408763 78.4490806 5.76001331 86.8545173 5.24278205 76.9764547 4.67629066 76.7645749 4.65517918 71.9314835 3.94442601 71.7196036 3.90220305 62.8920191 1.64679325 62.6823696 1.59049597 58.0566975 0.482143259 57.8470479 0.443438878 54.4837337 0.0810251346 44.6056712 0.879742803 37.667163 1.0380789 31.7835935 1.06270896 19.380815 2.93107496 19.1711654 2.96977934 6.55873737 4.9155541 6.34908782 4.94018416 0.041758621 5.51019413"></polygon>
                        <polyline id="Shape" stroke="#17788D" stroke-width="2" stroke-linecap="round" points="0.041758621 5.51019413 6.34908782 4.94018416 6.55873737 4.9155541 19.1711654 2.96977934 19.380815 2.93107496 31.5717137 1.07678328 31.7835935 1.06270896 37.4575134 1.03104174 44.3937913 0.897335703 44.6056712 0.879742803 54.2740842 0.0704693945 57.8470479 0.443438878 58.0566975 0.482143259 62.6823696 1.59049597 62.8920191 1.64679325 71.7196036 3.90220305 71.9314835 3.94442601 76.7645749 4.65517918 76.9764547 4.67629066 86.4504218 5.86711941 94.7059746 5.86711941"></polyline>
                        <polyline id="Shape" stroke="#17788D" stroke-width="2" stroke-linecap="round" points="0.041758621 6.03798114 8.03074489 6.82262448 8.24039445 6.85077312 19.1711654 8.57839592 19.380815 8.6171003 30.311586 10.3763903 30.5212356 10.3939832 35.3565572 10.5558379 44.3937913 10.6508396 44.6056712 10.6684325 54.4837337 11.4706687 58.2685773 11.0273276 58.4782269 10.9886232 63.7328477 9.66563715 63.9424972 9.60582129 73.1916111 7.37504155 73.4012607 7.33985575 78.4462319 6.7487343 78.6581118 6.73465998 94.6316237 5.921868"></polyline>
                    </g>
                    <g id="Group-21-Copy" transform="translate(10.000000, 132.000000)">
                        <polygon id="Shape" fill="#8BBBC6" fill-rule="nonzero" points="1.9112028 5.62911226 4.32943718 5.87737769 12.7133507 6.68424034 12.9223926 6.71182539 19.8385653 7.99797824 20.0476072 8.04625208 30.9466948 10.1909896 31.1557367 10.2185746 40.3780416 11.177155 44.9903059 11.14957 59.0316932 9.97030917 65.5297822 8.97724744 65.7388241 8.93586987 80.4095608 6.07736928 80.4667239 5.79462254 84.0842703 5.81875946 84.0842703 5.43946505 85.0218252 5.44291318 79.7824352 5.11189261 79.5711695 5.08775569 71.8166054 3.66367759 71.6075635 3.61540376 63.4326919 1.89133826 63.22365 1.85685695 50.0206541 0.518982132 43.731607 0.0500363174 38.492217 0.208650343 29.8992616 1.21205646 29.6902197 1.23964151 20.0476072 3.21197243 19.8385653 3.26024627 12.9223926 4.54639913 12.7133507 4.57398417 4.53847906 5.3670543"></polygon>
                        <polyline id="Shape" stroke="#17788D" stroke-width="2" stroke-linecap="round" points="0.0416375815 5.62911226 4.32943718 5.37739869 12.7133507 4.57398417 12.9223926 4.54639913 19.8385653 3.26024627 20.0476072 3.21197243 29.6902197 1.23964151 29.8992616 1.21205646 38.2831751 0.225890998 38.492217 0.208650343 43.5225651 0.0431400555 49.8093883 0.501741477 50.0206541 0.518982132 63.22365 1.85685695 63.4326919 1.89133826 71.6075635 3.61540376 71.8166054 3.66367759 79.5711695 5.08775569 79.7824352 5.11189261 84.8127833 5.43601692 85.9538355 5.43946505"></polyline>
                        <polyline id="Shape" stroke="#17788D" stroke-width="2" stroke-linecap="round" points="0.0416375815 5.62911226 4.32943718 5.87737769 4.53847906 5.89117021 12.7133507 6.68424034 12.9223926 6.71182539 19.8385653 7.99797824 20.0476072 8.04625208 30.9466948 10.1909896 31.1557367 10.2185746 40.3780416 11.177155 44.9903059 11.14957 45.1993478 11.1357774 59.0316932 9.97030917 59.2407351 9.94962038 65.5297822 8.97724744 65.7388241 8.93586987 80.4095608 6.07736928 80.6208266 6.0566805 84.2058543 5.79462254 85.9538355 5.81875946"></polyline>
                    </g>
                    <g id="Group-22-Copy" transform="translate(0.000000, 164.000000)">
                        <polygon id="Shape" fill="#8BBBC6" fill-rule="nonzero" points="0.0416010413 5.93344361 4.64981779 6.27004623 4.85867622 6.29839172 9.04695422 7.12749712 9.25581265 7.17710172 16.1659159 9.20026064 16.3769962 9.27112435 23.0760191 11.3119992 23.2870994 11.3509742 26.4266415 11.6308859 26.6377218 11.6344291 32.501311 11.2765673 32.7101695 11.2623946 38.5737587 10.6175348 38.7826171 10.5785598 43.1797535 9.41993814 43.3886119 9.35261761 50.5097955 7.0601766 50.7186539 7.02120156 54.4869932 6.56767382 54.6980735 6.54995789 65.376516 5.90155494 65.5875963 5.89801176 55.9916119 5.88029583 57.2368949 5.88029583 65.5875963 5.85903672 65.376516 5.85549353 55.5357291 5.28149748 55.3246488 5.26378155 50.9275123 4.77482196 50.7186539 4.7393901 43.3886119 2.40797405 43.1797535 2.33711034 38.7826171 1.17848868 38.5737587 1.13951364 31.2437167 0.39544469 31.0348583 0.377728762 26.4266415 0.126162592 26.2177831 0.129705778 23.0760191 0.445049287 22.8671607 0.484024327 17.8412271 1.98633498 17.6323687 2.05719869 10.7222654 4.19728272 10.513407 4.25397369 5.48747339 5.36653393 5.27639307 5.3984226 0.0416010413 5.82714805"></polygon>
                        <polyline id="Shape" stroke="#17788D" stroke-width="2" stroke-linecap="round" points="0.0416010413 5.82714805 5.27639307 5.3984226 5.48747339 5.36653393 10.513407 4.25397369 10.7222654 4.19728272 17.6323687 2.05719869 17.8412271 1.98633498 22.8671607 0.484024327 23.0760191 0.445049287 26.2177831 0.129705778 26.4266415 0.126162592 31.0348583 0.377728762 31.2437167 0.39544469 38.5737587 1.13951364 38.7826171 1.17848868 43.1797535 2.33711034 43.3886119 2.40797405 50.7186539 4.7393901 50.9275123 4.77482196 55.3246488 5.26378155 55.5357291 5.28149748 61.6406669 5.85549353 61.8517472 5.85903672 64.708593 5.88029583"></polyline>
                        <polyline id="Shape" stroke="#17788D" stroke-width="2" stroke-linecap="round" points="0.0416010413 5.93344361 4.64981779 6.27004623 4.85867622 6.29839172 9.04695422 7.12749712 9.25581265 7.17710172 16.1659159 9.20026064 16.3769962 9.27112435 23.0760191 11.3119992 23.2870994 11.3509742 26.4266415 11.6308859 26.6377218 11.6344291 32.501311 11.2765673 32.7101695 11.2623946 38.5737587 10.6175348 38.7826171 10.5785598 43.1797535 9.41993814 43.3886119 9.35261761 50.5097955 7.0601766 50.7186539 7.02120156 54.4869932 6.56767382 54.6980735 6.54995789 61.6406669 5.90155494 61.8517472 5.89801176 65.9538761 5.88029583"></polyline>
                    </g>
                    <g id="Group-23-Copy" transform="translate(0.000000, 196.000000)">
                        <polygon id="Shape" fill="#8BBBC6" fill-rule="nonzero" points="0.0415200003 5.94639684 10.2822572 6.2083518 10.4929263 6.22959139 14.8814969 6.92695797 15.0899485 6.96943716 18.2255921 7.36944946 25.3306857 7.29865082 25.5391372 7.34113 27.8387571 8.0738959 28.0472086 8.15885427 36.6158982 11.4403711 36.8265674 11.4863902 39.3346388 11.6952462 42.678734 11.3978919 42.8871856 11.344793 45.1868054 10.4244107 45.395257 10.3252926 48.3202315 9.25623315 48.5309006 9.21021403 59.6076616 7.20661259 59.8161132 7.17829314 64.4131353 6.72164192 82.805659 5.98887603 69.5539659 5.94639684 81.9825373 5.94639684 82.2350884 5.94285691 65.4598283 5.22071081 59.8161132 4.71804048 59.6076616 4.6861811 48.5309006 2.68611958 48.3202315 2.64010047 44.3507816 1.08607038 44.1401125 0.994032147 42.0511618 0.367464205 41.8427102 0.335604818 38.498615 0.215247134 36.1989951 0.558620526 35.9905436 0.615259436 28.4663293 3.56402269 28.2578778 3.64898106 25.5391372 4.55520362 25.3306857 4.5976828 18.4340437 4.52688416 15.0899485 4.92689646 14.8814969 4.96583571 10.4929263 5.66674223"></polygon>
                        <polyline id="Shape" stroke="#17788D" stroke-width="2" stroke-linecap="round" points="0.0415200003 5.94639684 10.2822572 5.68444188 10.4929263 5.66674223 14.8814969 4.96583571 15.0899485 4.92689646 18.2255921 4.52688416 25.3306857 4.5976828 25.5391372 4.55520362 28.2578778 3.64898106 28.4663293 3.56402269 35.9905436 0.615259436 36.1989951 0.558620526 38.2879458 0.22586693 38.498615 0.215247134 41.8427102 0.335604818 42.0511618 0.367464205 44.1401125 0.994032147 44.3507816 1.08607038 48.3202315 2.64010047 48.5309006 2.68611958 59.6076616 4.6861811 59.8161132 4.71804048 65.2491591 5.21009101 65.4598283 5.22071081 82.0244192 5.94285691 86.9539659 5.94639684"></polyline>
                        <polyline id="Shape" stroke="#17788D" stroke-width="2" stroke-linecap="round" points="0.0415200003 5.94639684 10.2822572 6.2083518 10.4929263 6.22959139 14.8814969 6.92695797 15.0899485 6.96943716 18.2255921 7.36944946 25.3306857 7.29865082 25.5391372 7.34113 27.8387571 8.0738959 28.0472086 8.15885427 36.6158982 11.4403711 36.8265674 11.4863902 39.3346388 11.6952462 42.678734 11.3978919 42.8871856 11.344793 45.1868054 10.4244107 45.395257 10.3252926 48.3202315 9.25623315 48.5309006 9.21021403 59.6076616 7.20661259 59.8161132 7.17829314 64.4131353 6.72164192 76.5913733 5.98887603 86.3325373 5.94639684"></polyline>
                    </g>
                    <g id="Group-20" transform="translate(19.000000, 33.000000)">
                        <g id="Group" transform="translate(0.267857, 0.338382)">
                            <polygon id="Shape" fill="#8BBBC6" fill-rule="nonzero" points="0.0513392857 5.92642939 7.17857143 6.19242712 12.015625 6.86628803 12.2276786 6.91239431 16.4352679 8.08633095 16.6450893 8.15726368 25.9017857 11.1116118 26.1116071 11.1506248 29.8973214 11.6152341 35.15625 11.6294207 42.3102679 11.0158526 42.5200893 10.9874795 48.2008929 9.86319578 48.4107143 9.80999623 60.8236607 7.05071313 61.0334821 7.02234003 65.8705357 6.63221003 71.5513393 6.79535531 79.5446429 6.96204722 88.8013393 6.2491733 88.8013393 5.60013885 79.7566964 4.89790484 73.234375 4.95819766 66.7120536 5.22774203 62.0848214 4.9617443 46.5178571 1.60307964 46.3080357 1.55697337 41.2589286 0.695140731 41.046875 0.66676764 34.5267857 0.198611637 29.6875 0.248264547 25.4799107 0.826366277 25.2700893 0.876019186 16.6450893 3.69559511 16.4352679 3.76652784 12.2276786 4.94046448 12.015625 4.98302412 7.17857143 5.65688503"></polygon>
                            <polyline id="Shape" stroke="#17788D" stroke-width="2" stroke-linecap="round" points="0.0513392857 5.92642939 6.96651786 5.67461821 7.17857143 5.65688503 12.015625 4.98302412 12.2276786 4.94046448 16.4352679 3.76652784 16.6450893 3.69559511 25.2700893 0.876019186 25.4799107 0.826366277 29.4776786 0.262451092 29.6875 0.248264547 34.3147321 0.195065001 41.046875 0.66676764 41.2589286 0.695140731 46.3080357 1.55697337 46.5178571 1.60307964 61.875 4.93691784 62.0848214 4.9617443 66.5022321 5.22774203 73.0245536 4.96883757 73.234375 4.95819766 79.5446429 4.88726493 79.7566964 4.89790484 88.8013393 5.60013885"></polyline>
                        </g>
                        <polyline id="Shape" stroke="#17788D" stroke-width="2" stroke-linecap="round" points="0.319196429 6.26481138 7.44642857 6.5308091 7.65625 6.54854229 12.2834821 7.20467002 12.4955357 7.25077629 16.703125 8.42471293 16.9129464 8.49564566 26.1696429 11.4499938 26.3794643 11.4890068 30.1651786 11.9536161 30.3772321 11.964256 35.4241071 11.9678027 42.578125 11.3542346 42.7879464 11.3258615 48.46875 10.2015778 48.6785714 10.1483782 61.0915179 7.38909511 61.3013393 7.36072202 66.1383929 6.97059202 71.8191964 7.13373729 72.0290179 7.14792383 79.8125 7.3004292 80.0245536 7.28978929 89.0691964 6.58755529"></polyline>
                    </g>
                </g>
            </g>
        </g>
    </g>
</svg>