<?xml version="1.0" encoding="UTF-8" standalone="no"?>
<svg font-family='-apple-system, BlinkMacSystemFont, "Segoe UI", Roboto, Helvetica, Arial, sans-serif, "Apple Color Emoji", "Segoe UI Emoji", "Segoe UI Symbol"' width="274px" height="343px" viewBox="0 0 274 343" version="1.1" xmlns="http://www.w3.org/2000/svg" xmlns:xlink="http://www.w3.org/1999/xlink" style="background: #FFFFFF;">
    <!-- Generator: Sketch 48.2 (47327) - http://www.bohemiancoding.com/sketch -->
    <title>767 seller bids per role</title>
    <desc>Created with Sketch.</desc>
    <defs></defs>
    <g id="Symbols" stroke="none" stroke-width="1" fill="none" fill-rule="evenodd">
        <g id="767-seller-bids-per-role">
            <text id="Daily-rates-sellers" font-size="17" font-weight="normal" line-spacing="26" fill="#313131">
                <tspan x="26.5666504" y="14">Daily rates sellers have bid for </tspan>
                <tspan x="81.9536133" y="40">specialist roles</tspan>
            </text>
            <text id="Daily-rate-inc-GST" font-size="14" font-weight="bold" fill="#224A61">
                <tspan x="79" y="340">Daily rate inc GST</tspan>
            </text>
            <g id="Group-8" transform="translate(0.000000, 61.000000)" fill="#224A61" font-size="11" font-weight="normal">
                <g id="Group-3" transform="translate(1.000000, 0.000000)">
                    <text id="User-research-and-de">
                        <tspan x="27.5316287" y="12">User research and </tspan>
                        <tspan x="87.7308474" y="27">design</tspan>
                    </text>
                </g>
                <g id="Group-7" transform="translate(0.000000, 71.000000)">
                    <text id="Software-engineering">
                        <tspan x="12.6391602" y="12">Software engineering </tspan>
                        <tspan x="31.7333984" y="27">and development</tspan>
                    </text>
                </g>
                <g id="Group-7-Copy" transform="translate(0.000000, 40.000000)">
                    <text id="Strategy-and-policy">
                        <tspan x="24.7939453" y="12">Strategy and policy</tspan>
                    </text>
                </g>
                <g id="Group-4" transform="translate(0.000000, 109.000000)">
                    <text id="Data-science">
                        <tspan x="57.4072266" y="12">Data science</tspan>
                    </text>
                </g>
                <g id="Group-5" transform="translate(1.000000, 139.000000)">
                    <text id="Cyber-security">
                        <tspan x="49.1518555" y="12">Cyber security</tspan>
                    </text>
                </g>
                <text id="Content-and-publishi">
                    <tspan x="2.29443359" y="181">Content and publishing</tspan>
                </text>
                <g id="Group-6" transform="translate(1.000000, 198.000000)">
                    <text id="Agile-delivery-and-g">
                        <tspan x="31.2108279" y="12">Agile delivery and </tspan>
                        <tspan x="61.5789919" y="27">governance</tspan>
                    </text>
                </g>
            </g>
            <g id="Group-2" transform="translate(134.000000, 70.000000)">
                <g id="Group-14" transform="translate(0.000000, 221.000000)">
                    <path d="M0,0 L137.361111,0" id="Shape-Copy" stroke="#BBBBBB" fill-opacity="0.300000012" fill="#001F5F" fill-rule="nonzero"></path>
                    <text id="1000-copy" fill="#444444" font-size="7" font-weight="normal">
                        <tspan x="36.5" y="18">1000</tspan>
                    </text>
                    <text id="2000-copy" fill="#444444" font-size="7" font-weight="normal">
                        <tspan x="81.2222222" y="18">2000</tspan>
                    </text>
                    <text id="3000-copy" fill="#444444" font-size="7" font-weight="normal">
                        <tspan x="122.75" y="19">3000</tspan>
                    </text>
                </g>
                <g id="Group" transform="translate(17.000000, 0.000000)">
                    <g id="Group-19" transform="translate(0.000000, 197.000000)">
                        <polygon id="Shape" fill="#8BBBC6" fill-rule="nonzero" points="0 7 9.87653654 7.35584958 10.0797135 7.38022284 14.9174626 8.20891365 15.1185008 8.24791086 18.1426287 8.50139276 23.7845307 8.42339833 23.9877076 8.45752089 26.8086586 9.4275766 27.0096968 9.52506964 35.6778654 13.6100279 35.8789037 13.6587744 39.1040698 14 41.5229444 13.6100279 41.7239826 13.5369081 48.1743148 10.8168524 48.3774917 10.7778552 62.4865241 7.87743733 78.4091777 7.05849582 80.6270141 6.92688022 70.9515158 6.5856546 61.4791944 6.03481894 47.3680233 2.99791086 47.166985 2.94916435 44.1428571 1.72562674 43.9418189 1.61350975 41.3219061 0.316852368 41.1208679 0.253481894 38.9030316 0 35.4768272 0.438718663 35.2736503 0.492339833 27.0096968 4.47493036 26.8086586 4.5724234 23.9877076 5.54247911 23.7845307 5.57660167 18.3436669 5.50348189 15.1185008 5.75208914 14.9174626 5.79108635 10.0797135 6.61977716 9.87653654 6.64415042"></polygon>
                        <polyline id="Shape" stroke="#17788D" stroke-width="2" stroke-linecap="round" points="0 7 9.87653654 6.64415042 10.0797135 6.61977716 14.9174626 5.79108635 15.1185008 5.75208914 18.1426287 5.49373259 23.7845307 5.57660167 23.9877076 5.54247911 26.8086586 4.5724234 27.0096968 4.47493036 35.2736503 0.492339833 35.4768272 0.438718663 38.7019934 0.00487465181 41.1208679 0.253481894 41.3219061 0.316852368 43.9418189 1.61350975 44.1428571 1.72562674 47.166985 2.94916435 47.3680233 2.99791086 61.2760174 6.01532033 61.4791944 6.03481894 70.7504776 6.57103064 70.9515158 6.5856546 80.4259759 6.93175487"></polyline>
                        <polyline id="Shape" stroke="#17788D" stroke-width="2" stroke-linecap="round" points="0 7 9.87653654 7.35584958 10.0797135 7.38022284 14.9174626 8.20891365 15.1185008 8.24791086 18.1426287 8.50139276 23.7845307 8.42339833 23.9877076 8.45752089 26.8086586 9.4275766 27.0096968 9.52506964 35.6778654 13.6100279 35.8789037 13.6587744 39.1040698 14 41.5229444 13.6100279 41.7239826 13.5369081 48.1743148 10.8168524 48.3774917 10.7778552 62.4865241 7.87743733 62.6875623 7.85793872 80.611856 7"></polyline>
                    </g>
                    <g id="Group-20" transform="translate(0.000000, 163.000000)">
                        <polygon id="Shape" fill="#8BBBC6" fill-rule="nonzero" points="0 7.11748252 4.03145764 7.75384615 4.23463455 7.80769231 8.86920681 9.51608392 9.07024502 9.5993007 14.7142857 11.4202797 14.9174626 11.4741259 24.9950374 13.9902098 28.6222799 13.9167832 28.8254568 13.8972028 37.0894103 12.7517483 37.2904485 12.7027972 41.7239826 11.2636364 41.9271595 11.1755245 48.9806063 8.53706294 49.1816445 8.49300699 54.4236088 7.7048951 54.624647 7.68531469 60.6729028 7.3034965 74.3777201 7 60.873941 6.70629371 53.4162791 6.17762238 53.2131022 6.15314685 48.7795681 5.41888112 48.5785299 5.37482517 41.9271595 2.82447552 41.7239826 2.74125874 37.2904485 1.2972028 37.0894103 1.25314685 29.4285714 0.166433566 29.2275332 0.141958042 25.1960756 0 14.9174626 2.52587413 14.7142857 2.58461538 8.26395349 4.72377622 8.06291528 4.80699301 3.83041944 6.3048951 3.62938123 6.35384615 0 6.88251748"></polygon>
                        <polyline id="Shape" stroke="#17788D" stroke-width="2" stroke-linecap="round" points="0 6.88251748 3.62938123 6.35384615 3.83041944 6.3048951 8.06291528 4.80699301 8.26395349 4.72377622 14.7142857 2.58461538 14.9174626 2.52587413 24.9950374 0.0146853147 25.1960756 0 29.2275332 0.141958042 29.4285714 0.166433566 37.0894103 1.25314685 37.2904485 1.2972028 41.7239826 2.74125874 41.9271595 2.82447552 48.5785299 5.37482517 48.7795681 5.41888112 53.2131022 6.15314685 53.4162791 6.17762238 60.6729028 6.6965035 73.8568769 7"></polyline>
                        <polyline id="Shape" stroke="#17788D" stroke-width="2" stroke-linecap="round" points="0 7.11748252 4.03145764 7.75384615 4.23463455 7.80769231 8.86920681 9.51608392 9.07024502 9.5993007 14.7142857 11.4202797 14.9174626 11.4741259 24.9950374 13.9902098 25.1960756 14 28.6222799 13.9167832 28.8254568 13.8972028 37.0894103 12.7517483 37.2904485 12.7027972 41.7239826 11.2636364 41.9271595 11.1755245 48.9806063 8.53706294 49.1816445 8.49300699 54.4236088 7.7048951 54.624647 7.68531469 60.6729028 7.3034965 74.3777201 7"></polyline>
                    </g>
                    <g id="Group-21" transform="translate(3.000000, 133.000000)">
                        <polygon id="Shape" fill="#8BBBC6" fill-rule="nonzero" points="3.32512469 7.01956674 12.5205772 7.37665968 21.7939992 8.62403913 21.9950374 8.66317261 28.6464078 10.160028 28.847446 10.2089448 34.8957018 11.4563242 35.09674 11.490566 43.3606935 13.0461216 43.5617317 13.0950384 48.1984427 13.9853249 51.8256852 13.9021663 58.6802326 12.5520615 58.8812708 12.5080363 83.2710548 8.11530398 90.929755 7.53808526 100 7.2152341 100 6.81900769 94.3559593 6.64779874 83.8763081 5.99231307 74.8060631 4.38784067 74.6028862 4.34381551 52.8351537 0.273934312 49.0047342 0 43.5617317 0.939203354 43.3606935 0.988120196 34.6925249 2.60726765 34.4914867 2.64150943 26.6317483 4.3780573 26.4285714 4.42697414 19.777201 5.75262055 19.5761628 5.78686233 12.7237542 6.63801537"></polygon>
                        <polyline id="Shape" stroke="#17788D" stroke-width="2" stroke-linecap="round" points="1.01084768 7 12.5205772 6.63902439 12.7237542 6.6195122 19.5761628 5.77073171 19.777201 5.73658537 26.4285714 4.41463415 26.6317483 4.36585366 34.4914867 2.63414634 34.6925249 2.6 43.3606935 0.985365854 43.5617317 0.936585366 48.803696 0.00975609756 52.6319767 0.243902439 52.8351537 0.273170732 74.6028862 4.33170732 74.8060631 4.37560976 83.6731312 5.95121951 83.8763081 5.97560976 94.1549211 6.62439024 100 6.8"></polyline>
                        <polyline id="Shape" stroke="#17788D" stroke-width="2" stroke-linecap="round" points="0.692952486 7 12.5205772 7.3580939 12.7237542 7.37771549 21.7939992 8.60896987 21.9950374 8.64821303 28.6464078 10.1492642 28.847446 10.1983181 34.8957018 11.4491941 35.09674 11.4835319 43.3606935 13.0434478 43.5617317 13.0925018 48.1984427 13.9852838 51.8256852 13.9018921 52.0288621 13.8773651 58.6802326 12.5480028 58.8812708 12.5038542 83.2710548 8.09880869 83.472093 8.07428171 90.929755 7.51997197 100 7.19621584"></polyline>
                    </g>
                    <g id="Group-28" transform="translate(0.000000, 101.000000)">
                        <polygon id="Shape" fill="#8BBBC6" fill-rule="nonzero" points="0 7.408867 9.27342193 8.65517241 9.47446013 8.69458128 18.3436669 10.7832512 18.5447051 10.8423645 29.8327865 13.9261084 34.2663206 14 40.5156146 13.182266 47.166985 12.5714286 56.6414452 11.5763547 56.8424834 11.5418719 74.3777201 8.1773399 89.4962209 7.42857143 97.2221031 7 96.5564963 7 89.6972591 6.57635468 74.580897 5.83743842 56.8424834 2.45812808 56.6414452 2.42364532 47.3680233 1.43842365 40.7166528 0.842364532 34.4673588 0.0147783251 30.0338248 0.0492610837 18.5447051 3.15763547 18.3436669 3.21674877 9.47446013 5.30541872 9.27342193 5.34482759 0 6.591133"></polygon>
                        <polyline id="Shape" stroke="#17788D" stroke-width="2" stroke-linecap="round" points="0 6.67569494 9.27342193 5.41339986 9.47446013 5.37348539 18.3436669 3.25801853 18.5447051 3.19814683 29.8327865 0.0748396294 30.0338248 0.0498930862 34.2663206 0 40.5156146 0.828225232 40.7166528 0.853171775 47.166985 1.4468995 56.6414452 2.45473984 56.8424834 2.489665 74.3777201 5.89736279 89.4962209 6.6557377 99.3820365 7"></polyline>
                        <polyline id="Shape" stroke="#17788D" stroke-width="2" stroke-linecap="round" points="0 7.32430506 9.27342193 8.58660014 9.47446013 8.62651461 18.3436669 10.7419815 18.5447051 10.8018532 29.8327865 13.9251604 30.0338248 13.9501069 34.2663206 14 40.5156146 13.1717748 40.7166528 13.1468282 47.166985 12.5531005 56.6414452 11.5452602 56.8424834 11.510335 74.3777201 8.10263721 89.4962209 7.3442623 99.6902852 7"></polyline>
                    </g>
                    <g id="Group-29" transform="translate(0.000000, 70.000000)">
                        <polygon id="Shape" fill="#8BBBC6" fill-rule="nonzero" points="6.85454734 7.37639665 16.1258306 9.06773743 16.3268688 9.11662011 20.1572882 10.3924581 20.3583264 10.4853352 28.2202035 13.8631285 28.4212417 13.8973464 31.4453696 14 42.3292359 13.0174581 42.5302741 12.9490223 50.3921512 10.3044693 50.5931894 10.2555866 56.4382683 9.17527933 62.6875623 8.69134078 62.8886005 8.65223464 66.9200581 8.11452514 72.765137 7.78212291 72.968314 7.74790503 78.2081395 7.08798883 86.6731312 7.03910615 83.2554244 7.02444134 85.015935 7.02444134 87.9124603 7.01955307 84.3795169 7.01955307 86.8763081 7 78.4091777 6.96089385 72.968314 6.29608939 72.765137 6.25698324 67.5253115 5.92946927 64.0991071 5.63617318 63.8959302 5.60195531 56.0361919 4.84427374 50.3921512 3.73463687 50.191113 3.68575419 42.5302741 1.09497207 42.3292359 1.02653631 34.8715739 0.37150838 30.234863 0 27.2128738 0.410614525 27.0096968 0.469273743 23.3824543 2.03351955 23.1814161 2.13617318 19.1499585 4.06215084 18.9489203 4.14036313 14.3122093 5.38198324 14.1111711 5.42597765 7.05558555 6.63826816 6.85454734 6.66759777 0 7.0146648"></polygon>
                        <polyline id="Shape" stroke="#17788D" stroke-width="2" stroke-linecap="round" points="0 6.99512535 6.85454734 6.64902507 7.05558555 6.61977716 14.1111711 5.41086351 14.3122093 5.36699164 18.9489203 4.12883008 19.1499585 4.05083565 23.1814161 2.13022284 23.3824543 2.02785515 27.0096968 0.467966574 27.2128738 0.409470752 30.0338248 0 34.6705357 0.355849582 34.8715739 0.370473538 42.3292359 1.02367688 42.5302741 1.09192201 50.191113 3.67548747 50.3921512 3.72423398 55.8351537 4.82103064 63.8959302 5.58635097 64.0991071 5.62047354 67.3242733 5.91295265 72.765137 6.23955432 72.968314 6.27855153 78.2081395 6.93175487 86.6731312 6.98537604 90.1095502 6.99512535"></polyline>
                        <polyline id="Shape" stroke="#17788D" stroke-width="2" stroke-linecap="round" points="0 7.00980392 6.85454734 7.35784314 7.05558555 7.38235294 16.1258306 9.05392157 16.3268688 9.10294118 20.1572882 10.3823529 20.3583264 10.4754902 28.2202035 13.8627451 28.4212417 13.8970588 31.4453696 14 31.6464078 13.9852941 42.3292359 13.0147059 42.5302741 12.9460784 50.3921512 10.2941176 50.5931894 10.245098 56.4382683 9.16176471 62.6875623 8.67647059 62.8886005 8.6372549 66.9200581 8.09803922 72.765137 7.76470588 72.968314 7.73039216 78.2081395 7.06862745 86.6731312 7.01960784 88.2366304 7.00490196 91.0582162 6.94344243"></polyline>
                    </g>
                    <g id="Group-30" transform="translate(0.000000, 34.000000)">
                        <polygon id="Shape" fill="#8BBBC6" fill-rule="nonzero" points="11.2880814 7.39853301 18.1426287 8.25427873 30.234863 10.6699267 30.4380399 10.7188264 44.3460341 13.8728606 49.3848214 14 57.8498131 13.2273839 68.331603 11.6528117 68.5326412 11.603912 82.8448505 8.19559902 88.0846761 8.04400978 100.179049 8.26405868 111.755712 8.28850856 115.832129 7.39853301 102.798962 5.89731051 88.2857143 5.9804401 83.0458887 5.85330073 68.7336794 2.47432763 68.5326412 2.43031785 55.4309385 0.542787286 48.5785299 0.00488997555 43.5397425 0.249388753 34.2663206 2.35207824 34.0652824 2.40586797 22.9782392 4.8997555 22.777201 4.93887531 14.1111711 6.35207824 0 7.00244499"></polygon>
                        <polyline id="Shape" stroke="#17788D" stroke-width="2" stroke-linecap="round" points="0 7 13.9079942 6.37430168 14.1111711 6.34986034 22.777201 4.93715084 22.9782392 4.89804469 34.0652824 2.40502793 34.2663206 2.35125698 43.3365656 0.278631285 43.5397425 0.249301676 48.3774917 0 55.2299003 0.523044693 68.5326412 2.42946927 68.7336794 2.47346369 82.8448505 5.83170391 88.0846761 5.98324022 102.597924 5.88547486 116.332326 7"></polyline>
                        <polyline id="Shape" stroke="#17788D" stroke-width="2" stroke-linecap="round" points="0 7 11.2880814 7.36842105 11.4891196 7.38807018 18.1426287 8.22807018 18.3436669 8.26245614 30.234863 10.6547368 30.4380399 10.7038596 44.3460341 13.8722807 44.5470723 13.8919298 49.3848214 14 57.8498131 13.2238596 58.0508513 13.2042105 68.331603 11.6421053 68.5326412 11.5929825 82.8448505 8.16912281 83.0458887 8.14947368 88.0846761 8.01684211 100.179049 8.23789474 116.201414 7.38807018"></polyline>
                    </g>
                    <g id="Group-31" transform="translate(5.000000, 0.000000)">
                        <g id="Group-18">
                            <polygon id="Shape" fill="#8BBBC6" fill-rule="nonzero" points="5.68282807 6.91844447 5.68282807 7.3581622 5.88600498 7.38252698 11.1258306 8.24016707 11.3268688 8.28402367 17.3751246 9.9408284 17.5761628 10.0090498 25.234863 12.6550644 25.4380399 12.698921 32.6925249 14 35.917691 13.4883397 36.1208679 13.4396102 40.9586171 12.5040028 46.6005191 11.6219979 46.803696 11.5683954 51.6414452 10.632788 51.8424834 10.6084233 57.082309 9.75078315 57.2854859 9.69718065 62.7263497 8.71771667 62.9273879 8.6933519 68.3703904 7.81621998 68.5714286 7.77723634 73.2081395 7.23633832 83.8909676 7.0755308 80.4464002 7.11451444 80.4464002 6.88548556 84.0920058 6.91959624 73.4091777 6.77340759 68.5714286 6.22276366 68.3703904 6.18378002 62.9273879 5.3066481 62.7263497 5.28228333 57.2854859 4.30281935 57.082309 4.2540898 51.8424834 3.39157675 51.6414452 3.36721197 46.803696 2.43160459 46.6005191 2.37800209 41.1596553 1.51061608 36.1208679 0.560389836 35.917691 0.511660285 32.8957018 0.0097459102 26.0411545 1.16463627 25.8401163 1.20849286 17.5761628 3.99095023 17.3751246 4.06404455 11.3268688 5.71597633 11.1258306 5.75983293 5.88600498 6.61747302 5.68282807 6.6418378 3.52226861 6.99756352"></polygon>
                            <polyline id="Shape" stroke="#17788D" stroke-width="2" stroke-linecap="round" points="0.345239123 7 5.68282807 6.64415042 5.88600498 6.61977716 11.1258306 5.76183844 11.3268688 5.71796657 17.3751246 4.06545961 17.5761628 3.99233983 25.8401163 1.20891365 26.0411545 1.16504178 32.6925249 0 35.917691 0.51183844 36.1208679 0.560584958 40.9586171 1.49651811 41.1596553 1.51114206 46.6005191 2.37883008 46.803696 2.43245125 51.6414452 3.3683844 51.8424834 3.39275766 57.082309 4.25557103 57.2854859 4.30431755 62.7263497 5.28412256 62.9273879 5.30849582 68.3703904 6.18593315 68.5714286 6.22493036 73.2081395 6.77089136 83.8909676 6.92688022"></polyline>
                            <polyline id="Shape" stroke="#17788D" stroke-width="2" stroke-linecap="round" points="0.860591372 7 5.68282807 7.35584958 5.88600498 7.38022284 11.1258306 8.23816156 11.3268688 8.28203343 17.3751246 9.93941504 17.5761628 10.0076602 25.234863 12.6545961 25.4380399 12.698468 32.6925249 14 35.917691 13.4881616 36.1208679 13.439415 40.9586171 12.5034819 41.1596553 12.4888579 46.6005191 11.6211699 46.803696 11.5675487 51.6414452 10.6316156 51.8424834 10.6072423 57.082309 9.74930362 57.2854859 9.69568245 62.7263497 8.71587744 62.9273879 8.69150418 68.3703904 7.81406685 68.5714286 7.77506964 73.2081395 7.23398329 83.8909676 7.07311978"></polyline>
                        </g>
                    </g>
                </g>
            </g>
        </g>
    </g>
</svg>