<?xml version="1.0" encoding="UTF-8" standalone="no"?>
<svg font-family='-apple-system, BlinkMacSystemFont, "Segoe UI", Roboto, Helvetica, Arial, sans-serif, "Apple Color Emoji", "Segoe UI Emoji", "Segoe UI Symbol"' width="274px" height="299px" viewBox="0 0 274 299" version="1.1" xmlns="http://www.w3.org/2000/svg" xmlns:xlink="http://www.w3.org/1999/xlink">
    <!-- Generator: Sketch 47.1 (45422) - http://www.bohemiancoding.com/sketch -->
    <title>767 average # of responses per brief</title>
    <desc>Created with Sketch.</desc>
    <defs></defs>
    <g id="Mocks" stroke="none" stroke-width="1" fill="none" fill-rule="evenodd">
        <g id="Nov-monthly-report-less-than-767px" transform="translate(-24.000000, -4454.000000)">
            <g id="767-average-#-of-responses-per-brief" transform="translate(24.000000, 4448.000000)">
                <g id="Group">
                    <polyline id="Shape" stroke="#17788D" stroke-width="3" stroke-linecap="round" points="11 214.037209 26.3218272 155.208156 26.8334219 153.434917 32.4522924 135.281977 32.963887 133.781877 37.0479734 122.886645 37.5595681 121.677027 41.1363953 114.245897 41.6436545 113.331096 44.708887 108.627027 45.2204817 107.968023 47.7741196 105.180266 48.2857143 104.720698 50.8393522 102.908439 51.3509468 102.635299 53.9045847 101.707492 54.4161794 101.607774 56.9698173 101.508056 57.481412 101.564419 60.0350498 102.20608 60.542309 102.40985 63.6075415 104.014003 64.1191362 104.343505 67.6959635 107.083571 68.2075581 107.525797 72.8032392 112.108472 73.3148339 112.6851 76.8873256 117.220083 77.3989203 117.952791 80.4641528 122.886645 80.9757475 123.814452 84.0409801 130.040299 84.5482392 131.19789 88.1250664 140.211495 88.6366611 141.629219 93.2323422 155.333887 93.7439369 156.929369 101.916445 181.594302 102.42804 182.96 106.000532 191.605083 106.512126 192.693306 109.577359 198.481262 110.088953 199.318023 113.154186 203.653571 113.661445 204.27789 117.238272 207.893738 117.749867 208.327292 121.833953 211.288472 122.345548 211.613638 132.052841 217.965216 132.5601 218.368422 136.648522 221.958256 137.160116 222.456844 142.267392 227.96299 142.778987 228.561296 151.458754 239.356811 151.970349 239.998472 158.100814 247.152126 158.612409 247.676728 162.1849 250.85902 162.696495 251.240548 165.761728 253.096163 166.273322 253.334618 169.338555 254.37515 169.845814 254.487874 173.422641 254.925764 173.934236 254.943106 182.618339 254.921429 183.125598 254.925764 191.809701 255.380997 192.321296 255.415681 215.304037 257.427375 215.815631 257.50108 238.291113 260.579319 238.798372 260.635681 262.297043 263.193654 262.804302 263.215332 272 263.397425"></polyline>
                    <g id="Group-7-Copy" transform="translate(0.000000, 285.000000)" stroke="#BBBBBB">
                        <path d="M0,1.29154519 L271.221757,1.29154519" id="Shape"></path>
                    </g>
                    <text id="Buyers-receive-on-av"  font-size="17" font-weight="normal" line-spacing="26" fill="#313131">
                        <tspan x="28.2600098" y="20">Buyers receive on average 12 </tspan>
                        <tspan x="18.4609375" y="42">responses per brief: November ‘17</tspan>
                    </text>
                    <g id="Group-9" transform="translate(10.506438, 70.000000)" stroke-opacity="0" stroke="#000000">
                        <path d="M7.38964445e-13,0 L7.38964445e-13,218.1875" id="Shape"></path>
                    </g>
                    <text id="12"  font-size="11" font-weight="bold" letter-spacing="0.100000001" fill="#224A61">
                        <tspan x="66.3776824" y="305">12</tspan>
                    </text>
                    <path d="M72.4373761,64.9999424 L72.4373761,287.085291" id="Line-3-Copy" stroke="#777777" stroke-width="2" stroke-linecap="square"></path>
                    <circle id="Oval-22-Copy" fill="#777777" cx="72.4341917" cy="286.5" r="3.5"></circle>
                </g>
            </g>
        </g>
    </g>
</svg>