<?xml version="1.0" encoding="UTF-8" standalone="no"?>
<svg font-family='-apple-system, BlinkMacSystemFont, "Segoe UI", Roboto, Helvetica, Arial, sans-serif, "Apple Color Emoji", "Segoe UI Emoji", "Segoe UI Symbol"' width="272px" height="193px" viewBox="0 0 272 193" version="1.1" xmlns="http://www.w3.org/2000/svg" xmlns:xlink="http://www.w3.org/1999/xlink" style="background: #FFFFFF;">
    <!-- Generator: Sketch 48.2 (47327) - http://www.bohemiancoding.com/sketch -->
    <title>767 total opportunities</title>
    <desc>Created with Sketch.</desc>
    <defs>
        <rect id="path-1" x="0" y="0" width="272" height="193"></rect>
        <linearGradient x1="50%" y1="0%" x2="50%" y2="100%" id="linearGradient-2">
            <stop stop-color="#33B0C1" offset="0%"></stop>
            <stop stop-color="#17788D" offset="100%"></stop>
        </linearGradient>
    </defs>
    <g id="Symbols" stroke="none" stroke-width="1" fill="none" fill-rule="evenodd">
        <g id="767-total-opportunities">
            <g>
                <g id="Rectangle-Copy">
                    <use fill="#FAFBFC" fill-rule="evenodd" xlink:href="#path-1"></use>
                    <rect stroke="#BBBBBB" stroke-width="1" x="0.5" y="0.5" width="271" height="192"></rect>
                </g>
                <text id="421" font-size="36" font-weight="bold" letter-spacing="-1.50000024" fill="#17788D">
                    <tspan x="12" y="60">421</tspan>
                </text>
                <polyline id="Shape" stroke="url(#linearGradient-2)" stroke-width="3" points="162 71.8388704 164.022757 70.0657807 165.033389 69.6232558 166.045515 69.6232558 167.056146 69.1792359 168.066777 68.736711 169.078904 68.736711 170.089535 67.8501661 171.101661 64.3054817 172.112292 64.3054817 173.122924 63.8614618 174.13505 63.8614618 175.145681 61.6458472 176.157807 61.2033223 177.168439 61.2033223 179.191196 59.4302326 180.201827 59.4302326 182.224585 58.5436877 183.235216 56.770598 185.257973 55.8855482 186.2701 54.5549834 188.292857 54.5549834 189.303488 53.6684385 190.31412 52.3393688 191.326246 51.8968439 192.336877 50.1237542 193.349003 48.7946844 195.370266 48.7946844 196.382392 48.3506645 197.393023 47.0215947 198.40515 46.1350498 199.415781 45.248505 200.426412 44.8059801 202.449169 44.8059801 203.461296 43.9194352 209.528073 43.9194352 210.538704 43.4769103 211.550831 42.1463455 212.561462 42.1463455 213.573588 41.7038206 214.584219 40.8172757 215.59485 40.8172757 216.606977 40.3747508 217.617608 38.6016611 218.629734 38.6016611 219.640365 37.2725914 220.650997 35.0554817 221.663123 34.6129568 222.673754 34.6129568 223.68588 34.6129568 224.696512 32.3973422 225.707143 31.9533223 226.719269 27.966113 227.7299 27.522093 228.742027 26.1930233 231.775415 26.1930233 232.786047 24.4199336 233.798173 21.761794 234.808804 20.4312292 235.82093 19.1021595 236.831561 19.1021595 237.842193 19.1021595 238.854319 17.7730897 239.86495 17.7730897 240.877076 17.3290698 241.887708 16 242.898339 16 252 16"></polyline>
                <text id="Total-opportunities" font-size="17" font-weight="normal" line-spacing="28" fill="#313131">
                    <tspan x="12" y="91">Total opportunities since </tspan>
                    <tspan x="12" y="119">29 August 2016</tspan>
                </text>
                <text id="47-new-briefs-this-m" font-size="20" font-weight="bold" line-spacing="28" fill="#313131">
                    <tspan x="13" y="162">47 new briefs this month</tspan>
                </text>
            </g>
        </g>
    </g>
</svg>