<?xml version="1.0" encoding="UTF-8" standalone="no"?>
<svg font-family='-apple-system, BlinkMacSystemFont, "Segoe UI", Roboto, Helvetica, Arial, sans-serif, "Apple Color Emoji", "Segoe UI Emoji", "Segoe UI Symbol"' width="272px" height="193px" viewBox="0 0 272 193" version="1.1" xmlns="http://www.w3.org/2000/svg" xmlns:xlink="http://www.w3.org/1999/xlink" style="background: #FFFFFF;">
    <!-- Generator: Sketch 45.2 (43514) - http://www.bohemiancoding.com/sketch -->
    <title>767 total opportunities</title>
    <desc>Created with Sketch.</desc>
    <defs>
        <rect id="path-1" x="0" y="0" width="272" height="193"></rect>
        <linearGradient x1="50%" y1="0%" x2="50%" y2="100%" id="linearGradient-2">
            <stop stop-color="#33B0C1" offset="0%"></stop>
            <stop stop-color="#17788D" offset="100%"></stop>
        </linearGradient>
    </defs>
    <g id="Symbols" stroke="none" stroke-width="1" fill="none" fill-rule="evenodd">
        <g id="767-total-opportunities">
            <g>
                <g id="Rectangle-Copy">
                    <use fill="#FAFBFC" fill-rule="evenodd" xlink:href="#path-1"></use>
                    <rect stroke="#BBBBBB" stroke-width="1" x="0.5" y="0.5" width="271" height="192"></rect>
                </g>
                <text id="339" font-size="36" font-weight="bold" letter-spacing="-1.50000024" fill="#17788D">
                    <tspan x="12" y="59">339</tspan>
                </text>
                <text id="Total-opportunities"  font-size="17" font-weight="normal" line-spacing="28" fill="#313131">
                    <tspan x="12" y="89">Total opportunities since 29 </tspan>
                    <tspan x="12" y="117">August 2016.</tspan>
                </text>
                <text id="47-new-briefs-this-m" font-size="20" font-weight="bold" line-spacing="28" fill="#313131">
                    <tspan x="13" y="160">47 new briefs this month</tspan>
                </text>
                <polyline id="Shape" stroke="url(#linearGradient-2)" stroke-width="3" stroke-linecap="round" points="170 66 171.010631 65.6048193 172.022757 65.6048193 177.078904 65.6048193 178.089535 64.4204819 179.101661 64.4204819 180.112292 64.026506 181.122924 64.026506 182.13505 63.2373494 183.145681 62.8421687 184.157807 61.6578313 185.168439 61.2626506 186.17907 61.2626506 187.191196 61.2626506 188.201827 60.0795181 190.224585 59.2891566 191.235216 59.2891566 192.247342 58.5 193.257973 58.5 194.2701 57.7108434 195.280731 57.3156627 196.292857 56.9204819 197.303488 54.553012 198.31412 52.5795181 199.326246 52.1843373 201.349003 52.1843373 202.359635 51.7891566 203.370266 51 204.382392 51 205.393023 50.2108434 206.40515 49.026506 207.415781 48.6313253 208.426412 48.6313253 209.438538 48.6313253 210.449169 48.2373494 211.461296 47.446988 212.471927 47.053012 213.482558 46.6578313 214.494684 46.6578313 215.505316 46.6578313 216.517442 46.2626506 217.528073 45.8686747 218.538704 44.6843373 219.550831 44.2891566 220.561462 42.7108434 221.573588 42.7108434 222.584219 42.3156627 223.59485 42.3156627 224.606977 41.9204819 225.617608 40.7373494 226.629734 40.3421687 227.640365 39.553012 228.650997 39.553012 230.673754 39.553012 231.68588 38.3686747 233.707143 36.7891566 234.719269 36.3951807 235.7299 36.3951807 236.742027 36 237.752658 35.6048193 238.764784 35.6048193 239.775415 34.8156627 240.786047 31.6578313 241.798173 31.6578313 242.808804 31.2626506 243.82093 31.2626506 244.831561 29.2891566 245.842193 28.8951807 246.854319 28.8951807 248.877076 27.3156627 249.887708 27.3156627 251.910465 26.526506 252.921096 24.946988 254.943854 24.1578313 255.954485 22.973494 257.977243 22.973494 258.989369 22.1843373 260 21"></polyline>
            </g>
        </g>
    </g>
</svg>
