<?xml version="1.0" encoding="UTF-8" standalone="no"?>
<svg font-family='-apple-system, BlinkMacSystemFont, "Segoe UI", Roboto, Helvetica, Arial, sans-serif, "Apple Color Emoji", "Segoe UI Emoji", "Segoe UI Symbol"' width="272px" height="221px" viewBox="0 0 272 221" version="1.1" xmlns="http://www.w3.org/2000/svg" xmlns:xlink="http://www.w3.org/1999/xlink" style="background: #FFFFFF;">
    <!-- Generator: Sketch 48.2 (47327) - http://www.bohemiancoding.com/sketch -->
    <title>767 $ contracted since launch</title>
    <desc>Created with Sketch.</desc>
    <defs>
        <rect id="path-1" x="0" y="0" width="272" height="221"></rect>
        <linearGradient x1="50%" y1="0%" x2="50%" y2="100%" id="linearGradient-2">
            <stop stop-color="#33B0C1" offset="0%"></stop>
            <stop stop-color="#17788D" offset="100%"></stop>
        </linearGradient>
    </defs>
    <g id="Symbols" stroke="none" stroke-width="1" fill="none" fill-rule="evenodd">
        <g id="767-$-contracted-since-launch">
            <g id="Group">
                <g id="Rectangle-Copy">
                    <use fill="#FAFBFC" fill-rule="evenodd" xlink:href="#path-1"></use>
                    <rect stroke="#BBBBBB" stroke-width="1" x="0.5" y="0.5" width="271" height="220"></rect>
                </g>
                <text id="$67.48M" font-size="36" font-weight="bold" fill="#17788D">
                    <tspan x="12" y="62">$6</tspan>
                    <tspan x="53.0976562" y="62" letter-spacing="-4.3">7</tspan>
                    <tspan x="69.3464844" y="62">.48M</tspan>
                </text>
                <polyline id="Shape" stroke="url(#linearGradient-2)" stroke-width="3" points="169 67.8388704 170.010631 67.8388704 171.022757 66.3647841 172.033389 65.8714286 173.045515 65.8714286 176.078904 65.8714286 177.089535 65.3631229 178.101661 65.0880399 179.112292 65.0880399 181.13505 65.0880399 182.145681 64.6888704 183.157807 64.6888704 184.168439 62.0546512 185.17907 60.8825581 186.191196 60.8825581 188.213953 60.8825581 189.224585 60.691196 190.235216 59.9451827 191.247342 59.9451827 192.257973 59.3262458 193.2701 58.9315615 196.303488 58.9315615 197.31412 58.6026578 198.326246 58.6026578 199.336877 58.3395349 200.349003 55.0893688 201.359635 55.0893688 203.382392 55.0893688 204.393023 53.133887 209.449169 53.133887 210.461296 51.7210963 211.471927 51.7210963 212.482558 50.8584718 213.494684 50.067608 214.505316 47.6546512 216.528073 47.6546512 217.538704 47.0147841 223.606977 46.9265781 224.617608 36.9548173 225.629734 35.5659468 226.640365 35.395515 227.650997 35.395515 228.663123 33.9647841 230.68588 33.9647841 231.696512 33.1365449 232.707143 32.9317276 233.719269 32.9317276 234.7299 31.798505 235.742027 31.7671096 237.764784 31.7671096 238.775415 31.4247508 239.786047 28.8877076 240.798173 28.8877076 244.842193 28.8877076 245.854319 28.4646179 246.86495 28.4646179 247.877076 26.219103 248.887708 24.6179402 249.898339 12 259 12"></polyline>
                <text id="Contracted-through-t" font-size="17" font-weight="normal" line-spacing="28" fill="#313131">
                    <tspan x="12" y="91">Contracted through the </tspan>
                    <tspan x="12" y="119">Marketplace since 29 August </tspan>
                    <tspan x="12" y="147">2016* </tspan>
                </text>
                <text id="$12.35M-this-month" font-size="20" font-weight="bold" line-spacing="28" fill="#313131">
                    <tspan x="13" y="190">$12.35M this month</tspan>
                </text>
            </g>
        </g>
    </g>
</svg>