<?xml version="1.0" encoding="UTF-8" standalone="no"?>
<svg font-family='-apple-system, BlinkMacSystemFont, "Segoe UI", Roboto, Helvetica, Arial, sans-serif, "Apple Color Emoji", "Segoe UI Emoji", "Segoe UI Symbol"' width="273px" height="307px" viewBox="0 0 273 307" version="1.1" xmlns="http://www.w3.org/2000/svg" xmlns:xlink="http://www.w3.org/1999/xlink" style="background: #FFFFFF;">
    <!-- Generator: Sketch 48.2 (47327) - http://www.bohemiancoding.com/sketch -->
    <title>767 average # of responses per brief</title>
    <desc>Created with Sketch.</desc>
    <defs></defs>
    <g id="Symbols" stroke="none" stroke-width="1" fill="none" fill-rule="evenodd">
        <g id="767-average-#-of-responses-per-brief">
            <g id="Group" transform="translate(0.000000, -1.000000)">
                <polyline id="Shape" stroke="#17788D" stroke-width="3" stroke-linecap="round" points="11 214.654277 21.7261462 174.342992 22.2377409 172.585989 28.3638704 152.838145 28.8754651 151.302394 33.9827409 136.990413 34.4943355 135.671576 39.0900166 124.947352 39.6016113 123.884473 43.6900332 116.301162 44.2016279 115.468213 47.7741196 110.323014 48.2857143 109.685287 51.3509468 106.418564 51.8625415 105.971721 54.4161794 104.171335 54.9277741 103.902362 57.481412 103.065074 57.9886711 103 60.0350498 103.082427 60.542309 103.186546 62.5886877 103.950083 63.0959468 104.227733 65.6495847 106.07584 66.1611794 106.531359 69.226412 109.845804 69.7380066 110.487869 73.3148339 115.598361 73.822093 116.418296 77.3989203 122.752183 77.910515 123.749987 81.9946013 132.591398 82.506196 133.810455 86.5946179 144.486958 87.1018771 145.927267 93.2323422 164.430025 93.7439369 166.013497 100.381661 185.535751 100.893256 186.889294 104.470083 195.461732 104.981678 196.559317 108.554169 203.287987 109.065764 204.125274 112.642591 209.162016 113.154186 209.78239 116.726678 213.500295 117.238272 213.960152 121.326694 217.083713 121.833953 217.422098 128.476013 221.339564 128.987608 221.634567 134.094884 224.95335 134.606478 225.335119 139.202159 229.269937 139.713754 229.760163 145.332625 235.799047 145.839884 236.389053 157.589219 249.846393 158.100814 250.336618 161.673306 253.325692 162.1849 253.672755 165.250133 255.338654 165.761728 255.542553 168.82696 256.345134 169.338555 256.414547 172.911047 256.509989 173.422641 256.479621 184.660382 255.820202 185.171977 255.85057 190.786512 256.509989 191.298106 256.592416 207.131528 258.874351 207.643123 258.930748 221.946096 260.696428 222.457691 260.770178 234.202691 262.162766 234.714286 262.206149 250.036113 263.81565 250.547708 263.876386 261.785449 264.796101 262.297043 264.813454 272 265"></polyline>
                <g id="Group-7-Copy" transform="translate(0.000000, 286.000000)" stroke="#BBBBBB">
                    <path d="M0,1.29154519 L271.221757,1.29154519" id="Shape"></path>
                </g>
                <text id="Buyers-receive-on-av" font-size="17" font-weight="normal" line-spacing="26" fill="#313131">
                    <tspan x="33.1157227" y="18">Buyers receive on average </tspan>
                    <tspan x="47.9990234" y="44">12 responses per brief</tspan>
                </text>
                <text id="12" font-size="11" font-weight="bold" letter-spacing="0.100000001" fill="#224A61">
                    <tspan x="65.3776824" y="306">12</tspan>
                </text>
                <path d="M71.4373761,65.9999424 L71.4373761,288.085291" id="Line-3-Copy" stroke="#777777" stroke-width="2" stroke-linecap="square"></path>
                <circle id="Oval-22-Copy" fill="#777777" cx="71.4341917" cy="287.5" r="3.5"></circle>
            </g>
        </g>
    </g>
</svg>