<?xml version="1.0" encoding="UTF-8" standalone="no"?>
<svg font-family='-apple-system, BlinkMacSystemFont, "Segoe UI", Roboto, Helvetica, Arial, sans-serif, "Apple Color Emoji", "Segoe UI Emoji", "Segoe UI Symbol"' width="272px" height="221px" viewBox="0 0 272 221" version="1.1" xmlns="http://www.w3.org/2000/svg" xmlns:xlink="http://www.w3.org/1999/xlink">
    <!-- Generator: Sketch 47.1 (45422) - http://www.bohemiancoding.com/sketch -->
    <title>767 $ contracted since launch</title>
    <desc>Created with Sketch.</desc>
    <defs>
        <rect id="path-1" x="0" y="0" width="272" height="221"></rect>
        <linearGradient x1="50%" y1="0%" x2="50%" y2="100%" id="linearGradient-2">
            <stop stop-color="#33B0C1" offset="0%"></stop>
            <stop stop-color="#17788D" offset="100%"></stop>
        </linearGradient>
    </defs>
    <g id="Mocks" stroke="none" stroke-width="1" fill="none" fill-rule="evenodd">
        <g id="Nov-monthly-report-less-than-767px" transform="translate(-24.000000, -2017.000000)">
            <g id="767-$-contracted-since-launch" transform="translate(24.000000, 2017.000000)">
                <g id="Group">
                    <g id="Rectangle-Copy">
                        <use fill="#FAFBFC" fill-rule="evenodd" xlink:href="#path-1"></use>
                        <rect stroke="#BBBBBB" stroke-width="1" x="0.5" y="0.5" width="271" height="220"></rect>
                    </g>
                    <text id="$55.13M"  font-size="36" font-weight="bold" letter-spacing="-1.50000024" fill="#17788D">
                        <tspan x="12" y="62">$55.13M</tspan>
                    </text>
                    <text id="Contracted-through-t"  font-size="17" font-weight="normal" line-spacing="28" fill="#313131">
                        <tspan x="12" y="89">Contracted through the </tspan>
                        <tspan x="12" y="117">Marketplace since 29 August </tspan>
                        <tspan x="12" y="145">2016* </tspan>
                    </text>
                    <text id="$7.46M-this-month"  font-size="20" font-weight="bold" line-spacing="28" fill="#313131">
                        <tspan x="13" y="190">$7.46M this month</tspan>
                    </text>
                    <polyline id="Shape" stroke="url(#linearGradient-2)" stroke-width="3" stroke-linecap="round" points="169 67.8388704 172.033389 67.7611296 173.045515 62.9038206 174.056146 62.0980066 175.066777 61.9440199 178.101661 61.9440199 179.112292 61.3340532 180.122924 56.1538206 181.13505 55.7710963 186.191196 55.7710963 187.201827 55.1925249 188.213953 54.6139535 189.224585 53.4074751 192.257973 53.4074751 193.2701 52.8887043 194.280731 52.6076412 195.292857 52.1710963 201.359635 52.1710963 202.370266 50.344186 203.382392 49.7342193 204.393023 49.7342193 207.426412 49.7342193 208.438538 49.1048173 209.449169 48.7639535 210.461296 48.7639535 212.482558 48.7639535 213.494684 48.269103 214.505316 48.269103 215.517442 45.0099668 216.528073 43.5583056 217.538704 43.5583056 219.561462 43.5583056 220.573588 43.320598 221.584219 42.3951827 222.59485 42.3951827 223.606977 41.6297342 224.617608 41.1408638 227.650997 41.1408638 228.663123 40.7342193 229.673754 40.7342193 230.68588 40.4083056 231.696512 36.3837209 232.707143 36.3837209 234.7299 36.3837209 235.742027 33.963289 240.798173 33.963289 241.808804 32.2141196 242.82093 32.2141196 243.831561 31.1451827 244.842193 30.1674419 245.854319 27.1789037 247.877076 27.1789037 248.887708 26.3865449 254.954485 26.2774086 255.966611 13.9300664 256.977243 12.2107973 257.989369 12 259 12"></polyline>
                </g>
            </g>
        </g>
    </g>
</svg>