<svg font-family="-apple-system, BlinkMacSystemFont, &quot;Segoe UI&quot;, Roboto, Helvetica, Arial, sans-serif, &quot;Apple Color Emoji&quot;, &quot;Segoe UI Emoji&quot;, &quot;Segoe UI Symbol&quot;" width="282" height="328" viewBox="0 0 282 328" xmlns="http://www.w3.org/2000/svg" style="background:#fff"><title>767 types of briefs on marketplace</title><g fill="none" fill-rule="evenodd"><text font-size="11" fill="#224A61" transform="translate(136 66)"><tspan x="0" y="238">0</tspan></text><text font-size="11" fill="#224A61" transform="translate(136 66)"><tspan x="117.018" y="238">150</tspan></text><path d="M137.265 287.5h134.438" stroke="#BBB" stroke-linecap="square"/><path fill="#17788D" d="M136 105h54.406v20H136zM136 66h132.002v20H136zM136 144h42.812v20H136zM136 183h33.001v20H136zM136 222h29.433v20H136zM136 261h10.703v20H136z"/><text font-size="14" font-weight="bold" fill="#224A61" transform="translate(136 66)"><tspan x="63.277" y="55">61</tspan></text><text font-size="14" font-weight="bold" fill="#FFF" transform="translate(136 66)"><tspan x="102.076" y="15">148</tspan></text><text font-size="14" font-weight="bold" fill="#224A61" transform="translate(136 66)"><tspan x="48.796" y="94">48</tspan></text><text font-size="14" font-weight="bold" fill="#224A61" transform="translate(136 66)"><tspan x="40.17" y="133">37</tspan></text><text font-size="14" font-weight="bold" fill="#224A61" transform="translate(136 66)"><tspan x="35.363" y="172">33</tspan></text><text font-size="14" font-weight="bold" fill="#224A61" transform="translate(136 66)"><tspan x="16.838" y="210">12</tspan></text><text font-size="11" fill="#224A61"><tspan x="20.529" y="114">Software engineering </tspan> <tspan x="38.78" y="127">and development</tspan></text><text font-size="11" fill="#224A61"><tspan x="45.892" y="75">Total Outcomes</tspan></text><text font-size="11" fill="#224A61"><tspan x=".13" y="153">User research and design</tspan></text><text font-size="11" fill="#224A61"><tspan x="37.958" y="192">Agile delivery and </tspan> <tspan x="65.507" y="205">governance</tspan></text><text font-size="11" fill="#224A61"><tspan x="65.115" y="231">Total others </tspan> <tspan x="6.516" y="244">(all but top 4 specialists)</tspan></text><text font-size="11" fill="#224A61"><tspan x="25.304" y="270">Change training and </tspan> <tspan x="52.434" y="283">transformation</tspan></text><text font-size="17" fill="#313131"><tspan x="2.508" y="16">Types of briefs on the Marketplace </tspan> <tspan x="89.636" y="42">since launch</tspan></text><text font-size="14" font-weight="bold" fill="#224A61"><tspan x="81" y="325">Number of briefs</tspan></text></g></svg>