<?xml version="1.0" encoding="UTF-8" standalone="no"?>
<svg font-family='-apple-system, BlinkMacSystemFont, "Segoe UI", Roboto, Helvetica, Arial, sans-serif, "Apple Color Emoji", "Segoe UI Emoji", "Segoe UI Symbol"' width="273px" height="176px" viewBox="0 0 273 176" version="1.1" xmlns="http://www.w3.org/2000/svg" xmlns:xlink="http://www.w3.org/1999/xlink" style="background: #FFFFFF;">
    <!-- Generator: Sketch 45.2 (43514) - http://www.bohemiancoding.com/sketch -->
    <title>767 briefs by phase</title>
    <desc>Created with Sketch.</desc>
    <defs></defs>
    <g id="Symbols" stroke="none" stroke-width="1" fill="none" fill-rule="evenodd">
        <g id="767-briefs-by-phase">
            <g>
                <text id="15%-Pre-discovery" font-size="14" font-weight="bold" line-spacing="16" fill="#333333">
                    <tspan x="0" y="49">15% </tspan>
                    <tspan x="33.5439453" y="50.8886719" font-weight="normal"></tspan>
                    <tspan x="0.259765625" y="65.3623047" font-weight="normal">Pre-discovery</tspan>
                </text>
                <text id="33%-Discovery" font-size="14" font-weight="bold" line-spacing="16" fill="#333333">
                    <tspan x="70.3842773" y="158">33%</tspan>
                    <tspan x="99.3618164" y="158.362305" font-weight="normal"> </tspan>
                    <tspan x="55" y="174.362305" font-weight="normal">Discovery</tspan>
                </text>
                <text id="15%-Alpha" font-size="14" font-weight="bold" line-spacing="16" fill="#333333">
                    <tspan x="136.940918" y="49">15%</tspan>
                    <tspan x="163.751465" y="49.3623047" font-weight="normal"> </tspan>
                    <tspan x="133" y="65.3623047" font-weight="normal">Alpha</tspan>
                </text>
                <text id="16%-Beta" font-size="14" font-weight="bold" line-spacing="16" fill="#333333">
                    <tspan x="177.633301" y="158">16%</tspan>
                    <tspan x="204.696777" y="158.362305" font-weight="normal"> </tspan>
                    <tspan x="177.5" y="174.362305" font-weight="normal">Beta</tspan>
                </text>
                <text id="7%-Live" font-size="14" font-weight="bold" line-spacing="16" fill="#333333">
                    <tspan x="212.56543" y="50">7%</tspan>
                    <tspan x="234.139648" y="50.2939453" font-weight="normal"> </tspan>
                    <tspan x="211" y="66.2939453" font-weight="normal">Live</tspan>
                </text>
                <text id="14%-Other" font-size="14" font-weight="bold" line-spacing="16" fill="#333333">
                    <tspan x="236.73584" y="159">14% </tspan>
                    <tspan x="277.635254" y="160.963867" font-weight="normal"></tspan>
                    <tspan x="233" y="175.293945" font-weight="normal">Other</tspan>
                </text>
                <g id="Group-3" transform="translate(192.500000, 129.000000) scale(1, -1) translate(-192.500000, -129.000000) translate(191.000000, 120.000000)" stroke="#224A61">
                    <path d="M1.5,17.5 L1.5,1.47501561" id="Line-2-Copy-3" stroke-linecap="square" transform="translate(1.500000, 9.500000) scale(-1, -1) translate(-1.500000, -9.500000) "></path>
                    <circle id="Oval-Copy-3" fill="#B9D6DC" transform="translate(1.500000, 1.500000) scale(-1, -1) translate(-1.500000, -1.500000) " cx="1.5" cy="1.5" r="1.5"></circle>
                </g>
                <g id="Group-3-Copy-2" transform="translate(85.500000, 129.000000) scale(1, -1) translate(-85.500000, -129.000000) translate(84.000000, 120.000000)" stroke="#224A61">
                    <path d="M1.5,17.5 L1.5,1.47501561" id="Line-2-Copy-3" stroke-linecap="square" transform="translate(1.500000, 9.500000) scale(-1, -1) translate(-1.500000, -9.500000) "></path>
                    <circle id="Oval-Copy-3" fill="#B9D6DC" cx="1.5" cy="1.5" r="1.5"></circle>
                </g>
                <g id="Group-3-Copy" transform="translate(252.500000, 129.000000) scale(1, -1) translate(-252.500000, -129.000000) translate(251.000000, 120.000000)" stroke="#224A61">
                    <path d="M1.5,17.5 L1.5,1.47501561" id="Line-2-Copy-3" stroke-linecap="square" transform="translate(1.500000, 9.500000) scale(-1, -1) translate(-1.500000, -9.500000) "></path>
                    <circle id="Oval-Copy-3" fill="#B9D6DC" transform="translate(1.500000, 1.500000) scale(-1, -1) translate(-1.500000, -1.500000) " cx="1.5" cy="1.5" r="1.5"></circle>
                </g>
                <g id="Group-12" transform="translate(19.000000, 76.000000)" stroke="#224A61">
                    <g id="Group-6">
                        <path d="M1.5,17.5 L1.5,1.47501561" id="Line-2" stroke-linecap="square"></path>
                        <circle id="Oval" fill="#B9D6DC" cx="1.5" cy="1.5" r="1.5"></circle>
                    </g>
                    <g id="Group-4" transform="translate(129.000000, 0.000000)">
                        <path d="M2.5,17.5 L2.5,1.47501561" id="Line-2-Copy" stroke-linecap="square"></path>
                        <circle id="Oval-Copy" fill="#B9D6DC" cx="2.5" cy="1.5" r="1.5"></circle>
                    </g>
                    <g id="Group-5" transform="translate(203.000000, 0.000000)">
                        <path d="M2.5,17.5 L2.5,1.47501561" id="Line-2-Copy-2" stroke-linecap="square"></path>
                        <circle id="Oval-Copy-2" fill="#B9D6DC" cx="2.5" cy="1.5" r="1.5"></circle>
                    </g>
                </g>
                <g id="Group-3" transform="translate(0.000000, 89.000000)" stroke="#FFFFFF">
                    <rect id="Rectangle-9-Copy-13" fill="#C52A72" x="130" y="0" width="40.7447891" height="35"></rect>
                    <rect id="Rectangle-9-Copy-14" fill="#912B87" x="41" y="0" width="89.6385361" height="35"></rect>
                    <rect id="Rectangle-9-Copy-16" fill="#D8D8D8" x="0" y="0" width="40.7447891" height="35"></rect>
                    <rect id="Rectangle-9-Copy-11" fill="#F48834" x="171" y="0" width="43.4611103" height="35"></rect>
                    <rect id="Rectangle-9-Copy-12" fill="#59A94F" x="214" y="0" width="19.0142354" height="35"></rect>
                    <rect id="Rectangle-9-Copy-15" fill="#D8D8D8" x="234" y="0" width="38.0284708" height="35"></rect>
                </g>
                <text id="Briefs-by-phase" font-size="17" font-weight="normal" line-spacing="28" fill="#313131">
                    <tspan x="79" y="16">Briefs by phase</tspan>
                </text>
            </g>
        </g>
    </g>
</svg>
