<?xml version="1.0" encoding="UTF-8" standalone="no"?>
<svg font-family='-apple-system, BlinkMacSystemFont, "Segoe UI", Roboto, Helvetica, Arial, sans-serif, "Apple Color Emoji", "Segoe UI Emoji", "Segoe UI Symbol"' width="278px" height="343px" viewBox="0 0 278 343" version="1.1" xmlns="http://www.w3.org/2000/svg" xmlns:xlink="http://www.w3.org/1999/xlink" style="background: #FFFFFF;">
    <!-- Generator: Sketch 49 (51002) - http://www.bohemiancoding.com/sketch -->
    <title>767 Daily rates per role</title>
    <desc>Created with Sketch.</desc>
    <defs></defs>
    <g id="767-Daily-rates-per-role" stroke="none" stroke-width="1" fill="none" fill-rule="evenodd">
        <text id="Daily-rates-sellers" font-size="17" font-weight="normal" line-spacing="26" fill="#313131">
            <tspan x="26.5666504" y="14">Daily rates sellers have bid for </tspan>
            <tspan x="81.9536133" y="40">specialist roles</tspan>
        </text>
        <text id="Daily-rate-inc-GST" font-size="14" font-weight="bold" fill="#224A61">
            <tspan x="79" y="340">Daily rate inc GST</tspan>
        </text>
        <g id="Group-8" transform="translate(0.000000, 61.000000)" fill="#224A61" font-size="11" font-weight="normal">
            <g id="Group-3" transform="translate(1.000000, 0.000000)">
                <text id="User-research-and-de">
                    <tspan x="27.5316287" y="12">User research and </tspan>
                    <tspan x="87.7308474" y="27">design</tspan>
                </text>
            </g>
            <g id="Group-7" transform="translate(0.000000, 71.000000)">
                <text id="Software-engineering">
                    <tspan x="12.6391602" y="12">Software engineering </tspan>
                    <tspan x="31.7333984" y="27">and development</tspan>
                </text>
            </g>
            <g id="Group-7-Copy" transform="translate(0.000000, 40.000000)">
                <text id="Strategy-and-policy">
                    <tspan x="24.7939453" y="12">Strategy and policy</tspan>
                </text>
            </g>
            <g id="Group-4" transform="translate(0.000000, 109.000000)">
                <text id="Data-science">
                    <tspan x="57.4072266" y="12">Data science</tspan>
                </text>
            </g>
            <g id="Group-5" transform="translate(1.000000, 139.000000)">
                <text id="Cyber-security">
                    <tspan x="49.1518555" y="12">Cyber security</tspan>
                </text>
            </g>
            <text id="Content-and-publishi">
                <tspan x="2.29443359" y="181">Content and publishing</tspan>
            </text>
            <g id="Group-6" transform="translate(1.000000, 198.000000)">
                <text id="Agile-delivery-and-g">
                    <tspan x="31.2108279" y="12">Agile delivery and </tspan>
                    <tspan x="61.5789919" y="27">governance</tspan>
                </text>
            </g>
        </g>
        <g id="Group-2" transform="translate(116.000000, 290.000000)">
            <path d="M15.4991136,1 L156.52248,1" id="Shape-Copy" stroke="#BBBBBB" fill-opacity="0.300000012" fill="#001F5F" fill-rule="nonzero"></path>
            <text id="1000" fill="#444444" font-size="11" font-weight="normal">
                <tspan x="46.4070095" y="16.5">1000</tspan>
            </text>
            <text id="2000" fill="#444444" font-size="11" font-weight="normal">
                <tspan x="91.4208984" y="17">2000</tspan>
            </text>
            <text id="0" fill="#444444" font-size="11" font-weight="normal">
                <tspan x="14.0913357" y="17">0</tspan>
            </text>
            <text id="3000" fill="#444444" font-size="11" font-weight="normal">
                <tspan x="133.545898" y="17">3000</tspan>
            </text>
        </g>
        <g id="Group" transform="translate(146.000000, 70.000000)">
            <g id="Group-23" transform="translate(6.372671, 0.000000)">
                <polygon id="Shape" fill="#8BBBC6" fill-rule="nonzero" points="7.16483874 7.37926275 12.9101188 8.25918745 13.1098267 8.30108863 20.042843 10.2564769 20.2404486 10.3309678 26.1854366 12.3794698 26.3830422 12.421371 33.3181607 13.7203075 36.0909468 13.4083765 36.2885525 13.3571639 42.2335404 12.1047843 46.9886899 11.4436769 47.1862956 11.3924643 52.3366564 10.3775247 58.0840386 9.49294431 58.2816443 9.44638745 62.8370859 8.70147765 68.9796795 7.77965176 69.1772851 7.74240627 73.5372232 7.26287059 73.7348289 6.81592471 69.1772851 6.33173333 68.9796795 6.29448784 63.0367937 5.39128471 58.2816443 4.62775216 58.0840386 4.58119529 52.5363642 3.71523765 47.1862956 2.68167529 46.9886899 2.63046275 42.4311461 1.98332235 36.2885525 0.716975686 36.0909468 0.665763137 33.5157664 0.349176471 26.3830422 1.65276863 26.1854366 1.6946698 20.2404486 3.74317176 20.042843 3.81766275 14.0999572 5.54492235 13.9023516 5.59147922 7.36244442 6.6809098 3.50496894 7.03474196"></polygon>
                <polyline id="Shape" stroke="#17788D" stroke-width="2" stroke-linecap="round" points="0.482073061 6.9169609 7.16483874 6.69953255 7.36244442 6.6809098 13.9023516 5.59147922 14.0999572 5.54492235 20.042843 3.81766275 20.2404486 3.74317176 26.1854366 1.6946698 26.3830422 1.65276863 33.3181607 0.353832157 36.0909468 0.665763137 36.2885525 0.716975686 42.2335404 1.96935529 46.9886899 2.63046275 47.1862956 2.68167529 52.3366564 3.6966149 52.5363642 3.71523765 58.0840386 4.58119529 58.2816443 4.62775216 62.8370859 5.37731765 68.9796795 6.29448784 69.1772851 6.33173333 73.5372232 6.81126902 80.9177248 7.16820864"></polyline>
                <polyline id="Shape" stroke="#17788D" stroke-width="2" stroke-linecap="round" points="0.353311484 7.15456703 7.16483874 7.37926275 7.36244442 7.39788549 12.9101188 8.25918745 13.1098267 8.30108863 20.042843 10.2564769 20.2404486 10.3309678 26.1854366 12.3794698 26.3830422 12.421371 33.3181607 13.7203075 36.0909468 13.4083765 36.2885525 13.3571639 42.2335404 12.1047843 46.9886899 11.4436769 47.1862956 11.3924643 52.3366564 10.3775247 52.5363642 10.358902 58.0840386 9.49294431 58.2816443 9.44638745 62.8370859 8.70147765 63.0367937 8.6828549 68.9796795 7.77965176 69.1772851 7.74240627 73.5372232 7.26287059 80.7941509 7.24256764"></polyline>
            </g>
            <g id="Group-24" transform="translate(3.186335, 32.833333)">
                <polygon id="Shape" fill="#8BBBC6" fill-rule="nonzero" points="0.048350326 6.85106196 11.5410126 7.43767843 11.7386183 7.46095686 20.2566844 8.80179451 20.4563923 8.83904 32.7394773 11.4974369 32.937083 11.5439937 41.8524626 13.3038431 42.0521705 13.3224659 47.2025313 13.4667922 47.400137 13.4574808 54.3352555 12.7963733 54.5328612 12.7684392 70.3833594 10.5523325 70.5809651 10.5197427 83.4589693 8.7366149 83.656575 8.72264784 91.7794297 8.30829176 91.9791376 8.30363608 101.289729 7.78219922 101.289729 5.84077804 83.656575 4.9049851 83.4589693 4.89101804 70.3833594 3.07530039 70.1857537 3.0380549 54.5328612 0.854538039 54.3352555 0.831259608 47.400137 0.165496471 47.2025313 0.156185098 42.0521705 0.300511373 41.8524626 0.323789804 32.937083 2.07898353 32.7394773 2.13019608 18.0788176 5.22622745 17.8812119 5.25881725 9.16343788 6.41342745 8.96373001 6.42739451 0.048350326 6.77191529"></polygon>
                <polyline id="Shape" stroke="#17788D" stroke-width="2" stroke-linecap="round" points="0.048350326 6.77191529 8.96373001 6.42739451 17.8812119 5.25881725 18.0788176 5.22622745 32.7394773 2.13019608 32.937083 2.07898353 41.8524626 0.323789804 42.0521705 0.300511373 47.2025313 0.156185098 54.3352555 0.831259608 54.5328612 0.854538039 70.1857537 3.0380549 70.3833594 3.07530039 83.4589693 4.89101804 112.671185 6.93727022"></polyline>
                <polyline id="Shape" stroke="#17788D" stroke-width="2" stroke-linecap="round" points="0.048350326 6.85106196 11.5410126 7.43767843 11.7386183 7.46095686 20.2566844 8.80179451 20.4563923 8.83904 32.7394773 11.4974369 32.937083 11.5439937 41.8524626 13.3038431 42.0521705 13.3224659 47.2025313 13.4667922 54.3352555 12.7963733 54.5328612 12.7684392 70.3833594 10.5523325 70.5809651 10.5197427 83.4589693 8.7366149 91.7794297 8.30829176 112.619974 7.08509725"></polyline>
            </g>
            <g id="Group-25" transform="translate(3.186335, 69.666667)">
                <polygon id="Shape" fill="#8BBBC6" fill-rule="nonzero" points="7.77599374 7.61327686 7.97359942 7.64121098 15.8988485 9.0937851 16.0964542 9.14034196 20.2566844 10.4299671 20.4563923 10.5137694 27.7867221 13.6610133 27.9843278 13.6936031 30.7592161 13.74016 37.6922324 13.4002949 41.0599377 13.0557741 41.2596456 12.9999059 44.0324317 11.8732298 44.2300374 11.7801161 47.9950562 10.4299671 48.1926619 10.3787545 55.1277804 9.05188392 61.6655854 8.59097098 61.8631911 8.55372549 65.8258156 8.05091137 71.7708035 7.73898039 71.9684092 7.70639059 77.11877 7.1942651 77.3163757 7.03597176 71.9684092 6.5145349 71.7708035 6.48660078 66.4207348 6.1746698 62.2605046 5.75100235 62.0628989 5.70910118 54.7304669 5.15507451 47.7974506 3.73974588 47.5998449 3.68853333 43.834826 2.25923765 43.6372203 2.16612392 40.8623321 1.11859451 40.6647264 1.07203765 36.8997075 0.839253333 31.1544275 0.51801098 28.1819335 0.504043922 27.9843278 0.531978039 20.0590787 3.87941647 19.8614731 3.95856314 14.116193 5.52287373 13.9185873 5.5647749 6.78586315 6.73800784 6.58615528 6.76128627 0.048350326 7.10115137"></polygon>
                <polyline id="Shape" stroke="#17788D" stroke-width="2" stroke-linecap="round" points="0.048350326 7.10115137 6.58615528 6.76128627 6.78586315 6.73800784 13.9185873 5.5647749 14.116193 5.52287373 19.8614731 3.95856314 20.0590787 3.87941647 27.9843278 0.531978039 28.1819335 0.504043922 30.9568218 0.499388235 31.1544275 0.51801098 36.7021018 0.84390902 40.6647264 1.07203765 40.8623321 1.11859451 43.6372203 2.16612392 43.834826 2.25923765 47.5998449 3.68853333 47.7974506 3.73974588 54.5328612 5.14110745 54.7304669 5.15507451 62.0628989 5.70910118 62.2605046 5.75100235 66.2231291 6.1746698 71.7708035 6.48660078 71.9684092 6.5145349 77.11877 7.03131608 85.828615 7.05304558"></polyline>
                <polyline id="Shape" stroke="#17788D" stroke-width="2" stroke-linecap="round" points="0.048350326 7.11977412 7.77599374 7.61327686 7.97359942 7.64121098 15.8988485 9.0937851 16.0964542 9.14034196 20.2566844 10.4299671 20.4563923 10.5137694 27.7867221 13.6610133 27.9843278 13.6936031 30.7592161 13.74016 30.9568218 13.7261929 37.6922324 13.4002949 41.0599377 13.0557741 41.2596456 12.9999059 44.0324317 11.8732298 44.2300374 11.7801161 47.9950562 10.4299671 48.1926619 10.3787545 55.1277804 9.05188392 61.6655854 8.59097098 61.8631911 8.55372549 65.8258156 8.05091137 71.7708035 7.73898039 71.9684092 7.70639059 77.11877 7.1942651 85.4385474 7.17331799"></polyline>
            </g>
            <g id="Group-26" transform="translate(0.000000, 100.500000)">
                <polygon id="Shape" fill="#8BBBC6" fill-rule="nonzero" points="3.23468573 7.85804444 12.9425903 9.1112 13.1422982 9.14417778 21.4627586 11.0710222 21.6603643 11.1275556 32.755713 14.1662222 32.9533187 14.1897778 37.113549 14.1473778 37.3132568 14.1285333 48.011292 13.3040889 48.2088977 13.3135111 57.7191966 13.3370667 57.9168023 13.3088 62.0791347 12.3665778 62.2767404 12.3100444 74.757431 8.87564444 74.9571389 8.84737778 80.5027111 8.39511111 80.702419 8.38568889 104.476064 7.58008889 104.476064 7.41991111 80.702419 6.61431111 80.5027111 6.60488889 74.9571389 6.15262222 74.757431 6.12435556 62.2767404 2.68995556 62.0791347 2.63342222 57.9168023 1.6912 57.7191966 1.66293333 48.2088977 1.68648889 48.011292 1.69591111 37.3132568 0.871466667 37.113549 0.852622222 32.9533187 0.810222222 32.755713 0.833777778 21.6603643 3.87244444 21.4627586 3.92897778 13.1422982 5.85582222 12.9425903 5.8888 3.23468573 7.14195556"></polygon>
                <polyline id="Shape" stroke="#17788D" stroke-width="2" stroke-linecap="round" points="0.567345869 7.78366091 12.9425903 5.8888 13.1422982 5.85582222 21.4627586 3.92897778 21.6603643 3.87244444 32.755713 0.833777778 32.9533187 0.810222222 37.113549 0.852622222 37.3132568 0.871466667 48.011292 1.69591111 57.7191966 1.66293333 57.9168023 1.6912 62.0791347 2.63342222 62.2767404 2.68995556 74.757431 6.12435556 74.9571389 6.15262222 80.5027111 6.60488889 104.476064 7.41991111"></polyline>
                <polyline id="Shape" stroke="#17788D" stroke-width="2" stroke-linecap="round" points="0.448428909 7.90492739 12.9425903 9.1112 13.1422982 9.14417778 21.4627586 11.0710222 21.6603643 11.1275556 32.755713 14.1662222 32.9533187 14.1897778 37.113549 14.1473778 37.3132568 14.1285333 48.011292 13.3040889 57.7191966 13.3370667 57.9168023 13.3088 62.0791347 12.3665778 62.2767404 12.3100444 74.757431 8.87564444 74.9571389 8.84737778 80.5027111 8.39511111 104.476064 7.58008889"></polyline>
            </g>
            <g id="Group-27" transform="translate(9.559006, 133.333333)">
                <polygon id="Shape" fill="#8BBBC6" fill-rule="nonzero" points="10.3187026 7.22940235 20.6215264 8.50971608 20.8191321 8.54696157 36.6696303 11.8804329 36.867236 11.9316455 44.1975658 13.5611357 47.5652712 13.31904 47.764979 13.2864502 63.4157693 10.46976 63.613375 10.4418259 71.5386241 8.98459608 71.7362298 8.94735059 78.2761369 7.90913255 88.5768586 7.27595922 94.9170578 7.0431749 94.9170578 6.73589961 88.9741721 6.51708235 79.8611867 6.00961255 71.9359377 4.86896941 71.7362298 4.82706824 59.4531448 2.79718902 52.1228149 1.44238431 51.9252092 1.39582745 46.7727462 0.33433098 43.4050409 0.269151373 38.4522858 1.40979451 38.2546801 1.46566275 32.3096922 2.77856627 32.1120865 2.81115608 25.7718872 4.0914698 25.5742816 4.13802667 18.6391631 5.60456784 18.4415574 5.63250196 10.5163083 6.53104941"></polygon>
                <polyline id="Shape" stroke="#17788D" stroke-width="2" stroke-linecap="round" points="0.441350311 6.75137634 10.3187026 6.54967216 10.5163083 6.53104941 18.4415574 5.63250196 18.6391631 5.60456784 25.5742816 4.13802667 25.7718872 4.0914698 32.1120865 2.81115608 32.3096922 2.77856627 38.2546801 1.46566275 38.4522858 1.40979451 43.2074352 0.292429804 43.4050409 0.269151373 46.5751406 0.311052549 46.7727462 0.33433098 51.9252092 1.39582745 52.1228149 1.44238431 59.2555391 2.77391059 59.4531448 2.79718902 71.7362298 4.82706824 71.9359377 4.86896941 79.6614789 5.99564549 79.8611867 6.00961255 88.7765664 6.50777098 94.9170578 6.73589961"></polyline>
                <polyline id="Shape" stroke="#17788D" stroke-width="2" stroke-linecap="round" points="0.31863354 6.79316291 10.3187026 7.22940235 20.6215264 8.50971608 20.8191321 8.54696157 36.6696303 11.8804329 36.867236 11.9316455 44.1975658 13.5611357 47.5652712 13.31904 47.764979 13.2864502 63.4157693 10.46976 63.613375 10.4418259 71.5386241 8.98459608 71.7362298 8.94735059 78.2761369 7.90913255 78.4737426 7.88585412 88.5768586 7.27595922 94.9170578 7.0431749"></polyline>
            </g>
            <g id="Group-32" transform="translate(3.000000, 163.000000)">
                <polygon id="Shape" fill="#8BBBC6" fill-rule="nonzero" points="0.048350326 7.35844392 4.01097487 8.0428298 4.21068274 8.09869804 9.95596278 10.0633976 10.1535685 10.1332329 17.681504 12.4517647 17.8812119 12.5076329 23.4267841 13.7367341 23.6264919 13.7600125 27.5891165 13.797258 27.7867221 13.7786353 35.3146577 12.7357616 35.5122634 12.6985161 39.6745958 11.6835765 39.8722015 11.6230525 49.1827925 8.79705098 49.3825004 8.75980549 57.5053551 7.5679498 57.7029608 7.55398275 63.8455544 7.06513569 63.6458466 7.06048 56.3155167 6.71595922 56.117911 6.69733647 49.3825004 5.61256157 49.1827925 5.57531608 44.8249566 4.49054118 44.6273509 4.42536157 39.0796766 2.51187451 38.8820709 2.45135059 30.9568218 0.984809412 30.7592161 0.96153098 26.399278 0.509929412 26.2016723 0.505273725 22.4366535 0.779959216 22.2390478 0.81254902 4.40828842 6.22245647 4.21068274 6.27832471 0.048350326 7.01392314"></polygon>
                <polyline id="Shape" stroke="#17788D" stroke-width="2" stroke-linecap="round" points="0.048350326 7.01392314 4.21068274 6.27832471 4.40828842 6.22245647 22.2390478 0.81254902 22.4366535 0.779959216 26.2016723 0.505273725 30.7592161 0.96153098 30.9568218 0.984809412 38.8820709 2.45135059 39.0796766 2.51187451 44.6273509 4.42536157 44.8249566 4.49054118 49.1827925 5.57531608 49.3825004 5.61256157 56.117911 6.69733647 56.3155167 6.71595922 63.6458466 7.06048 69.1338826 7.06048"></polyline>
                <polyline id="Shape" stroke="#17788D" stroke-width="2" stroke-linecap="round" points="0.048350326 7.35844392 4.01097487 8.0428298 4.21068274 8.09869804 9.95596278 10.0633976 10.1535685 10.1332329 17.681504 12.4517647 17.8812119 12.5076329 23.4267841 13.7367341 23.6264919 13.7600125 27.5891165 13.797258 27.7867221 13.7786353 35.3146577 12.7357616 35.5122634 12.6985161 39.6745958 11.6835765 39.8722015 11.6230525 49.1827925 8.79705098 49.3825004 8.75980549 57.5053551 7.5679498 57.7029608 7.55398275 69.1212883 7.27508387"></polyline>
            </g>
            <g id="Group-33" transform="translate(5.735404, 197.000000)">
                <polygon id="Shape" fill="#8BBBC6" fill-rule="nonzero" points="6.61436955 6.9945098 16.7174855 7.93495843 20.8777157 8.07462902 21.0774236 8.1165302 23.652604 8.98714353 23.8502097 9.07560157 33.75572 13.223818 33.9554278 13.2564078 36.3330026 13.284342 36.5306082 13.2564078 38.7105773 12.572022 38.908183 12.4742525 43.6633324 10.2721129 43.8609381 10.2209004 54.5589733 8.04203922 54.7586811 8.00479373 58.7213057 7.49732392 74.372096 6.73844706 60.3042533 5.9097349 55.5512061 5.47675608 55.3514982 5.43951059 44.0585438 3.14891294 43.8609381 3.10235608 38.908183 0.853659608 38.7105773 0.755890196 36.5306082 0.0715043137 36.3330026 0.0435701961 33.9554278 0.0715043137 33.75572 0.104094118 24.2475232 4.07539451 24.0478154 4.16385255 21.0774236 5.21138196 20.8777157 5.25328314 16.7174855 5.39295373 6.81197523 6.31012392"></polygon>
                <polyline id="Shape" stroke="#17788D" stroke-width="2" stroke-linecap="round" points="0.285507706 6.56291511 6.61436955 6.33340235 6.81197523 6.31012392 16.5198798 5.38364235 20.8777157 5.25328314 21.0774236 5.21138196 24.0478154 4.16385255 24.2475232 4.07539451 33.75572 0.104094118 33.9554278 0.0715043137 36.3330026 0.0435701961 36.5306082 0.0715043137 38.7105773 0.755890196 38.908183 0.853659608 43.8609381 3.10235608 44.0585438 3.14891294 55.3514982 5.43951059 55.5512061 5.47675608 60.1066476 5.90042353 81.7024259 6.62671059"></polyline>
                <polyline id="Shape" stroke="#17788D" stroke-width="2" stroke-linecap="round" points="0.325691326 6.68723451 6.61436955 6.9945098 6.81197523 7.01778824 16.7174855 7.93495843 20.8777157 8.07462902 21.0774236 8.1165302 23.652604 8.98714353 23.8502097 9.07560157 33.75572 13.223818 33.9554278 13.2564078 36.3330026 13.284342 36.5306082 13.2564078 38.7105773 12.572022 38.908183 12.4742525 43.6633324 10.2721129 43.8609381 10.2209004 54.5589733 8.04203922 54.7586811 8.00479373 58.7213057 7.49732392 81.801971 6.68723451"></polyline>
            </g>
        </g>
    </g>
</svg>