<?xml version="1.0" encoding="UTF-8" standalone="no"?>
<svg font-family='-apple-system, BlinkMacSystemFont, "Segoe UI", Roboto, Helvetica, Arial, sans-serif, "Apple Color Emoji", "Segoe UI Emoji", "Segoe UI Symbol"' width="272px" height="221px" viewBox="0 0 272 221" version="1.1" xmlns="http://www.w3.org/2000/svg" xmlns:xlink="http://www.w3.org/1999/xlink" style="background: #FFFFFF;">
    <!-- Generator: Sketch 49 (51002) - http://www.bohemiancoding.com/sketch -->
    <title>767 Total contracted since launch</title>
    <desc>Created with Sketch.</desc>
    <defs>
        <rect id="path-1" x="0" y="0" width="272" height="221"></rect>
        <linearGradient x1="50%" y1="0%" x2="50%" y2="100%" id="linearGradient-2">
            <stop stop-color="#33B0C1" offset="0%"></stop>
            <stop stop-color="#17788D" offset="100%"></stop>
        </linearGradient>
    </defs>
    <g id="767-Total-contracted-since-launch" stroke="none" stroke-width="1" fill="none" fill-rule="evenodd">
        <g id="Group">
            <g id="Rectangle-Copy">
                <use fill="#FAFBFC" fill-rule="evenodd" xlink:href="#path-1"></use>
                <rect stroke="#BBBBBB" stroke-width="1" x="0.5" y="0.5" width="271" height="220"></rect>
            </g>
            <text id="$84.82M" font-size="36" font-weight="bold" fill="#17788D">
                <tspan x="12" y="62">$84.82M</tspan>
            </text>
            <polyline id="Shape" stroke="url(#linearGradient-2)" stroke-width="3" points="169 68.8388704 171.022757 68.8388704 172.033389 68.2079734 173.045515 68.0509967 174.056146 68.0509967 175.066777 67.1883721 176.078904 67.1644518 178.101661 67.1644518 179.112292 66.9028239 180.122924 64.9712625 181.13505 64.9712625 185.17907 64.9712625 186.191196 64.6498339 187.201827 64.6498339 188.213953 62.7377076 189.224585 61.5192691 190.235216 51.9078073 201.359635 51.9078073 202.370266 48.282392 207.426412 48.282392 208.438538 47.8921927 209.449169 47.8921927 210.461296 47.7352159 211.471927 47.2343854 212.482558 47.2343854 214.505316 47.2343854 215.517442 46.7724252 216.528073 46.7724252 217.538704 46.0518272 218.550831 43.1200997 219.561462 43.1200997 220.573588 43.1200997 221.584219 42.0063123 222.59485 41.3230897 223.606977 40.9358804 224.617608 33.3127907 225.629734 33.3127907 228.663123 33.3127907 229.673754 31.9642857 231.696512 31.6802326 232.707143 30.8131229 234.7299 30.8131229 235.742027 30.6725914 236.752658 29.0325581 237.764784 25.2202658 238.775415 20.8563123 239.786047 19.5930233 241.808804 19.5930233 242.82093 18.4373754 244.842193 18.4373754 245.854319 17.7496678 246.86495 16.5147841 247.877076 16.5147841 248.887708 16.5147841 249.898339 16.3578073 250.910465 16.3578073 251.921096 13.8147841 257.989369 13.8147841 259 13"></polyline>
            <text id="Contracted-through-t" font-size="17" font-weight="normal" line-spacing="28" fill="#313131">
                <tspan x="12" y="91">Contracted through the </tspan>
                <tspan x="12" y="119">Marketplace since 29 August </tspan>
                <tspan x="12" y="147">2016* </tspan>
            </text>
            <text id="$8.51M-this-month" font-size="20" font-weight="bold" line-spacing="28" fill="#313131">
                <tspan x="13" y="190">$8.51M this month</tspan>
            </text>
        </g>
    </g>
</svg>