<?xml version="1.0" encoding="UTF-8" standalone="no"?>
<svg font-family='-apple-system, BlinkMacSystemFont, "Segoe UI", Roboto, Helvetica, Arial, sans-serif, "Apple Color Emoji", "Segoe UI Emoji", "Segoe UI Symbol"' width="273px" height="176px" viewBox="0 0 273 176" version="1.1" xmlns="http://www.w3.org/2000/svg" xmlns:xlink="http://www.w3.org/1999/xlink" style="background: #FFFFFF;">
    <!-- Generator: Sketch 48.2 (47327) - http://www.bohemiancoding.com/sketch -->
    <title>767 briefs by phase</title>
    <desc>Created with Sketch.</desc>
    <defs></defs>
    <g id="Symbols" stroke="none" stroke-width="1" fill="none" fill-rule="evenodd">
        <g id="767-briefs-by-phase">
            <text id="15%-Pre-discovery" font-size="14" font-weight="bold" line-spacing="16" fill="#333333">
                <tspan x="0" y="50">15% </tspan>
                <tspan x="0.970703125" y="66.2939453" font-weight="normal">Pre-discovery</tspan>
            </text>
            <text id="34%-Discovery" font-size="14" font-weight="bold" line-spacing="16" fill="#333333">
                <tspan x="73.3242188" y="159">34% </tspan>
                <tspan x="57" y="175.293945" font-weight="normal">Discovery</tspan>
            </text>
            <text id="13%-Alpha" font-size="14" font-weight="bold" line-spacing="16" fill="#333333">
                <tspan x="136.411133" y="50">13% </tspan>
                <tspan x="133" y="66.2939453" font-weight="normal">Alpha</tspan>
            </text>
            <text id="14%-Beta" font-size="14" font-weight="bold" line-spacing="16" fill="#333333">
                <tspan x="173" y="159">14% </tspan>
                <tspan x="173.440918" y="175.293945" font-weight="normal">Beta</tspan>
            </text>
            <text id="9%-Live" font-size="14" font-weight="bold" line-spacing="16" fill="#333333">
                <tspan x="210.56543" y="50">9%</tspan>
                <tspan x="232.139648" y="50.2939453" font-weight="normal"> </tspan>
                <tspan x="209" y="66.2939453" font-weight="normal">Live</tspan>
            </text>
            <text id="15%-Other" font-size="14" font-weight="bold" line-spacing="16" fill="#333333">
                <tspan x="237.73584" y="159">15% </tspan>
                <tspan x="278.635254" y="160.963867" font-weight="normal"></tspan>
                <tspan x="234" y="175.293945" font-weight="normal">Other</tspan>
            </text>
            <g id="Group-3" transform="translate(189.500000, 129.000000) scale(1, -1) translate(-189.500000, -129.000000) translate(188.000000, 120.000000)" stroke="#224A61">
                <path d="M1.5,17.5 L1.5,1.47501561" id="Line-2-Copy-3" stroke-linecap="square" transform="translate(1.500000, 9.500000) scale(-1, -1) translate(-1.500000, -9.500000) "></path>
                <circle id="Oval-Copy-3" fill="#B9D6DC" transform="translate(1.500000, 1.500000) scale(-1, -1) translate(-1.500000, -1.500000) " cx="1.5" cy="1.5" r="1.5"></circle>
            </g>
            <g id="Group-3-Copy-2" transform="translate(88.500000, 129.000000) scale(1, -1) translate(-88.500000, -129.000000) translate(87.000000, 120.000000)" stroke="#224A61">
                <path d="M1.5,17.5 L1.5,1.47501561" id="Line-2-Copy-3" stroke-linecap="square" transform="translate(1.500000, 9.500000) scale(-1, -1) translate(-1.500000, -9.500000) "></path>
                <circle id="Oval-Copy-3" fill="#B9D6DC" cx="1.5" cy="1.5" r="1.5"></circle>
            </g>
            <g id="Group-3-Copy-3" transform="translate(21.500000, 80.000000) scale(1, -1) rotate(-180.000000) translate(-21.500000, -80.000000) translate(20.000000, 71.000000)" stroke="#224A61">
                <path d="M1.5,17.5 L1.5,1.47501561" id="Line-2-Copy-3" stroke-linecap="square" transform="translate(1.500000, 9.500000) scale(-1, -1) translate(-1.500000, -9.500000) "></path>
                <circle id="Oval-Copy-3" fill="#B9D6DC" cx="1.5" cy="1.5" r="1.5"></circle>
            </g>
            <g id="Group-3-Copy-4" transform="translate(151.500000, 80.000000) scale(1, -1) rotate(-180.000000) translate(-151.500000, -80.000000) translate(150.000000, 71.000000)" stroke="#224A61">
                <path d="M1.5,17.5 L1.5,1.47501561" id="Line-2-Copy-3" stroke-linecap="square" transform="translate(1.500000, 9.500000) scale(-1, -1) translate(-1.500000, -9.500000) "></path>
                <circle id="Oval-Copy-3" fill="#B9D6DC" cx="1.5" cy="1.5" r="1.5"></circle>
            </g>
            <g id="Group-3-Copy-5" transform="translate(220.500000, 80.000000) scale(1, -1) rotate(-180.000000) translate(-220.500000, -80.000000) translate(219.000000, 71.000000)" stroke="#224A61">
                <path d="M1.5,17.5 L1.5,1.47501561" id="Line-2-Copy-3" stroke-linecap="square" transform="translate(1.500000, 9.500000) scale(-1, -1) translate(-1.500000, -9.500000) "></path>
                <circle id="Oval-Copy-3" fill="#B9D6DC" cx="1.5" cy="1.5" r="1.5"></circle>
            </g>
            <g id="Group-3-Copy" transform="translate(252.500000, 129.000000) scale(1, -1) translate(-252.500000, -129.000000) translate(251.000000, 120.000000)" stroke="#224A61">
                <path d="M1.5,17.5 L1.5,1.47501561" id="Line-2-Copy-3" stroke-linecap="square" transform="translate(1.500000, 9.500000) scale(-1, -1) translate(-1.500000, -9.500000) "></path>
                <circle id="Oval-Copy-3" fill="#B9D6DC" transform="translate(1.500000, 1.500000) scale(-1, -1) translate(-1.500000, -1.500000) " cx="1.5" cy="1.5" r="1.5"></circle>
            </g>
            <text id="Briefs-by-phase" font-size="17" font-weight="normal" line-spacing="28" fill="#313131">
                <tspan x="79" y="16">Briefs by phase</tspan>
            </text>
            <g id="Group-16" transform="translate(0.000000, 89.000000)" stroke="#FFFFFF">
                <rect id="Rectangle-9-Copy-28" fill="#D8D8D8" x="0" y="0" width="41.302583" height="35"></rect>
                <rect id="Rectangle-9-Copy-29" fill="#912B87" x="41.302583" y="0" width="91.6715867" height="35"></rect>
                <rect id="Rectangle-9-Copy-30" fill="#C52A72" x="132.97417" y="0" width="36.2656827" height="35"></rect>
                <rect id="Rectangle-9-Copy-31" fill="#F48834" x="168.232472" y="0" width="39.2878229" height="35"></rect>
                <rect id="Rectangle-9-Copy-32" fill="#59A94F" x="207.520295" y="0" width="25.1845018" height="35"></rect>
                <rect id="Rectangle-9-Copy-33" fill="#D8D8D8" x="231.697417" y="0" width="41.302583" height="35"></rect>
            </g>
        </g>
    </g>
</svg>