<?xml version="1.0" encoding="UTF-8" standalone="no"?>
<svg font-family='-apple-system, BlinkMacSystemFont, "Segoe UI", Roboto, Helvetica, Arial, sans-serif, "Apple Color Emoji", "Segoe UI Emoji", "Segoe UI Symbol"' width="273px" height="307px" viewBox="0 0 273 307" version="1.1" xmlns="http://www.w3.org/2000/svg" xmlns:xlink="http://www.w3.org/1999/xlink" style="background: #FFFFFF;">
    <!-- Generator: Sketch 49 (51002) - http://www.bohemiancoding.com/sketch -->
    <title>767 Average responses per brief</title>
    <desc>Created with Sketch.</desc>
    <defs></defs>
    <g id="767-Average-responses-per-brief" stroke="none" stroke-width="1" fill="none" fill-rule="evenodd">
        <g id="Group-Copy" transform="translate(9.000000, 99.000000)" stroke="#17788D" stroke-linecap="round" stroke-width="3">
            <polyline id="Shape" points="0 115.946024 12.8171096 65.095261 13.3306645 63.0834003 21.534485 32.0282999 22.0480399 30.2521017 25.6342193 18.9708434 26.1477741 17.5481392 29.2247508 10.1858635 29.7383056 9.16902276 32.3017276 4.95327979 32.8152824 4.2768407 34.8651495 2.14714859 35.3787043 1.74128514 37.4285714 0.58042838 37.9421262 0.401499331 40.5055482 0 41.019103 0.00872824632 43.5825249 0.432048193 44.0960797 0.584792503 47.6822591 2.06423025 48.195814 2.33480589 52.2955482 4.92273092 52.809103 5.29804552 56.9131894 8.80680054 57.4267442 9.3086747 61.0129236 13.3149398 61.5264784 13.96083 65.11701 19.0930388 65.6262126 19.9222222 69.2167442 26.4378581 69.730299 27.4808835 73.3208306 35.5326908 73.8300332 36.7939224 78.4476744 49.1443909 78.9568771 50.6063722 89.7241196 80.967577 90.2376744 82.2200803 93.828206 90.0929585 94.3417608 91.0792503 97.4187375 96.2856493 97.9279402 97.0319143 101.004917 100.915984 101.518472 101.470228 105.109003 104.791325 105.618206 105.201553 110.749402 108.79759 111.258605 109.129264 119.462425 114.833173 119.97598 115.247764 124.080066 118.983454 124.589269 119.502784 129.716113 125.311432 130.229668 125.939866 145.100997 144.260455 145.614551 144.801606 149.714286 148.559116 150.227841 148.947523 153.304817 150.872102 153.81402 151.125221 156.890997 152.163882 157.404551 152.268621 160.481528 152.526104 160.995083 152.513012 166.121927 152.015502 166.635482 151.954404 171.762326 151.635823 172.27588 151.648916 176.375615 152.128969 176.889169 152.229344 182.529568 153.761151 183.043123 153.922624 192.783256 156.685114 193.296811 156.794217 199.959967 157.89834 200.473522 157.963802 226.107741 160.743748 226.621296 160.774297 239.438405 161.8566 239.95196 161.908969 251.746312 162.807979 252.259867 162.829799 262 163"></polyline>
        </g>
        <g id="Group-7-Copy" transform="translate(0.000000, 285.000000)" stroke="#BBBBBB">
            <path d="M0,1.29154519 L271.221757,1.29154519" id="Shape"></path>
        </g>
        <text id="Buyers-receive-on-av" font-size="17" font-weight="normal" line-spacing="26" fill="#313131">
            <tspan x="33.1157227" y="17">Buyers receive on average </tspan>
            <tspan x="47.9990234" y="43">12 responses per brief</tspan>
        </text>
        <text id="12" font-size="11" font-weight="bold" letter-spacing="0.100000001" fill="#224A61">
            <tspan x="65.3776824" y="305">12</tspan>
        </text>
        <path d="M71.4373761,64.9999424 L71.4373761,287.085291" id="Line-3-Copy" stroke="#777777" stroke-width="2" stroke-linecap="square"></path>
        <circle id="Oval-22-Copy" fill="#777777" cx="71.4341917" cy="286.5" r="3.5"></circle>
    </g>
</svg>