<?xml version="1.0" encoding="UTF-8" standalone="no"?>
<svg font-family='-apple-system, BlinkMacSystemFont, "Segoe UI", Roboto, Helvetica, Arial, sans-serif, "Apple Color Emoji", "Segoe UI Emoji", "Segoe UI Symbol"' width="273px" height="307px" viewBox="0 0 273 307" version="1.1" xmlns="http://www.w3.org/2000/svg" xmlns:xlink="http://www.w3.org/1999/xlink" style="background: #FFFFFF;">
    <!-- Generator: Sketch 45.2 (43514) - http://www.bohemiancoding.com/sketch -->
    <title>767 average # of responses per brief</title>
    <desc>Created with Sketch.</desc>
    <defs></defs>
    <g id="Symbols" stroke="none" stroke-width="1" fill="none" fill-rule="evenodd">
        <g id="767-average-#-of-responses-per-brief">
            <g>
                <g id="&gt;768-seller-applications-per-brief">
                    <g id="Group-7-Copy" transform="translate(0.000000, 285.000000)" stroke="#BBBBBB">
                        <path d="M0,1.29154519 L271.221757,1.29154519" id="Shape"></path>
                    </g>
                    <text id="12" font-size="11" font-weight="bold" letter-spacing="0.100000001" fill="#224A61">
                        <tspan x="69.3776824" y="305">12</tspan>
                    </text>
                    <path d="M75.4373761,64.9999424 L75.4373761,287.085291" id="Line-3-Copy" stroke="#777777" stroke-width="2" stroke-linecap="square"></path>
                    <circle id="Oval-22-Copy" fill="#777777" cx="75.4341917" cy="286.5" r="3.5"></circle>
                    <text id="Buyers-receive-on-av" font-size="17" font-weight="normal" line-spacing="26" fill="#313131">
                        <tspan x="28.2600098" y="16">Buyers receive on average 12 </tspan>
                        <tspan x="18.4609375" y="42">responses per brief: October ‘17</tspan>
                    </text>
                </g>
                <g id="Group-9" transform="translate(10.506438, 70.000000)">
                    <polyline id="Shape" stroke="#17788D" stroke-width="3" stroke-linecap="round" points="0.433654332 155.878185 9.1197506 120.207676 9.63146272 118.093984 21.8908707 68.461573 22.4025828 66.473759 28.0227429 45.8928035 28.5301185 44.1882136 32.6194789 31.9099219 33.131191 30.5619847 36.1971271 23.4131971 36.7045027 22.3904432 39.7704388 17.1822656 40.2821509 16.4899399 42.8363749 13.6786779 43.348087 13.2538416 45.3905989 12.026537 45.902311 11.8429657 47.944823 11.538762 48.4565351 11.5754763 50.499047 12.1524144 51.0107591 12.3936794 53.5649831 14.1979222 54.0766952 14.6699624 57.1426313 18.037183 57.6543434 18.6823047 69.9137514 34.42747 70.4254635 34.9676938 79.1072233 44.1934585 79.6189354 44.8700496 82.6848715 49.5852073 83.1965836 50.5030634 86.2625197 56.8388927 86.7742318 58.0452178 90.3475435 67.5384721 90.8592557 69.0385111 95.9677037 85.1875331 96.4794158 86.8658984 103.630376 109.31928 104.142088 110.761626 108.231448 121.240919 108.738824 122.405285 112.316472 129.732399 112.828184 130.66599 116.401496 136.503555 116.913208 137.248329 121.002568 142.550915 121.51428 143.143588 126.622728 148.393724 127.130104 148.865765 135.8162 156.318756 136.327912 156.759327 143.478872 163.462299 143.990584 163.986788 151.141544 171.906575 151.653256 172.509737 166.471225 190.032921 166.978601 190.510206 170.556249 193.279509 171.067961 193.583712 174.133897 194.884446 174.645609 195.010323 177.707209 195.319772 178.218921 195.298792 182.308281 194.648425 182.819993 194.527793 190.482665 193.017264 190.990041 192.98055 195.591113 193.179856 196.102826 193.253284 201.718649 194.527793 202.230361 194.67465 220.114266 200.019195 220.621641 200.176541 238.505546 205.300801 239.012922 205.416188 246.67993 206.716922 247.187306 206.774615 256.385114 207.346309 256.896826 207.362043 261.493562 207.435472"></polyline>
                    <path d="M7.38964445e-13,0 L7.38964445e-13,218.1875" id="Shape" stroke-opacity="0" stroke="#000000"></path>
                </g>
            </g>
        </g>
    </g>
</svg>
