<?xml version="1.0" encoding="UTF-8" standalone="no"?>
<svg font-family='-apple-system, BlinkMacSystemFont, "Segoe UI", Roboto, Helvetica, Arial, sans-serif, "Apple Color Emoji", "Segoe UI Emoji", "Segoe UI Symbol"' width="273px" height="480px" viewBox="0 0 273 480" version="1.1" xmlns="http://www.w3.org/2000/svg" xmlns:xlink="http://www.w3.org/1999/xlink" style="background: #FFFFFF;">
    <!-- Generator: Sketch 45.2 (43514) - http://www.bohemiancoding.com/sketch -->
    <title>767 # sellers per area of expertise</title>
    <desc>Created with Sketch.</desc>
    <defs></defs>
    <g id="Symbols" stroke="none" stroke-width="1" fill="none" fill-rule="evenodd">
        <g id="767-#-sellers-per-area-of-expertise">
            <g>
                <text id="Strategy-and-policy" font-size="11" font-weight="normal" fill="#224A61">
                    <tspan x="30.4174805" y="74">Strategy and policy</tspan>
                </text>
                <text id="User-research-and-de" font-size="11" font-weight="normal" fill="#224A61">
                    <tspan x="0.129882812" y="114">User research and design</tspan>
                </text>
                <text id="Agile-delivery-and-g" font-size="11" font-weight="normal" fill="#224A61">
                    <tspan x="37.9584961" y="154">Agile delivery and </tspan>
                    <tspan x="65.5068359" y="167">governance</tspan>
                </text>
                <text id="Software-engineering" font-size="11" font-weight="normal" fill="#224A61">
                    <tspan x="20.5292969" y="193">Software engineering </tspan>
                    <tspan x="38.7802734" y="206">and development</tspan>
                </text>
                <text id="Support-and-operatio" font-size="11" font-weight="normal" fill="#224A61">
                    <tspan x="10.1577148" y="233">Support and operations</tspan>
                </text>
                <text id="Content-and-publishi" font-size="11" font-weight="normal" fill="#224A61">
                    <tspan x="10.7646484" y="273">Content and publishing</tspan>
                </text>
                <text id="Marketing,-comms-and" font-size="11" font-weight="normal" fill="#224A61">
                    <tspan x="12.7358398" y="353">Marketing, comms and </tspan>
                    <tspan x="61.6020508" y="366">engagement</tspan>
                </text>
                <text id="Change,-training-and" font-size="11" font-weight="normal" fill="#224A61">
                    <tspan x="22.4145508" y="313">Change, training and </tspan>
                    <tspan x="52.4335938" y="326">transformation</tspan>
                </text>
                <text id="Cyber-security" font-size="11" font-weight="normal" fill="#224A61">
                    <tspan x="53.0942383" y="392">Cyber security</tspan>
                </text>
                <text id="Data-science" font-size="11" font-weight="normal" fill="#224A61">
                    <tspan x="60.3183594" y="431">Data science</tspan>
                </text>
                <text id="Emerging-technologie" font-size="11" font-weight="normal" fill="#224A61">
                    <tspan x="12.6230469" y="472">Emerging technologies</tspan>
                </text>
                <path d="M142.275191,62 L136,62 L136,82 L142.275191,82 L217.550003,82 L217.550003,62 L142.275191,62 Z" id="Combined-Shape-Copy-2" fill="#17788D" fill-rule="nonzero"></path>
                <text id="223" font-size="14" font-weight="bold" fill="#FFFFFF">
                    <tspan x="190" y="77">223</tspan>
                </text>
                <path d="M224.127661,142 L136,142 L136,162 L224.127661,162 L269.699997,162 L269.699997,142 L224.127661,142 Z" id="Combined-Shape-Copy" fill="#17788D" fill-rule="nonzero"></path>
                <text id="382" font-size="14" font-weight="bold" fill="#FFFFFF">
                    <tspan x="240" y="157">382</tspan>
                </text>
                <path d="M218.289767,182 L136,182 L136,202 L218.289767,202 L272.5,202 L272.5,182 L218.289767,182 Z" id="Combined-Shape" fill="#17788D" fill-rule="nonzero"></path>
                <text id="390" font-size="14" font-weight="bold" fill="#FFFFFF">
                    <tspan x="244" y="197">390</tspan>
                </text>
                <path d="M209.233186,102 L136,102 L136,122 L209.233186,122 L248.699997,122 L248.699997,102 L209.233186,102 Z" id="Combined-Shape" fill="#17788D" fill-rule="nonzero"></path>
                <text id="322" font-size="14" font-weight="bold" fill="#FFFFFF">
                    <tspan x="218" y="117">322</tspan>
                </text>
                <path d="M146.999297,262 L136,262 L136,282 L146.999297,282 L186.400002,282 L186.400002,262 L146.999297,262 Z" id="Combined-Shape" fill="#17788D" fill-rule="nonzero"></path>
                <text id="144" font-size="14" font-weight="bold" fill="#FFFFFF">
                    <tspan x="159" y="277">144</tspan>
                </text>
                <path d="M194.998261,301 L136,301 L136,321 L194.998261,321 L242.75,321 L242.75,301 L194.998261,301 Z" id="Combined-Shape" fill="#17788D" fill-rule="nonzero"></path>
                <text id="305" font-size="14" font-weight="bold" fill="#FFFFFF">
                    <tspan x="215" y="317">305</tspan>
                </text>
                <path d="M165.099212,380 L136,380 L136,400 L165.099212,400 L203.550003,400 L203.550003,380 L165.099212,380 Z" id="Combined-Shape" fill="#17788D" fill-rule="nonzero"></path>
                <text id="193" font-size="14" font-weight="bold" fill="#FFFFFF">
                    <tspan x="176" y="396">193</tspan>
                </text>
                <path d="M138.987478,222 L136,222 L136,242 L138.987478,242 L197.25,242 L197.25,222 L138.987478,222 Z" id="Combined-Shape" fill="#17788D" fill-rule="nonzero"></path>
                <text id="175" font-size="14" font-weight="bold" fill="#FFFFFF">
                    <tspan x="170" y="238">175</tspan>
                </text>
                <path d="M157.995466,420 L136,420 L136,440 L157.995466,440 L192,440 L192,420 L157.995466,420 Z" id="Combined-Shape" fill="#17788D" fill-rule="nonzero"></path>
                <text id="160" font-size="14" font-weight="bold" fill="#FFFFFF">
                    <tspan x="163" y="436">160</tspan>
                </text>
                <path d="M137.059516,460 L136,460 L136,480 L137.059516,480 L186.400002,480 L186.400002,460 L137.059516,460 Z" id="Combined-Shape" fill="#17788D" fill-rule="nonzero"></path>
                <text id="144" font-size="14" font-weight="bold" fill="#FFFFFF">
                    <tspan x="159" y="476">144</tspan>
                </text>
                <path d="M139.386935,341 L136,341 L136,361 L139.386935,361 L180.799999,361 L180.799999,341 L139.386935,341 Z" id="Combined-Shape" fill="#17788D" fill-rule="nonzero"></path>
                <text id="Number-of-sellers-pe" font-size="17" font-weight="normal" line-spacing="26" fill="#313131">
                    <tspan x="30.0488281" y="16">Number of sellers per area of </tspan>
                    <tspan x="102.369385" y="42">expertise</tspan>
                </text>
                <text id="128" font-size="14" font-weight="bold" fill="#FFFFFF">
                    <tspan x="153" y="355">128</tspan>
                </text>
            </g>
        </g>
    </g>
</svg>
