<?xml version="1.0" encoding="UTF-8" standalone="no"?>
<svg font-family='-apple-system, BlinkMacSystemFont, "Segoe UI", Roboto, Helvetica, Arial, sans-serif, "Apple Color Emoji", "Segoe UI Emoji", "Segoe UI Symbol"' width="272px" height="193px" viewBox="0 0 272 193" version="1.1" xmlns="http://www.w3.org/2000/svg" xmlns:xlink="http://www.w3.org/1999/xlink" style="background: #FFFFFF;">
    <!-- Generator: Sketch 49 (51002) - http://www.bohemiancoding.com/sketch -->
    <title>767 total opportunities</title>
    <desc>Created with Sketch.</desc>
    <defs>
        <rect id="path-1" x="0" y="0" width="272" height="193"></rect>
        <linearGradient x1="50%" y1="0%" x2="50%" y2="100%" id="linearGradient-2">
            <stop stop-color="#33B0C1" offset="0%"></stop>
            <stop stop-color="#17788D" offset="100%"></stop>
        </linearGradient>
    </defs>
    <g id="767-total-opportunities" stroke="none" stroke-width="1" fill="none" fill-rule="evenodd">
        <g>
            <g id="Rectangle-Copy">
                <use fill="#FAFBFC" fill-rule="evenodd" xlink:href="#path-1"></use>
                <rect stroke="#BBBBBB" stroke-width="1" x="0.5" y="0.5" width="271" height="192"></rect>
            </g>
            <text id="541" font-size="36" font-weight="bold" letter-spacing="-1.50000024" fill="#17788D">
                <tspan x="12" y="60">541</tspan>
            </text>
            <text id="Total-opportunities" font-size="17" font-weight="normal" line-spacing="28" fill="#313131">
                <tspan x="12" y="91">Total opportunities since </tspan>
                <tspan x="12" y="119">29 August 2016</tspan>
            </text>
            <polyline id="Shape" stroke="url(#linearGradient-2)" stroke-width="3" points="161 70.8388704 163.022757 70.8388704 164.033389 69.1151163 165.045515 68.7712625 166.056146 66.0129568 167.066777 65.669103 168.078904 64.2892027 171.112292 64.2892027 172.122924 63.2561462 173.13505 61.1870432 174.145681 60.1539867 175.157807 58.7755814 176.168439 58.7755814 177.17907 58.7755814 178.191196 57.7410299 179.201827 57.7410299 180.213953 57.3956811 181.224585 56.3626246 182.235216 56.3626246 192.349003 56.3626246 193.359635 56.0172757 195.382392 55.3280731 196.393023 54.2935216 198.415781 54.2935216 199.426412 53.9496678 201.449169 53.2604651 202.461296 52.5712625 203.471927 50.1583056 204.482558 50.1583056 206.505316 50.1583056 207.517442 49.8129568 208.528073 48.7784053 209.538704 48.0892027 210.550831 47.0561462 211.561462 47.0561462 212.573588 47.0561462 213.584219 44.2978405 214.59485 44.2978405 215.606977 43.6086379 216.617608 41.5410299 217.629734 41.5410299 219.650997 41.5410299 220.663123 40.8518272 221.673754 38.7827243 222.68588 38.0935216 223.696512 37.0604651 224.707143 36.3697674 227.742027 36.3697674 228.752658 33.267608 229.764784 33.267608 230.775415 31.5453488 233.808804 31.5453488 234.82093 30.1654485 235.831561 30.1654485 236.842193 28.7870432 237.854319 27.7539867 238.86495 27.4086379 240.887708 27.4086379 241.898339 26.7194352 242.910465 26.3740864 243.921096 23.9611296 244.933223 19.8259136 245.943854 18.4475083 247.966611 18.4475083 248.977243 16.7237542 249.989369 16.3784053 251 15"></polyline>
            <text id="67-new-briefs-this-m" font-size="20" font-weight="bold" line-spacing="28" fill="#313131">
                <tspan x="13" y="162">67 new briefs this month</tspan>
            </text>
        </g>
    </g>
</svg>