<?xml version="1.0" encoding="UTF-8" standalone="no"?>
<svg font-family='-apple-system, BlinkMacSystemFont, "Segoe UI", Roboto, Helvetica, Arial, sans-serif, "Apple Color Emoji", "Segoe UI Emoji", "Segoe UI Symbol"' width="272px" height="193px" viewBox="0 0 272 193" version="1.1" xmlns="http://www.w3.org/2000/svg" xmlns:xlink="http://www.w3.org/1999/xlink">
    <!-- Generator: Sketch 47.1 (45422) - http://www.bohemiancoding.com/sketch -->
    <title>767 total opportunities</title>
    <desc>Created with Sketch.</desc>
    <defs>
        <rect id="path-1" x="0" y="0" width="272" height="193"></rect>
        <linearGradient x1="50%" y1="0%" x2="50%" y2="100%" id="linearGradient-2">
            <stop stop-color="#33B0C1" offset="0%"></stop>
            <stop stop-color="#17788D" offset="100%"></stop>
        </linearGradient>
    </defs>
    <g id="Mocks" stroke="none" stroke-width="1" fill="none" fill-rule="evenodd">
        <g id="Nov-monthly-report-less-than-767px" transform="translate(-24.000000, -2479.000000)">
            <g id="767-total-opportunities" transform="translate(24.000000, 2479.000000)">
                <g>
                    <g id="Rectangle-Copy">
                        <use fill="#FAFBFC" fill-rule="evenodd" xlink:href="#path-1"></use>
                        <rect stroke="#BBBBBB" stroke-width="1" x="0.5" y="0.5" width="271" height="192"></rect>
                    </g>
                    <text id="374"  font-size="36" font-weight="bold" letter-spacing="-1.50000024" fill="#17788D">
                        <tspan x="12" y="60">374</tspan>
                    </text>
                    <text id="Total-opportunities"  font-size="17" font-weight="normal" line-spacing="28" fill="#313131">
                        <tspan x="12" y="89">Total opportunities since 29 </tspan>
                        <tspan x="12" y="117">August 2016</tspan>
                    </text>
                    <text id="35-new-briefs-this-m"  font-size="20" font-weight="bold" line-spacing="28" fill="#313131">
                        <tspan x="13" y="162">35 new briefs this month</tspan>
                    </text>
                    <polyline id="Shape" stroke="url(#linearGradient-2)" stroke-width="3" stroke-linecap="round" points="163 70.8388704 164.010631 70.8388704 165.022757 70.348505 166.033389 69.3692691 167.045515 69.3692691 168.056146 68.3900332 169.066777 66.9204319 170.078904 66.4300664 171.089535 66.4300664 172.101661 66.4300664 173.112292 65.941196 174.122924 64.9604651 175.13505 64.4715947 176.145681 63.9812292 177.157807 63.9812292 178.168439 63.9812292 179.17907 63.4923588 180.191196 63.0019934 181.201827 61.532392 182.213953 61.0420266 183.224585 59.0835548 184.235216 59.0835548 185.247342 58.5931894 186.257973 58.5931894 187.2701 58.1043189 188.280731 56.6347176 189.292857 56.1443522 190.303488 55.1651163 191.31412 55.1651163 193.336877 55.1651163 194.349003 53.695515 196.370266 51.7355482 197.382392 51.2466777 198.393023 51.2466777 199.40515 50.7563123 200.415781 50.2659468 201.426412 50.2659468 202.438538 49.286711 203.449169 45.3682724 204.461296 45.3682724 205.471927 44.879402 206.482558 44.879402 207.494684 42.4290698 208.505316 41.9401993 209.517442 41.9401993 211.538704 39.9802326 212.550831 39.9802326 214.573588 39.0009967 215.584219 37.0410299 217.606977 36.061794 218.617608 34.5921927 220.640365 34.5921927 221.650997 33.6129568 222.663123 32.1433555 223.673754 31.65299 224.68588 29.6945183 225.696512 28.2249169 227.719269 28.2249169 228.7299 27.7345515 229.742027 26.2664452 230.752658 25.2857143 231.764784 24.3064784 232.775415 23.816113 234.798173 23.816113 235.808804 22.8368771 241.877076 22.8368771 242.887708 21.8576412 243.898339 20.3880399 244.910465 20.3880399 246.933223 19.408804 247.943854 19.408804 248.954485 18.9184385 249.966611 16.9599668 250.977243 16.9599668 251.989369 15.4903654 253 15"></polyline>
                </g>
            </g>
        </g>
    </g>
</svg>