<?xml version="1.0" encoding="UTF-8" standalone="no"?>
<svg font-family='-apple-system, BlinkMacSystemFont, "Segoe UI", Roboto, Helvetica, Arial, sans-serif, "Apple Color Emoji", "Segoe UI Emoji", "Segoe UI Symbol"' width="274px" height="308px" viewBox="0 0 274 308" version="1.1" xmlns="http://www.w3.org/2000/svg" xmlns:xlink="http://www.w3.org/1999/xlink" style="background: #FFFFFF;">
    <!-- Generator: Sketch 45.2 (43514) - http://www.bohemiancoding.com/sketch -->
    <title>767 seller bids per role</title>
    <desc>Created with Sketch.</desc>
    <defs></defs>
    <g id="Symbols" stroke="none" stroke-width="1" fill="none" fill-rule="evenodd">
        <g id="767-seller-bids-per-role">
            <g>
                <text id="Daily-rates-sellers"  font-size="17" font-weight="normal" line-spacing="26" fill="#313131">
                    <tspan x="26.5666504" y="16">Daily rates sellers have bid for </tspan>
                    <tspan x="81.9536133" y="42">specialist roles</tspan>
                </text>
                <text id="Daily-rate-inc-GST" font-size="14" font-weight="bold" fill="#224A61">
                    <tspan x="79" y="305">Daily rate inc GST</tspan>
                </text>
                <g id="Group-3" transform="translate(1.000000, 65.000000)" font-size="11"  fill="#224A61" font-weight="normal">
                    <text id="User-research-and-de-Copy-2">
                        <tspan x="34.2723513" y="11">User research and </tspan>
                        <tspan x="89.3905154" y="24">design</tspan>
                    </text>
                </g>
                <g id="Group-7" transform="translate(0.000000, 100.000000)" font-size="11"  fill="#224A61" font-weight="normal">
                    <text id="Software-engineering-Copy">
                        <tspan x="20.5292969" y="11">Software engineering </tspan>
                        <tspan x="38.7802734" y="24">and development</tspan>
                    </text>
                </g>
                <g id="Group-14" transform="translate(134.000000, 72.000000)">
                    <path d="M0,184 L137.361111,184" id="Shape-Copy" stroke="#BBBBBB" fill-opacity="0.300000012" fill="#001F5F" fill-rule="nonzero"></path>
                    <text id="1000-copy" fill="#444444"  font-size="7" font-weight="normal">
                        <tspan x="36.5" y="202">1000</tspan>
                    </text>
                    <text id="2000-copy" fill="#444444"  font-size="7" font-weight="normal">
                        <tspan x="81.2222222" y="202">2000</tspan>
                    </text>
                    <text id="3000-copy" fill="#444444"  font-size="7" font-weight="normal">
                        <tspan x="122.75" y="203">3000</tspan>
                    </text>
                    <polygon id="Shape" stroke="#17788D" stroke-width="2" fill-opacity="0.5" fill="#17788D" fill-rule="nonzero" stroke-linejoin="round" points="36.6799152 169.823119 40.5920017 169.696402 43.6326865 169.82674 43.8493842 169.866565 46.2399757 170.630487 46.4566735 170.72824 50.1520622 172.657958 50.3687599 172.773813 53.6284478 174.124254 53.8451456 174.182182 56.016734 174.515266 58.6240232 174.250971 58.840721 174.203904 64.0552994 172.733988 64.2743025 172.668819 68.8364823 171.560951 69.0531801 171.524746 86.8685038 168.740594 100.340651 167.88254 111.419901 167.777546 111.636599 167.741341 100.557349 167.643588 87.0852016 166.796395 69.0531801 163.99414 68.8364823 163.957935 64.2743025 162.850067 64.0552994 162.784899 58.840721 161.314982 58.6240232 161.267916 56.2334317 161 53.8451456 161.336705 53.6284478 161.394633 50.3687599 162.745073 50.1520622 162.860929 46.4566735 164.790647 46.2399757 164.8884 43.8493842 165.652322 43.6326865 165.692147 40.8086995 165.833346 36.8989183 165.681286 32.1177354 166.61537 31.9010376 166.673298 27.7722533 167.469805 27.5555556 167.491527"></polygon>
                    <polygon id="Shape" stroke="#17788D" stroke-width="2" fill-opacity="0.5" fill="#17788D" fill-rule="nonzero" stroke-linejoin="round" points="17.9722222 133.824612 22.9701029 134.25545 23.1868007 134.288034 27.3155849 135.225739 27.5322827 135.287287 33.8326553 137.340102 34.0516584 137.419752 42.0902239 140.193043 42.3069217 140.232868 45.3476064 140.522507 49.6930885 140.261832 57.950657 139.331368 58.1673548 139.284302 62.5128368 138.00265 62.7295346 137.923 70.3347045 135.146089 70.5514023 135.102643 74.4611835 134.570432 84.6736426 133.81013 74.6801865 132.973798 70.5514023 132.419864 70.3347045 132.376418 62.7295346 129.599507 62.5128368 129.519857 58.1673548 128.238205 57.950657 128.191139 49.9120915 127.278777 45.5666095 127 42.3069217 127.289639 42.0902239 127.329464 34.0516584 130.102755 33.8326553 130.182405 27.5322827 132.23522 27.3155849 132.296768 23.1868007 133.234473 22.9701029 133.267057 17.9722222 133.697895"></polygon>
                    <polygon id="Shape" stroke="#17788D" stroke-width="2" fill-opacity="0.5" fill="#17788D" fill-rule="nonzero" stroke-linejoin="round" points="17.9722222 102.73772 34.7017518 103.009257 41.2211275 103.70801 41.4378252 103.744215 46.8691015 104.823119 47.0857992 104.877426 54.2575736 106.930241 54.4742714 106.995409 60.5579462 108.458085 60.774644 108.49791 66.422618 109.276314 71.8538942 109.475441 77.2874758 108.935989 77.5041735 108.903404 88.8024268 107.122126 89.0191246 107.082301 109.658435 103.215624 115.308715 102.900642 124.649772 103.016498 128.995254 102.973052 128.995254 102.502389 124.868775 102.455323 115.525412 102.574799 109.877438 102.28516 89.0191246 98.3931398 88.8024268 98.3533145 77.5041735 96.5720364 77.2874758 96.5394521 72.0728973 96.0108615 66.6416211 96.1774037 60.774644 96.9775306 60.5579462 97.0173559 54.4742714 98.4800314 54.2575736 98.5452001 47.0857992 100.598014 46.8691015 100.652322 41.4378252 101.731226 41.2211275 101.767431 34.9207548 102.451702"></polygon>
                    <polygon id="Shape" stroke="#17788D" stroke-width="2" fill-opacity="0.5" fill="#17788D" fill-rule="nonzero" stroke-linejoin="round" points="17.9722222 73.0527025 24.7082957 73.7586968 36.006549 75.713758 36.2232468 75.7572039 49.6930885 78.2263738 54.6909691 78.3929161 63.598631 78.4906691 74.2444857 79.4790612 78.1565722 78.9540911 78.3732699 78.9070248 82.718752 77.6905422 82.9354498 77.621753 92.2788125 74.9027697 92.4955102 74.8557034 97.4933909 74.0410945 103.57476 73.603016 123.999679 72.7522023 103.793764 71.8869067 97.7100887 71.4596896 92.4955102 70.6233578 92.2788125 70.5762915 82.9354498 67.8573082 82.718752 67.788519 78.3732699 66.5720364 78.1565722 66.5249702 74.4611835 66.0108615 63.8153288 66.9666692 54.9076669 67.0897656 49.9120915 67.2309645 36.2232468 69.7218574 36.006549 69.7653032 24.9249935 71.6914005 17.9722222 72.4263588"></polygon>
                    <polygon id="Shape" stroke="#17788D" stroke-width="2" fill-opacity="0.5" fill="#17788D" fill-rule="nonzero" stroke-linejoin="round" points="26.0107877 39.0056362 32.5301634 39.813004 32.7468612 39.8528294 37.0923432 40.83036 37.309041 40.8919082 41.4378252 42.394409 41.654523 42.4849211 46.8691015 44.4037775 47.0857992 44.4544643 49.9120915 44.7947898 56.6458597 45.1170128 56.8625575 45.1495972 60.9913418 45.4681998 63.598631 44.9468501 63.8153288 44.8744404 72.0728973 42.0902884 72.2895951 42.0396016 77.2874758 41.0439685 81.4139547 40.8882877 85.542739 40.5479623 85.7594368 40.5189984 90.3216166 40.0881608 95.7551981 39.7478353 95.9718959 39.7116305 102.705664 38.8137505 111.832329 38.7666842 102.705664 38.6544492 95.9718959 37.7565692 95.7551981 37.7203644 90.5406197 37.3836594 85.7594368 36.9492014 85.542739 36.9202375 81.6329578 36.5835325 77.5041735 36.4459541 72.2895951 35.4285982 72.0728973 35.3779114 63.8153288 32.5937593 63.598631 32.5213497 61.2080396 32.0144819 56.8625575 32.3186026 56.6458597 32.3511869 50.1287893 32.666169 47.0857992 33.0137355 46.8691015 33.0644222 41.654523 34.9832787 41.4378252 35.0737907 37.309041 36.5762915 37.0923432 36.6378398 32.7468612 37.6153704 32.5301634 37.6551957 26.2297907 38.4444612 17.9722222 38.7268589"></polygon>
                    <polygon id="Shape" stroke="#17788D" stroke-width="2" fill-opacity="0.5" fill="#17788D" fill-rule="nonzero" stroke-linecap="round" stroke-linejoin="round" points="27.7489805 7.0201181 33.6159576 7.76593776 33.8326553 7.8021426 40.3520311 9.24671564 40.5687288 9.30826386 45.5666095 10.9990298 45.7833073 11.07506 49.2596929 12.0344882 49.4763907 12.077934 58.6007503 13.5080251 61.6437404 13.305278 61.8604382 13.2690731 68.8132095 12.3494703 72.5062929 11.7158856 72.7229906 11.6579578 78.1565722 10.4523367 84.8903404 9.56169773 85.1093434 9.51463144 90.3216166 8.64209484 96.1885937 7.79128115 96.4052914 7.74421486 101.61987 6.96219036 108.139246 6.7956481 101.838873 6.56755762 96.4052914 5.77105118 96.1885937 5.72398489 90.5406197 4.8948941 85.1093434 4.0006346 84.8903404 3.95356831 78.3732699 3.0846522 72.7229906 1.85730819 72.5062929 1.79938045 69.0299072 1.1838982 61.8604382 0.246192899 61.6437404 0.209988061 58.8197534 0 49.4763907 1.43733207 49.2596929 1.48077788 45.7833073 2.44020608 45.5666095 2.51623624 40.5687288 4.20700218 40.3520311 4.2685504 33.8326553 5.71312344 33.6159576 5.74932828 27.9679836 6.47704553 17.9722222 6.75582278"></polygon>
                </g>
                <g id="Group-4" transform="translate(0.000000, 137.000000)" font-size="11"  fill="#224A61" font-weight="normal">
                    <text id="Data-science-Copy">
                        <tspan x="60.3183594" y="11">Data science</tspan>
                    </text>
                </g>
                <g id="Group-5" transform="translate(1.000000, 166.000000)" font-size="11"  fill="#224A61" font-weight="normal">
                    <text id="Cyber-security-Copy">
                        <tspan x="53.0942383" y="11">Cyber security</tspan>
                    </text>
                </g>
                <text id="Content-and-publishi-Copy"  font-size="11" font-weight="normal" fill="#224A61">
                    <tspan x="11.2152224" y="204">Content and publishing</tspan>
                </text>
                <g id="Group-6" transform="translate(1.000000, 228.000000)" font-size="11"  fill="#224A61" font-weight="normal">
                    <text id="Agile-delivery-and-g-Copy">
                        <tspan x="37.4090701" y="11">Agile delivery and </tspan>
                        <tspan x="64.9574099" y="24">governance</tspan>
                    </text>
                </g>
            </g>
        </g>
    </g>
</svg>
