<?xml version="1.0" encoding="UTF-8" standalone="no"?>
<svg font-family='-apple-system, BlinkMacSystemFont, "Segoe UI", Roboto, Helvetica, Arial, sans-serif, "Apple Color Emoji", "Segoe UI Emoji", "Segoe UI Symbol"' width="272px" height="193px" viewBox="0 0 272 193" version="1.1" xmlns="http://www.w3.org/2000/svg" xmlns:xlink="http://www.w3.org/1999/xlink">
    <!-- Generator: Sketch 47.1 (45422) - http://www.bohemiancoding.com/sketch -->
    <title>767 # sellers</title>
    <desc>Created with Sketch.</desc>
    <defs>
        <rect id="path-1" x="0" y="0" width="272" height="193"></rect>
        <linearGradient x1="50%" y1="0%" x2="50%" y2="100%" id="linearGradient-2">
            <stop stop-color="#33B0C1" offset="0%"></stop>
            <stop stop-color="#17788D" offset="100%"></stop>
        </linearGradient>
    </defs>
    <g id="Mocks" stroke="none" stroke-width="1" fill="none" fill-rule="evenodd">
        <g id="Nov-monthly-report-less-than-767px" transform="translate(-24.000000, -2262.000000)">
            <g id="767-total-opportunities" transform="translate(24.000000, 2262.000000)">
                <g>
                    <g id="Rectangle-Copy">
                        <use fill="#FAFBFC" fill-rule="evenodd" xlink:href="#path-1"></use>
                        <rect stroke="#BBBBBB" stroke-width="1" x="0.5" y="0.5" width="271" height="192"></rect>
                    </g>
                    <text id="730"  font-size="36" font-weight="bold" letter-spacing="-1.50000024" fill="#17788D">
                        <tspan x="12" y="60">730</tspan>
                    </text>
                    <text id="Sellers-registered-t"  font-size="17" font-weight="normal" line-spacing="28" fill="#313131">
                        <tspan x="12" y="89">Sellers registered to offer digital </tspan>
                        <tspan x="12" y="117">and ICT services</tspan>
                    </text>
                    <text id="28-new-sellers-this"  font-size="20" font-weight="bold" line-spacing="28" fill="#313131">
                        <tspan x="13" y="162">28 new sellers this month</tspan>
                    </text>
                    <polyline id="Shape" stroke="url(#linearGradient-2)" stroke-width="3" stroke-linecap="round" points="164 69.8388704 165.010631 69.8388704 166.022757 68.9792359 167.033389 66.832392 168.045515 65.9727575 170.066777 63.3953488 171.078904 63.3953488 173.101661 63.3953488 174.112292 62.5372093 175.122924 62.1066445 176.13505 58.2420266 178.157807 58.2420266 179.168439 57.8114618 180.17907 56.9533223 181.191196 56.5227575 182.201827 54.3759136 183.213953 54.3759136 184.224585 53.5162791 185.235216 53.5162791 187.257973 53.5162791 188.2701 53.0872093 189.280731 53.0872093 190.292857 51.3694352 191.303488 50.5098007 192.31412 50.5098007 194.336877 50.5098007 195.349003 50.0807309 197.370266 46.6436877 198.382392 46.2146179 200.40515 46.2146179 201.415781 44.0677741 202.426412 42.348505 203.438538 41.4903654 204.449169 40.6307309 205.461296 38.9129568 207.482558 38.9129568 208.494684 38.483887 211.528073 33.3290698 212.538704 32.9 215.573588 32.9 216.584219 30.3225914 217.59485 29.033887 218.606977 26.8855482 221.640365 26.8855482 222.650997 26.0274086 223.663123 26.0274086 224.673754 24.7387043 225.68588 24.7387043 226.696512 24.3081395 230.742027 24.3081395 231.752658 23.8790698 232.764784 22.5903654 233.775415 22.1612957 235.798173 22.1612957 236.808804 20.8725914 238.831561 18.2951827 239.842193 18.2951827 240.854319 18.2951827 241.86495 17.866113 243.887708 17.0064784 244.898339 17.0064784 245.910465 17.0064784 246.921096 15.2887043 251.977243 15.2887043 252.989369 14 254 14"></polyline>
                </g>
            </g>
        </g>
    </g>
</svg>