<?xml version="1.0" encoding="UTF-8" standalone="no"?>
<svg font-family='-apple-system, BlinkMacSystemFont, "Segoe UI", Roboto, Helvetica, Arial, sans-serif, "Apple Color Emoji", "Segoe UI Emoji", "Segoe UI Symbol"' width="273px" height="176px" viewBox="0 0 273 176" version="1.1" xmlns="http://www.w3.org/2000/svg" xmlns:xlink="http://www.w3.org/1999/xlink" style="background: #FFFFFF;">
    <!-- Generator: Sketch 49 (51002) - http://www.bohemiancoding.com/sketch -->
    <title>767 briefs by phase</title>
    <desc>Created with Sketch.</desc>
    <defs></defs>
    <g id="767-briefs-by-phase" stroke="none" stroke-width="1" fill="none" fill-rule="evenodd">
        <text id="16%-Pre-discovery" font-size="14" font-weight="bold" line-spacing="16" fill="#333333">
            <tspan x="0" y="50">16% </tspan>
            <tspan x="0.970703125" y="66.2939453" font-weight="normal">Pre-discovery</tspan>
        </text>
        <text id="34%-Discovery" font-size="14" font-weight="bold" line-spacing="16" fill="#333333">
            <tspan x="75.3242188" y="159">34% </tspan>
            <tspan x="59" y="175.293945" font-weight="normal">Discovery</tspan>
        </text>
        <text id="13%-Alpha" font-size="14" font-weight="bold" line-spacing="16" fill="#333333">
            <tspan x="139.411133" y="50">13% </tspan>
            <tspan x="136" y="66.2939453" font-weight="normal">Alpha</tspan>
        </text>
        <text id="13%-Beta" font-size="14" font-weight="bold" line-spacing="16" fill="#333333">
            <tspan x="173" y="159">13% </tspan>
            <tspan x="173.440918" y="175.293945" font-weight="normal">Beta</tspan>
        </text>
        <text id="8%-Live" font-size="14" font-weight="bold" line-spacing="16" fill="#333333">
            <tspan x="207.56543" y="50">8%</tspan>
            <tspan x="229.139648" y="50.2939453" font-weight="normal"> </tspan>
            <tspan x="206" y="66.2939453" font-weight="normal">Live</tspan>
        </text>
        <text id="16%-Other" font-size="14" font-weight="bold" line-spacing="16" fill="#333333">
            <tspan x="235.73584" y="159">16% </tspan>
            <tspan x="276.635254" y="160.963867" font-weight="normal"></tspan>
            <tspan x="232" y="175.293945" font-weight="normal">Other</tspan>
        </text>
        <g id="Group-3" transform="translate(189.500000, 129.000000) scale(1, -1) translate(-189.500000, -129.000000) translate(188.000000, 120.000000)" stroke="#224A61">
            <path d="M1.5,17.5 L1.5,1.47501561" id="Line-2-Copy-3" stroke-linecap="square" transform="translate(1.500000, 9.500000) scale(-1, -1) translate(-1.500000, -9.500000) "></path>
            <circle id="Oval-Copy-3" fill="#B9D6DC" transform="translate(1.500000, 1.500000) scale(-1, -1) translate(-1.500000, -1.500000) " cx="1.5" cy="1.5" r="1.5"></circle>
        </g>
        <g id="Group-3-Copy-2" transform="translate(90.500000, 129.000000) scale(1, -1) translate(-90.500000, -129.000000) translate(89.000000, 120.000000)" stroke="#224A61">
            <path d="M1.5,17.5 L1.5,1.47501561" id="Line-2-Copy-3" stroke-linecap="square" transform="translate(1.500000, 9.500000) scale(-1, -1) translate(-1.500000, -9.500000) "></path>
            <circle id="Oval-Copy-3" fill="#B9D6DC" cx="1.5" cy="1.5" r="1.5"></circle>
        </g>
        <g id="Group-3-Copy-3" transform="translate(21.500000, 80.000000) scale(1, -1) rotate(-180.000000) translate(-21.500000, -80.000000) translate(20.000000, 71.000000)" stroke="#224A61">
            <path d="M1.5,17.5 L1.5,1.47501561" id="Line-2-Copy-3" stroke-linecap="square" transform="translate(1.500000, 9.500000) scale(-1, -1) translate(-1.500000, -9.500000) "></path>
            <circle id="Oval-Copy-3" fill="#B9D6DC" cx="1.5" cy="1.5" r="1.5"></circle>
        </g>
        <g id="Group-3-Copy-4" transform="translate(154.500000, 80.000000) scale(1, -1) rotate(-180.000000) translate(-154.500000, -80.000000) translate(153.000000, 71.000000)" stroke="#224A61">
            <path d="M1.5,17.5 L1.5,1.47501561" id="Line-2-Copy-3" stroke-linecap="square" transform="translate(1.500000, 9.500000) scale(-1, -1) translate(-1.500000, -9.500000) "></path>
            <circle id="Oval-Copy-3" fill="#B9D6DC" cx="1.5" cy="1.5" r="1.5"></circle>
        </g>
        <g id="Group-3-Copy-5" transform="translate(217.500000, 80.000000) scale(1, -1) rotate(-180.000000) translate(-217.500000, -80.000000) translate(216.000000, 71.000000)" stroke="#224A61">
            <path d="M1.5,17.5 L1.5,1.47501561" id="Line-2-Copy-3" stroke-linecap="square" transform="translate(1.500000, 9.500000) scale(-1, -1) translate(-1.500000, -9.500000) "></path>
            <circle id="Oval-Copy-3" fill="#B9D6DC" cx="1.5" cy="1.5" r="1.5"></circle>
        </g>
        <g id="Group-3-Copy" transform="translate(250.500000, 129.000000) scale(1, -1) translate(-250.500000, -129.000000) translate(249.000000, 120.000000)" stroke="#224A61">
            <path d="M1.5,17.5 L1.5,1.47501561" id="Line-2-Copy-3" stroke-linecap="square" transform="translate(1.500000, 9.500000) scale(-1, -1) translate(-1.500000, -9.500000) "></path>
            <circle id="Oval-Copy-3" fill="#B9D6DC" transform="translate(1.500000, 1.500000) scale(-1, -1) translate(-1.500000, -1.500000) " cx="1.5" cy="1.5" r="1.5"></circle>
        </g>
        <text id="Briefs-by-phase" font-size="17" font-weight="normal" line-spacing="28" fill="#313131">
            <tspan x="79" y="16">Briefs by phase</tspan>
        </text>
        <g id="Group" transform="translate(0.000000, 89.000000)" stroke="#FFFFFF">
            <rect id="Rectangle-9-Copy-28" fill="#D8D8D8" x="0" y="0" width="44" height="35"></rect>
            <rect id="Rectangle-9-Copy-29" fill="#912B87" x="44" y="0" width="93" height="35"></rect>
            <rect id="Rectangle-9-Copy-30" fill="#C52A72" x="137" y="0" width="35" height="35"></rect>
            <rect id="Rectangle-9-Copy-31" fill="#F48834" x="172" y="0" width="35" height="35"></rect>
            <rect id="Rectangle-9-Copy-32" fill="#59A94F" x="208" y="0" width="21" height="35"></rect>
            <rect id="Rectangle-9-Copy-33" fill="#D8D8D8" x="229" y="0" width="44" height="35"></rect>
        </g>
    </g>
</svg>