<?xml version="1.0" encoding="UTF-8" standalone="no"?>
<svg font-family='-apple-system, BlinkMacSystemFont, "Segoe UI", Roboto, Helvetica, Arial, sans-serif, "Apple Color Emoji", "Segoe UI Emoji", "Segoe UI Symbol"' width="272px" height="193px" viewBox="0 0 272 193" version="1.1" xmlns="http://www.w3.org/2000/svg" xmlns:xlink="http://www.w3.org/1999/xlink" style="background: #FFFFFF;">
    <!-- Generator: Sketch 49 (51002) - http://www.bohemiancoding.com/sketch -->
    <title>767 Number of sellers</title>
    <desc>Created with Sketch.</desc>
    <defs>
        <rect id="path-1" x="0" y="0" width="272" height="193"></rect>
        <linearGradient x1="50%" y1="0%" x2="50%" y2="100%" id="linearGradient-2">
            <stop stop-color="#33B0C1" offset="0%"></stop>
            <stop stop-color="#17788D" offset="100%"></stop>
        </linearGradient>
    </defs>
    <g id="767-Number-of-sellers" stroke="none" stroke-width="1" fill="none" fill-rule="evenodd">
        <g id="Group">
            <g id="Rectangle-Copy">
                <use fill="#FAFBFC" fill-rule="evenodd" xlink:href="#path-1"></use>
                <rect stroke="#BBBBBB" stroke-width="1" x="0.5" y="0.5" width="271" height="192"></rect>
            </g>
            <text id="819" font-size="36" font-weight="bold" letter-spacing="-1.50000024" fill="#17788D">
                <tspan x="12" y="60">819</tspan>
            </text>
            <text id="Sellers-registered-t" font-size="17" font-weight="normal" line-spacing="28" fill="#313131">
                <tspan x="12" y="89">Sellers registered to offer digital </tspan>
                <tspan x="12" y="117">and ICT services</tspan>
            </text>
            <text id="33-new-sellers-this" font-size="20" font-weight="bold" line-spacing="28" fill="#313131">
                <tspan x="13" y="162">33 new sellers this month</tspan>
            </text>
            <polyline id="Shape" stroke="url(#linearGradient-2)" stroke-width="3" points="164 70.8388704 165.010631 70.8388704 166.022757 68.3003322 167.033389 64.4940199 168.045515 63.8586379 169.056146 63.8586379 170.066777 62.5893688 173.101661 62.5893688 174.112292 60.6862126 175.122924 60.6862126 176.13505 59.4169435 177.145681 58.7830565 178.157807 58.7830565 179.168439 57.5137874 180.17907 57.5137874 181.191196 56.8784053 182.201827 56.8784053 183.213953 55.6106312 184.224585 54.9752492 194.336877 54.9752492 195.349003 54.3413621 198.382392 52.436711 199.393023 52.436711 201.415781 52.436711 202.426412 50.5335548 204.449169 46.7272425 205.461296 46.7272425 206.471927 46.0918605 207.482558 46.0918605 209.505316 44.8225914 210.517442 42.2855482 212.538704 42.2855482 213.550831 41.0162791 215.573588 41.0162791 216.584219 40.380897 217.59485 39.1116279 218.606977 37.2084718 222.650997 37.2084718 223.663123 35.9392027 225.68588 35.9392027 226.696512 33.4021595 230.742027 33.4021595 231.752658 30.8636213 232.764784 30.8636213 233.775415 27.691196 236.808804 27.691196 237.82093 23.8833887 238.831561 23.2495017 239.842193 23.2495017 241.86495 20.7109635 242.877076 20.7109635 243.887708 20.7109635 244.898339 19.4416944 245.910465 18.1724252 246.921096 18.1724252 247.933223 16.9031561 248.943854 16.9031561 250.966611 16.9031561 251.977243 15.633887 252.989369 15.633887 254 15"></polyline>
        </g>
    </g>
</svg>