<?xml version="1.0" encoding="UTF-8" standalone="no"?>
<svg font-family='-apple-system, BlinkMacSystemFont, "Segoe UI", Roboto, Helvetica, Arial, sans-serif, "Apple Color Emoji", "Segoe UI Emoji", "Segoe UI Symbol"' width="741px" height="284px" viewBox="0 0 741 284" version="1.1" xmlns="http://www.w3.org/2000/svg" xmlns:xlink="http://www.w3.org/1999/xlink" style="background: #FFFFFF;">
    <!-- Generator: Sketch 49 (51002) - http://www.bohemiancoding.com/sketch -->
    <title>768 Number of sellers per area of expertise</title>
    <desc>Created with Sketch.</desc>
    <defs></defs>
    <g id="768-Number-of-sellers-per-area-of-expertise" stroke="none" stroke-width="1" fill="none" fill-rule="evenodd">
        <text id="Strategy-and-policy" font-size="11" font-weight="normal" fill="#224A61">
            <tspan x="0.158691406" y="228">Strategy and </tspan>
            <tspan x="16.4465332" y="241">policy</tspan>
        </text>
        <text id="User-research-and-de" font-size="11" font-weight="normal" fill="#224A61">
            <tspan x="61.6909032" y="269">User research </tspan>
            <tspan x="68.2490087" y="282">and design</tspan>
        </text>
        <text id="Agile-delivery-and-g" font-size="11" font-weight="normal" fill="#224A61">
            <tspan x="121.956504" y="228">Agile delivery and </tspan>
            <tspan x="135.757529" y="241">governance</tspan>
        </text>
        <text id="Software-engineering" font-size="11" font-weight="normal" fill="#224A61">
            <tspan x="180.233423" y="269">Software engineering </tspan>
            <tspan x="189.251489" y="282">and development</tspan>
        </text>
        <text id="Support-and-operatio" font-size="11" font-weight="normal" fill="#224A61">
            <tspan x="266.122023" y="228">Support and </tspan>
            <tspan x="270.298048" y="241">operations</tspan>
        </text>
        <text id="Content-and-publishi" font-size="11" font-weight="normal" fill="#224A61">
            <tspan x="339.022658" y="269">Content and </tspan>
            <tspan x="343.781447" y="282">publishing</tspan>
        </text>
        <text id="Change,-training,-tr" font-size="11" font-weight="normal" fill="#224A61">
            <tspan x="391.398777" y="228">Change, training, </tspan>
            <tspan x="397.621189" y="241">transformation</tspan>
        </text>
        <text id="Marketing,-communica" font-size="11" font-weight="normal" fill="#224A61">
            <tspan x="427.800207" y="269">Marketing, communications </tspan>
            <tspan x="453.240393" y="282">and engagement</tspan>
        </text>
        <text id="Cyber-security" font-size="11" font-weight="normal" fill="#224A61">
            <tspan x="523.059767" y="228">Cyber security</tspan>
        </text>
        <text id="Data-science" font-size="11" font-weight="normal" fill="#224A61">
            <tspan x="600.698683" y="269">Data science</tspan>
        </text>
        <text id="Emerging-technologie" font-size="11" font-weight="normal" fill="#224A61">
            <tspan x="679.937941" y="228">Emerging </tspan>
            <tspan x="671.92964" y="241">technologies</tspan>
        </text>
        <path d="M30.5,204.5 L30.5,210.5" id="Line" stroke="#BBBBBB" stroke-linecap="square"></path>
        <path d="M163.5,205.5 L163.5,215.5" id="Line-Copy-2" stroke="#BBBBBB" stroke-linecap="square"></path>
        <path d="M295.5,205.5 L295.5,215.5" id="Line-Copy-4" stroke="#BBBBBB" stroke-linecap="square"></path>
        <path d="M433.5,205.5 L433.5,215.5" id="Line-Copy-6" stroke="#BBBBBB" stroke-linecap="square"></path>
        <path d="M558.5,205.5 L558.5,215.5" id="Line-Copy-8" stroke="#BBBBBB" stroke-linecap="square"></path>
        <path d="M702.5,204.5 L702.5,214.5" id="Line-Copy-10" stroke="#BBBBBB" stroke-linecap="square"></path>
        <path d="M496.5,205.5 L496.5,256.5" id="Line-Copy-7" stroke="#BBBBBB" stroke-linecap="square"></path>
        <path d="M369.5,205.5 L369.5,256.5" id="Line-Copy-11" stroke="#BBBBBB" stroke-linecap="square"></path>
        <path d="M231.5,205.5 L231.5,256.5" id="Line-Copy-12" stroke="#BBBBBB" stroke-linecap="square"></path>
        <path d="M95.5,205.5 L95.5,256.5" id="Line-Copy-13" stroke="#BBBBBB" stroke-linecap="square"></path>
        <path d="M632.5,205.5 L632.5,256.5" id="Line-Copy-9" stroke="#BBBBBB" stroke-linecap="square"></path>
        <path d="M728.537722,205.333333 L9,205.333333" id="Line" stroke="#BBBBBB" stroke-linecap="square"></path>
        <g id="Group" transform="translate(19.000000, 34.000000)">
            <polygon id="Combined-Shape-Copy-3" fill="#17788D" fill-rule="nonzero" transform="translate(12.000000, 127.895000) rotate(-360.000000) translate(-12.000000, -127.895000) " points="2 170.790001 2 85 22 85 22 170.790001"></polygon>
            <polygon id="Combined-Shape-Copy-4" fill="#17788D" fill-rule="nonzero" transform="translate(144.000000, 99.379997) rotate(-360.000000) translate(-144.000000, -99.379997) " points="134 170.759995 134 28 154 28 154 170.759995"></polygon>
            <polygon id="Combined-Shape-Copy-5" fill="#17788D" fill-rule="nonzero" transform="translate(212.000000, 95.309998) rotate(-360.000000) translate(-212.000000, -95.309998) " points="202 170.619995 202 20 222 20 222 170.619995"></polygon>
            <polygon id="Combined-Shape-Copy-6" fill="#17788D" fill-rule="nonzero" transform="translate(76.000000, 112.790001) rotate(-360.000000) translate(-76.000000, -112.790001) " points="66 170.580002 66 55 86 55 86 170.580002"></polygon>
            <polygon id="Combined-Shape-Copy-7" fill="#17788D" fill-rule="nonzero" transform="translate(350.000000, 142.325001) rotate(-360.000000) translate(-350.000000, -142.325001) " points="340 170.650002 340 114 360 114 360 170.650002"></polygon>
            <polygon id="Combined-Shape-Copy-8" fill="#17788D" fill-rule="nonzero" transform="translate(414.000000, 114.990002) rotate(-360.000000) translate(-414.000000, -114.990002) " points="404 170.980003 404 59 424 59 424 170.980003"></polygon>
            <polygon id="Combined-Shape-Copy-9" fill="#17788D" fill-rule="nonzero" transform="translate(539.000000, 134.345001) rotate(-360.000000) translate(-539.000000, -134.345001) " points="529 170.690002 529 98 549 98 549 170.690002"></polygon>
            <polygon id="Combined-Shape-Copy-10" fill="#17788D" fill-rule="nonzero" transform="translate(279.000000, 135.709999) rotate(-360.000000) translate(-279.000000, -135.709999) " points="269 170.419998 269 101 289 101 289 170.419998"></polygon>
            <polygon id="Combined-Shape-Copy-11" fill="#17788D" fill-rule="nonzero" transform="translate(613.000000, 139.945000) rotate(-360.000000) translate(-613.000000, -139.945000) " points="603 170.889999 603 109 623 109 623 170.889999"></polygon>
            <polygon id="Combined-Shape-Copy-12" fill="#17788D" fill-rule="nonzero" transform="translate(684.000000, 144.520000) rotate(-360.000000) translate(-684.000000, -144.520000) " points="674 171.040001 674 118 694 118 694 171.040001"></polygon>
            <polygon id="Combined-Shape-Copy-13" fill="#17788D" fill-rule="nonzero" transform="translate(478.000000, 145.375000) rotate(-360.000000) translate(-478.000000, -145.375000) " points="468 170.75 468 120 488 120 488 170.75"></polygon>
            <text id="262" font-size="14" font-weight="bold" fill="#224A61">
                <tspan x="0.0131835938" y="80">262</tspan>
            </text>
            <text id="353" font-size="14" font-weight="bold" fill="#224A61">
                <tspan x="64.0131836" y="50">353</tspan>
            </text>
            <text id="436" font-size="14" font-weight="bold" fill="#224A61">
                <tspan x="132.013184" y="23">436</tspan>
            </text>
            <text id="460" font-size="14" font-weight="bold" fill="#224A61">
                <tspan x="200.013184" y="15">460</tspan>
            </text>
            <text id="212" font-size="14" font-weight="bold" fill="#224A61">
                <tspan x="267.013184" y="95">212</tspan>
            </text>
            <text id="173" font-size="14" font-weight="bold" fill="#224A61">
                <tspan x="337.013184" y="108">173</tspan>
            </text>
            <text id="342" font-size="14" font-weight="bold" fill="#224A61">
                <tspan x="402.013184" y="54">342</tspan>
            </text>
            <text id="155" font-size="14" font-weight="bold" fill="#224A61">
                <tspan x="465.013184" y="115">155</tspan>
            </text>
            <text id="222" font-size="14" font-weight="bold" fill="#224A61">
                <tspan x="527.013184" y="93">222</tspan>
            </text>
            <text id="189" font-size="14" font-weight="bold" fill="#224A61">
                <tspan x="600.013184" y="104">189</tspan>
            </text>
            <text id="162" font-size="14" font-weight="bold" fill="#224A61">
                <tspan x="671.013184" y="113">162</tspan>
            </text>
        </g>
        <text id="Number-of-sellers-pe" font-size="17" font-weight="normal" line-spacing="26" fill="#313131">
            <tspan x="214.042969" y="18">Number of sellers per area of expertise</tspan>
        </text>
    </g>
</svg>