<?xml version="1.0" encoding="UTF-8" standalone="no"?>
<svg font-family='-apple-system, BlinkMacSystemFont, "Segoe UI", Roboto, Helvetica, Arial, sans-serif, "Apple Color Emoji", "Segoe UI Emoji", "Segoe UI Symbol"' width="700px" height="282px" viewBox="0 0 700 282" version="1.1" xmlns="http://www.w3.org/2000/svg" xmlns:xlink="http://www.w3.org/1999/xlink">
    <!-- Generator: Sketch 47.1 (45422) - http://www.bohemiancoding.com/sketch -->
    <title>768 average seller response</title>
    <desc>Created with Sketch.</desc>
    <defs></defs>
    <g id="Mocks" stroke="none" stroke-width="1" fill="none" fill-rule="evenodd">
        <g id="Nov-monthly-report-greater-than-768px" transform="translate(-339.000000, -2586.000000)">
            <g id="768-average-seller-response" transform="translate(339.000000, 2580.000000)">
                <g id="Group-2">
                    <g id="Group-19" transform="translate(31.000000, 61.000000)">
                        <polyline id="Shape" stroke="#17788D" stroke-width="3" stroke-linecap="round" points="0 144.606052 39.1557807 85.736797 40.4631894 83.962346 54.8225249 65.7970005 56.1299336 64.2958757 66.5670432 53.3931976 67.8744518 52.1827531 77.0152326 44.7465453 78.3115615 43.8311194 86.1449336 39.123835 87.4523422 38.4643814 93.9783056 35.6747188 95.2857143 35.2148366 101.811678 33.401339 103.119086 33.1280129 109.64505 32.1995715 110.952458 32.0997858 117.478422 32 118.785831 32.0564006 125.311794 32.6985003 126.608123 32.9024103 134.441495 34.5076593 135.748904 34.8373862 144.889684 37.5793251 146.197093 38.0218532 157.941611 42.6076593 159.24902 43.1846813 168.378721 47.7227638 169.68613 48.4559721 177.519502 53.3931976 178.82691 54.321639 186.660282 60.5517408 187.956611 61.7101232 197.097392 70.7298875 198.404801 72.1485806 210.149319 85.8626138 211.456728 87.4591859 232.342027 112.140975 233.649435 113.507606 242.779136 122.158597 244.086545 123.247563 251.919917 129.039475 253.227326 129.876808 261.060698 134.215319 262.357027 134.840064 271.497807 138.458382 272.805216 138.892234 283.242326 141.855437 284.549734 142.180825 309.357259 148.536743 310.653588 148.940225 321.101777 152.532512 322.409186 153.031441 335.461113 158.54135 336.768522 159.140064 358.95015 169.942957 360.257558 170.585056 375.924302 177.743599 377.231711 178.268559 386.361412 181.453026 387.668821 181.834815 395.502193 183.691698 396.809601 183.930316 404.642973 184.971559 405.939302 185.08436 415.080083 185.52255 416.387492 185.539904 438.580199 185.518211 439.876528 185.52255 462.069236 185.978093 463.376645 186.012801 522.110316 188.02587 523.417724 188.099625 580.855066 191.179968 582.151395 191.236369 642.203555 193.79609 643.499884 193.817783 667 194"></polyline>
                        <g id="Group-9" stroke-opacity="0" stroke="#000000">
                            <path d="M7.38964445e-13,0 L7.38964445e-13,218.1875" id="Shape"></path>
                        </g>
                    </g>
                    <g id="Group-7-Copy" transform="translate(0.000000, 268.000000)" stroke="#BBBBBB">
                        <path d="M0,1.29154519 L697.000031,1.29154519" id="Shape"></path>
                    </g>
                    <text id="Buyers-receive-on-av"  font-size="17" font-weight="normal" line-spacing="26" fill="#313131">
                        <tspan x="142.187256" y="24">Buyers receive on average 12 responses per brief</tspan>
                    </text>
                    <path d="M27,53 L27,271.1875" id="Shape" stroke-opacity="0" stroke="#000000"></path>
                    <g id="Group" transform="translate(180.000000, 47.000000)">
                        <text id="12"  font-size="11" font-weight="bold" letter-spacing="0.100000001" fill="#224A61">
                            <tspan x="0" y="241">12</tspan>
                        </text>
                        <path d="M7.66666667,0.999942364 L7.66666667,223.085291" id="Line-3-Copy" stroke="#777777" stroke-width="2" stroke-linecap="square"></path>
                        <circle id="Oval-22-Copy" fill="#777777" cx="7.5" cy="222.5" r="3.5"></circle>
                    </g>
                </g>
            </g>
        </g>
    </g>
</svg>