<?xml version="1.0" encoding="UTF-8" standalone="no"?>
<svg font-family='-apple-system, BlinkMacSystemFont, "Segoe UI", Roboto, Helvetica, Arial, sans-serif, "Apple Color Emoji", "Segoe UI Emoji", "Segoe UI Symbol"' width="327px" height="196px" viewBox="0 0 327 196" version="1.1" xmlns="http://www.w3.org/2000/svg" xmlns:xlink="http://www.w3.org/1999/xlink">
    <!-- Generator: Sketch 48.2 (47327) - http://www.bohemiancoding.com/sketch -->
    <title>768 $ contracted since launch</title>
    <desc>Created with Sketch.</desc>
    <defs>
        <rect id="path-1" x="0" y="0" width="326.721509" height="195.212589"></rect>
        <linearGradient x1="50%" y1="0%" x2="50%" y2="100%" id="linearGradient-2">
            <stop stop-color="#33B0C1" offset="0%"></stop>
            <stop stop-color="#17788D" offset="100%"></stop>
        </linearGradient>
    </defs>
    <g id="Jan-monthly-report-greater-than-768px" stroke="none" stroke-width="1" fill="none" fill-rule="evenodd" transform="translate(-711.000000, -1093.000000)">
        <g id="768-$-contracted-since-launch" transform="translate(711.000000, 1093.000000)">
            <g id="Group-10" fill-rule="evenodd">
                <g id="Rectangle-Copy">
                    <use fill="#FAFBFC" fill-rule="evenodd" xlink:href="#path-1"></use>
                    <rect stroke="#BBBBBB" stroke-width="1" x="0.5" y="0.5" width="325.721509" height="194.212589"></rect>
                </g>
                <polyline id="Shape" stroke="url(#linearGradient-2)" stroke-width="3" points="212 68.8388704 215.033389 68.8388704 216.045515 67.273588 221.101661 67.273588 222.112292 66.1433555 223.122924 66.1433555 224.13505 65.4511628 225.145681 64.8187708 226.157807 62.8872093 228.17907 62.8872093 229.191196 62.3744186 235.257973 62.3041528 236.2701 54.3207641 237.280731 53.2084718 238.292857 53.0724252 239.303488 53.0724252 240.31412 51.9272425 242.336877 51.9272425 243.349003 51.2634551 244.359635 51.0990033 245.370266 51.0990033 246.382392 50.1915282 247.393023 50.167608 249.415781 50.167608 250.426412 49.8925249 251.438538 47.8622924 252.449169 47.8622924 256.494684 47.8622924 257.505316 47.5229236 258.517442 47.5229236 259.528073 45.489701 260.538704 44.2084718 261.550831 34.1066445 272.673754 34.1066445 273.68588 30.2958472 278.742027 30.2958472 279.752658 29.8862126 280.764784 29.8862126 281.775415 29.7217608 282.786047 29.195515 283.798173 29.195515 285.82093 29.195515 286.831561 28.7096346 287.842193 28.7096346 288.854319 27.9516611 289.86495 24.8704319 290.877076 24.8704319 291.887708 24.8704319 292.898339 23.6998339 293.910465 22.9807309 294.921096 22.5740864 295.933223 14.5607973 296.943854 14.5607973 299.977243 14.5607973 300.989369 13.1435216 302 13"></polyline>
                <text id="$76.31M" font-size="36" font-weight="bold" fill="#17788D">
                    <tspan x="16" y="61">$76.31M</tspan>
                </text>
                <text id="Contracted-through-t" font-size="17" font-weight="normal" line-spacing="28" fill="#313131">
                    <tspan x="16" y="91">Contracted through the </tspan>
                    <tspan x="16" y="119">Marketplace since 29 August 2016* </tspan>
                </text>
                <text id="$8.83M-this-month" font-size="20" font-weight="bold" line-spacing="28" fill="#313131">
                    <tspan x="16" y="161">$8.83M this month</tspan>
                </text>
            </g>
            <path d="M-190,211 L-190,626" id="Shape" stroke-opacity="0" stroke="#000000"></path>
        </g>
    </g>
</svg>