<?xml version="1.0" encoding="UTF-8" standalone="no"?>
<svg width="356px" height="347px" viewBox="0 0 356 347" version="1.1" xmlns="http://www.w3.org/2000/svg" xmlns:xlink="http://www.w3.org/1999/xlink">
    <!-- Generator: Sketch 48.2 (47327) - http://www.bohemiancoding.com/sketch -->
    <title>768 seller rates per role</title>
    <desc>Created with Sketch.</desc>
    <defs></defs>
    <g id="Jan-monthly-report-greater-than-768px" stroke="none" stroke-width="1" fill="none" fill-rule="evenodd" transform="translate(-321.000000, -1818.000000)">
        <g id="768-seller-rates-per-role" transform="translate(319.000000, 1811.000000)">
            <text id="Daily-rates-sellers" font-family="OpenSans, Open Sans" font-size="17" font-weight="normal" line-spacing="26" fill="#313131">
                <tspan x="60.4916992" y="18.7580175">Daily rates sellers have bid for </tspan>
                <tspan x="121.402832" y="44.7580175">specialist roles</tspan>
            </text>
            <text id="Daily-rate-inc-GST" font-family=".HelveticaNeueDeskInterface-Bold, SFNS Display" font-size="14" font-weight="bold" fill="#224A61">
                <tspan x="193" y="350.781341">Daily rate inc GST</tspan>
            </text>
            <path d="M143,300.51312 L358,300.51312" id="Shape-Copy" stroke="#BBBBBB" stroke-width="1" fill-opacity="0.300000012" fill="#001F5F" fill-rule="nonzero"></path>
            <text id="1000-copy" fill="#444444" fill-rule="evenodd" font-family=".HelveticaNeueDeskInterface-Regular, SFNS Display" font-size="11" font-weight="normal">
                <tspan x="197" y="318.906706">1000</tspan>
            </text>
            <text id="2000-copy" fill="#444444" fill-rule="evenodd" font-family=".HelveticaNeueDeskInterface-Regular, SFNS Display" font-size="11" font-weight="normal">
                <tspan x="267" y="318.906706">2000</tspan>
            </text>
            <text id="3000-copy" fill="#444444" fill-rule="evenodd" font-family=".HelveticaNeueDeskInterface-Regular, SFNS Display" font-size="11" font-weight="normal">
                <tspan x="332" y="319.93586">3000</tspan>
            </text>
            <g id="Group-3" stroke-width="1" fill-rule="evenodd" transform="translate(1.000000, 66.895044)" fill="#224A61" font-family="OpenSans, Open Sans" font-size="11" font-weight="normal">
                <text id="User-research-and-de">
                    <tspan x="27.5316287" y="12.4373178">User research and </tspan>
                    <tspan x="87.7308474" y="27.4373178">design</tspan>
                </text>
            </g>
            <g id="Group-7" stroke-width="1" fill-rule="evenodd" transform="translate(0.000000, 139.965015)" fill="#224A61" font-family="OpenSans, Open Sans" font-size="11" font-weight="normal">
                <text id="Software-engineering">
                    <tspan x="12.6391602" y="12.4373178">Software engineering </tspan>
                    <tspan x="31.7333984" y="27.4373178">and development</tspan>
                </text>
            </g>
            <g id="Group-7-Copy" stroke-width="1" fill-rule="evenodd" transform="translate(0.000000, 108.061224)" fill="#224A61" font-family="OpenSans, Open Sans" font-size="11" font-weight="normal">
                <text id="Strategy-and-policy">
                    <tspan x="24.7939453" y="12.2186589">Strategy and policy</tspan>
                </text>
            </g>
            <g id="Group-4" stroke-width="1" fill-rule="evenodd" transform="translate(0.000000, 179.072886)" fill="#224A61" font-family="OpenSans, Open Sans" font-size="11" font-weight="normal">
                <text id="Data-science">
                    <tspan x="57.4072266" y="12.2186589">Data science</tspan>
                </text>
            </g>
            <g id="Group-5" stroke-width="1" fill-rule="evenodd" transform="translate(1.000000, 209.947522)" fill="#224A61" font-family="OpenSans, Open Sans" font-size="11" font-weight="normal">
                <text id="Cyber-security">
                    <tspan x="49.1518555" y="12.2186589">Cyber security</tspan>
                </text>
            </g>
            <text id="Content-and-publishi" font-family="OpenSans, Open Sans" font-size="11" font-weight="normal" fill="#224A61">
                <tspan x="2.29443359" y="253.040816">Content and publishing</tspan>
            </text>
            <g id="Group-6" stroke-width="1" fill-rule="evenodd" transform="translate(1.000000, 270.667638)" fill="#224A61" font-family="OpenSans, Open Sans" font-size="11" font-weight="normal">
                <text id="Agile-delivery-and-g">
                    <tspan x="31.2108279" y="12.4373178">Agile delivery and </tspan>
                    <tspan x="61.5789919" y="27.4373178">governance</tspan>
                </text>
            </g>
            <text id="0-copy" fill="#444444" fill-rule="evenodd" font-family=".HelveticaNeueDeskInterface-Regular, SFNS Display" font-size="11" font-weight="normal">
                <tspan x="141" y="318.906706">0</tspan>
            </text>
            <g id="Group" stroke-width="1" fill-rule="evenodd" transform="translate(169.000000, 73.069971)">
                <g id="Group-19" transform="translate(0.000000, 202.743440)">
                    <polygon id="Shape" fill="#8BBBC6" fill-rule="nonzero" points="0 7.20408163 15.7011607 7.57030584 16.0241599 7.59538969 23.7149406 8.44824058 24.0345398 8.48837474 28.8421277 8.74924677 37.8113053 8.66897845 38.1343045 8.70409584 42.6188932 9.70243306 42.9384924 9.80276846 56.7186579 14.0068217 57.0382571 14.0569894 62.1654442 14.4081633 66.0108346 14.0068217 66.3304338 13.9315701 76.5848081 11.1322125 76.9078073 11.0920783 99.3375511 8.10710022 124.650488 7.26428287 128.176279 7.12883008 112.794717 6.77765619 97.7361551 6.21076118 75.3030113 3.08531351 74.9834121 3.03514581 70.1758242 1.77593656 69.856225 1.66055085 65.6912354 0.326090046 65.3716362 0.260872037 61.845845 0 56.3990587 0.451509295 56.0760595 0.506693764 42.9384924 4.6053948 42.6188932 4.7057302 38.1343045 5.70406742 37.8113053 5.73918481 29.1617269 5.66393326 24.0345398 5.91978853 23.7149406 5.95992269 16.0241599 6.81277358 15.7011607 6.83785743"></polygon>
                    <polyline id="Shape" stroke="#17788D" stroke-width="2" stroke-linecap="round" points="0 7.20408163 15.7011607 6.83785743 16.0241599 6.81277358 23.7149406 5.95992269 24.0345398 5.91978853 28.8421277 5.65389972 37.8113053 5.73918481 38.1343045 5.70406742 42.6188932 4.7057302 42.9384924 4.6053948 56.0760595 0.506693764 56.3990587 0.451509295 61.5262458 0.00501676994 65.3716362 0.260872037 65.6912354 0.326090046 69.856225 1.66055085 70.1758242 1.77593656 74.9834121 3.03514581 75.3030113 3.08531351 97.4131559 6.1906941 97.7361551 6.21076118 112.475118 6.76260588 112.794717 6.77765619 127.85668 7.13384685"></polyline>
                    <polyline id="Shape" stroke="#17788D" stroke-width="2" stroke-linecap="round" points="0 7.20408163 15.7011607 7.57030584 16.0241599 7.59538969 23.7149406 8.44824058 24.0345398 8.48837474 28.8421277 8.74924677 37.8113053 8.66897845 38.1343045 8.70409584 42.6188932 9.70243306 42.9384924 9.80276846 56.7186579 14.0068217 57.0382571 14.0569894 62.1654442 14.4081633 66.0108346 14.0068217 66.3304338 13.9315701 76.5848081 11.1322125 76.9078073 11.0920783 99.3375511 8.10710022 99.6571503 8.08703314 128.152181 7.20408163"></polyline>
                </g>
                <g id="Group-20" transform="translate(0.000000, 167.752187)">
                    <polygon id="Shape" fill="#8BBBC6" fill-rule="nonzero" points="0 7.3249893 6.40898394 7.97990581 6.73198313 8.03532182 14.0997647 9.79352076 14.4193639 9.87916369 23.3919414 11.7532325 23.7149406 11.8086485 39.7357004 14.3980876 45.502086 14.3225203 45.8250852 14.3023691 58.9626523 13.1235193 59.2822515 13.0731411 66.3304338 11.5920223 66.653433 11.5013415 77.8666049 8.7859569 78.1862041 8.74061653 86.5195832 7.92952762 86.8391824 7.90937634 96.4543583 7.51642643 118.241504 7.20408163 96.7739575 6.90181247 84.9181872 6.35772799 84.595188 6.33253889 77.5470057 5.57686599 77.2274065 5.53152562 66.653433 2.90682175 66.3304338 2.82117882 59.2822515 1.33502212 58.9626523 1.28968175 46.7838828 0.171285857 46.4642836 0.14609676 40.0552996 0 23.7149406 2.59951477 23.3919414 2.6599686 13.1375671 4.86149565 12.8179679 4.94713858 6.08938474 6.48871129 5.76978554 6.53908948 0 7.08317397"></polygon>
                    <polyline id="Shape" stroke="#17788D" stroke-width="2" stroke-linecap="round" points="0 7.08317397 5.76978554 6.53908948 6.08938474 6.48871129 12.8179679 4.94713858 13.1375671 4.86149565 23.3919414 2.6599686 23.7149406 2.59951477 39.7357004 0.015113458 40.0552996 0 46.4642836 0.14609676 46.7838828 0.171285857 58.9626523 1.28968175 59.2822515 1.33502212 66.3304338 2.82117882 66.653433 2.90682175 77.2274065 5.53152562 77.5470057 5.57686599 84.595188 6.33253889 84.9181872 6.35772799 96.4543583 6.89173683 117.413497 7.20408163"></polyline>
                    <polyline id="Shape" stroke="#17788D" stroke-width="2" stroke-linecap="round" points="0 7.3249893 6.40898394 7.97990581 6.73198313 8.03532182 14.0997647 9.79352076 14.4193639 9.87916369 23.3919414 11.7532325 23.7149406 11.8086485 39.7357004 14.3980876 40.0552996 14.4081633 45.502086 14.3225203 45.8250852 14.3023691 58.9626523 13.1235193 59.2822515 13.0731411 66.3304338 11.5920223 66.653433 11.5013415 77.8666049 8.7859569 78.1862041 8.74061653 86.5195832 7.92952762 86.8391824 7.90937634 96.4543583 7.51642643 118.241504 7.20408163"></polyline>
                </g>
                <g id="Group-21" transform="translate(5.769231, 136.877551)">
                    <polygon id="Shape" fill="#8BBBC6" fill-rule="nonzero" points="4.28609566 7.22421883 18.9045074 7.59172264 33.6468705 8.87546885 33.9664697 8.91574324 44.5404432 10.4562387 44.8600424 10.5065817 54.4752183 11.7903279 54.7948175 11.825568 67.9323846 13.426475 68.2519838 13.476818 75.6231653 14.3930604 81.3895509 14.3074773 92.2865236 12.9180108 92.6061228 12.8727021 131.379626 8.35190177 143.554995 7.7578545 157.974359 7.42559078 157.974359 7.01781258 149.001781 6.84161212 132.341823 6.16701607 117.922459 4.51576605 117.59946 4.47045737 82.9943468 0.281920735 76.9049621 0 68.2519838 0.966585376 67.9323846 1.01692836 54.1522191 2.68328128 53.8326199 2.71852137 41.3376512 4.50569746 41.014652 4.55604045 30.4406785 5.92033543 30.1210793 5.95557552 19.2275066 6.83154352"></polygon>
                    <polyline id="Shape" stroke="#17788D" stroke-width="2" stroke-linecap="round" points="0.606988618 7.20408163 18.9045074 6.83258195 19.2275066 6.81250089 30.1210793 5.93897461 30.4406785 5.90383275 41.014652 4.54334068 41.3376512 4.49313802 53.8326199 2.71094361 54.1522191 2.67580175 67.9323846 1.01409372 68.2519838 0.963891062 76.5853629 0.0100405319 82.6713476 0.251013297 82.9943468 0.281134893 117.59946 4.45799616 117.922459 4.50317855 132.018824 6.12472445 132.341823 6.14982578 148.682182 6.81752115 157.974359 6.99825073"></polyline>
                    <polyline id="Shape" stroke="#17788D" stroke-width="2" stroke-linecap="round" points="0.101616773 7.20408163 18.9045074 7.57261559 19.2275066 7.59280923 33.6468705 8.85996024 33.9664697 8.90034753 44.5404432 10.4451611 44.8600424 10.4956452 54.4752183 11.7829899 54.7948175 11.8183287 67.9323846 13.4237232 68.2519838 13.4742073 75.6231653 14.393018 81.3895509 14.3071951 81.71255 14.281953 92.2865236 12.9138338 92.6061228 12.8683981 131.379626 8.33492556 131.699225 8.30968351 143.554995 7.73921313 157.974359 7.40601805"></polyline>
                </g>
                <g id="Group-28" transform="translate(0.000000, 103.944606)">
                    <polygon id="Shape" fill="#8BBBC6" fill-rule="nonzero" points="0 7.62486895 14.7423631 8.9075098 15.0619623 8.94806762 29.1617269 11.0976317 29.4813261 11.1584685 47.4264812 14.3321174 54.4746635 14.4081633 64.4094386 13.5665886 74.9834121 12.9379425 90.0453744 11.9138577 90.3649736 11.8783696 118.241504 8.41574631 142.276044 7.64514786 154.558215 7.20408163 153.500071 7.20408163 142.595643 6.76808514 118.564503 6.00762613 90.3649736 2.52979362 90.0453744 2.49430553 75.3030113 1.48036019 64.7290378 0.866923265 54.7942627 0.0152091801 47.7460804 0.0506972669 29.4813261 3.24969481 29.1617269 3.31053153 15.0619623 5.46009565 14.7423631 5.50065346 0 6.78329432"></polygon>
                    <polyline id="Shape" stroke="#17788D" stroke-width="2" stroke-linecap="round" points="0 6.87032161 14.7423631 5.57122493 15.0619623 5.53014677 29.1617269 3.35300449 29.4813261 3.29138726 47.4264812 0.0770215428 47.7460804 0.0513476952 54.4746635 0 64.4094386 0.85237174 64.7290378 0.878045587 74.9834121 1.48908316 90.0453744 2.5263066 90.3649736 2.56224999 118.241504 6.06929757 142.276044 6.84978254 157.991955 7.20408163"></polyline>
                    <polyline id="Shape" stroke="#17788D" stroke-width="2" stroke-linecap="round" points="0 7.53784165 14.7423631 8.83693834 15.0619623 8.8780165 29.1617269 11.0551588 29.4813261 11.116776 47.4264812 14.3311417 47.7460804 14.3568156 54.4746635 14.4081633 64.4094386 13.5557915 64.7290378 13.5301177 74.9834121 12.9190801 90.0453744 11.8818567 90.3649736 11.8459133 118.241504 8.3388657 142.276044 7.55838073 158.481992 7.20408163"></polyline>
                </g>
                <g id="Group-29" transform="translate(0.000000, 72.040816)">
                    <polygon id="Shape" fill="#8BBBC6" fill-rule="nonzero" points="10.8969727 7.59145194 25.6359358 9.33210295 25.955535 9.38241079 32.0449197 10.6954452 32.3645189 10.7910301 44.8628876 14.2673013 45.1824868 14.3025168 49.9900748 14.4081633 67.2926314 13.3969758 67.6122306 13.3265449 80.1105993 10.6048911 80.4301985 10.5545833 89.7223752 9.44278018 99.6571503 8.94473264 99.9767495 8.90448638 106.385733 8.35110022 115.67791 8.00900695 116.000909 7.97379147 124.330888 7.29463573 137.788055 7.2443279 132.354777 7.22923555 135.153538 7.22923555 139.75827 7.22420477 134.141796 7.22420477 138.111054 7.20408163 124.650488 7.16383537 116.000909 6.47964884 115.67791 6.43940258 107.347931 6.1023401 101.901145 5.8004931 101.578145 5.76527762 89.0831768 4.98550621 80.1105993 3.84351841 79.7910001 3.79321058 67.6122306 1.12689545 67.2926314 1.05646449 55.4368611 0.382339528 48.0656796 0 43.2614916 0.422585794 42.9384924 0.482955193 37.1721069 2.09280584 36.8525077 2.19845229 30.4435237 4.18058089 30.1239245 4.26107342 22.752743 5.53889237 22.4331438 5.58416942 11.2165719 6.83180367 10.8969727 6.86198837 0 7.21917398"></polygon>
                    <polyline id="Shape" stroke="#17788D" stroke-width="2" stroke-linecap="round" points="0 7.19906486 10.8969727 6.8428742 11.2165719 6.81277358 22.4331438 5.56861463 22.752743 5.5234637 30.1239245 4.24920414 30.4435237 4.16893582 36.8525077 2.19232846 37.1721069 2.08697629 42.9384924 0.481609914 43.2614916 0.421408675 47.7460804 0 55.1172619 0.366224206 55.4368611 0.381274515 67.2926314 1.05352169 67.6122306 1.12375647 79.7910001 3.78264453 80.1105993 3.83281223 88.7635776 4.96158547 101.578145 5.74921835 101.901145 5.78433574 107.028332 6.08534194 115.67791 6.42146552 116.000909 6.46159968 124.330888 7.13384685 137.788055 7.18903132 143.25108 7.19906486"></polyline>
                    <polyline id="Shape" stroke="#17788D" stroke-width="2" stroke-linecap="round" points="0 7.21417138 10.8969727 7.57235751 11.2165719 7.59758189 25.6359358 9.3178843 25.955535 9.36833305 32.0449197 10.6850454 32.3645189 10.7808981 44.8628876 14.2669068 45.1824868 14.3022209 49.9900748 14.4081633 50.309674 14.3930286 67.2926314 13.3941434 67.6122306 13.3235151 80.1105993 10.5942377 80.4301985 10.5437889 89.7223752 9.42887155 99.6571503 8.92942891 99.9767495 8.88906991 106.385733 8.33413365 115.67791 7.99108215 116.000909 7.95576802 124.330888 7.27470988 137.788055 7.22426113 140.273618 7.20912651 144.759216 7.14587515"></polyline>
                </g>
                <g id="Group-30" transform="translate(0.000000, 34.991254)">
                    <polygon id="Shape" fill="#8BBBC6" fill-rule="nonzero" points="17.945155 7.61423368 28.8421277 8.49492825 48.0656796 10.9810032 48.3886788 11.0313286 70.4988234 14.2773172 78.5092033 14.4081633 91.9663696 13.6130219 108.629728 11.9925439 108.949327 11.9422185 131.70207 8.43453777 140.032049 8.27852902 159.259001 8.50499334 177.662927 8.53015604 184.143385 7.61423368 163.423991 6.06924376 140.351648 6.15479695 132.021669 6.0239509 109.268926 2.54646546 108.949327 2.5011726 88.1209792 0.558611988 77.2274065 0.00503254043 69.2170266 0.256659562 54.4746635 2.42065195 54.1550643 2.47600989 36.5295085 5.04260552 36.2099093 5.08286584 22.4331438 6.53727003 0 7.2065979"></polygon>
                    <polyline id="Shape" stroke="#17788D" stroke-width="2" stroke-linecap="round" points="0 7.20408163 22.1101446 6.56014137 22.4331438 6.53498746 36.2099093 5.0810911 36.5295085 5.04084483 54.1550643 2.47514537 54.4746635 2.41980675 68.8940274 0.286754646 69.2170266 0.256569946 76.9078073 0 87.80138 0.538293809 108.949327 2.50029928 109.268926 2.54557633 131.70207 6.00172443 140.032049 6.15767871 163.104391 6.05706305 184.938569 7.20408163"></polyline>
                    <polyline id="Shape" stroke="#17788D" stroke-width="2" stroke-linecap="round" points="0 7.20408163 17.945155 7.58324382 18.2647542 7.60346581 28.8421277 8.4679556 29.1617269 8.50334407 48.0656796 10.9653706 48.3886788 11.0159255 70.4988234 14.2767204 70.8184226 14.2969424 78.5092033 14.4081633 91.9663696 13.6093949 92.2859688 13.5891729 108.629728 11.9815252 108.949327 11.9309703 131.70207 8.40728965 132.021669 8.38706767 140.032049 8.25056928 159.259001 8.4780666 184.730452 7.60346581"></polyline>
                </g>
                <g id="Group-31" transform="translate(7.948718, 0.000000)">
                    <g id="Group-18">
                        <polygon id="Shape" fill="#8BBBC6" fill-rule="nonzero" points="9.0342395 7.1201484 9.0342395 7.57268588 9.35723869 7.597761 17.6872178 8.48040518 18.006817 8.52554039 27.6219929 10.2306485 27.9415921 10.3008588 40.1169616 13.0240167 40.4399608 13.0691519 51.9727319 14.4081633 57.0999191 13.8815858 57.4229183 13.8314355 65.113699 12.868551 74.0828765 11.9608317 74.4058757 11.9056664 82.0966564 10.9427818 82.4162556 10.9177067 90.7462348 10.0350625 91.069234 9.97989728 99.7188123 8.97187751 100.038411 8.94680239 108.69139 8.04409811 109.010989 8.00397792 116.382171 7.44731029 133.365128 7.2818145 127.889149 7.32193469 127.889149 7.08622857 133.684727 7.12133374 116.70177 6.97088303 109.010989 6.40418534 108.69139 6.36406515 100.038411 5.46136088 99.7188123 5.43628576 91.069234 4.42826598 90.7462348 4.37811574 82.4162556 3.49045654 82.0966564 3.46538142 74.4058757 2.50249686 74.0828765 2.4473316 65.4332982 1.55465737 57.4229183 0.576727733 57.0999191 0.526577495 52.2957311 0.0100300475 41.3987584 1.19859068 41.0791592 1.24372589 27.9415921 4.10730446 27.6219929 4.18252982 18.006817 5.88262287 17.6872178 5.92775809 9.35723869 6.81040227 9.0342395 6.83547739 5.59950395 7.20157412"></polygon>
                        <polyline id="Shape" stroke="#17788D" stroke-width="2" stroke-linecap="round" points="0.548841682 7.20408163 9.0342395 6.83785743 9.35723869 6.81277358 17.6872178 5.92982207 18.006817 5.88467114 27.6219929 4.18398613 27.9415921 4.10873458 41.0791592 1.24415894 41.3987584 1.19900802 51.9727319 0 57.0999191 0.526760844 57.4229183 0.576928543 65.113699 1.54014837 65.4332982 1.55519868 74.0828765 2.44818373 74.4058757 2.5033682 82.0966564 3.46658803 82.4162556 3.49167188 90.7462348 4.37964016 91.069234 4.42980786 99.7188123 5.43817861 100.038411 5.46326246 108.69139 6.36628105 109.010989 6.40641521 116.382171 6.96829345 133.365128 7.12883008"></polyline>
                        <polyline id="Shape" stroke="#17788D" stroke-width="2" stroke-linecap="round" points="1.36811962 7.20408163 9.0342395 7.57030584 9.35723869 7.59538969 17.6872178 8.4783412 18.006817 8.52349213 27.6219929 10.2291939 27.9415921 10.2994287 40.1169616 13.0235348 40.4399608 13.0686857 51.9727319 14.4081633 57.0999191 13.8814024 57.4229183 13.8312347 65.113699 12.8680149 65.4332982 12.8529646 74.0828765 11.9599795 74.4058757 11.9047951 82.0966564 10.9415752 82.4162556 10.9164914 90.7462348 10.0335399 91.069234 9.97835541 99.7188123 8.96998465 100.038411 8.9449008 108.69139 8.04188221 109.010989 8.00174805 116.382171 7.44488659 133.365128 7.27933318"></polyline>
                    </g>
                </g>
            </g>
        </g>
    </g>
</svg>