<?xml version="1.0" encoding="UTF-8" standalone="no"?>
<svg font-family='-apple-system, BlinkMacSystemFont, "Segoe UI", Roboto, Helvetica, Arial, sans-serif, "Apple Color Emoji", "Segoe UI Emoji", "Segoe UI Symbol"'  width="359px" height="308px" viewBox="0 0 359 308" version="1.1" xmlns="http://www.w3.org/2000/svg" xmlns:xlink="http://www.w3.org/1999/xlink" style="background: #FFFFFF;">
    <!-- Generator: Sketch 45.2 (43514) - http://www.bohemiancoding.com/sketch -->
    <title>768 seller rates per role</title>
    <desc>Created with Sketch.</desc>
    <defs></defs>
    <g id="Symbols" stroke="none" stroke-width="1" fill="none" fill-rule="evenodd">
        <g id="768-seller-rates-per-role">
            <g>
                <text id="Daily-rates-sellers" font-size="17" font-weight="normal" line-spacing="26" fill="#313131">
                    <tspan x="70.0979004" y="16">Daily rates sellers have bid for </tspan>
                    <tspan x="125.484863" y="42">specialist roles</tspan>
                </text>
                <text id="Daily-rate-inc-GST" font-size="14" font-weight="bold" fill="#224A61">
                    <tspan x="193" y="305">Daily rate inc GST</tspan>
                </text>
                <path d="M143,256 L358,256" id="Shape-Copy" stroke="#BBBBBB" fill-opacity="0.300000012" fill="#001F5F" fill-rule="nonzero"></path>
                <text id="1000-copy" fill="#444444" font-size="11" font-weight="normal">
                    <tspan x="197" y="274">1000</tspan>
                </text>
                <text id="2000-copy" fill="#444444" font-size="11" font-weight="normal">
                    <tspan x="267" y="274">2000</tspan>
                </text>
                <text id="3000-copy" fill="#444444" font-size="11" font-weight="normal">
                    <tspan x="332" y="275">3000</tspan>
                </text>
                <g id="Group-3" transform="translate(1.000000, 65.000000)" font-size="11" fill="#224A61" font-weight="normal">
                    <text id="User-research-and-de-Copy-2">
                        <tspan x="34.2723513" y="11">User research and </tspan>
                        <tspan x="89.3905154" y="24">design</tspan>
                    </text>
                </g>
                <g id="Group-7" transform="translate(0.000000, 100.000000)" font-size="11" fill="#224A61" font-weight="normal">
                    <text id="Software-engineering-Copy">
                        <tspan x="20.5292969" y="11">Software engineering </tspan>
                        <tspan x="38.7802734" y="24">and development</tspan>
                    </text>
                </g>
                <g id="Group-4" transform="translate(0.000000, 137.000000)" font-size="11" fill="#224A61" font-weight="normal">
                    <text id="Data-science-Copy">
                        <tspan x="60.3183594" y="11">Data science</tspan>
                    </text>
                </g>
                <g id="Group-5" transform="translate(1.000000, 166.000000)" font-size="11" fill="#224A61" font-weight="normal">
                    <text id="Cyber-security-Copy">
                        <tspan x="53.0942383" y="11">Cyber security</tspan>
                    </text>
                </g>
                <text id="Content-and-publishi-Copy" font-size="11" font-weight="normal" fill="#224A61">
                    <tspan x="11.2152224" y="204">Content and publishing</tspan>
                </text>
                <g id="Group-6" transform="translate(1.000000, 228.000000)" font-size="11" fill="#224A61" font-weight="normal">
                    <text id="Agile-delivery-and-g-Copy">
                        <tspan x="37.4090701" y="11">Agile delivery and </tspan>
                        <tspan x="64.9574099" y="24">governance</tspan>
                    </text>
                </g>
                <text id="0-copy" fill="#444444" font-size="11" font-weight="normal">
                    <tspan x="141" y="274">0</tspan>
                </text>
                <polygon id="Shape" stroke="#17788D" stroke-width="2" fill-opacity="0.5" fill="#17788D" fill-rule="nonzero" stroke-linejoin="round" points="197.281606 241.823119 203.404872 241.696402 208.164205 241.82674 208.503384 241.866565 212.245179 242.630487 212.584358 242.72824 218.368445 244.657958 218.707624 244.773813 223.809744 246.124254 224.148924 246.182182 227.547931 246.515266 231.628906 246.250971 231.968085 246.203904 240.130034 244.733988 240.472821 244.668819 247.613624 243.560951 247.952804 243.524746 275.837658 240.740594 296.924497 239.88254 314.265932 239.777546 314.605111 239.741341 297.263676 239.643588 276.176837 238.796395 247.952804 235.99414 247.613624 235.957935 240.472821 234.850067 240.130034 234.784899 231.968085 233.314982 231.628906 233.267916 227.887111 233 224.148924 233.336705 223.809744 233.394633 218.707624 234.745073 218.368445 234.860929 212.584358 236.790647 212.245179 236.8884 208.503384 237.652322 208.164205 237.692147 203.744051 237.833346 197.624394 237.681286 190.140803 238.61537 189.801624 238.673298 183.339179 239.469805 183 239.491527"></polygon>
                <polygon id="Shape" stroke="#17788D" stroke-width="2" fill-opacity="0.5" fill="#17788D" fill-rule="nonzero" stroke-linejoin="round" points="168 205.824612 175.82277 206.25545 176.161949 206.288034 182.624394 207.225739 182.963573 207.287287 192.825026 209.340102 193.167813 209.419752 205.749916 212.193043 206.089095 212.232868 210.848427 212.522507 217.650052 212.261832 230.574941 211.331368 230.914121 211.284302 237.715745 210.00265 238.054924 209.923 249.958668 207.146089 250.297847 207.102643 256.417505 206.570432 272.402223 205.81013 256.760292 204.973798 250.297847 204.419864 249.958668 204.376418 238.054924 201.599507 237.715745 201.519857 230.914121 200.238205 230.574941 200.191139 217.992839 199.278777 211.191215 199 206.089095 199.289639 205.749916 199.329464 193.167813 202.102755 192.825026 202.182405 182.963573 204.23522 182.624394 204.296768 176.161949 205.234473 175.82277 205.267057 168 205.697895"></polygon>
                <polygon id="Shape" stroke="#17788D" stroke-width="2" fill-opacity="0.5" fill="#17788D" fill-rule="nonzero" stroke-linejoin="round" points="168 174.73772 194.185351 175.009257 204.389591 175.70801 204.72877 175.744215 213.229898 176.823119 213.569077 176.877426 224.794463 178.930241 225.133642 178.995409 234.655916 180.458085 234.995095 180.49791 243.835402 181.276314 252.33653 181.475441 260.841266 180.935989 261.180446 180.903404 278.864668 179.122126 279.203847 179.082301 311.508855 175.215624 320.352771 174.900642 334.973556 175.016498 341.77518 174.973052 341.77518 174.502389 335.316344 174.455323 320.69195 174.574799 311.851643 174.28516 279.203847 170.39314 278.864668 170.353314 261.180446 168.572036 260.841266 168.539452 252.679318 168.010861 244.17819 168.177404 234.995095 168.977531 234.655916 169.017356 225.133642 170.480031 224.794463 170.5452 213.569077 172.598014 213.229898 172.652322 204.72877 173.731226 204.389591 173.767431 194.528138 174.451702"></polygon>
                <polygon id="Shape" stroke="#17788D" stroke-width="2" fill-opacity="0.5" fill="#17788D" fill-rule="nonzero" stroke-linejoin="round" points="168 145.052702 178.543419 145.758697 196.227642 147.713758 196.566821 147.757204 217.650052 150.226374 225.472821 150.392916 239.415249 150.490669 256.078325 151.479061 262.201591 150.954091 262.54077 150.907025 269.342394 149.690542 269.681574 149.621753 284.305967 146.90277 284.645146 146.855703 292.467916 146.041095 301.986582 145.603016 333.956019 144.752202 302.329369 143.886907 292.807095 143.45969 284.645146 142.623358 284.305967 142.576292 269.681574 139.857308 269.342394 139.788519 262.54077 138.572036 262.201591 138.52497 256.417505 138.010861 239.754428 138.966669 225.812 139.089766 217.992839 139.230964 196.566821 141.721857 196.227642 141.765303 178.882599 143.691401 168 144.426359"></polygon>
                <polygon id="Shape" stroke="#17788D" stroke-width="2" fill-opacity="0.5" fill="#17788D" fill-rule="nonzero" stroke-linejoin="round" points="180.582102 111.005636 190.786343 111.813004 191.125522 111.852829 197.927146 112.83036 198.266325 112.891908 204.72877 114.394409 205.067949 114.484921 213.229898 116.403778 213.569077 116.454464 217.992839 116.79479 228.53265 117.117013 228.871829 117.149597 235.334274 117.4682 239.415249 116.94685 239.754428 116.87444 252.679318 114.090288 253.018497 114.039602 260.841266 113.043969 267.300103 112.888288 273.762548 112.547962 274.101727 112.518998 281.24253 112.088161 289.747267 111.747835 290.086446 111.711631 300.626257 110.813751 314.911471 110.766684 300.626257 110.654449 290.086446 109.756569 289.747267 109.720364 281.585318 109.383659 274.101727 108.949201 273.762548 108.920237 267.64289 108.583532 261.180446 108.445954 253.018497 107.428598 252.679318 107.377911 239.754428 104.593759 239.415249 104.52135 235.673453 104.014482 228.871829 104.318603 228.53265 104.351187 218.332018 104.666169 213.569077 105.013735 213.229898 105.064422 205.067949 106.983279 204.72877 107.073791 198.266325 108.576292 197.927146 108.63784 191.125522 109.61537 190.786343 109.655196 180.92489 110.444461 168 110.726859"></polygon>
                <polygon id="Shape" stroke="#17788D" stroke-width="2" fill-opacity="0.5" fill="#17788D" fill-rule="nonzero" stroke-linecap="round" stroke-linejoin="round" points="183.302752 79.0201181 192.485847 79.7659378 192.825026 79.8021426 203.029266 81.2467156 203.368445 81.3082639 211.191215 82.9990298 211.530394 83.07506 216.971693 84.0344882 217.310872 84.077934 231.592479 85.5080251 236.35542 85.305278 236.694599 85.2690731 247.577197 84.3494703 253.357676 83.7158856 253.696855 83.6579578 262.201591 82.4523367 272.741402 81.5616977 273.08419 81.5146314 281.24253 80.6420948 290.425625 79.7912811 290.764804 79.7442149 298.926753 78.9621904 309.130993 78.7956481 299.26954 78.5675576 290.764804 77.7710512 290.425625 77.7239849 281.585318 76.8948941 273.08419 76.0006346 272.741402 75.9535683 262.54077 75.0846522 253.696855 73.8573082 253.357676 73.7993805 247.916377 73.1838982 236.694599 72.2461929 236.35542 72.2099881 231.935266 72 217.310872 73.4373321 216.971693 73.4807779 211.530394 74.4402061 211.191215 74.5162362 203.368445 76.2070022 203.029266 76.2685504 192.825026 77.7131234 192.485847 77.7493283 183.645539 78.4770455 168 78.7558228"></polygon>
            </g>
        </g>
    </g>
</svg>
