<?xml version="1.0" encoding="UTF-8" standalone="no"?>
<svg font-family='-apple-system, BlinkMacSystemFont, "Segoe UI", Roboto, Helvetica, Arial, sans-serif, "Apple Color Emoji", "Segoe UI Emoji", "Segoe UI Symbol"' width="327px" height="196px" viewBox="0 0 327 196" version="1.1" xmlns="http://www.w3.org/2000/svg" xmlns:xlink="http://www.w3.org/1999/xlink" style="background: #FFFFFF;">
    <!-- Generator: Sketch 49 (51002) - http://www.bohemiancoding.com/sketch -->
    <title>768 total opportunities</title>
    <desc>Created with Sketch.</desc>
    <defs>
        <rect id="path-1" x="0" y="0" width="326.721509" height="195.212589"></rect>
        <linearGradient x1="50%" y1="0%" x2="50%" y2="100%" id="linearGradient-2">
            <stop stop-color="#33B0C1" offset="0%"></stop>
            <stop stop-color="#17788D" offset="100%"></stop>
        </linearGradient>
    </defs>
    <g id="768-total-opportunities" stroke="none" stroke-width="1" fill="none" fill-rule="evenodd">
        <g>
            <g id="Rectangle">
                <use fill="#FAFBFC" fill-rule="evenodd" xlink:href="#path-1"></use>
                <rect stroke="#BBBBBB" stroke-width="1" x="0.5" y="0.5" width="325.721509" height="194.212589"></rect>
            </g>
            <text id="541" font-size="36" font-weight="bold" letter-spacing="-1.50000024" fill="#17788D">
                <tspan x="16" y="60">541</tspan>
            </text>
            <text id="Total-opportunities" font-size="17" font-weight="normal" line-spacing="28" fill="#313131">
                <tspan x="16" y="91">Total opportunities </tspan>
                <tspan x="16" y="119">since 29 August 2016</tspan>
            </text>
            <polyline id="Shape" stroke="url(#linearGradient-2)" stroke-width="3" points="213 70.8388704 215.022757 70.8388704 216.033389 69.1151163 217.045515 68.7712625 218.056146 66.0129568 219.066777 65.669103 220.078904 64.2892027 223.112292 64.2892027 224.122924 63.2561462 225.13505 61.1870432 226.145681 60.1539867 227.157807 58.7755814 228.168439 58.7755814 229.17907 58.7755814 230.191196 57.7410299 231.201827 57.7410299 232.213953 57.3956811 233.224585 56.3626246 234.235216 56.3626246 244.349003 56.3626246 245.359635 56.0172757 247.382392 55.3280731 248.393023 54.2935216 250.415781 54.2935216 251.426412 53.9496678 253.449169 53.2604651 254.461296 52.5712625 255.471927 50.1583056 256.482558 50.1583056 258.505316 50.1583056 259.517442 49.8129568 260.528073 48.7784053 261.538704 48.0892027 262.550831 47.0561462 263.561462 47.0561462 264.573588 47.0561462 265.584219 44.2978405 266.59485 44.2978405 267.606977 43.6086379 268.617608 41.5410299 269.629734 41.5410299 271.650997 41.5410299 272.663123 40.8518272 273.673754 38.7827243 274.68588 38.0935216 275.696512 37.0604651 276.707143 36.3697674 279.742027 36.3697674 280.752658 33.267608 281.764784 33.267608 282.775415 31.5453488 285.808804 31.5453488 286.82093 30.1654485 287.831561 30.1654485 288.842193 28.7870432 289.854319 27.7539867 290.86495 27.4086379 292.887708 27.4086379 293.898339 26.7194352 294.910465 26.3740864 295.921096 23.9611296 296.933223 19.8259136 297.943854 18.4475083 299.966611 18.4475083 300.977243 16.7237542 301.989369 16.3784053 303 15"></polyline>
            <text id="67-new-briefs-this-m" font-size="20" font-weight="bold" line-spacing="28" fill="#313131">
                <tspan x="16" y="161">67 new briefs this month</tspan>
            </text>
        </g>
    </g>
</svg>