<?xml version="1.0" encoding="UTF-8" standalone="no"?>
<svg font-family='-apple-system, BlinkMacSystemFont, "Segoe UI", Roboto, Helvetica, Arial, sans-serif, "Apple Color Emoji", "Segoe UI Emoji", "Segoe UI Symbol"' width="359px" height="343px" viewBox="0 0 359 343" version="1.1" xmlns="http://www.w3.org/2000/svg" xmlns:xlink="http://www.w3.org/1999/xlink" style="background: #FFFFFF;">
    <!-- Generator: Sketch 48.2 (47327) - http://www.bohemiancoding.com/sketch -->
    <title>768 seller rates per role</title>
    <desc>Created with Sketch.</desc>
    <defs></defs>
    <g id="Symbols" stroke="none" stroke-width="1" fill="none" fill-rule="evenodd">
        <g id="768-seller-rates-per-role">
            <text id="Daily-rates-sellers" font-size="17" font-weight="normal" line-spacing="26" fill="#313131">
                <tspan x="70.0666504" y="16">Daily rates sellers have bid for </tspan>
                <tspan x="125.453613" y="42">specialist roles</tspan>
            </text>
            <text id="Daily-rate-inc-GST" font-size="14" font-weight="bold" fill="#224A61">
                <tspan x="193" y="341">Daily rate inc GST</tspan>
            </text>
            <path d="M143,292 L358,292" id="Shape-Copy" stroke="#BBBBBB" fill-opacity="0.300000012" fill="#001F5F" fill-rule="nonzero"></path>
            <text id="1000-copy" fill="#444444" font-size="11" font-weight="normal">
                <tspan x="197" y="310">1000</tspan>
            </text>
            <text id="2000-copy" fill="#444444" font-size="11" font-weight="normal">
                <tspan x="267" y="310">2000</tspan>
            </text>
            <text id="3000-copy" fill="#444444" font-size="11" font-weight="normal">
                <tspan x="332" y="311">3000</tspan>
            </text>
            <g id="Group-3" transform="translate(1.000000, 65.000000)" fill="#224A61" font-size="11" font-weight="normal">
                <text id="User-research-and-de">
                    <tspan x="27.5316287" y="12">User research and </tspan>
                    <tspan x="87.7308474" y="27">design</tspan>
                </text>
            </g>
            <g id="Group-7" transform="translate(0.000000, 136.000000)" fill="#224A61" font-size="11" font-weight="normal">
                <text id="Software-engineering">
                    <tspan x="12.6391602" y="12">Software engineering </tspan>
                    <tspan x="31.7333984" y="27">and development</tspan>
                </text>
            </g>
            <g id="Group-7-Copy" transform="translate(0.000000, 105.000000)" fill="#224A61" font-size="11" font-weight="normal">
                <text id="Strategy-and-policy">
                    <tspan x="24.7939453" y="12">Strategy and policy</tspan>
                </text>
            </g>
            <g id="Group-4" transform="translate(0.000000, 174.000000)" fill="#224A61" font-size="11" font-weight="normal">
                <text id="Data-science">
                    <tspan x="57.4072266" y="12">Data science</tspan>
                </text>
            </g>
            <g id="Group-5" transform="translate(1.000000, 204.000000)" fill="#224A61" font-size="11" font-weight="normal">
                <text id="Cyber-security">
                    <tspan x="49.1518555" y="12">Cyber security</tspan>
                </text>
            </g>
            <text id="Content-and-publishi" font-size="11" font-weight="normal" fill="#224A61">
                <tspan x="2.29443359" y="246">Content and publishing</tspan>
            </text>
            <g id="Group-6" transform="translate(1.000000, 263.000000)" fill="#224A61" font-size="11" font-weight="normal">
                <text id="Agile-delivery-and-g">
                    <tspan x="31.2108279" y="12">Agile delivery and </tspan>
                    <tspan x="61.5789919" y="27">governance</tspan>
                </text>
            </g>
            <text id="0-copy" fill="#444444" font-size="11" font-weight="normal">
                <tspan x="141" y="310">0</tspan>
            </text>
            <g id="Group" transform="translate(162.000000, 72.000000)">
                <g id="Group-27" transform="translate(5.000000, 0.000000)">
                    <polygon id="Shape" fill="#8BBBC6" fill-rule="nonzero" points="3.25699065 6.49617647 11.5314199 6.77147059 21.885764 7.64323529 22.2084789 7.68529412 30.6196669 8.96617647 30.9423819 9.02735294 43.562597 11.5164706 43.8853119 11.5585294 55.856664 12.7055882 60.711121 12.3652941 61.033836 12.3232353 70.7427501 11.3061765 76.888067 10.6676471 77.2142151 10.6179412 84.6538251 9.75382353 93.3911611 9.165 93.7138761 9.11911765 103.096642 8.04088235 113.450986 7.18441176 113.777134 7.14617647 120.248599 6.64911765 131.571088 6.52294118 131.893803 6.46941176 120.571314 6.35470588 112.482841 5.69323529 112.156693 5.655 103.42279 4.96676471 94.3627392 3.965 94.0400242 3.91529412 84.9799732 3.25382353 77.2142151 2.37441176 76.888067 2.32470588 71.0654651 1.70529412 61.3599841 0.711176471 61.033836 0.669117647 56.1828121 0.286764706 43.239882 1.51411765 42.917167 1.55617647 32.2366749 3.69352941 31.9139599 3.76235294 22.5311939 5.26882353 22.2084789 5.30705882 11.8541349 6.20558824"></polygon>
                    <polyline id="Shape" stroke="#17788D" stroke-width="2" stroke-linecap="round" points="0.363203564 6.41089918 11.5314199 6.22088235 11.8541349 6.20558824 22.2084789 5.30705882 22.5311939 5.26882353 31.9139599 3.76235294 32.2366749 3.69352941 42.917167 1.55617647 43.239882 1.51411765 55.856664 0.286764706 61.033836 0.669117647 61.3599841 0.711176471 70.7427501 1.68617647 71.0654651 1.70529412 76.888067 2.32470588 77.2142151 2.37441176 84.6538251 3.23852941 84.9799732 3.25382353 94.0400242 3.91529412 94.3627392 3.965 103.096642 4.95147059 103.42279 4.96676471 112.156693 5.655 112.482841 5.69323529 120.248599 6.34323529 131.571088 6.46941176"></polyline>
                    <polyline id="Shape" stroke="#17788D" stroke-width="2" stroke-linecap="round" points="0.700009206 6.59659282 11.4658966 6.78817734 11.7888796 6.80418719 21.8288406 7.70073892 22.1518236 7.74476601 30.5699976 9.08559113 30.8929806 9.14963054 43.5236776 11.755234 43.8466606 11.7992611 55.8279556 13 60.6864446 12.6437808 61.0094276 12.5997537 70.7264056 11.5350985 71.0493886 11.5150862 76.8768266 10.8666872 77.2032456 10.8146552 84.6490346 9.91009852 84.9754536 9.89008621 93.3936276 9.29371921 93.7166106 9.24568966 103.10717 8.11699507 103.433589 8.10098522 113.470114 7.22044335 113.796533 7.18041872 120.273373 6.66009852 131.605266 6.52801724"></polyline>
                </g>
                <g id="Group-26" transform="translate(0.000000, 34.000000)">
                    <polygon id="Shape" fill="#8BBBC6" fill-rule="nonzero" points="0.0789621728 6.64662493 15.6104782 7.12253318 15.9331932 7.14236269 25.6421073 8.1338382 25.9648223 8.17746312 41.4963384 10.572868 41.8190533 10.6204588 55.0846984 12.2782058 55.4074133 12.309933 65.4390424 12.9920682 65.7617574 13 74.8218084 12.9405115 75.1479565 12.9286138 91.0021876 12.0521494 91.3249025 12.0323199 105.884841 10.6839132 106.207556 10.6442542 130.476408 7.7412139 130.799123 7.72138439 142.44776 7.43583944 142.770475 7.43583944 165.418886 6.93613578 165.418886 6.28572785 146.976069 5.81775141 146.653354 5.8137855 134.359287 5.65118352 134.033139 5.63928582 126.267381 5.17130937 125.944666 5.14354806 111.384728 3.2795741 111.062013 3.23594918 98.4417975 1.7249405 98.1190825 1.69717919 75.1479565 0.289283964 74.8218084 0.277386258 65.7617574 0.217897727 65.4390424 0.229795433 55.4074133 0.907964682 55.0846984 0.939691898 41.8190533 2.59743895 41.4963384 2.64899568 25.9648223 5.04043461 25.6421073 5.08405953 15.9331932 6.07553504 15.6104782 6.09933045 0.0789621728 6.57127279"></polygon>
                    <polyline id="Shape" stroke="#17788D" stroke-width="2" stroke-linecap="round" points="0.0789621728 6.134375 15.6104782 5.69488636 15.9331932 5.67272727 25.6421073 4.74943182 25.9648223 4.70880682 41.4963384 2.48181818 41.8190533 2.43380682 55.0846984 0.890056818 55.4074133 0.860511364 65.4390424 0.228977273 65.7617574 0.217897727 74.8218084 0.273295455 75.1479565 0.284375 98.1190825 1.59545455 98.4417975 1.62130682 111.062013 3.02840909 111.384728 3.06903409 125.944666 4.80482955 126.267381 4.83068182 134.033139 5.26647727 134.359287 5.27755682 146.653354 5.42897727 146.976069 5.43267045 165.418886 5.86846591"></polyline>
                    <path d="M0,6.5 L15.544416,6.98689139 L15.867399,7.00717853 L25.584377,8.02153558 L25.90736,8.06616729 L41.451776,10.5168539 L41.774759,10.5655431 L55.051422,12.2615481 L55.374405,12.2940075 L65.414366,12.9918851 L74.804925,12.9391386 L90.998743,12.0302747 L91.321726,12.0099875 L105.893757,10.6304619 L106.21674,10.5898876 L130.505749,7.61985019 L130.828732,7.59956305 L142.487044,7.30742821 L165.477249,6.79619226 C165.801641,6.77483048 165.963837,6.62021317 165.963837,6.33234034 C165.963837,6.0444675 165.760168,5.89390139 165.35283,5.880642" id="Shape" stroke="#17788D" stroke-width="2" stroke-linecap="round"></path>
                </g>
                <g id="Group-25" transform="translate(0.000000, 69.000000)">
                    <polygon id="Shape" fill="#8BBBC6" fill-rule="nonzero" points="11.7275992 6.78125745 25.9648223 8.06996678 26.2875373 8.11253676 32.4362873 9.19613619 32.7590023 9.26966615 44.7303543 11.8548248 45.0565024 11.8896548 50.2336744 12.1218547 59.9391554 12.5088545 65.1163274 12.5591644 65.4390424 12.5320745 69.3219214 11.8973948 69.6446364 11.8238648 79.3535505 9.76502589 79.6762655 9.71858592 89.3817465 8.72399644 102.001962 8.00417681 102.324677 7.97321683 108.473427 7.58621703 117.210763 7.09859728 117.533478 7.0637673 125.944666 6.42908763 140.181889 6.37877766 128.210537 6.31685769 103.941684 4.87721844 103.61897 4.85012846 89.7078946 3.9909889 79.6762655 2.98091943 79.3535505 2.93447945 69.6446364 0.875640526 69.3219214 0.802110564 65.4390424 0.167430895 65.1163274 0.140340909 60.2618704 0.167430895 51.5279674 0.569910685 45.7019324 0.751800591 45.3792174 0.778890576 31.1419943 3.78200901 30.8192794 3.84779898 23.0535213 4.9546184 22.7308063 4.98557838 10.1105913 6.02660784 0.0789621728 6.33233768"></polygon>
                    <polyline id="Shape" stroke="#17788D" stroke-width="2" stroke-linecap="round" points="0.0789621728 6.04943182 9.78787629 5.77613636 10.1105913 5.75767045 22.7308063 4.76420455 23.0535213 4.73465909 30.8192794 3.67840909 31.1419943 3.615625 45.3792174 0.749715909 45.7019324 0.723863636 51.2018193 0.550284091 59.9391554 0.184659091 60.2618704 0.166193182 65.1163274 0.140340909 65.4390424 0.166193182 69.3219214 0.771875 69.6446364 0.842045455 79.3535505 2.80681818 79.6762655 2.85113636 89.3817465 3.80028409 89.7078946 3.81505682 103.61897 4.63494318 103.941684 4.66079545 127.887822 6.03096591 139.182446 6.55675241"></polyline>
                    <polyline id="Shape" stroke="#17788D" stroke-width="2" stroke-linecap="round" points="0 6.51215711 11.658312 6.94981297 11.981295 6.97412718 25.90736 8.29925187 26.230343 8.34382793 32.3842 9.47849127 32.707183 9.55548628 44.688478 12.2624688 45.014897 12.2989401 50.196369 12.5420823 59.909911 12.9473192 60.232894 12.9716334 65.091383 13 65.414366 12.9716334 69.30047 12.3070449 69.623453 12.2300499 79.340431 10.0741895 79.663414 10.0255611 89.376956 8.98410224 89.703375 8.9638404 102.007653 8.2303616 102.330636 8.19794264 108.484493 7.79270574 117.229086 7.28210723 117.552069 7.24563591 125.970243 6.58104738 140.219291 6.52836658"></polyline>
                </g>
                <g id="Group-24" transform="translate(0.000000, 100.000000)">
                    <polygon id="Shape" fill="#8BBBC6" fill-rule="nonzero" points="0.0789621728 6.91294118 12.6991773 7.78852941 13.0218922 7.81911765 25.6421073 9.29117647 25.9648223 9.33705882 38.2588893 11.3673529 38.5850374 11.4208824 46.0246473 12.4723529 46.3507954 12.5029412 51.8506824 12.7629412 58.6448624 12.4914706 77.0876795 11.4055882 87.7647385 10.8741176 97.7963676 9.77676471 98.1190825 9.73470588 117.210763 7.70058824 128.210537 7.33352941 156.456184 6.55544118 125.299236 5.70470588 114.944892 5.26117647 102.001962 3.86558824 101.679247 3.82352941 90.0306095 2.43941176 89.7078946 2.40882353 77.4103944 1.71294118 60.2618704 0.741764706 53.1449754 0.355588235 46.3507954 0.604117647 46.0246473 0.634705882 38.5850374 1.68617647 38.2588893 1.73970588 25.9648223 3.77 25.6421073 3.81588235 13.0218922 5.28794118 12.6991773 5.31852941 0.0789621728 6.19411765"></polygon>
                    <polyline id="Shape" stroke="#0C788E" stroke-width="2" stroke-linecap="round" points="0.0789621728 6.19411765 12.6991773 5.31852941 13.0218922 5.28794118 25.6421073 3.81588235 25.9648223 3.77 38.2588893 1.73970588 38.5850374 1.68617647 46.0246473 0.634705882 46.3507954 0.604117647 52.8222605 0.347941176 59.9391554 0.715 60.2618704 0.741764706 77.0876795 1.70529412 89.7078946 2.40882353 90.0306095 2.43941176 101.679247 3.82352941 102.001962 3.86558824 114.622177 5.23441176 114.944892 5.26117647 124.976521 5.69705882 160.956328 6.65551758"></polyline>
                    <polyline id="Shape" stroke="#0C788E" stroke-width="2" stroke-linecap="round" points="0 6.79600749 12.630697 7.72457891 12.95368 7.75701809 25.584377 9.31815346 25.90736 9.36681223 38.211638 11.5199626 38.538057 11.5767311 45.983846 12.6918278 46.310265 12.724267 51.81472 13 58.614543 12.7121023 58.937526 12.683718 77.072678 11.5605115 87.758605 10.9968808 88.081588 10.9684966 97.798566 9.83312539 98.121549 9.78852152 117.229086 7.63131628 117.552069 7.6110418 128.237996 7.24204616 149.904606 6.80960141 161.072578 6.58756974"></polyline>
                </g>
                <g id="Group-23" transform="translate(9.000000, 133.000000)">
                    <polygon id="Shape" fill="#8BBBC6" fill-rule="nonzero" points="4.59556423 6.44647059 12.6261005 6.72176471 24.2747375 7.55147059 24.5974525 7.58205882 37.2176676 9.05794118 37.5403826 9.1 52.4230356 10.9429412 52.7491837 10.9697059 73.4544386 12.6520588 79.9259036 12.3729412 80.2520518 12.3423529 114.226385 9.32176471 114.5491 9.27588235 127.814745 7.51323529 128.13746 7.48264706 137.846374 6.96264706 142.697398 6.03352941 131.697624 5.67411765 110.988936 3.13911765 110.666221 3.09705882 99.9891618 2.17941176 80.2520518 0.546764706 79.9259036 0.52 73.7805867 0.237058824 53.0718986 1.89264706 52.7491837 1.91941176 37.5403826 3.79294118 37.2176676 3.835 24.5974525 5.31088235 24.2747375 5.34147059 12.9488154 6.15588235"></polygon>
                    <polyline id="Shape" stroke="#0C788E" stroke-width="2" stroke-linecap="round" points="0.813765018 6.31719769 12.6261005 6.16735294 24.2747375 5.34147059 24.5974525 5.31088235 37.2176676 3.835 37.5403826 3.79294118 52.7491837 1.91941176 53.0718986 1.89264706 73.4544386 0.237058824 79.9259036 0.52 80.2520518 0.546764706 99.6630137 2.16029412 99.9891618 2.17941176 110.666221 3.09705882 110.988936 3.13911765 131.374909 5.655 131.697624 5.67411765 142.374683 6.02588235 155.963043 6.22852941"></polyline>
                    <polyline id="Shape" stroke="#0C788E" stroke-width="2" stroke-linecap="round" points="0.542728755 6.63084457 12.5654132 6.78817734 12.8883962 6.80418719 24.2237252 7.65671182 24.5467082 7.68873153 37.1774052 9.23368227 37.5003882 9.27770936 52.3954022 11.2068966 52.7218212 11.2349138 73.4442732 12.9959975 79.9211132 12.7038177 80.2475322 12.671798 114.250083 9.50985222 114.573066 9.46182266 127.849729 7.61668719 128.172712 7.58466749 137.88969 7.04033251 156.021406 6.72814039"></polyline>
                </g>
                <g id="Group-22" transform="translate(0.000000, 165.000000)">
                    <polygon id="Shape" fill="#8BBBC6" fill-rule="nonzero" points="0.0789621728 6.22301136 6.22771224 6.70681818 6.5504272 6.75113636 12.3764623 7.87386364 12.6991773 7.94772727 24.3478143 10.3519886 24.6705293 10.4036932 36.6418813 12.0434659 36.9645963 12.0619318 42.1417683 12.0360795 42.4679164 12.0176136 56.0562764 11.5005682 56.3789914 11.4857955 62.2050265 10.8838068 62.5277414 10.8321023 68.3503434 9.55795455 68.6764915 9.47301136 77.7365425 7.33096591 78.0592575 7.27926136 83.5591445 6.73636364 83.8818595 6.71789773 93.2646255 6.44829545 93.5907736 6.44460227 96.5020746 6.02357955 96.8247895 5.83892045 96.5020746 5.83522727 83.8818595 5.52869318 83.5591445 5.51022727 78.0592575 4.96363636 77.7365425 4.91193182 68.6764915 2.76988636 68.3503434 2.68494318 62.5277414 1.41079545 62.2050265 1.35909091 56.7017063 0.775568182 56.3789914 0.760795455 42.4679164 0.225284091 42.1417683 0.206818182 36.9645963 0.180965909 36.6418813 0.199431818 24.6705293 1.83920455 24.3478143 1.89090909 12.6991773 4.29517045 12.3764623 4.37272727 7.19929028 5.39573864 6.87657531 5.44744318 0.0789621728 6.02357955"></polygon>
                    <polyline id="Shape" stroke="#0C788E" stroke-width="2" stroke-linecap="round" points="0.0789621728 6.02357955 6.87657531 5.44744318 7.19929028 5.39573864 12.3764623 4.37272727 12.6991773 4.29517045 24.3478143 1.89090909 24.6705293 1.83920455 36.6418813 0.199431818 36.9645963 0.180965909 42.1417683 0.206818182 42.4679164 0.225284091 56.3789914 0.760795455 56.7017063 0.775568182 62.2050265 1.35909091 62.5277414 1.41079545 68.3503434 2.68494318 68.6764915 2.76988636 77.7365425 4.91193182 78.0592575 4.96363636 83.5591445 5.51022727 83.8818595 5.52869318 114.431288 5.86463435"></polyline>
                    <polyline id="Shape" stroke="#0C788E" stroke-width="2" stroke-linecap="round" points="0.282687937 6.04322139 6.153857 6.32618159 6.47684 6.37468905 12.307714 7.60354478 12.630697 7.68439055 24.289009 10.3159204 24.611992 10.3725124 36.593287 12.1672886 36.91627 12.1875 42.097742 12.159204 42.424161 12.1389925 56.023807 11.5730721 56.34679 11.556903 62.177664 10.89801 62.500647 10.8414179 68.328085 9.44682836 68.654504 9.35385572 77.72208 7.00932836 78.045063 6.95273632 83.549518 6.3585199 83.872501 6.33830846 114.449892 5.91642921"></polyline>
                </g>
                <g id="Group-17" transform="translate(6.000000, 197.000000)">
                    <polygon id="Shape" fill="#8BBBC6" fill-rule="nonzero" points="1.64325454 5.92363636 10.4536572 6.19272727 10.7763722 6.21454545 18.8648452 7.02545455 19.1875601 7.05818182 24.0420172 7.21818182 32.4532052 7.13090909 32.7793533 7.16 36.6622323 7.84727273 36.9849472 7.92727273 51.2221703 11.5636364 51.5448853 11.6072727 55.4277643 11.8290909 59.9560732 11.6 60.2822214 11.5527273 63.8389523 10.7381818 64.1651004 10.6472727 69.3422724 9.39272727 69.6649874 9.33818182 81.9590544 7.66181818 82.2817693 7.62545455 93.9304064 6.71272727 120.729143 5.85818182 116.256102 5.85818182 92.6361134 5.08363636 82.2817693 4.22181818 81.9590544 4.18909091 69.9877023 2.56 69.6649874 2.50909091 65.4593934 1.57090909 65.1332453 1.48 60.9276513 0.403636364 60.6049363 0.345454545 55.7504793 0.0181818182 51.2221703 0.283636364 50.8960222 0.330909091 45.0734202 1.63272727 44.7507053 1.72 36.6622323 4 36.3360842 4.08 32.4532052 4.72 32.1304902 4.74909091 24.3647321 4.64363636 19.1875601 4.79272727 18.8648452 4.82545455 10.7763722 5.63636364 10.4536572 5.65818182"></polygon>
                    <polyline id="Shape" stroke="#0C788E" stroke-width="2" stroke-linecap="round" points="0.974286491 5.92363636 10.4536572 5.65818182 10.7763722 5.63636364 18.8648452 4.82545455 19.1875601 4.79272727 24.0420172 4.63272727 32.1304902 4.74909091 32.4532052 4.72 36.3360842 4.08 36.6622323 4 44.7507053 1.72 45.0734202 1.63272727 50.8960222 0.330909091 51.2221703 0.283636364 55.4277643 0.0218181818 60.6049363 0.345454545 60.9276513 0.403636364 65.1332453 1.48 65.4593934 1.57090909 69.6649874 2.50909091 69.9877023 2.56 81.9590544 4.18909091 82.2817693 4.22181818 92.3133984 5.06909091 92.6361134 5.08363636 115.933387 5.85090909"></polyline>
                    <polyline id="Shape" stroke="#0C788E" stroke-width="2" stroke-linecap="round" points="0.479742629 5.91527094 10.3881339 5.89162562 10.7111169 5.91527094 18.8063079 6.79408867 19.1292909 6.82955665 23.9877799 7.00295567 24.3107629 6.98719212 32.4059539 6.90837438 32.7323729 6.93990148 36.6184769 7.68472906 36.9414599 7.77142857 51.1905079 11.7123153 51.5134909 11.7596059 55.3995949 12 59.9316649 11.7517241 60.2580839 11.7004926 63.8177689 10.817734 64.1441879 10.7192118 69.3256599 9.35960591 69.6486429 9.30049261 81.9529209 7.48374384 82.2759039 7.44433498 93.9342159 6.45517241 94.2606349 6.43940887 119.970861 5.78231242"></polyline>
                </g>
            </g>
        </g>
    </g>
</svg>