<?xml version="1.0" encoding="UTF-8" standalone="no"?>
<svg width="327px" height="196px" viewBox="0 0 327 196" version="1.1" xmlns="http://www.w3.org/2000/svg" xmlns:xlink="http://www.w3.org/1999/xlink">
    <!-- Generator: Sketch 48.2 (47327) - http://www.bohemiancoding.com/sketch -->
    <title>768 total opportunities</title>
    <desc>Created with Sketch.</desc>
    <defs>
        <rect id="path-1" x="0" y="0" width="326.721509" height="195.212589"></rect>
        <linearGradient x1="50%" y1="0%" x2="50%" y2="100%" id="linearGradient-2">
            <stop stop-color="#33B0C1" offset="0%"></stop>
            <stop stop-color="#17788D" offset="100%"></stop>
        </linearGradient>
    </defs>
    <g id="Jan-monthly-report-greater-than-768px" stroke="none" stroke-width="1" fill="none" fill-rule="evenodd" transform="translate(-711.000000, -1320.000000)">
        <g id="768-total-opportunities" transform="translate(711.000000, 1320.000000)">
            <g>
                <g id="Rectangle">
                    <use fill="#FAFBFC" fill-rule="evenodd" xlink:href="#path-1"></use>
                    <rect stroke="#BBBBBB" stroke-width="1" x="0.5" y="0.5" width="325.721509" height="194.212589"></rect>
                </g>
                <text id="474" font-family="OpenSans-Bold, Open Sans" font-size="36" font-weight="bold" letter-spacing="-1.50000024" fill="#17788D">
                    <tspan x="16" y="60">474</tspan>
                </text>
                <polyline id="Shape" stroke="url(#linearGradient-2)" stroke-width="3" points="213 70.8388704 216.033389 70.8388704 217.045515 69.9598007 218.056146 68.2001661 219.066777 67.7606312 220.078904 66.8815615 221.089535 66.8815615 222.101661 66.8815615 223.112292 66.4420266 224.122924 66.0024917 225.13505 66.0024917 229.17907 66.0024917 230.191196 65.5629568 231.201827 64.2443522 232.213953 64.2443522 233.224585 63.8033223 234.235216 62.9242525 236.257973 62.9242525 237.2701 61.6056478 238.280731 60.7265781 239.292857 59.4079734 240.303488 58.9669435 241.31412 56.7692691 243.336877 56.7692691 244.349003 54.5715947 245.359635 54.1305648 246.370266 50.6142857 247.382392 50.1747508 248.393023 48.4151163 251.426412 48.4151163 252.438538 47.0965116 253.449169 44.4578073 254.461296 43.1392027 255.471927 41.3810631 256.482558 41.3810631 257.494684 41.3810631 258.505316 40.0609635 259.517442 40.0609635 260.528073 39.6214286 261.538704 38.3028239 262.550831 38.3028239 272.663123 38.3028239 273.673754 37.863289 275.696512 36.9842193 276.707143 35.6641196 278.7299 35.6641196 279.742027 35.2245847 281.764784 34.345515 282.775415 33.4664452 283.786047 30.388206 284.798173 30.388206 286.82093 30.388206 287.831561 29.9486711 288.842193 28.6300664 289.854319 27.7509967 290.86495 26.430897 291.877076 26.430897 292.887708 26.430897 293.898339 22.9146179 294.910465 22.9146179 295.921096 22.0355482 296.933223 19.3968439 297.943854 19.3968439 299.966611 19.3968439 300.977243 18.5177741 301.989369 15.8790698 303 15"></polyline>
                <text id="Total-opportunities" font-family="OpenSans, Open Sans" font-size="17" font-weight="normal" line-spacing="28" fill="#313131">
                    <tspan x="16" y="91">Total opportunities </tspan>
                    <tspan x="16" y="119">since 29 August 2016</tspan>
                </text>
                <text id="53-new-briefs-this-m" font-family="OpenSans-Bold, Open Sans" font-size="20" font-weight="bold" line-spacing="28" fill="#313131">
                    <tspan x="16" y="161">53 new briefs this month</tspan>
                </text>
            </g>
        </g>
    </g>
</svg>