<?xml version="1.0" encoding="UTF-8" standalone="no"?>
<svg font-family='-apple-system, BlinkMacSystemFont, "Segoe UI", Roboto, Helvetica, Arial, sans-serif, "Apple Color Emoji", "Segoe UI Emoji", "Segoe UI Symbol"' width="359px" height="343px" viewBox="0 0 359 343" version="1.1" xmlns="http://www.w3.org/2000/svg" xmlns:xlink="http://www.w3.org/1999/xlink" style="background: #FFFFFF;">
    <!-- Generator: Sketch 48.2 (47327) - http://www.bohemiancoding.com/sketch -->
    <title>768 seller rates per role</title>
    <desc>Created with Sketch.</desc>
    <defs></defs>
    <g id="Symbols" stroke="none" stroke-width="1" fill="none" fill-rule="evenodd">
        <g id="768-seller-rates-per-role">
            <text id="Daily-rates-sellers" font-size="17" font-weight="normal" line-spacing="26" fill="#313131">
                <tspan x="60.4916992" y="18">Daily rates sellers have bid for </tspan>
                <tspan x="121.402832" y="44">specialist roles</tspan>
            </text>
            <text id="Daily-rate-inc-GST" font-size="14" font-weight="bold" fill="#224A61">
                <tspan x="193" y="341">Daily rate inc GST</tspan>
            </text>
            <path d="M143,292 L358,292" id="Shape-Copy" stroke="#BBBBBB" fill-opacity="0.300000012" fill="#001F5F" fill-rule="nonzero"></path>
            <text id="1000-copy" fill="#444444" font-size="11" font-weight="normal">
                <tspan x="197" y="310">1000</tspan>
            </text>
            <text id="2000-copy" fill="#444444" font-size="11" font-weight="normal">
                <tspan x="267" y="310">2000</tspan>
            </text>
            <text id="3000-copy" fill="#444444" font-size="11" font-weight="normal">
                <tspan x="332" y="311">3000</tspan>
            </text>
            <g id="Group-3" transform="translate(1.000000, 65.000000)" fill="#224A61" font-size="11" font-weight="normal">
                <text id="User-research-and-de">
                    <tspan x="27.5316287" y="12">User research and </tspan>
                    <tspan x="87.7308474" y="27">design</tspan>
                </text>
            </g>
            <g id="Group-7" transform="translate(0.000000, 136.000000)" fill="#224A61" font-size="11" font-weight="normal">
                <text id="Software-engineering">
                    <tspan x="12.6391602" y="12">Software engineering </tspan>
                    <tspan x="31.7333984" y="27">and development</tspan>
                </text>
            </g>
            <g id="Group-7-Copy" transform="translate(0.000000, 105.000000)" fill="#224A61" font-size="11" font-weight="normal">
                <text id="Strategy-and-policy">
                    <tspan x="24.7939453" y="12">Strategy and policy</tspan>
                </text>
            </g>
            <g id="Group-4" transform="translate(0.000000, 174.000000)" fill="#224A61" font-size="11" font-weight="normal">
                <text id="Data-science">
                    <tspan x="57.4072266" y="12">Data science</tspan>
                </text>
            </g>
            <g id="Group-5" transform="translate(1.000000, 204.000000)" fill="#224A61" font-size="11" font-weight="normal">
                <text id="Cyber-security">
                    <tspan x="49.1518555" y="12">Cyber security</tspan>
                </text>
            </g>
            <text id="Content-and-publishi" font-size="11" font-weight="normal" fill="#224A61">
                <tspan x="2.29443359" y="246">Content and publishing</tspan>
            </text>
            <g id="Group-6" transform="translate(1.000000, 263.000000)" fill="#224A61" font-size="11" font-weight="normal">
                <text id="Agile-delivery-and-g">
                    <tspan x="31.2108279" y="12">Agile delivery and </tspan>
                    <tspan x="61.5789919" y="27">governance</tspan>
                </text>
            </g>
            <text id="0-copy" fill="#444444" font-size="11" font-weight="normal">
                <tspan x="141" y="310">0</tspan>
            </text>
            <g id="Group" transform="translate(169.000000, 71.000000)">
                <g id="Group-19" transform="translate(0.000000, 197.000000)">
                    <polygon id="Shape" fill="#8BBBC6" fill-rule="nonzero" points="0 7 15.7011607 7.35584958 16.0241599 7.38022284 23.7149406 8.20891365 24.0345398 8.24791086 28.8421277 8.50139276 37.8113053 8.42339833 38.1343045 8.45752089 42.6188932 9.4275766 42.9384924 9.52506964 56.7186579 13.6100279 57.0382571 13.6587744 62.1654442 14 66.0108346 13.6100279 66.3304338 13.5369081 76.5848081 10.8168524 76.9078073 10.7778552 99.3375511 7.87743733 124.650488 7.05849582 128.176279 6.92688022 112.794717 6.5856546 97.7361551 6.03481894 75.3030113 2.99791086 74.9834121 2.94916435 70.1758242 1.72562674 69.856225 1.61350975 65.6912354 0.316852368 65.3716362 0.253481894 61.845845 0 56.3990587 0.438718663 56.0760595 0.492339833 42.9384924 4.47493036 42.6188932 4.5724234 38.1343045 5.54247911 37.8113053 5.57660167 29.1617269 5.50348189 24.0345398 5.75208914 23.7149406 5.79108635 16.0241599 6.61977716 15.7011607 6.64415042"></polygon>
                    <polyline id="Shape" stroke="#17788D" stroke-width="2" stroke-linecap="round" points="0 7 15.7011607 6.64415042 16.0241599 6.61977716 23.7149406 5.79108635 24.0345398 5.75208914 28.8421277 5.49373259 37.8113053 5.57660167 38.1343045 5.54247911 42.6188932 4.5724234 42.9384924 4.47493036 56.0760595 0.492339833 56.3990587 0.438718663 61.5262458 0.00487465181 65.3716362 0.253481894 65.6912354 0.316852368 69.856225 1.61350975 70.1758242 1.72562674 74.9834121 2.94916435 75.3030113 2.99791086 97.4131559 6.01532033 97.7361551 6.03481894 112.475118 6.57103064 112.794717 6.5856546 127.85668 6.93175487"></polyline>
                    <polyline id="Shape" stroke="#17788D" stroke-width="2" stroke-linecap="round" points="0 7 15.7011607 7.35584958 16.0241599 7.38022284 23.7149406 8.20891365 24.0345398 8.24791086 28.8421277 8.50139276 37.8113053 8.42339833 38.1343045 8.45752089 42.6188932 9.4275766 42.9384924 9.52506964 56.7186579 13.6100279 57.0382571 13.6587744 62.1654442 14 66.0108346 13.6100279 66.3304338 13.5369081 76.5848081 10.8168524 76.9078073 10.7778552 99.3375511 7.87743733 99.6571503 7.85793872 128.152181 7"></polyline>
                </g>
                <g id="Group-20" transform="translate(0.000000, 163.000000)">
                    <polygon id="Shape" fill="#8BBBC6" fill-rule="nonzero" points="0 7.11748252 6.40898394 7.75384615 6.73198313 7.80769231 14.0997647 9.51608392 14.4193639 9.5993007 23.3919414 11.4202797 23.7149406 11.4741259 39.7357004 13.9902098 45.502086 13.9167832 45.8250852 13.8972028 58.9626523 12.7517483 59.2822515 12.7027972 66.3304338 11.2636364 66.653433 11.1755245 77.8666049 8.53706294 78.1862041 8.49300699 86.5195832 7.7048951 86.8391824 7.68531469 96.4543583 7.3034965 118.241504 7 96.7739575 6.70629371 84.9181872 6.17762238 84.595188 6.15314685 77.5470057 5.41888112 77.2274065 5.37482517 66.653433 2.82447552 66.3304338 2.74125874 59.2822515 1.2972028 58.9626523 1.25314685 46.7838828 0.166433566 46.4642836 0.141958042 40.0552996 0 23.7149406 2.52587413 23.3919414 2.58461538 13.1375671 4.72377622 12.8179679 4.80699301 6.08938474 6.3048951 5.76978554 6.35384615 0 6.88251748"></polygon>
                    <polyline id="Shape" stroke="#17788D" stroke-width="2" stroke-linecap="round" points="0 6.88251748 5.76978554 6.35384615 6.08938474 6.3048951 12.8179679 4.80699301 13.1375671 4.72377622 23.3919414 2.58461538 23.7149406 2.52587413 39.7357004 0.0146853147 40.0552996 0 46.4642836 0.141958042 46.7838828 0.166433566 58.9626523 1.25314685 59.2822515 1.2972028 66.3304338 2.74125874 66.653433 2.82447552 77.2274065 5.37482517 77.5470057 5.41888112 84.595188 6.15314685 84.9181872 6.17762238 96.4543583 6.6965035 117.413497 7"></polyline>
                    <polyline id="Shape" stroke="#17788D" stroke-width="2" stroke-linecap="round" points="0 7.11748252 6.40898394 7.75384615 6.73198313 7.80769231 14.0997647 9.51608392 14.4193639 9.5993007 23.3919414 11.4202797 23.7149406 11.4741259 39.7357004 13.9902098 40.0552996 14 45.502086 13.9167832 45.8250852 13.8972028 58.9626523 12.7517483 59.2822515 12.7027972 66.3304338 11.2636364 66.653433 11.1755245 77.8666049 8.53706294 78.1862041 8.49300699 86.5195832 7.7048951 86.8391824 7.68531469 96.4543583 7.3034965 118.241504 7"></polyline>
                </g>
                <g id="Group-21" transform="translate(5.769231, 133.000000)">
                    <polygon id="Shape" fill="#8BBBC6" fill-rule="nonzero" points="4.28609566 7.01956674 18.9045074 7.37665968 33.6468705 8.62403913 33.9664697 8.66317261 44.5404432 10.160028 44.8600424 10.2089448 54.4752183 11.4563242 54.7948175 11.490566 67.9323846 13.0461216 68.2519838 13.0950384 75.6231653 13.9853249 81.3895509 13.9021663 92.2865236 12.5520615 92.6061228 12.5080363 131.379626 8.11530398 143.554995 7.53808526 157.974359 7.2152341 157.974359 6.81900769 149.001781 6.64779874 132.341823 5.99231307 117.922459 4.38784067 117.59946 4.34381551 82.9943468 0.273934312 76.9049621 0 68.2519838 0.939203354 67.9323846 0.988120196 54.1522191 2.60726765 53.8326199 2.64150943 41.3376512 4.3780573 41.014652 4.42697414 30.4406785 5.75262055 30.1210793 5.78686233 19.2275066 6.63801537"></polygon>
                    <polyline id="Shape" stroke="#17788D" stroke-width="2" stroke-linecap="round" points="0.606988618 7 18.9045074 6.63902439 19.2275066 6.6195122 30.1210793 5.77073171 30.4406785 5.73658537 41.014652 4.41463415 41.3376512 4.36585366 53.8326199 2.63414634 54.1522191 2.6 67.9323846 0.985365854 68.2519838 0.936585366 76.5853629 0.00975609756 82.6713476 0.243902439 82.9943468 0.273170732 117.59946 4.33170732 117.922459 4.37560976 132.018824 5.95121951 132.341823 5.97560976 148.682182 6.62439024 157.974359 6.8"></polyline>
                    <polyline id="Shape" stroke="#17788D" stroke-width="2" stroke-linecap="round" points="0.101616773 7 18.9045074 7.3580939 19.2275066 7.37771549 33.6468705 8.60896987 33.9664697 8.64821303 44.5404432 10.1492642 44.8600424 10.1983181 54.4752183 11.4491941 54.7948175 11.4835319 67.9323846 13.0434478 68.2519838 13.0925018 75.6231653 13.9852838 81.3895509 13.9018921 81.71255 13.8773651 92.2865236 12.5480028 92.6061228 12.5038542 131.379626 8.09880869 131.699225 8.07428171 143.554995 7.51997197 157.974359 7.19621584"></polyline>
                </g>
                <g id="Group-28" transform="translate(0.000000, 101.000000)">
                    <polygon id="Shape" fill="#8BBBC6" fill-rule="nonzero" points="0 7.408867 14.7423631 8.65517241 15.0619623 8.69458128 29.1617269 10.7832512 29.4813261 10.8423645 47.4264812 13.9261084 54.4746635 14 64.4094386 13.182266 74.9834121 12.5714286 90.0453744 11.5763547 90.3649736 11.5418719 118.241504 8.1773399 142.276044 7.42857143 154.558215 7 153.500071 7 142.595643 6.57635468 118.564503 5.83743842 90.3649736 2.45812808 90.0453744 2.42364532 75.3030113 1.43842365 64.7290378 0.842364532 54.7942627 0.0147783251 47.7460804 0.0492610837 29.4813261 3.15763547 29.1617269 3.21674877 15.0619623 5.30541872 14.7423631 5.34482759 0 6.591133"></polygon>
                    <polyline id="Shape" stroke="#17788D" stroke-width="2" stroke-linecap="round" points="0 6.67569494 14.7423631 5.41339986 15.0619623 5.37348539 29.1617269 3.25801853 29.4813261 3.19814683 47.4264812 0.0748396294 47.7460804 0.0498930862 54.4746635 0 64.4094386 0.828225232 64.7290378 0.853171775 74.9834121 1.4468995 90.0453744 2.45473984 90.3649736 2.489665 118.241504 5.89736279 142.276044 6.6557377 157.991955 7"></polyline>
                    <polyline id="Shape" stroke="#17788D" stroke-width="2" stroke-linecap="round" points="0 7.32430506 14.7423631 8.58660014 15.0619623 8.62651461 29.1617269 10.7419815 29.4813261 10.8018532 47.4264812 13.9251604 47.7460804 13.9501069 54.4746635 14 64.4094386 13.1717748 64.7290378 13.1468282 74.9834121 12.5531005 90.0453744 11.5452602 90.3649736 11.510335 118.241504 8.10263721 142.276044 7.3442623 158.481992 7"></polyline>
                </g>
                <g id="Group-29" transform="translate(0.000000, 70.000000)">
                    <polygon id="Shape" fill="#8BBBC6" fill-rule="nonzero" points="10.8969727 7.37639665 25.6359358 9.06773743 25.955535 9.11662011 32.0449197 10.3924581 32.3645189 10.4853352 44.8628876 13.8631285 45.1824868 13.8973464 49.9900748 14 67.2926314 13.0174581 67.6122306 12.9490223 80.1105993 10.3044693 80.4301985 10.2555866 89.7223752 9.17527933 99.6571503 8.69134078 99.9767495 8.65223464 106.385733 8.11452514 115.67791 7.78212291 116.000909 7.74790503 124.330888 7.08798883 137.788055 7.03910615 132.354777 7.02444134 135.153538 7.02444134 139.75827 7.01955307 134.141796 7.01955307 138.111054 7 124.650488 6.96089385 116.000909 6.29608939 115.67791 6.25698324 107.347931 5.92946927 101.901145 5.63617318 101.578145 5.60195531 89.0831768 4.84427374 80.1105993 3.73463687 79.7910001 3.68575419 67.6122306 1.09497207 67.2926314 1.02653631 55.4368611 0.37150838 48.0656796 0 43.2614916 0.410614525 42.9384924 0.469273743 37.1721069 2.03351955 36.8525077 2.13617318 30.4435237 4.06215084 30.1239245 4.14036313 22.752743 5.38198324 22.4331438 5.42597765 11.2165719 6.63826816 10.8969727 6.66759777 0 7.0146648"></polygon>
                    <polyline id="Shape" stroke="#17788D" stroke-width="2" stroke-linecap="round" points="0 6.99512535 10.8969727 6.64902507 11.2165719 6.61977716 22.4331438 5.41086351 22.752743 5.36699164 30.1239245 4.12883008 30.4435237 4.05083565 36.8525077 2.13022284 37.1721069 2.02785515 42.9384924 0.467966574 43.2614916 0.409470752 47.7460804 0 55.1172619 0.355849582 55.4368611 0.370473538 67.2926314 1.02367688 67.6122306 1.09192201 79.7910001 3.67548747 80.1105993 3.72423398 88.7635776 4.82103064 101.578145 5.58635097 101.901145 5.62047354 107.028332 5.91295265 115.67791 6.23955432 116.000909 6.27855153 124.330888 6.93175487 137.788055 6.98537604 143.25108 6.99512535"></polyline>
                    <polyline id="Shape" stroke="#17788D" stroke-width="2" stroke-linecap="round" points="0 7.00980392 10.8969727 7.35784314 11.2165719 7.38235294 25.6359358 9.05392157 25.955535 9.10294118 32.0449197 10.3823529 32.3645189 10.4754902 44.8628876 13.8627451 45.1824868 13.8970588 49.9900748 14 50.309674 13.9852941 67.2926314 13.0147059 67.6122306 12.9460784 80.1105993 10.2941176 80.4301985 10.245098 89.7223752 9.16176471 99.6571503 8.67647059 99.9767495 8.6372549 106.385733 8.09803922 115.67791 7.76470588 116.000909 7.73039216 124.330888 7.06862745 137.788055 7.01960784 140.273618 7.00490196 144.759216 6.94344243"></polyline>
                </g>
                <g id="Group-30" transform="translate(0.000000, 34.000000)">
                    <polygon id="Shape" fill="#8BBBC6" fill-rule="nonzero" points="17.945155 7.39853301 28.8421277 8.25427873 48.0656796 10.6699267 48.3886788 10.7188264 70.4988234 13.8728606 78.5092033 14 91.9663696 13.2273839 108.629728 11.6528117 108.949327 11.603912 131.70207 8.19559902 140.032049 8.04400978 159.259001 8.26405868 177.662927 8.28850856 184.143385 7.39853301 163.423991 5.89731051 140.351648 5.9804401 132.021669 5.85330073 109.268926 2.47432763 108.949327 2.43031785 88.1209792 0.542787286 77.2274065 0.00488997555 69.2170266 0.249388753 54.4746635 2.35207824 54.1550643 2.40586797 36.5295085 4.8997555 36.2099093 4.93887531 22.4331438 6.35207824 0 7.00244499"></polygon>
                    <polyline id="Shape" stroke="#17788D" stroke-width="2" stroke-linecap="round" points="0 7 22.1101446 6.37430168 22.4331438 6.34986034 36.2099093 4.93715084 36.5295085 4.89804469 54.1550643 2.40502793 54.4746635 2.35125698 68.8940274 0.278631285 69.2170266 0.249301676 76.9078073 0 87.80138 0.523044693 108.949327 2.42946927 109.268926 2.47346369 131.70207 5.83170391 140.032049 5.98324022 163.104391 5.88547486 184.938569 7"></polyline>
                    <polyline id="Shape" stroke="#17788D" stroke-width="2" stroke-linecap="round" points="0 7 17.945155 7.36842105 18.2647542 7.38807018 28.8421277 8.22807018 29.1617269 8.26245614 48.0656796 10.6547368 48.3886788 10.7038596 70.4988234 13.8722807 70.8184226 13.8919298 78.5092033 14 91.9663696 13.2238596 92.2859688 13.2042105 108.629728 11.6421053 108.949327 11.5929825 131.70207 8.16912281 132.021669 8.14947368 140.032049 8.01684211 159.259001 8.23789474 184.730452 7.38807018"></polyline>
                </g>
                <g id="Group-31" transform="translate(7.948718, 0.000000)">
                    <g id="Group-18">
                        <polygon id="Shape" fill="#8BBBC6" fill-rule="nonzero" points="9.0342395 6.91844447 9.0342395 7.3581622 9.35723869 7.38252698 17.6872178 8.24016707 18.006817 8.28402367 27.6219929 9.9408284 27.9415921 10.0090498 40.1169616 12.6550644 40.4399608 12.698921 51.9727319 14 57.0999191 13.4883397 57.4229183 13.4396102 65.113699 12.5040028 74.0828765 11.6219979 74.4058757 11.5683954 82.0966564 10.632788 82.4162556 10.6084233 90.7462348 9.75078315 91.069234 9.69718065 99.7188123 8.71771667 100.038411 8.6933519 108.69139 7.81621998 109.010989 7.77723634 116.382171 7.23633832 133.365128 7.0755308 127.889149 7.11451444 127.889149 6.88548556 133.684727 6.91959624 116.70177 6.77340759 109.010989 6.22276366 108.69139 6.18378002 100.038411 5.3066481 99.7188123 5.28228333 91.069234 4.30281935 90.7462348 4.2540898 82.4162556 3.39157675 82.0966564 3.36721197 74.4058757 2.43160459 74.0828765 2.37800209 65.4332982 1.51061608 57.4229183 0.560389836 57.0999191 0.511660285 52.2957311 0.0097459102 41.3987584 1.16463627 41.0791592 1.20849286 27.9415921 3.99095023 27.6219929 4.06404455 18.006817 5.71597633 17.6872178 5.75983293 9.35723869 6.61747302 9.0342395 6.6418378 5.59950395 6.99756352"></polygon>
                        <polyline id="Shape" stroke="#17788D" stroke-width="2" stroke-linecap="round" points="0.548841682 7 9.0342395 6.64415042 9.35723869 6.61977716 17.6872178 5.76183844 18.006817 5.71796657 27.6219929 4.06545961 27.9415921 3.99233983 41.0791592 1.20891365 41.3987584 1.16504178 51.9727319 0 57.0999191 0.51183844 57.4229183 0.560584958 65.113699 1.49651811 65.4332982 1.51114206 74.0828765 2.37883008 74.4058757 2.43245125 82.0966564 3.3683844 82.4162556 3.39275766 90.7462348 4.25557103 91.069234 4.30431755 99.7188123 5.28412256 100.038411 5.30849582 108.69139 6.18593315 109.010989 6.22493036 116.382171 6.77089136 133.365128 6.92688022"></polyline>
                        <polyline id="Shape" stroke="#17788D" stroke-width="2" stroke-linecap="round" points="1.36811962 7 9.0342395 7.35584958 9.35723869 7.38022284 17.6872178 8.23816156 18.006817 8.28203343 27.6219929 9.93941504 27.9415921 10.0076602 40.1169616 12.6545961 40.4399608 12.698468 51.9727319 14 57.0999191 13.4881616 57.4229183 13.439415 65.113699 12.5034819 65.4332982 12.4888579 74.0828765 11.6211699 74.4058757 11.5675487 82.0966564 10.6316156 82.4162556 10.6072423 90.7462348 9.74930362 91.069234 9.69568245 99.7188123 8.71587744 100.038411 8.69150418 108.69139 7.81406685 109.010989 7.77506964 116.382171 7.23398329 133.365128 7.07311978"></polyline>
                    </g>
                </g>
            </g>
        </g>
    </g>
</svg>