<?xml version="1.0" encoding="UTF-8" standalone="no"?>
<svg font-family='-apple-system, BlinkMacSystemFont, "Segoe UI", Roboto, Helvetica, Arial, sans-serif, "Apple Color Emoji", "Segoe UI Emoji", "Segoe UI Symbol"' width="327px" height="196px" viewBox="0 0 327 196" version="1.1" xmlns="http://www.w3.org/2000/svg" xmlns:xlink="http://www.w3.org/1999/xlink">
    <!-- Generator: Sketch 47.1 (45422) - http://www.bohemiancoding.com/sketch -->
    <title>768 # of sellers</title>
    <desc>Created with Sketch.</desc>
    <defs>
        <rect id="path-1" x="0" y="0" width="326.721509" height="195.212589"></rect>
        <linearGradient x1="50%" y1="0%" x2="50%" y2="100%" id="linearGradient-2">
            <stop stop-color="#33B0C1" offset="0%"></stop>
            <stop stop-color="#17788D" offset="100%"></stop>
        </linearGradient>
    </defs>
    <g id="Mocks" stroke="none" stroke-width="1" fill="none" fill-rule="evenodd">
        <g id="Nov-monthly-report-greater-than-768px" transform="translate(-345.000000, -1320.000000)">
            <g id="768-#-of-sellers" transform="translate(345.000000, 1320.000000)">
                <g>
                    <g id="Rectangle">
                        <use fill="#FAFBFC" fill-rule="evenodd" xlink:href="#path-1"></use>
                        <rect stroke="#BBBBBB" stroke-width="1" x="0.5" y="0.5" width="325.721509" height="194.212589"></rect>
                    </g>
                    <text id="730"  font-size="36" font-weight="bold" letter-spacing="-1.50000024" fill="#17788D">
                        <tspan x="16" y="60">730</tspan>
                    </text>
                    <polyline id="Shape" stroke="url(#linearGradient-2)" stroke-width="3" stroke-linecap="round" points="213 69.8388704 214.010631 69.8388704 215.022757 68.9792359 216.033389 66.832392 217.045515 65.9727575 219.066777 63.3953488 220.078904 63.3953488 222.101661 63.3953488 223.112292 62.5372093 224.122924 62.1066445 225.13505 58.2420266 227.157807 58.2420266 228.168439 57.8114618 229.17907 56.9533223 230.191196 56.5227575 231.201827 54.3759136 232.213953 54.3759136 233.224585 53.5162791 234.235216 53.5162791 236.257973 53.5162791 237.2701 53.0872093 238.280731 53.0872093 239.292857 51.3694352 240.303488 50.5098007 241.31412 50.5098007 243.336877 50.5098007 244.349003 50.0807309 246.370266 46.6436877 247.382392 46.2146179 249.40515 46.2146179 250.415781 44.0677741 251.426412 42.348505 252.438538 41.4903654 253.449169 40.6307309 254.461296 38.9129568 256.482558 38.9129568 257.494684 38.483887 260.528073 33.3290698 261.538704 32.9 264.573588 32.9 265.584219 30.3225914 266.59485 29.033887 267.606977 26.8855482 270.640365 26.8855482 271.650997 26.0274086 272.663123 26.0274086 273.673754 24.7387043 274.68588 24.7387043 275.696512 24.3081395 279.742027 24.3081395 280.752658 23.8790698 281.764784 22.5903654 282.775415 22.1612957 284.798173 22.1612957 285.808804 20.8725914 287.831561 18.2951827 288.842193 18.2951827 289.854319 18.2951827 290.86495 17.866113 292.887708 17.0064784 293.898339 17.0064784 294.910465 17.0064784 295.921096 15.2887043 300.977243 15.2887043 301.989369 14 303 14"></polyline>
                    <text id="Sellers-registered-t"  font-size="17" font-weight="normal" line-spacing="28" fill="#313131">
                        <tspan x="16" y="89">Sellers registered to offer </tspan>
                        <tspan x="16" y="117">digital and ICT services</tspan>
                    </text>
                    <text id="28-new-sellers-this"  font-size="20" font-weight="bold" line-spacing="28" fill="#313131">
                        <tspan x="16" y="161">28 new sellers this month</tspan>
                    </text>
                </g>
            </g>
        </g>
    </g>
</svg>