<?xml version="1.0" encoding="UTF-8" standalone="no"?>
<svg font-family='-apple-system, BlinkMacSystemFont, "Segoe UI", Roboto, Helvetica, Arial, sans-serif, "Apple Color Emoji", "Segoe UI Emoji", "Segoe UI Symbol"' width="327px" height="196px" viewBox="0 0 327 196" version="1.1" xmlns="http://www.w3.org/2000/svg" xmlns:xlink="http://www.w3.org/1999/xlink" style="background: #FFFFFF;">
    <!-- Generator: Sketch 49 (51002) - http://www.bohemiancoding.com/sketch -->
    <title>768 Number of sellers</title>
    <desc>Created with Sketch.</desc>
    <defs>
        <rect id="path-1" x="0" y="0" width="326.721509" height="195.212589"></rect>
        <linearGradient x1="50%" y1="0%" x2="50%" y2="100%" id="linearGradient-2">
            <stop stop-color="#33B0C1" offset="0%"></stop>
            <stop stop-color="#17788D" offset="100%"></stop>
        </linearGradient>
    </defs>
    <g id="768-Number-of-sellers" stroke="none" stroke-width="1" fill="none" fill-rule="evenodd">
        <g id="768-#-of-sellers">
            <g id="Rectangle">
                <use fill="#FAFBFC" fill-rule="evenodd" xlink:href="#path-1"></use>
                <rect stroke="#BBBBBB" stroke-width="1" x="0.5" y="0.5" width="325.721509" height="194.212589"></rect>
            </g>
            <text id="819" font-size="36" font-weight="bold" letter-spacing="-1.50000024" fill="#17788D">
                <tspan x="16" y="60">819</tspan>
            </text>
            <text id="Sellers-registered-t" font-size="17" font-weight="normal" line-spacing="28" fill="#313131">
                <tspan x="16" y="91">Sellers registered to offer </tspan>
                <tspan x="16" y="119">digital and ICT services</tspan>
            </text>
            <polyline id="Shape" stroke="url(#linearGradient-2)" stroke-width="3" points="213 70.8388704 214.010631 70.8388704 215.022757 68.3003322 216.033389 64.4940199 217.045515 63.8586379 218.056146 63.8586379 219.066777 62.5893688 222.101661 62.5893688 223.112292 60.6862126 224.122924 60.6862126 225.13505 59.4169435 226.145681 58.7830565 227.157807 58.7830565 228.168439 57.5137874 229.17907 57.5137874 230.191196 56.8784053 231.201827 56.8784053 232.213953 55.6106312 233.224585 54.9752492 243.336877 54.9752492 244.349003 54.3413621 247.382392 52.436711 248.393023 52.436711 250.415781 52.436711 251.426412 50.5335548 253.449169 46.7272425 254.461296 46.7272425 255.471927 46.0918605 256.482558 46.0918605 258.505316 44.8225914 259.517442 42.2855482 261.538704 42.2855482 262.550831 41.0162791 264.573588 41.0162791 265.584219 40.380897 266.59485 39.1116279 267.606977 37.2084718 271.650997 37.2084718 272.663123 35.9392027 274.68588 35.9392027 275.696512 33.4021595 279.742027 33.4021595 280.752658 30.8636213 281.764784 30.8636213 282.775415 27.691196 285.808804 27.691196 286.82093 23.8833887 287.831561 23.2495017 288.842193 23.2495017 290.86495 20.7109635 291.877076 20.7109635 292.887708 20.7109635 293.898339 19.4416944 294.910465 18.1724252 295.921096 18.1724252 296.933223 16.9031561 297.943854 16.9031561 299.966611 16.9031561 300.977243 15.633887 301.989369 15.633887 303 15"></polyline>
            <text id="33-new-sellers-this" font-size="20" font-weight="bold" line-spacing="28" fill="#313131">
                <tspan x="16" y="161">33 new sellers this month</tspan>
            </text>
        </g>
    </g>
</svg>