<?xml version="1.0" encoding="UTF-8" standalone="no"?>
<svg font-family='-apple-system, BlinkMacSystemFont, "Segoe UI", Roboto, Helvetica, Arial, sans-serif, "Apple Color Emoji", "Segoe UI Emoji", "Segoe UI Symbol"'  width="699px" height="290px" viewBox="0 0 699 290" version="1.1" xmlns="http://www.w3.org/2000/svg" xmlns:xlink="http://www.w3.org/1999/xlink" style="background: #FFFFFF;">
    <!-- Generator: Sketch 45.2 (43514) - http://www.bohemiancoding.com/sketch -->
    <title>768 average seller response</title>
    <desc>Created with Sketch.</desc>
    <defs></defs>
    <g id="Symbols" stroke="none" stroke-width="1" fill="none" fill-rule="evenodd">
        <g id="768-average-seller-response">
            <g>
                <g id="Group-7-Copy" transform="translate(0.000000, 268.000000)" stroke="#BBBBBB">
                    <path d="M0,1.29154519 L697.000031,1.29154519" id="Shape"></path>
                </g>
                <text id="12" font-size="11" font-weight="bold" letter-spacing="0.100000001" fill="#224A61">
                    <tspan x="186" y="288">12</tspan>
                </text>
                <path d="M193.666667,47.9999424 L193.666667,270.085291" id="Line-3-Copy" stroke="#777777" stroke-width="2" stroke-linecap="square"></path>
                <circle id="Oval-22-Copy" fill="#777777" cx="193.5" cy="269.5" r="3.5"></circle>
                <text id="Buyers-receive-on-av" font-size="17" font-weight="normal" line-spacing="26" fill="#313131">
                    <tspan x="142.187256" y="16">Buyers receive on average 12 responses per brief: October ‘17</tspan>
                </text>
                <polyline id="Shape" stroke="#17788D" stroke-width="3" stroke-linecap="round" points="28.1144279 208.878185 50.4364179 173.207676 51.7514428 171.093984 83.2563184 121.461573 84.5713433 119.473759 99.0143284 98.8928035 100.318209 97.1882136 110.827264 84.9099219 112.142289 83.5619847 120.021294 76.4131971 121.325174 75.3904432 129.204179 70.1822656 130.519204 69.4899399 137.083184 66.6786779 138.398209 66.2538416 143.647164 65.026537 144.962189 64.8429657 150.211144 64.538762 151.526169 64.5754763 156.775124 65.1524144 158.090149 65.3936794 164.654129 67.1979222 165.969154 67.6699624 173.848159 71.037183 175.163184 71.6823047 206.66806 87.42747 207.983085 87.9676938 230.29393 97.1934585 231.608955 97.8700496 239.48796 102.585207 240.802985 103.503063 248.68199 109.838893 249.997015 111.045218 259.1799 120.538472 260.494925 122.038511 273.622886 138.187533 274.93791 139.865898 293.314826 162.31928 294.629851 163.761626 305.138905 174.240919 306.442786 175.405285 315.636816 182.732399 316.951841 183.66599 326.134726 189.503555 327.449751 190.248329 337.958806 195.550915 339.273831 196.143588 352.401791 201.393724 353.705672 201.865765 376.027662 209.318756 377.342687 209.759327 395.719602 216.462299 397.034627 216.986788 415.411542 224.906575 416.726567 225.509737 454.806567 243.032921 456.110448 243.510206 465.304478 246.279509 466.619502 246.583712 474.498507 247.884446 475.813532 248.010323 483.681393 248.319772 484.996418 248.298792 495.505473 247.648425 496.820498 247.527793 516.512438 246.017264 517.816318 245.98055 529.640398 246.179856 530.955423 246.253284 545.387264 247.527793 546.702289 247.67465 592.661294 253.019195 593.965174 253.176541 639.924179 258.300801 641.22806 258.416188 660.931144 259.716922 662.235025 259.774615 685.87204 260.346309 687.187065 260.362043 699 260.435472"></polyline>
                <path d="M27,53 L27,271.1875" id="Shape" stroke-opacity="0" stroke="#000000"></path>
            </g>
        </g>
    </g>
</svg>
