<?xml version="1.0" encoding="UTF-8" standalone="no"?>
<svg font-family='-apple-system, BlinkMacSystemFont, "Segoe UI", Roboto, Helvetica, Arial, sans-serif, "Apple Color Emoji", "Segoe UI Emoji", "Segoe UI Symbol"' width="699px" height="290px" viewBox="0 0 699 290" version="1.1" xmlns="http://www.w3.org/2000/svg" xmlns:xlink="http://www.w3.org/1999/xlink" style="background: #FFFFFF;">
    <!-- Generator: Sketch 49 (51002) - http://www.bohemiancoding.com/sketch -->
    <title>768 Average responses per brief</title>
    <desc>Created with Sketch.</desc>
    <defs></defs>
    <g id="768-Average-responses-per-brief" stroke="none" stroke-width="1" fill="none" fill-rule="evenodd">
        <text id="Buyers-receive-on-av" font-size="17" font-weight="normal" line-spacing="26" fill="#313131">
            <tspan x="174.406738" y="18">Buyers receive on average 12 responses per brief</tspan>
        </text>
        <g id="Group-7-Copy" transform="translate(0.000000, 268.000000)" stroke="#BBBBBB">
            <path d="M0,1.29154519 L696.002892,1.29154519" id="Shape"></path>
        </g>
        <g id="Group" transform="translate(25.000000, 47.000000)">
            <polyline id="Shape" stroke="#17788D" stroke-width="3" stroke-linecap="round" points="0 152.946024 32.8744186 102.095261 34.1916279 100.0834 55.2334884 69.0282999 56.5506977 67.2521017 65.7488372 55.9708434 67.0660465 54.5481392 74.9581395 47.1858635 76.2753488 46.1690228 82.8502326 41.9532798 84.1674419 41.2768407 89.4251163 39.1471486 90.7423256 38.7412851 96 37.5804284 97.3172093 37.4014993 103.892093 37 105.209302 37.0087282 111.784186 37.4320482 113.101395 37.5847925 122.299535 39.0642303 123.616744 39.3348059 134.132093 41.9227309 135.449302 42.2980455 145.975814 45.8068005 147.293023 46.3086747 156.491163 50.3149398 157.808372 50.96083 167.017674 56.0930388 168.323721 56.9222222 177.533023 63.4378581 178.850233 64.4808835 188.059535 72.5326908 189.365581 73.7939224 201.209302 86.1443909 202.515349 87.6063722 230.132093 117.967577 231.449302 119.22008 240.658605 127.092959 241.975814 128.07925 249.867907 133.285649 251.173953 134.031914 259.066047 137.915984 260.383256 138.470228 269.592558 141.791325 270.898605 142.201553 284.059535 145.79759 285.365581 146.129264 306.407442 151.833173 307.724651 152.247764 318.251163 155.983454 319.557209 156.502784 332.706977 162.311432 334.024186 162.939866 372.167442 181.260455 373.484651 181.801606 384 185.559116 385.317209 185.947523 393.209302 187.872102 394.515349 188.125221 402.407442 189.163882 403.724651 189.268621 411.616744 189.526104 412.933953 189.513012 426.083721 189.015502 427.40093 188.954404 440.550698 188.635823 441.867907 188.648916 452.383256 189.128969 453.700465 189.229344 468.167442 190.761151 469.484651 190.922624 494.466977 193.685114 495.784186 193.794217 512.874419 194.89834 514.191628 194.963802 579.940465 197.743748 581.257674 197.774297 614.132093 198.8566 615.449302 198.908969 645.700465 199.807979 647.017674 199.829799 672 200"></polyline>
            <path d="M158,0.999942364 L158,223.085291" id="Line-3-Copy" stroke="#777777" stroke-width="2" stroke-linecap="square"></path>
        </g>
        <text id="12" font-size="11" font-weight="bold" letter-spacing="0.100000001" fill="#224A61">
            <tspan x="176" y="288">12</tspan>
        </text>
        <circle id="Oval-22-Copy" fill="#777777" cx="182.5" cy="269.5" r="3.5"></circle>
    </g>
</svg>