<?xml version="1.0" encoding="UTF-8" standalone="no"?>
<svg font-family='-apple-system, BlinkMacSystemFont, "Segoe UI", Roboto, Helvetica, Arial, sans-serif, "Apple Color Emoji", "Segoe UI Emoji", "Segoe UI Symbol"' width="327px" height="196px" viewBox="0 0 327 196" version="1.1" xmlns="http://www.w3.org/2000/svg" xmlns:xlink="http://www.w3.org/1999/xlink">
    <!-- Generator: Sketch 47.1 (45422) - http://www.bohemiancoding.com/sketch -->
    <title>768 $ contracted since launch</title>
    <desc>Created with Sketch.</desc>
    <defs>
        <rect id="path-1" x="0" y="0" width="326.721509" height="195.212589"></rect>
        <linearGradient x1="50%" y1="0%" x2="50%" y2="100%" id="linearGradient-2">
            <stop stop-color="#33B0C1" offset="0%"></stop>
            <stop stop-color="#17788D" offset="100%"></stop>
        </linearGradient>
    </defs>
    <g id="Mocks" stroke="none" stroke-width="1" fill="none" fill-rule="evenodd">
        <g id="Nov-monthly-report-greater-than-768px" transform="translate(-711.000000, -1093.000000)">
            <g id="768-$-contracted-since-launch" transform="translate(711.000000, 1093.000000)">
                <g id="Group-10">
                    <g id="Rectangle-Copy">
                        <use fill="#FAFBFC" fill-rule="evenodd" xlink:href="#path-1"></use>
                        <rect stroke="#BBBBBB" stroke-width="1" x="0.5" y="0.5" width="325.721509" height="194.212589"></rect>
                    </g>
                    <text id="$55.13M"  font-size="36" font-weight="bold" letter-spacing="-1.50000024" fill="#17788D">
                        <tspan x="16" y="61">$55.13M</tspan>
                    </text>
                    <text id="Contracted-through-t"  font-size="17" font-weight="normal" line-spacing="28" fill="#313131">
                        <tspan x="16" y="89">Contracted through the Marketplace </tspan>
                        <tspan x="16" y="117">since 29 August 2016* </tspan>
                    </text>
                    <text id="$7.46M-this-month"  font-size="20" font-weight="bold" line-spacing="28" fill="#313131">
                        <tspan x="16" y="161">$7.46M this month</tspan>
                    </text>
                    <polyline id="Shape" stroke="url(#linearGradient-2)" stroke-width="3" stroke-linecap="round" points="212 67.8388704 215.033389 67.7611296 216.045515 62.9038206 217.056146 62.0980066 218.066777 61.9440199 221.101661 61.9440199 222.112292 61.3340532 223.122924 56.1538206 224.13505 55.7710963 229.191196 55.7710963 230.201827 55.1925249 231.213953 54.6139535 232.224585 53.4074751 235.257973 53.4074751 236.2701 52.8887043 237.280731 52.6076412 238.292857 52.1710963 244.359635 52.1710963 245.370266 50.344186 246.382392 49.7342193 247.393023 49.7342193 250.426412 49.7342193 251.438538 49.1048173 252.449169 48.7639535 253.461296 48.7639535 255.482558 48.7639535 256.494684 48.269103 257.505316 48.269103 258.517442 45.0099668 259.528073 43.5583056 260.538704 43.5583056 262.561462 43.5583056 263.573588 43.320598 264.584219 42.3951827 265.59485 42.3951827 266.606977 41.6297342 267.617608 41.1408638 270.650997 41.1408638 271.663123 40.7342193 272.673754 40.7342193 273.68588 40.4083056 274.696512 36.3837209 275.707143 36.3837209 277.7299 36.3837209 278.742027 33.963289 283.798173 33.963289 284.808804 32.2141196 285.82093 32.2141196 286.831561 31.1451827 287.842193 30.1674419 288.854319 27.1789037 290.877076 27.1789037 291.887708 26.3865449 297.954485 26.2774086 298.966611 13.9300664 299.977243 12.2107973 300.989369 12 302 12"></polyline>
                </g>
            </g>
        </g>
    </g>
</svg>