<?xml version="1.0" encoding="UTF-8" standalone="no"?>
<svg font-family='-apple-system, BlinkMacSystemFont, "Segoe UI", Roboto, Helvetica, Arial, sans-serif, "Apple Color Emoji", "Segoe UI Emoji", "Segoe UI Symbol"' width="327px" height="196px" viewBox="0 0 327 196" version="1.1" xmlns="http://www.w3.org/2000/svg" xmlns:xlink="http://www.w3.org/1999/xlink" style="background: #FFFFFF;">
    <!-- Generator: Sketch 48.2 (47327) - http://www.bohemiancoding.com/sketch -->
    <title>768 # of sellers</title>
    <desc>Created with Sketch.</desc>
    <defs>
        <rect id="path-1" x="0" y="0" width="326.721509" height="195.212589"></rect>
        <linearGradient x1="50%" y1="0%" x2="50%" y2="100%" id="linearGradient-2">
            <stop stop-color="#33B0C1" offset="0%"></stop>
            <stop stop-color="#17788D" offset="100%"></stop>
        </linearGradient>
    </defs>
    <g id="Symbols" stroke="none" stroke-width="1" fill="none" fill-rule="evenodd">
        <g id="768-#-of-sellers">
            <g>
                <g id="Rectangle">
                    <use fill="#FAFBFC" fill-rule="evenodd" xlink:href="#path-1"></use>
                    <rect stroke="#BBBBBB" stroke-width="1" x="0.5" y="0.5" width="325.721509" height="194.212589"></rect>
                </g>
                <text id="757" font-size="36" font-weight="bold" letter-spacing="-1.50000024" fill="#17788D">
                    <tspan x="16" y="60">757</tspan>
                </text>
                <polyline id="Shape" stroke="url(#linearGradient-2)" stroke-width="3" points="213 70.8388704 215.022757 66.8142857 216.033389 66.3119601 218.056146 66.3119601 219.066777 63.7958472 220.078904 61.7835548 221.089535 60.7774086 222.101661 59.7712625 223.112292 57.7589701 225.13505 57.7589701 226.145681 57.2566445 229.17907 51.2197674 230.191196 50.7174419 233.224585 50.7174419 234.235216 47.6990033 235.247342 46.1890365 236.257973 43.6744186 239.292857 43.6744186 240.303488 42.6682724 241.31412 42.6682724 242.326246 41.1583056 243.336877 41.1583056 244.349003 40.6559801 248.393023 40.6559801 249.40515 40.1521595 250.415781 38.6436877 251.426412 38.1398671 253.449169 38.1398671 254.461296 36.6313953 256.482558 33.6129568 257.494684 33.6129568 258.505316 33.6129568 259.517442 33.1106312 261.538704 32.104485 262.550831 32.104485 263.561462 32.104485 264.573588 30.0921927 269.629734 30.0921927 270.640365 28.5822259 272.663123 27.5760797 273.673754 27.5760797 274.68588 25.5637874 275.696512 22.5453488 276.707143 22.0430233 277.719269 22.0430233 278.7299 21.0368771 279.742027 21.0368771 281.764784 21.0368771 282.775415 19.5269103 283.786047 19.5269103 284.798173 18.5207641 285.808804 18.0184385 286.82093 18.0184385 287.831561 17.0122924 288.842193 17.0122924 289.854319 16.5084718 290.86495 16.5084718 291.877076 15.5023256 292.887708 15 303 15"></polyline>
                <text id="Sellers-registered-t" font-size="17" font-weight="normal" line-spacing="28" fill="#313131">
                    <tspan x="16" y="91">Sellers registered to offer </tspan>
                    <tspan x="16" y="119">digital and ICT services</tspan>
                </text>
                <text id="27-new-sellers-this" font-size="20" font-weight="bold" line-spacing="28" fill="#313131">
                    <tspan x="16" y="161">27 new sellers this month</tspan>
                </text>
            </g>
        </g>
    </g>
</svg>