<?xml version="1.0" encoding="UTF-8" standalone="no"?>
<svg font-family='-apple-system, BlinkMacSystemFont, "Segoe UI", Roboto, Helvetica, Arial, sans-serif, "Apple Color Emoji", "Segoe UI Emoji", "Segoe UI Symbol"' width="327px" height="196px" viewBox="0 0 327 196" version="1.1" xmlns="http://www.w3.org/2000/svg" xmlns:xlink="http://www.w3.org/1999/xlink">
    <!-- Generator: Sketch 47.1 (45422) - http://www.bohemiancoding.com/sketch -->
    <title>768 total opportunities</title>
    <desc>Created with Sketch.</desc>
    <defs>
        <rect id="path-1" x="0" y="0" width="326.721509" height="195.212589"></rect>
        <linearGradient x1="50%" y1="0%" x2="50%" y2="100%" id="linearGradient-2">
            <stop stop-color="#33B0C1" offset="0%"></stop>
            <stop stop-color="#17788D" offset="100%"></stop>
        </linearGradient>
    </defs>
    <g id="Mocks" stroke="none" stroke-width="1" fill="none" fill-rule="evenodd">
        <g id="Nov-monthly-report-greater-than-768px" transform="translate(-711.000000, -1320.000000)">
            <g id="768-total-opportunities" transform="translate(711.000000, 1320.000000)">
                <g>
                    <g id="Rectangle">
                        <use fill="#FAFBFC" fill-rule="evenodd" xlink:href="#path-1"></use>
                        <rect stroke="#BBBBBB" stroke-width="1" x="0.5" y="0.5" width="325.721509" height="194.212589"></rect>
                    </g>
                    <text id="374"  font-size="36" font-weight="bold" letter-spacing="-1.50000024" fill="#17788D">
                        <tspan x="16" y="60">374</tspan>
                    </text>
                    <polyline id="Shape" stroke="url(#linearGradient-2)" stroke-width="3" stroke-linecap="round" points="213 70.8388704 214.010631 70.8388704 215.022757 70.348505 216.033389 69.3692691 217.045515 69.3692691 218.056146 68.3900332 219.066777 66.9204319 220.078904 66.4300664 221.089535 66.4300664 222.101661 66.4300664 223.112292 65.941196 224.122924 64.9604651 225.13505 64.4715947 226.145681 63.9812292 227.157807 63.9812292 228.168439 63.9812292 229.17907 63.4923588 230.191196 63.0019934 231.201827 61.532392 232.213953 61.0420266 233.224585 59.0835548 234.235216 59.0835548 235.247342 58.5931894 236.257973 58.5931894 237.2701 58.1043189 238.280731 56.6347176 239.292857 56.1443522 240.303488 55.1651163 241.31412 55.1651163 243.336877 55.1651163 244.349003 53.695515 246.370266 51.7355482 247.382392 51.2466777 248.393023 51.2466777 249.40515 50.7563123 250.415781 50.2659468 251.426412 50.2659468 252.438538 49.286711 253.449169 45.3682724 254.461296 45.3682724 255.471927 44.879402 256.482558 44.879402 257.494684 42.4290698 258.505316 41.9401993 259.517442 41.9401993 261.538704 39.9802326 262.550831 39.9802326 264.573588 39.0009967 265.584219 37.0410299 267.606977 36.061794 268.617608 34.5921927 270.640365 34.5921927 271.650997 33.6129568 272.663123 32.1433555 273.673754 31.65299 274.68588 29.6945183 275.696512 28.2249169 277.719269 28.2249169 278.7299 27.7345515 279.742027 26.2664452 280.752658 25.2857143 281.764784 24.3064784 282.775415 23.816113 284.798173 23.816113 285.808804 22.8368771 291.877076 22.8368771 292.887708 21.8576412 293.898339 20.3880399 294.910465 20.3880399 296.933223 19.408804 297.943854 19.408804 298.954485 18.9184385 299.966611 16.9599668 300.977243 16.9599668 301.989369 15.4903654 303 15"></polyline>
                    <text id="Total-opportunities"  font-size="17" font-weight="normal" line-spacing="28" fill="#313131">
                        <tspan x="16" y="89">Total opportunities </tspan>
                        <tspan x="16" y="117">since 29 August 2016</tspan>
                    </text>
                    <text id="35-new-briefs-this-m"  font-size="20" font-weight="bold" line-spacing="28" fill="#313131">
                        <tspan x="16" y="161">35 new briefs this month</tspan>
                    </text>
                </g>
            </g>
        </g>
    </g>
</svg>