<?xml version="1.0" encoding="UTF-8" standalone="no"?>
<svg font-family='-apple-system, BlinkMacSystemFont, "Segoe UI", Roboto, Helvetica, Arial, sans-serif, "Apple Color Emoji", "Segoe UI Emoji", "Segoe UI Symbol"' width="363px" height="343px" viewBox="0 0 363 343" version="1.1" xmlns="http://www.w3.org/2000/svg" xmlns:xlink="http://www.w3.org/1999/xlink" style="background: #FFFFFF;">
    <!-- Generator: Sketch 49 (51002) - http://www.bohemiancoding.com/sketch -->
    <title>768 Daily rates per role</title>
    <desc>Created with Sketch.</desc>
    <defs></defs>
    <g id="768-Daily-rates-per-role" stroke="none" stroke-width="1" fill="none" fill-rule="evenodd">
        <text id="Daily-rates-sellers" font-size="17" font-weight="normal" line-spacing="26" fill="#313131">
            <tspan x="60.4916992" y="18">Daily rates sellers have bid for </tspan>
            <tspan x="121.402832" y="44">specialist roles</tspan>
        </text>
        <text id="Daily-rate-inc-GST" font-size="14" font-weight="bold" fill="#224A61">
            <tspan x="193" y="341">Daily rate inc GST</tspan>
        </text>
        <g id="Group-3" transform="translate(1.000000, 64.000000)" fill="#224A61" font-size="11" font-weight="normal">
            <text id="User-research-and-de">
                <tspan x="27.5316287" y="12">User research and </tspan>
                <tspan x="87.7308474" y="27">design</tspan>
            </text>
        </g>
        <g id="Group-7" transform="translate(0.000000, 130.000000)" fill="#224A61" font-size="11" font-weight="normal">
            <text id="Software-engineering">
                <tspan x="12.6391602" y="12">Software engineering </tspan>
                <tspan x="31.7333984" y="27">and development</tspan>
            </text>
        </g>
        <g id="Group-7-Copy" transform="translate(0.000000, 103.000000)" fill="#224A61" font-size="11" font-weight="normal">
            <text id="Strategy-and-policy">
                <tspan x="24.7939453" y="12">Strategy and policy</tspan>
            </text>
        </g>
        <g id="Group-4" transform="translate(0.000000, 171.000000)" fill="#224A61" font-size="11" font-weight="normal">
            <text id="Data-science">
                <tspan x="57.4072266" y="12">Data science</tspan>
            </text>
        </g>
        <g id="Group-5" transform="translate(1.000000, 202.000000)" fill="#224A61" font-size="11" font-weight="normal">
            <text id="Cyber-security">
                <tspan x="49.1518555" y="12">Cyber security</tspan>
            </text>
        </g>
        <text id="Content-and-publishi" font-size="11" font-weight="normal" fill="#224A61">
            <tspan x="2.29443359" y="246">Content and publishing</tspan>
        </text>
        <g id="Group-6" transform="translate(1.000000, 263.000000)" fill="#224A61" font-size="11" font-weight="normal">
            <text id="Agile-delivery-and-g">
                <tspan x="31.2108279" y="12">Agile delivery and </tspan>
                <tspan x="61.5789919" y="27">governance</tspan>
            </text>
        </g>
        <g id="Group-35-Copy" transform="translate(141.000000, 71.000000)">
            <g id="Group-2-Copy" transform="translate(0.000000, 221.000000)">
                <path d="M2,0 L217,0" id="Shape-Copy" stroke="#BBBBBB" fill-opacity="0.300000012" fill="#001F5F" fill-rule="nonzero"></path>
                <text id="1000" fill="#444444" font-size="11" font-weight="normal">
                    <tspan x="56.4208984" y="19">1000</tspan>
                </text>
                <text id="2000" fill="#444444" font-size="11" font-weight="normal">
                    <tspan x="126.420898" y="19">2000</tspan>
                </text>
                <text id="3000" fill="#444444" font-size="11" font-weight="normal">
                    <tspan x="191.420898" y="20">3000</tspan>
                </text>
                <text id="0" fill="#444444" font-size="11" font-weight="normal">
                    <tspan x="0.355224609" y="19">0</tspan>
                </text>
            </g>
            <g id="Group-Copy" transform="translate(23.000000, 0.000000)">
                <g id="Group-23" transform="translate(10.000000, 0.000000)">
                    <polygon id="Shape" fill="#8BBBC6" fill-rule="nonzero" points="11.2430705 7.37926275 20.2585685 8.25918745 20.5719502 8.30108863 31.4512448 10.2564769 31.7613278 10.3309678 41.0902075 12.3794698 41.4002905 12.421371 52.2828838 13.7203075 56.6339419 13.4083765 56.9440249 13.3571639 66.2729046 12.1047843 73.7346888 11.4436769 74.0447718 11.3924643 82.126722 10.3775247 91.1455187 9.49294431 91.4556017 9.44638745 98.6040041 8.70147765 108.242967 7.77965176 108.55305 7.74240627 115.394668 7.26287059 115.704751 6.81592471 108.55305 6.33173333 108.242967 6.29448784 98.9173859 5.39128471 91.4556017 4.62775216 91.1455187 4.58119529 82.4401037 3.71523765 74.0447718 2.68167529 73.7346888 2.63046275 66.5829876 1.98332235 56.9440249 0.716975686 56.6339419 0.665763137 52.5929668 0.349176471 41.4002905 1.65276863 41.0902075 1.6946698 31.7613278 3.74317176 31.4512448 3.81766275 22.1256639 5.54492235 21.8155809 5.59147922 11.5531535 6.6809098 5.5 7.03474196"></polygon>
                    <polyline id="Shape" stroke="#17788D" stroke-width="2" stroke-linecap="round" points="0.756469424 6.9169609 11.2430705 6.69953255 11.5531535 6.6809098 21.8155809 5.59147922 22.1256639 5.54492235 31.4512448 3.81766275 31.7613278 3.74317176 41.0902075 1.6946698 41.4002905 1.65276863 52.2828838 0.353832157 56.6339419 0.665763137 56.9440249 0.716975686 66.2729046 1.96935529 73.7346888 2.63046275 74.0447718 2.68167529 82.126722 3.6966149 82.4401037 3.71523765 91.1455187 4.58119529 91.4556017 4.62775216 98.6040041 5.37731765 108.242967 6.29448784 108.55305 6.33173333 115.394668 6.81126902 126.976157 7.16820864"></polyline>
                    <polyline id="Shape" stroke="#17788D" stroke-width="2" stroke-linecap="round" points="0.554416657 7.15456703 11.2430705 7.37926275 11.5531535 7.39788549 20.2585685 8.25918745 20.5719502 8.30108863 31.4512448 10.2564769 31.7613278 10.3309678 41.0902075 12.3794698 41.4002905 12.421371 52.2828838 13.7203075 56.6339419 13.4083765 56.9440249 13.3571639 66.2729046 12.1047843 73.7346888 11.4436769 74.0447718 11.3924643 82.126722 10.3775247 82.4401037 10.358902 91.1455187 9.49294431 91.4556017 9.44638745 98.6040041 8.70147765 98.9173859 8.6828549 108.242967 7.77965176 108.55305 7.74240627 115.394668 7.26287059 126.782245 7.24256764"></polyline>
                </g>
                <g id="Group-24" transform="translate(5.000000, 32.833333)">
                    <polygon id="Shape" fill="#8BBBC6" fill-rule="nonzero" points="0.0758713693 6.85106196 18.110166 7.43767843 18.420249 7.46095686 31.786805 8.80179451 32.1001867 8.83904 51.3748133 11.4974369 51.6848963 11.5439937 65.674917 13.3038431 65.9882988 13.3224659 74.070249 13.4667922 74.380332 13.4574808 85.2629253 12.7963733 85.5730083 12.7684392 110.445622 10.5523325 110.755705 10.5197427 130.96388 8.7366149 131.273963 8.72264784 144.020353 8.30829176 144.333734 8.30363608 158.943921 7.78219922 158.943921 5.84077804 131.273963 4.9049851 130.96388 4.89101804 110.445622 3.07530039 110.135539 3.0380549 85.5730083 0.854538039 85.2629253 0.831259608 74.380332 0.165496471 74.070249 0.156185098 65.9882988 0.300511373 65.674917 0.323789804 51.6848963 2.07898353 51.3748133 2.13019608 28.3692946 5.22622745 28.0592116 5.25881725 14.3792739 6.41342745 14.0658921 6.42739451 0.0758713693 6.77191529"></polygon>
                    <polyline id="Shape" stroke="#17788D" stroke-width="2" stroke-linecap="round" points="0.0758713693 6.77191529 14.0658921 6.42739451 28.0592116 5.25881725 28.3692946 5.22622745 51.3748133 2.13019608 51.6848963 2.07898353 65.674917 0.323789804 65.9882988 0.300511373 74.070249 0.156185098 85.2629253 0.831259608 85.5730083 0.854538039 110.135539 3.0380549 110.445622 3.07530039 130.96388 4.89101804 176.803711 6.93727022"></polyline>
                    <polyline id="Shape" stroke="#17788D" stroke-width="2" stroke-linecap="round" points="0.0758713693 6.85106196 18.110166 7.43767843 18.420249 7.46095686 31.786805 8.80179451 32.1001867 8.83904 51.3748133 11.4974369 51.6848963 11.5439937 65.674917 13.3038431 65.9882988 13.3224659 74.070249 13.4667922 85.2629253 12.7963733 85.5730083 12.7684392 110.445622 10.5523325 110.755705 10.5197427 130.96388 8.7366149 144.020353 8.30829176 176.723351 7.08509725"></polyline>
                </g>
                <g id="Group-25" transform="translate(5.000000, 65.666667)">
                    <polygon id="Shape" fill="#8BBBC6" fill-rule="nonzero" points="12.2020954 7.61327686 12.5121784 7.64121098 24.9484855 9.0937851 25.2585685 9.14034196 31.786805 10.4299671 32.1001867 10.5137694 43.6029461 13.6610133 43.913029 13.6936031 48.2673859 13.74016 59.1466805 13.4002949 64.4312863 13.0557741 64.744668 12.9999059 69.0957261 11.8732298 69.4058091 11.7801161 75.3138797 10.4299671 75.6239627 10.3787545 86.506556 9.05188392 96.7656846 8.59097098 97.0757676 8.55372549 103.293921 8.05091137 112.622801 7.73898039 112.932884 7.70639059 121.014834 7.1942651 121.324917 7.03597176 112.932884 6.5145349 112.622801 6.48660078 104.227469 6.1746698 97.6992324 5.75100235 97.3891494 5.70910118 85.8830913 5.15507451 75.0037967 3.73974588 74.6937137 3.68853333 68.7856432 2.25923765 68.4755602 2.16612392 64.1212033 1.11859451 63.8111203 1.07203765 57.9030498 0.839253333 48.8875519 0.51801098 44.223112 0.504043922 43.913029 0.531978039 31.476722 3.87941647 31.166639 3.95856314 22.1511411 5.52287373 21.8410581 5.5647749 10.6483817 6.73800784 10.335 6.76128627 0.0758713693 7.10115137"></polygon>
                    <polyline id="Shape" stroke="#17788D" stroke-width="2" stroke-linecap="round" points="0.0758713693 7.10115137 10.335 6.76128627 10.6483817 6.73800784 21.8410581 5.5647749 22.1511411 5.52287373 31.166639 3.95856314 31.476722 3.87941647 43.913029 0.531978039 44.223112 0.504043922 48.5774689 0.499388235 48.8875519 0.51801098 57.5929668 0.84390902 63.8111203 1.07203765 64.1212033 1.11859451 68.4755602 2.16612392 68.7856432 2.25923765 74.6937137 3.68853333 75.0037967 3.73974588 85.5730083 5.14110745 85.8830913 5.15507451 97.3891494 5.70910118 97.6992324 5.75100235 103.917386 6.1746698 112.622801 6.48660078 112.932884 6.5145349 121.014834 7.03131608 134.68233 7.05304558"></polyline>
                    <polyline id="Shape" stroke="#17788D" stroke-width="2" stroke-linecap="round" points="0.0758713693 7.11977412 12.2020954 7.61327686 12.5121784 7.64121098 24.9484855 9.0937851 25.2585685 9.14034196 31.786805 10.4299671 32.1001867 10.5137694 43.6029461 13.6610133 43.913029 13.6936031 48.2673859 13.74016 48.5774689 13.7261929 59.1466805 13.4002949 64.4312863 13.0557741 64.744668 12.9999059 69.0957261 11.8732298 69.4058091 11.7801161 75.3138797 10.4299671 75.6239627 10.3787545 86.506556 9.05188392 96.7656846 8.59097098 97.0757676 8.55372549 103.293921 8.05091137 112.622801 7.73898039 112.932884 7.70639059 121.014834 7.1942651 134.070235 7.17331799"></polyline>
                </g>
                <g id="Group-26" transform="translate(0.000000, 98.500000)">
                    <polygon id="Shape" fill="#8BBBC6" fill-rule="nonzero" points="5.07587137 7.85804444 20.3095228 9.1112 20.6229046 9.14417778 33.6793776 11.0710222 33.9894606 11.1275556 51.4002905 14.1662222 51.7103734 14.1897778 58.23861 14.1473778 58.5519917 14.1285333 75.3393568 13.3040889 75.6494398 13.3135111 90.5730083 13.3370667 90.8830913 13.3088 97.4146266 12.3665778 97.7247095 12.3100444 117.309419 8.87564444 117.622801 8.84737778 126.324917 8.39511111 126.638299 8.38568889 163.943921 7.58008889 163.943921 7.41991111 126.638299 6.61431111 126.324917 6.60488889 117.622801 6.15262222 117.309419 6.12435556 97.7247095 2.68995556 97.4146266 2.63342222 90.8830913 1.6912 90.5730083 1.66293333 75.6494398 1.68648889 75.3393568 1.69591111 58.5519917 0.871466667 58.23861 0.852622222 51.7103734 0.810222222 51.4002905 0.833777778 33.9894606 3.87244444 33.6793776 3.92897778 20.6229046 5.85582222 20.3095228 5.8888 5.07587137 7.14195556"></polygon>
                    <polyline id="Shape" stroke="#17788D" stroke-width="2" stroke-linecap="round" points="0.89027958 7.78366091 20.3095228 5.8888 20.6229046 5.85582222 33.6793776 3.92897778 33.9894606 3.87244444 51.4002905 0.833777778 51.7103734 0.810222222 58.23861 0.852622222 58.5519917 0.871466667 75.3393568 1.69591111 90.5730083 1.66293333 90.8830913 1.6912 97.4146266 2.63342222 97.7247095 2.68995556 117.309419 6.12435556 117.622801 6.15262222 126.324917 6.60488889 163.943921 7.41991111"></polyline>
                    <polyline id="Shape" stroke="#17788D" stroke-width="2" stroke-linecap="round" points="0.703674993 7.90492739 20.3095228 9.1112 20.6229046 9.14417778 33.6793776 11.0710222 33.9894606 11.1275556 51.4002905 14.1662222 51.7103734 14.1897778 58.23861 14.1473778 58.5519917 14.1285333 75.3393568 13.3040889 90.5730083 13.3370667 90.8830913 13.3088 97.4146266 12.3665778 97.7247095 12.3100444 117.309419 8.87564444 117.622801 8.84737778 126.324917 8.39511111 163.943921 7.58008889"></polyline>
                </g>
                <g id="Group-27" transform="translate(15.000000, 132.333333)">
                    <polygon id="Shape" fill="#8BBBC6" fill-rule="nonzero" points="16.1921162 7.22940235 32.3593154 8.50971608 32.6693983 8.54696157 57.5420124 11.8804329 57.8520954 11.9316455 69.3548548 13.5611357 74.6394606 13.31904 74.9528423 13.2864502 99.5120747 10.46976 99.8221577 10.4418259 112.258465 8.98459608 112.568548 8.94735059 122.830975 7.90913255 138.994876 7.27595922 148.943921 7.0431749 148.943921 6.73589961 139.61834 6.51708235 125.318237 6.00961255 112.881929 4.86896941 112.568548 4.82706824 93.2939212 2.79718902 81.7911618 1.44238431 81.4810788 1.39582745 73.3958299 0.33433098 68.1112241 0.269151373 60.3393568 1.40979451 60.0292739 1.46566275 50.7003942 2.77856627 50.3903112 2.81115608 40.4412656 4.0914698 40.1311826 4.13802667 29.2485892 5.60456784 28.9385062 5.63250196 16.5021992 6.53104941"></polygon>
                    <polyline id="Shape" stroke="#17788D" stroke-width="2" stroke-linecap="round" points="0.692567252 6.75137634 16.1921162 6.54967216 16.5021992 6.53104941 28.9385062 5.63250196 29.2485892 5.60456784 40.1311826 4.13802667 40.4412656 4.0914698 50.3903112 2.81115608 50.7003942 2.77856627 60.0292739 1.46566275 60.3393568 1.40979451 67.8011411 0.292429804 68.1112241 0.269151373 73.0857469 0.311052549 73.3958299 0.33433098 81.4810788 1.39582745 81.7911618 1.44238431 92.9838382 2.77391059 93.2939212 2.79718902 112.568548 4.82706824 112.881929 4.86896941 125.004855 5.99564549 125.318237 6.00961255 139.308257 6.50777098 148.943921 6.73589961"></polyline>
                    <polyline id="Shape" stroke="#17788D" stroke-width="2" stroke-linecap="round" points="0.5 6.79316291 16.1921162 7.22940235 32.3593154 8.50971608 32.6693983 8.54696157 57.5420124 11.8804329 57.8520954 11.9316455 69.3548548 13.5611357 74.6394606 13.31904 74.9528423 13.2864502 99.5120747 10.46976 99.8221577 10.4418259 112.258465 8.98459608 112.568548 8.94735059 122.830975 7.90913255 123.141058 7.88585412 138.994876 7.27595922 148.943921 7.0431749"></polyline>
                </g>
                <g id="Group-32" transform="translate(5.000000, 165.166667)">
                    <polygon id="Shape" fill="#8BBBC6" fill-rule="nonzero" points="0.0758713693 7.35844392 6.2940249 8.0428298 6.60740664 8.09869804 15.6229046 10.0633976 15.9329876 10.1332329 27.7458299 12.4517647 28.0592116 12.5076329 36.7613278 13.7367341 37.0747095 13.7600125 43.2928631 13.797258 43.6029461 13.7786353 55.4157884 12.7357616 55.7258714 12.6985161 62.2574066 11.6835765 62.5674896 11.6230525 77.1776763 8.79705098 77.4910581 8.75980549 90.2374481 7.5679498 90.5475311 7.55398275 100.186494 7.06513569 99.873112 7.06048 88.3703527 6.71595922 88.0602697 6.69733647 77.4910581 5.61256157 77.1776763 5.57531608 70.3393568 4.49054118 70.0292739 4.42536157 61.3238589 2.51187451 61.0137759 2.45135059 48.5774689 0.984809412 48.2673859 0.96153098 41.4257676 0.509929412 41.1156846 0.505273725 35.2076141 0.779959216 34.8975311 0.81254902 6.91748963 6.22245647 6.60740664 6.27832471 0.0758713693 7.01392314"></polygon>
                    <polyline id="Shape" stroke="#17788D" stroke-width="2" stroke-linecap="round" points="0.0758713693 7.01392314 6.60740664 6.27832471 6.91748963 6.22245647 34.8975311 0.81254902 35.2076141 0.779959216 41.1156846 0.505273725 48.2673859 0.96153098 48.5774689 0.984809412 61.0137759 2.45135059 61.3238589 2.51187451 70.0292739 4.42536157 70.3393568 4.49054118 77.1776763 5.57531608 77.4910581 5.61256157 88.0602697 6.69733647 88.3703527 6.71595922 99.873112 7.06048 108.484942 7.06048"></polyline>
                    <polyline id="Shape" stroke="#17788D" stroke-width="2" stroke-linecap="round" points="0.0758713693 7.35844392 6.2940249 8.0428298 6.60740664 8.09869804 15.6229046 10.0633976 15.9329876 10.1332329 27.7458299 12.4517647 28.0592116 12.5076329 36.7613278 13.7367341 37.0747095 13.7600125 43.2928631 13.797258 43.6029461 13.7786353 55.4157884 12.7357616 55.7258714 12.6985161 62.2574066 11.6835765 62.5674896 11.6230525 77.1776763 8.79705098 77.4910581 8.75980549 90.2374481 7.5679498 90.5475311 7.55398275 108.465179 7.27508387"></polyline>
                </g>
                <g id="Group-33" transform="translate(9.000000, 198.000000)">
                    <polygon id="Shape" fill="#8BBBC6" fill-rule="nonzero" points="10.3792739 6.9945098 26.2330913 7.93495843 32.7613278 8.07462902 33.0747095 8.1165302 37.1156846 8.98714353 37.4257676 9.07560157 52.9695021 13.223818 53.2828838 13.2564078 57.0137759 13.284342 57.3238589 13.2564078 60.744668 12.572022 61.054751 12.4742525 68.5165353 10.2721129 68.8266183 10.2209004 85.6139834 8.04203922 85.9273651 8.00479373 92.1455187 7.49732392 116.704751 6.73844706 94.6294813 5.9097349 87.1709959 5.47675608 86.8576141 5.43951059 69.1367012 3.14891294 68.8266183 3.10235608 61.054751 0.853659608 60.744668 0.755890196 57.3238589 0.0715043137 57.0137759 0.0435701961 53.2828838 0.0715043137 52.9695021 0.104094118 38.0492324 4.07539451 37.7358506 4.16385255 33.0747095 5.21138196 32.7613278 5.25328314 26.2330913 5.39295373 10.6893568 6.31012392"></polygon>
                    <polyline id="Shape" stroke="#17788D" stroke-width="2" stroke-linecap="round" points="0.448018914 6.56291511 10.3792739 6.33340235 10.6893568 6.31012392 25.9230083 5.38364235 32.7613278 5.25328314 33.0747095 5.21138196 37.7358506 4.16385255 38.0492324 4.07539451 52.9695021 0.104094118 53.2828838 0.0715043137 57.0137759 0.0435701961 57.3238589 0.0715043137 60.744668 0.755890196 61.054751 0.853659608 68.8266183 3.10235608 69.1367012 3.14891294 86.8576141 5.43951059 87.1709959 5.47675608 94.3193983 5.90042353 128.20751 6.62671059"></polyline>
                    <polyline id="Shape" stroke="#17788D" stroke-width="2" stroke-linecap="round" points="0.511075083 6.68723451 10.3792739 6.9945098 10.6893568 7.01778824 26.2330913 7.93495843 32.7613278 8.07462902 33.0747095 8.1165302 37.1156846 8.98714353 37.4257676 9.07560157 52.9695021 13.223818 53.2828838 13.2564078 57.0137759 13.284342 57.3238589 13.2564078 60.744668 12.572022 61.054751 12.4742525 68.5165353 10.2721129 68.8266183 10.2209004 85.6139834 8.04203922 85.9273651 8.00479373 92.1455187 7.49732392 128.363717 6.68723451"></polyline>
                </g>
            </g>
        </g>
    </g>
</svg>