<?xml version="1.0" encoding="UTF-8" standalone="no"?>
<svg font-family='-apple-system, BlinkMacSystemFont, "Segoe UI", Roboto, Helvetica, Arial, sans-serif, "Apple Color Emoji", "Segoe UI Emoji", "Segoe UI Symbol"' width="327px" height="196px" viewBox="0 0 327 196" version="1.1" xmlns="http://www.w3.org/2000/svg" xmlns:xlink="http://www.w3.org/1999/xlink" style="background: #FFFFFF;">
    <!-- Generator: Sketch 49 (51002) - http://www.bohemiancoding.com/sketch -->
    <title>768 Total contracted since launch</title>
    <desc>Created with Sketch.</desc>
    <defs>
        <rect id="path-1" x="0" y="0" width="326.721509" height="195.212589"></rect>
        <linearGradient x1="50%" y1="0%" x2="50%" y2="100%" id="linearGradient-2">
            <stop stop-color="#33B0C1" offset="0%"></stop>
            <stop stop-color="#17788D" offset="100%"></stop>
        </linearGradient>
    </defs>
    <g id="768-Total-contracted-since-launch" stroke="none" stroke-width="1" fill="none" fill-rule="evenodd">
        <g id="Group-10">
            <g id="Rectangle-Copy">
                <use fill="#FAFBFC" fill-rule="evenodd" xlink:href="#path-1"></use>
                <rect stroke="#BBBBBB" stroke-width="1" x="0.5" y="0.5" width="325.721509" height="194.212589"></rect>
            </g>
            <text id="$84.82M" font-size="36" font-weight="bold" fill="#17788D">
                <tspan x="16" y="61">$84.82M</tspan>
            </text>
            <polyline id="Shape" stroke="url(#linearGradient-2)" stroke-width="3" points="212 68.8388704 214.022757 68.8388704 215.033389 68.2079734 216.045515 68.0509967 217.056146 68.0509967 218.066777 67.1883721 219.078904 67.1644518 221.101661 67.1644518 222.112292 66.9028239 223.122924 64.9712625 224.13505 64.9712625 228.17907 64.9712625 229.191196 64.6498339 230.201827 64.6498339 231.213953 62.7377076 232.224585 61.5192691 233.235216 51.9078073 244.359635 51.9078073 245.370266 48.282392 250.426412 48.282392 251.438538 47.8921927 252.449169 47.8921927 253.461296 47.7352159 254.471927 47.2343854 255.482558 47.2343854 257.505316 47.2343854 258.517442 46.7724252 259.528073 46.7724252 260.538704 46.0518272 261.550831 43.1200997 262.561462 43.1200997 263.573588 43.1200997 264.584219 42.0063123 265.59485 41.3230897 266.606977 40.9358804 267.617608 33.3127907 268.629734 33.3127907 271.663123 33.3127907 272.673754 31.9642857 274.696512 31.6802326 275.707143 30.8131229 277.7299 30.8131229 278.742027 30.6725914 279.752658 29.0325581 280.764784 25.2202658 281.775415 20.8563123 282.786047 19.5930233 284.808804 19.5930233 285.82093 18.4373754 287.842193 18.4373754 288.854319 17.7496678 289.86495 16.5147841 290.877076 16.5147841 291.887708 16.5147841 292.898339 16.3578073 293.910465 16.3578073 294.921096 13.8147841 300.989369 13.8147841 302 13"></polyline>
            <text id="Contracted-through-t" font-size="17" font-weight="normal" line-spacing="28" fill="#313131">
                <tspan x="16" y="91">Contracted through the </tspan>
                <tspan x="16" y="119">Marketplace since 29 August 2016* </tspan>
            </text>
            <text id="$8.51M-this-month" font-size="20" font-weight="bold" line-spacing="28" fill="#313131">
                <tspan x="16" y="161">$8.51M this month</tspan>
            </text>
        </g>
    </g>
</svg>