<?xml version="1.0" encoding="UTF-8" standalone="no"?>
<svg font-family='-apple-system, BlinkMacSystemFont, "Segoe UI", Roboto, Helvetica, Arial, sans-serif, "Apple Color Emoji", "Segoe UI Emoji", "Segoe UI Symbol"' width="699px" height="290px" viewBox="0 0 699 290" version="1.1" xmlns="http://www.w3.org/2000/svg" xmlns:xlink="http://www.w3.org/1999/xlink" style="background: #FFFFFF;">
    <!-- Generator: Sketch 48.2 (47327) - http://www.bohemiancoding.com/sketch -->
    <title>768 average seller response</title>
    <desc>Created with Sketch.</desc>
    <defs></defs>
    <g id="Symbols" stroke="none" stroke-width="1" fill="none" fill-rule="evenodd">
        <g id="768-average-seller-response">
            <text id="Buyers-receive-on-av" font-size="17" font-weight="normal" line-spacing="26" fill="#313131">
                <tspan x="174.406738" y="18">Buyers receive on average 12 responses per brief</tspan>
            </text>
            <g id="Group-11" transform="translate(0.000000, 47.000000)">
                <polyline id="Shape" stroke="#17788D" stroke-width="3" stroke-linecap="round" points="28 149.654277 55.5345515 109.342992 56.8478405 107.585989 72.5739203 87.8381447 73.8872093 86.3023941 86.9978405 71.9904129 88.3111296 70.6715762 100.108472 59.9473515 101.421761 58.8844732 111.916944 51.3011622 113.230233 50.4682127 122.400997 45.3230143 123.714286 44.6852873 131.58289 41.4185635 132.896179 40.9717209 139.451495 39.1713352 140.764784 38.902362 147.3201 38.0650742 148.622259 38 153.875415 38.0824273 155.177575 38.186546 160.430731 38.950083 161.73289 39.2277328 168.288206 41.0758395 169.601495 41.5313588 177.4701 44.8458037 178.783389 45.4878689 187.965282 50.5983611 189.267442 51.4182958 198.449336 57.7521825 199.762625 58.7499866 210.246678 67.5913984 211.559967 68.8104547 222.05515 79.4869584 223.357309 80.9272669 239.094518 99.4300252 240.407807 101.013497 257.447176 120.535751 258.760465 121.889294 267.942359 130.461732 269.255648 131.559317 278.426412 138.287987 279.739701 139.125274 288.921595 144.162016 290.234884 144.78239 299.405648 148.500295 300.718937 148.960152 311.21412 152.083713 312.516279 152.422098 329.566777 156.339564 330.880066 156.634567 343.990698 159.95335 345.303987 160.335119 357.101329 164.269937 358.414618 164.760163 372.838538 170.799047 374.140698 171.389053 404.301827 184.846393 405.615116 185.336618 414.78588 188.325692 416.099169 188.672755 423.967774 190.338654 425.281063 190.542553 433.149668 191.345134 434.462957 191.414547 443.633721 191.509989 444.94701 191.479621 473.79485 190.820202 475.10814 190.85057 489.52093 191.509989 490.834219 191.592416 531.479402 193.874351 532.792691 193.930748 569.509136 195.696428 570.822425 195.770178 600.972425 197.162766 602.285714 197.206149 641.617608 198.81565 642.930897 198.876386 671.778738 199.796101 673.092027 199.813454 698 200"></polyline>
                <g id="Group-7-Copy" transform="translate(0.000000, 221.000000)" stroke="#BBBBBB">
                    <path d="M0,1.29154519 L696.002892,1.29154519" id="Shape"></path>
                </g>
                <path d="M183,0.999942364 L183,223.085291" id="Line-3-Copy" stroke="#777777" stroke-width="2" stroke-linecap="square"></path>
                <text id="12" font-size="11" font-weight="bold" letter-spacing="0.100000001" fill="#224A61">
                    <tspan x="176" y="241">12</tspan>
                </text>
                <circle id="Oval-22-Copy" fill="#777777" cx="182.5" cy="222.5" r="3.5"></circle>
            </g>
        </g>
    </g>
</svg>