<?xml version="1.0" encoding="UTF-8" standalone="no"?>
<svg font-family='-apple-system, BlinkMacSystemFont, "Segoe UI", Roboto, Helvetica, Arial, sans-serif, "Apple Color Emoji", "Segoe UI Emoji", "Segoe UI Symbol"' width="356px" height="367px" viewBox="0 0 356 347" version="1.1" xmlns="http://www.w3.org/2000/svg" xmlns:xlink="http://www.w3.org/1999/xlink">
    <!-- Generator: Sketch 47.1 (45422) - http://www.bohemiancoding.com/sketch -->
    <title>768 seller rates per role</title>
    <desc>Created with Sketch.</desc>
    <defs></defs>
    <g id="Mocks" stroke="none" stroke-width="1" fill="none" fill-rule="evenodd">
        <g id="Nov-monthly-report-greater-than-768px" transform="translate(-321.000000, -1818.000000)">
            <g id="768-seller-rates-per-role" transform="translate(319.000000, 1811.000000)">
                <text id="Daily-rates-sellers"  font-size="17" font-weight="normal" line-spacing="26" fill="#313131">
                    <tspan x="70.0666504" y="16.7580175">Daily rates sellers have bid for </tspan>
                    <tspan x="125.453613" y="42.7580175">specialist roles</tspan>
                </text>
                <text id="Daily-rate-inc-GST"  font-size="14" font-weight="bold" fill="#224A61">
                    <tspan x="193" y="350.781341">Daily rate inc GST</tspan>
                </text>
                <path d="M143,300.51312 L358,300.51312" id="Shape-Copy" stroke="#BBBBBB" stroke-width="1" fill-opacity="0.300000012" fill="#001F5F" fill-rule="nonzero"></path>
                <text id="1000-copy" fill="#444444" fill-rule="evenodd"  font-size="11" font-weight="normal">
                    <tspan x="197" y="318.906706">1000</tspan>
                </text>
                <text id="2000-copy" fill="#444444" fill-rule="evenodd"  font-size="11" font-weight="normal">
                    <tspan x="267" y="318.906706">2000</tspan>
                </text>
                <text id="3000-copy" fill="#444444" fill-rule="evenodd"  font-size="11" font-weight="normal">
                    <tspan x="322" y="319.93586">3000</tspan>
                </text>
                <g id="Group-3" stroke-width="1" fill-rule="evenodd" transform="translate(1.000000, 66.895044)" font-size="11"  fill="#224A61" font-weight="normal">
                    <text id="User-research-and-de">
                        <tspan x="27.5316287" y="12.4373178">User research and </tspan>
                        <tspan x="87.7308474" y="27.4373178">design</tspan>
                    </text>
                </g>
                <g id="Group-7" stroke-width="1" fill-rule="evenodd" transform="translate(0.000000, 139.965015)" font-size="11"  fill="#224A61" font-weight="normal">
                    <text id="Software-engineering">
                        <tspan x="12.6391602" y="12.4373178">Software engineering </tspan>
                        <tspan x="31.7333984" y="27.4373178">and development</tspan>
                    </text>
                </g>
                <g id="Group-7-Copy" stroke-width="1" fill-rule="evenodd" transform="translate(0.000000, 108.061224)" font-size="11"  fill="#224A61" font-weight="normal">
                    <text id="Strategy-and-policy">
                        <tspan x="24.7939453" y="12.2186589">Strategy and policy</tspan>
                    </text>
                </g>
                <g id="Group-4" stroke-width="1" fill-rule="evenodd" transform="translate(0.000000, 179.072886)" font-size="11"  fill="#224A61" font-weight="normal">
                    <text id="Data-science">
                        <tspan x="57.4072266" y="12.2186589">Data science</tspan>
                    </text>
                </g>
                <g id="Group-5" stroke-width="1" fill-rule="evenodd" transform="translate(1.000000, 209.947522)" font-size="11"  fill="#224A61" font-weight="normal">
                    <text id="Cyber-security">
                        <tspan x="49.1518555" y="12.2186589">Cyber security</tspan>
                    </text>
                </g>
                <text id="Content-and-publishi"  font-size="11" font-weight="normal" fill="#224A61">
                    <tspan x="2.29443359" y="253.040816">Content and publishing</tspan>
                </text>
                <g id="Group-6" stroke-width="1" fill-rule="evenodd" transform="translate(1.000000, 270.667638)" font-size="11"  fill="#224A61" font-weight="normal">
                    <text id="Agile-delivery-and-g">
                        <tspan x="31.2108279" y="12.4373178">Agile delivery and </tspan>
                        <tspan x="61.5789919" y="27.4373178">governance</tspan>
                    </text>
                </g>
                <text id="0-copy" fill="#444444" fill-rule="evenodd"  font-size="11" font-weight="normal">
                    <tspan x="141" y="318.906706">0</tspan>
                </text>
                <g id="Group-11" stroke-width="1" fill-rule="evenodd" transform="translate(177.000000, 75.128280)">
                    <polygon id="Shape" fill="#8BBBC6" fill-rule="nonzero" points="4.06681379 5.86212426 6.21072173 6.11407909 16.973327 6.92672213 17.3087663 6.96220873 27.400493 8.28585875 27.7359323 8.34263731 40.5147418 10.4469924 40.8537496 10.4789304 53.9679985 11.6251474 59.0138618 11.3235114 59.3493011 11.2880248 68.4311414 10.5924875 74.4833227 10.0176046 74.818762 9.9679234 83.565163 8.92461748 93.992329 8.12616907 94.3277683 8.08358516 102.735162 7.34546396 111.817002 6.61798875 112.152441 6.57895349 119.888956 6.01116796 131.993318 5.89051353 131.925922 5.8408323 129.235271 5.81954034 132.332326 5.83373498 120.224395 5.72372653 112.48788 5.18078161 112.152441 5.14174636 103.070601 4.39652785 94.3277683 3.64066335 93.992329 3.59807944 83.9006023 2.81737433 74.818762 1.75632511 74.4833227 1.70664388 68.4311414 1.12821237 60.6946268 0.578170129 60.3591875 0.542683534 54.9778848 0.113295723 40.8537496 1.24176947 40.5147418 1.27725607 27.7359323 3.3816112 27.400493 3.43838976 17.3087663 4.76203978 16.973327 4.79752638 6.54616102 5.59242613"></polygon>
                    <polyline id="Shape" stroke="#17788D" stroke-width="2" stroke-linecap="round" points="0.0668137936 5.86212426 6.21072173 5.60662077 6.54616102 5.59242613 16.973327 4.79752638 17.3087663 4.76203978 27.400493 3.43838976 27.7359323 3.3816112 40.5147418 1.27725607 40.8537496 1.24176947 54.6424455 0.106198404 60.3591875 0.542683534 60.6946268 0.578170129 68.0957022 1.11401773 68.4311414 1.12821237 74.4833227 1.70664388 74.818762 1.75632511 83.565163 2.79963103 83.9006023 2.81737433 93.992329 3.59807944 94.3277683 3.64066335 102.735162 4.37878455 103.070601 4.39652785 112.152441 5.14174636 112.48788 5.18078161 119.888956 5.71308055 115.993318 5.83373498 122.899832 5.81599168 125.925922 5.8408323"></polyline>
                    <polyline id="Shape" stroke="#17788D" stroke-width="2" stroke-linecap="round" points="0.0668137936 5.86212426 6.21072173 6.11407909 6.54616102 6.13182238 16.973327 6.92672213 17.3087663 6.96220873 27.400493 8.28585875 27.7359323 8.34263731 40.5147418 10.4469924 40.8537496 10.4789304 53.9679985 11.6251474 59.0138618 11.3235114 59.3493011 11.2880248 68.4311414 10.5924875 68.7665807 10.5747442 74.4833227 10.0176046 74.818762 9.9679234 83.565163 8.92461748 83.9006023 8.90687418 93.992329 8.12616907 94.3277683 8.08358516 102.735162 7.34546396 103.070601 7.32772067 111.817002 6.61798875 112.152441 6.57895349 119.888956 6.01116796 121.993318 5.89051353 131.925922 5.88341621"></polyline>
                </g>
                <g id="Group-19-Copy" stroke-width="1" fill-rule="evenodd" transform="translate(167.000000, 145.110787)">
                    <polygon id="Shape" fill="#8BBBC6" fill-rule="nonzero" points="13.8555097 6.47101496 25.6280014 7.37086977 25.9634406 7.41094428 32.3546297 8.361803 32.690069 8.42737947 41.43647 10.4128891 41.7719093 10.4857518 46.4787649 11.2544537 46.8177727 11.2872419 52.1990753 11.4912576 60.2674608 11.8264262 60.6064686 11.8519281 66.3232105 12.088732 70.3591875 11.6369831 70.6946268 11.5714066 84.1478834 8.99570882 84.4833227 8.95199118 93.2297237 8.14685793 104.998647 7.79711679 105.337655 7.76797169 113.070601 7.34901095 120.807116 7.01019922 121.142555 6.97741099 131.230713 6.25242675 136.022977 6.21599538 115.358417 6.21963851 141.925922 6.19413656 133.925922 6.19049342 124.101249 6.11763068 115.76581 6.11763068 131.569721 6.1394895 121.142555 5.40357585 120.807116 5.37443076 114.415927 5.05019157 107.353859 4.78788572 107.01842 4.76238376 92.8907159 4.22684264 82.8025577 3.21040744 82.4671184 3.1666898 71.3690738 0.948019437 71.0300661 0.878799836 66.9940891 0.325043029 59.5965822 0.612850843 59.2611429 0.638352801 51.8600675 0.893372384 46.4787649 1.13017628 46.1433256 1.16660765 39.4166973 2.43077615 39.081258 2.51092516 31.6837511 4.14669362 31.3447433 4.20498382 23.9472364 5.18863077 23.6117971 5.22141901 14.1945175 5.89539933 0.0668137936 6.18685028"></polygon>
                    <polyline id="Shape" stroke="#17788D" stroke-width="2" stroke-linecap="round" points="0.0668137936 6.18685028 13.8555097 5.91361502 14.1945175 5.89539933 23.6117971 5.22141901 23.9472364 5.18863077 31.3447433 4.20498382 31.6837511 4.14669362 39.081258 2.51092516 39.4166973 2.43077615 46.1433256 1.16660765 46.4787649 1.13017628 51.5246282 0.89701552 59.2611429 0.638352801 59.5965822 0.612850843 66.6586498 0.306827344 66.9940891 0.325043029 71.0300661 0.878799836 71.3690738 0.948019437 82.4671184 3.1666898 82.8025577 3.21040744 92.5552766 4.21591323 92.8907159 4.22684264 107.01842 4.76238376 107.353859 4.78788572 114.080487 5.04654844 120.807116 5.37443076 121.142555 5.40357585 131.230713 6.12856009 131.569721 6.1394895 141.76581 6.11763068 137.101249 6.11763068 140.925922 6.19049342"></polyline>
                    <polyline id="Shape" stroke="#17788D" stroke-width="2" stroke-linecap="round" points="0.0668137936 6.19777969 13.8555097 6.47101496 14.1945175 6.48558751 25.6280014 7.37086977 25.9634406 7.41094428 32.3546297 8.361803 32.690069 8.42737947 41.43647 10.4128891 41.7719093 10.4857518 46.4787649 11.2544537 46.8177727 11.2872419 52.1990753 11.4912576 60.2674608 11.8264262 60.6064686 11.8519281 66.3232105 12.088732 66.6586498 12.0741595 70.3591875 11.6369831 70.6946268 11.5714066 84.1478834 8.99570882 84.4833227 8.95199118 93.2297237 8.14685793 93.565163 8.13592852 104.998647 7.79711679 105.337655 7.76797169 113.070601 7.34901095 120.807116 7.01019922 121.142555 6.97741099 131.230713 6.25242675 135.022977 6.21599538 141.925922 6.19413656"></polyline>
                </g>
                <g id="Group-20-Copy" stroke-width="1" fill-rule="evenodd" transform="translate(167.000000, 178.043732)">
                    <polygon id="Shape" fill="#8BBBC6" fill-rule="nonzero" points="0.0668137936 6.21401557 12.8491918 7.02153482 13.1846311 7.05050412 30.6738647 8.82849493 31.009304 8.86832772 48.4985376 10.678909 56.5704916 10.8635883 71.0300661 10.9613597 87.173974 11.8050905 93.2297237 11.3488241 93.565163 11.3089913 101.972556 9.94743416 102.307996 9.88587439 117.106578 7.59005734 117.442017 7.55384571 125.513971 6.94549041 141.410598 6.09451721 132.580596 5.94604954 133.925922 5.94604954 131.925922 5.94242838 125.518529 5.92794373 138.967228 5.39563284 123.162328 4.81262567 122.82332 4.79089869 115.090374 4.05942386 114.751366 4.01596991 100.627231 1.69480472 100.291791 1.63686612 92.8907159 0.496199914 92.5552766 0.456367126 87.173974 0.0833873834 71.3690738 0.905391281 60.2674608 1.0683436 50.8537496 1.09369173 31.009304 3.01652904 30.6738647 3.05636183 10.4939798 5.05886472 10.1585405 5.08421286 0.0668137936 5.67084119"></polygon>
                    <polyline id="Shape" stroke="#17788D" stroke-width="2" stroke-linecap="round" points="0.0668137936 5.67084119 10.1585405 5.08421286 10.4939798 5.05886472 30.6738647 3.05636183 31.009304 3.01652904 50.5147418 1.10817638 50.8537496 1.09369173 59.9320215 1.06110127 71.0300661 0.923497094 71.3690738 0.905391281 86.8385347 0.0725238958 92.5552766 0.456367126 92.8907159 0.496199914 100.291791 1.63686612 100.627231 1.69480472 114.751366 4.01596991 115.090374 4.05942386 122.82332 4.79089869 123.162328 4.81262567 138.320675 6.03817245 151.529559 6.03817245"></polyline>
                    <polyline id="Shape" stroke="#17788D" stroke-width="2" stroke-linecap="round" points="0.0668137936 6.21401557 12.8491918 7.02153482 13.1846311 7.05050412 30.6738647 8.82849493 31.009304 8.86832772 48.4985376 10.678909 48.8339769 10.6970148 56.5704916 10.8635883 71.0300661 10.9613597 71.3690738 10.9794655 87.173974 11.8050905 93.2297237 11.3488241 93.565163 11.3089913 101.972556 9.94743416 102.307996 9.88587439 117.106578 7.59005734 117.442017 7.55384571 125.513971 6.94549041 125.852979 6.93100576 151.410598 6.09451721"></polyline>
                </g>
                <g id="Group-21-Copy" stroke-width="1" fill-rule="evenodd" transform="translate(184.000000, 210.976676)">
                    <polygon id="Shape" fill="#8BBBC6" fill-rule="nonzero" points="3.06681379 5.79322632 6.94723641 6.04872981 20.400493 6.87911615 20.7359323 6.90750543 31.8339769 8.23115545 32.1694162 8.28083669 49.6586498 10.4881029 49.9940891 10.5164922 64.7926713 11.5030196 72.1937467 11.4746303 94.7252752 10.2609887 105.152441 9.23897477 105.48788 9.19639086 129.029295 6.25455206 129.121022 5.96356198 134.925922 5.98840259 134.925922 5.59805004 136.430371 5.6015987 128.022977 5.26092738 127.68397 5.23608676 115.240599 3.77049035 114.90516 3.72080912 101.787343 1.94647932 101.451903 1.91099273 80.2657007 0.534112806 70.173974 0.0514951022 61.7665807 0.214733443 47.9778848 1.24739338 47.6424455 1.27578266 32.1694162 3.30561594 31.8339769 3.35529718 20.7359323 4.6789472 20.400493 4.70733648 7.2826757 5.52352819"></polygon>
                    <polyline id="Shape" stroke="#17788D" stroke-width="2" stroke-linecap="round" points="0.0668137936 5.79322632 6.94723641 5.53417417 20.400493 4.70733648 20.7359323 4.6789472 31.8339769 3.35529718 32.1694162 3.30561594 47.6424455 1.27578266 47.9778848 1.24739338 61.4311414 0.232476741 61.7665807 0.214733443 69.8385347 0.044397783 79.9266929 0.516369508 80.2657007 0.534112806 101.451903 1.91099273 101.787343 1.94647932 114.90516 3.72080912 115.240599 3.77049035 127.68397 5.23608676 128.022977 5.26092738 136.094931 5.59450138 137.925922 5.59805004"></polyline>
                    <polyline id="Shape" stroke="#17788D" stroke-width="2" stroke-linecap="round" points="0.0668137936 5.79322632 6.94723641 6.04872981 7.2826757 6.06292444 20.400493 6.87911615 20.7359323 6.90750543 31.8339769 8.23115545 32.1694162 8.28083669 49.6586498 10.4881029 49.9940891 10.5164922 64.7926713 11.5030196 72.1937467 11.4746303 72.529186 11.4604357 94.7252752 10.2609887 95.0607145 10.2396968 105.152441 9.23897477 105.48788 9.19639086 129.029295 6.25455206 129.368303 6.2332601 135.121022 5.96356198 137.925922 5.98840259"></polyline>
                </g>
                <g id="Group-22-Copy" stroke-width="1" fill-rule="evenodd" transform="translate(167.000000, 243.909621)">
                    <polygon id="Shape" fill="#8BBBC6" fill-rule="nonzero" points="0.0668137936 6.10643031 7.46788918 6.45284642 7.80332847 6.4820183 14.5299568 7.33529587 14.8653961 7.38634667 25.9634406 9.46848981 26.3024484 9.54141952 37.0614852 11.6417951 37.400493 11.6819064 42.4427879 11.9699788 42.7817957 11.9736253 52.1990753 11.6053302 52.5345146 11.5907443 61.9517942 10.927084 62.2872335 10.8869726 69.3493011 9.6945719 69.6847404 9.62528868 81.1217928 7.26601265 81.4572321 7.22590131 87.5094133 6.75915119 87.8484211 6.74091876 104.998647 6.07361194 105.337655 6.06996545 89.9259222 6.05173303 91.9259222 6.05173303 105.337655 6.02985411 104.998647 6.02620763 89.1937467 5.435477 88.8547389 5.41724457 81.7926713 4.91402959 81.4572321 4.87756474 69.6847404 2.47817737 69.3493011 2.40524767 62.2872335 1.21284695 61.9517942 1.17273561 50.1793026 0.406973689 49.8438633 0.388741263 42.4427879 0.129840802 42.1073486 0.133487287 37.0614852 0.458024484 36.7260459 0.498135823 28.654092 2.04424562 28.3186527 2.11717532 17.2206081 4.31965248 16.8851688 4.37799625 8.81321484 5.52299265 8.47420705 5.55581102 0.0668137936 5.99703575"></polygon>
                    <polyline id="Shape" stroke="#17788D" stroke-width="2" stroke-linecap="round" points="0.0668137936 5.99703575 8.47420705 5.55581102 8.81321484 5.52299265 16.8851688 4.37799625 17.2206081 4.31965248 28.3186527 2.11717532 28.654092 2.04424562 36.7260459 0.498135823 37.0614852 0.458024484 42.1073486 0.133487287 42.4427879 0.129840802 49.8438633 0.388741263 50.1793026 0.406973689 61.9517942 1.17273561 62.2872335 1.21284695 69.3493011 2.40524767 69.6847404 2.47817737 81.4572321 4.87756474 81.7926713 4.91402959 88.8547389 5.41724457 89.1937467 5.435477 98.9986469 6.02620763 99.3376547 6.02985411 103.925922 6.05173303"></polyline>
                    <polyline id="Shape" stroke="#17788D" stroke-width="2" stroke-linecap="round" points="0.0668137936 6.10643031 7.46788918 6.45284642 7.80332847 6.4820183 14.5299568 7.33529587 14.8653961 7.38634667 25.9634406 9.46848981 26.3024484 9.54141952 37.0614852 11.6417951 37.400493 11.6819064 42.4427879 11.9699788 42.7817957 11.9736253 52.1990753 11.6053302 52.5345146 11.5907443 61.9517942 10.927084 62.2872335 10.8869726 69.3493011 9.6945719 69.6847404 9.62528868 81.1217928 7.26601265 81.4572321 7.22590131 87.5094133 6.75915119 87.8484211 6.74091876 98.9986469 6.07361194 99.3376547 6.06996545 105.925922 6.05173303"></polyline>
                </g>
                <g id="Group-23-Copy" stroke-width="1" fill-rule="evenodd" transform="translate(167.000000, 276.842566)">
                    <polygon id="Shape" fill="#8BBBC6" fill-rule="nonzero" points="0.0668137936 6.11976118 16.546161 6.38935331 16.8851688 6.41121213 23.9472364 7.1289101 24.2826757 7.17262774 29.3285391 7.58430221 40.7620229 7.51143947 41.0974622 7.55515712 44.7979999 8.30928645 45.1334392 8.39672174 58.9221351 11.7739096 59.2611429 11.8212704 63.2971199 12.0362155 68.6784225 11.730192 69.0138618 11.6755449 72.7143995 10.7283293 73.0498388 10.6263215 77.7566944 9.52609417 78.0957022 9.47873339 95.920375 7.41671792 96.2558143 7.38757282 103.653321 6.91760816 133.250486 6.16347883 111.925922 6.11976118 131.925922 6.11976118 132.332326 6.11611805 105.337655 5.37291812 96.2558143 4.85559268 95.920375 4.82280445 78.0957022 2.76443211 77.7566944 2.71707133 71.3690738 1.11773424 71.0300661 1.02301268 67.6685362 0.378177447 67.3330969 0.345389215 61.9517942 0.221522561 58.2512565 0.574906839 57.9158172 0.633197029 45.8078863 3.66793006 45.472447 3.75536534 41.0974622 4.68800839 40.7620229 4.73172603 29.6639783 4.65886329 24.2826757 5.07053776 23.9472364 5.11061226 16.8851688 5.83195337"></polygon>
                    <polyline id="Shape" stroke="#17788D" stroke-width="2" stroke-linecap="round" points="0.0668137936 6.11976118 16.546161 5.85016905 16.8851688 5.83195337 23.9472364 5.11061226 24.2826757 5.07053776 29.3285391 4.65886329 40.7620229 4.73172603 41.0974622 4.68800839 45.472447 3.75536534 45.8078863 3.66793006 57.9158172 0.633197029 58.2512565 0.574906839 61.6127864 0.232451971 61.9517942 0.221522561 67.3330969 0.345389215 67.6685362 0.378177447 71.0300661 1.02301268 71.3690738 1.11773424 77.7566944 2.71707133 78.0957022 2.76443211 95.920375 4.82280445 96.2558143 4.85559268 104.998647 5.36198871 105.337655 5.37291812 131.993318 6.11611805 139.925922 6.11976118"></polyline>
                    <polyline id="Shape" stroke="#17788D" stroke-width="2" stroke-linecap="round" points="0.0668137936 6.11976118 16.546161 6.38935331 16.8851688 6.41121213 23.9472364 7.1289101 24.2826757 7.17262774 29.3285391 7.58430221 40.7620229 7.51143947 41.0974622 7.55515712 44.7979999 8.30928645 45.1334392 8.39672174 58.9221351 11.7739096 59.2611429 11.8212704 63.2971199 12.0362155 68.6784225 11.730192 69.0138618 11.6755449 72.7143995 10.7283293 73.0498388 10.6263215 77.7566944 9.52609417 78.0957022 9.47873339 95.920375 7.41671792 96.2558143 7.38757282 103.653321 6.91760816 123.250486 6.16347883 138.925922 6.11976118"></polyline>
                </g>
                <g id="Group-20" stroke-width="1" fill-rule="evenodd" transform="translate(198.000000, 109.090379)">
                    <g id="Group" transform="translate(0.428571, 0.348247)">
                        <polygon id="Shape" fill="#8BBBC6" fill-rule="nonzero" points="0.0821428571 6.09921159 11.4857143 6.37296436 19.225 7.06647136 19.5642857 7.11392184 26.2964286 8.32208404 26.6321429 8.39508478 41.4428571 11.4355655 41.7785714 11.4757159 47.8357143 11.9538707 56.25 11.9684709 67.6964286 11.3370145 68.0321429 11.3078142 77.1214286 10.1507525 77.4571429 10.096002 97.3178571 7.25627328 97.6535714 7.22707298 105.392857 6.82556893 114.482143 6.99347062 127.271429 7.16502235 142.082143 6.43136495 142.082143 5.7634082 127.610714 5.0407009 117.175 5.10275153 106.739286 5.38015433 99.3357143 5.10640157 74.4285714 1.64981666 74.0928571 1.60236618 66.0142857 0.715407224 65.675 0.686206929 55.2428571 0.204402064 47.5 0.25550258 40.7678571 0.850458588 40.4321429 0.901559104 26.6321429 3.80333841 26.2964286 3.87633914 19.5642857 5.08450134 19.225 5.12830179 11.4857143 5.82180879"></polygon>
                        <polyline id="Shape" stroke="#17788D" stroke-width="2" stroke-linecap="round" points="0.0821428571 6.09921159 11.1464286 5.84005897 11.4857143 5.82180879 19.225 5.12830179 19.5642857 5.08450134 26.2964286 3.87633914 26.6321429 3.80333841 40.4321429 0.901559104 40.7678571 0.850458588 47.1642857 0.270102728 47.5 0.25550258 54.9035714 0.200752027 65.675 0.686206929 66.0142857 0.715407224 74.0928571 1.60236618 74.4285714 1.64981666 99 5.08085131 99.3357143 5.10640157 106.403571 5.38015433 116.839286 5.11370164 117.175 5.10275153 127.271429 5.02975079 127.610714 5.0407009 142.082143 5.7634082"></polyline>
                    </g>
                    <polyline id="Shape" stroke="#17788D" stroke-width="2" stroke-linecap="round" points="0.510714286 6.44745894 11.9142857 6.7212117 12.25 6.73946189 19.6535714 7.4147187 19.9928571 7.46216918 26.725 8.67033138 27.0607143 8.74333212 41.8714286 11.7838128 42.2071429 11.8239632 48.2642857 12.3021181 48.6035714 12.3130682 56.6785714 12.3167182 68.125 11.6852618 68.4607143 11.6560615 77.55 10.4989999 77.8857143 10.4442493 97.7464286 7.60452062 98.0821429 7.57532033 105.821429 7.17381627 114.910714 7.34171797 115.246429 7.35631812 127.7 7.5132697 128.039286 7.50231959 142.510714 6.77961229"></polyline>
                </g>
            </g>
        </g>
    </g>
</svg>