<?xml version="1.0" encoding="UTF-8" standalone="no"?>
<svg font-family='-apple-system, BlinkMacSystemFont, "Segoe UI", Roboto, Helvetica, Arial, sans-serif, "Apple Color Emoji", "Segoe UI Emoji", "Segoe UI Symbol"' width="327px" height="196px" viewBox="0 0 327 196" version="1.1" xmlns="http://www.w3.org/2000/svg" xmlns:xlink="http://www.w3.org/1999/xlink" style="background: #FFFFFF;">
    <!-- Generator: Sketch 48.2 (47327) - http://www.bohemiancoding.com/sketch -->
    <title>768 total opportunities</title>
    <desc>Created with Sketch.</desc>
    <defs>
        <rect id="path-1" x="0" y="0" width="326.721509" height="195.212589"></rect>
        <linearGradient x1="50%" y1="0%" x2="50%" y2="100%" id="linearGradient-2">
            <stop stop-color="#33B0C1" offset="0%"></stop>
            <stop stop-color="#17788D" offset="100%"></stop>
        </linearGradient>
    </defs>
    <g id="Symbols" stroke="none" stroke-width="1" fill="none" fill-rule="evenodd">
        <g id="768-total-opportunities">
            <g>
                <g id="Rectangle">
                    <use fill="#FAFBFC" fill-rule="evenodd" xlink:href="#path-1"></use>
                    <rect stroke="#BBBBBB" stroke-width="1" x="0.5" y="0.5" width="325.721509" height="194.212589"></rect>
                </g>
                <text id="421" font-size="36" font-weight="bold" letter-spacing="-1.50000024" fill="#17788D">
                    <tspan x="16" y="60">421</tspan>
                </text>
                <polyline id="Shape" stroke="url(#linearGradient-2)" stroke-width="3" points="213 70.8388704 215.022757 69.0657807 216.033389 68.6232558 217.045515 68.6232558 218.056146 68.1792359 219.066777 67.736711 220.078904 67.736711 221.089535 66.8501661 222.101661 63.3054817 223.112292 63.3054817 224.122924 62.8614618 225.13505 62.8614618 226.145681 60.6458472 227.157807 60.2033223 228.168439 60.2033223 230.191196 58.4302326 231.201827 58.4302326 233.224585 57.5436877 234.235216 55.770598 236.257973 54.8855482 237.2701 53.5549834 239.292857 53.5549834 240.303488 52.6684385 241.31412 51.3393688 242.326246 50.8968439 243.336877 49.1237542 244.349003 47.7946844 246.370266 47.7946844 247.382392 47.3506645 248.393023 46.0215947 249.40515 45.1350498 250.415781 44.248505 251.426412 43.8059801 253.449169 43.8059801 254.461296 42.9194352 260.528073 42.9194352 261.538704 42.4769103 262.550831 41.1463455 263.561462 41.1463455 264.573588 40.7038206 265.584219 39.8172757 266.59485 39.8172757 267.606977 39.3747508 268.617608 37.6016611 269.629734 37.6016611 270.640365 36.2725914 271.650997 34.0554817 272.663123 33.6129568 273.673754 33.6129568 274.68588 33.6129568 275.696512 31.3973422 276.707143 30.9533223 277.719269 26.966113 278.7299 26.522093 279.742027 25.1930233 282.775415 25.1930233 283.786047 23.4199336 284.798173 20.761794 285.808804 19.4312292 286.82093 18.1021595 287.831561 18.1021595 288.842193 18.1021595 289.854319 16.7730897 290.86495 16.7730897 291.877076 16.3290698 292.887708 15 293.898339 15 303 15"></polyline>
                <text id="Total-opportunities" font-size="17" font-weight="normal" line-spacing="28" fill="#313131">
                    <tspan x="16" y="91">Total opportunities </tspan>
                    <tspan x="16" y="119">since 29 August 2016</tspan>
                </text>
                <text id="47-new-briefs-this-m" font-size="20" font-weight="bold" line-spacing="28" fill="#313131">
                    <tspan x="16" y="161">47 new briefs this month</tspan>
                </text>
            </g>
        </g>
    </g>
</svg>