<?xml version="1.0" encoding="UTF-8" standalone="no"?>
<svg width="733px" height="279px" viewBox="0 0 733 279" version="1.1" xmlns="http://www.w3.org/2000/svg" xmlns:xlink="http://www.w3.org/1999/xlink">
    <!-- Generator: Sketch 48.2 (47327) - http://www.bohemiancoding.com/sketch -->
    <title>&gt;768 number of sellers per area of expertise</title>
    <desc>Created with Sketch.</desc>
    <defs></defs>
    <g id="Jan-monthly-report-greater-than-768px" stroke="none" stroke-width="1" fill="none" fill-rule="evenodd" transform="translate(-319.000000, -2262.000000)">
        <g id="&gt;768-number-of-sellers-per-area-of-expertise" transform="translate(319.000000, 2256.000000)">
            <text id="Strategy-and-policy" font-size="11" font-weight="normal" fill="#224A61">
                <tspan x="0.158691406" y="228">Strategy and </tspan>
                <tspan x="16.4465332" y="241">policy</tspan>
            </text>
            <text id="User-research-and-de" font-size="11" font-weight="normal" fill="#224A61">
                <tspan x="61.6909032" y="269">User research </tspan>
                <tspan x="68.2490087" y="282">and design</tspan>
            </text>
            <text id="Agile-delivery-and-g" font-size="11" font-weight="normal" fill="#224A61">
                <tspan x="121.956504" y="228">Agile delivery and </tspan>
                <tspan x="135.757529" y="241">governance</tspan>
            </text>
            <text id="Software-engineering" font-size="11" font-weight="normal" fill="#224A61">
                <tspan x="180.233423" y="269">Software engineering </tspan>
                <tspan x="189.251489" y="282">and development</tspan>
            </text>
            <text id="Support-and-operatio" font-size="11" font-weight="normal" fill="#224A61">
                <tspan x="266.122023" y="228">Support and </tspan>
                <tspan x="270.298048" y="241">operations</tspan>
            </text>
            <text id="Content-and-publishi" font-size="11" font-weight="normal" fill="#224A61">
                <tspan x="339.022658" y="269">Content and </tspan>
                <tspan x="343.781447" y="282">publishing</tspan>
            </text>
            <text id="Change,-training,-tr" font-size="11" font-weight="normal" fill="#224A61">
                <tspan x="391.398777" y="228">Change, training, </tspan>
                <tspan x="397.621189" y="241">transformation</tspan>
            </text>
            <text id="Marketing,-communica" font-size="11" font-weight="normal" fill="#224A61">
                <tspan x="427.800207" y="269">Marketing, communications </tspan>
                <tspan x="453.240393" y="282">and engagement</tspan>
            </text>
            <text id="Cyber-security" font-size="11" font-weight="normal" fill="#224A61">
                <tspan x="523.059767" y="228">Cyber security</tspan>
            </text>
            <text id="Data-science" font-size="11" font-weight="normal" fill="#224A61">
                <tspan x="600.698683" y="269">Data science</tspan>
            </text>
            <text id="Emerging-technologie" font-size="11" font-weight="normal" fill="#224A61">
                <tspan x="679.937941" y="228">Emerging </tspan>
                <tspan x="671.92964" y="241">technologies</tspan>
            </text>
            <path d="M30.5,204.5 L30.5,210.5" id="Line" stroke="#BBBBBB" stroke-width="1" stroke-linecap="square"></path>
            <path d="M163.5,205.5 L163.5,215.5" id="Line-Copy-2" stroke="#BBBBBB" stroke-width="1" stroke-linecap="square"></path>
            <path d="M295.5,205.5 L295.5,215.5" id="Line-Copy-4" stroke="#BBBBBB" stroke-width="1" stroke-linecap="square"></path>
            <path d="M433.5,205.5 L433.5,215.5" id="Line-Copy-6" stroke="#BBBBBB" stroke-width="1" stroke-linecap="square"></path>
            <path d="M558.5,205.5 L558.5,215.5" id="Line-Copy-8" stroke="#BBBBBB" stroke-width="1" stroke-linecap="square"></path>
            <path d="M702.5,204.5 L702.5,214.5" id="Line-Copy-10" stroke="#BBBBBB" stroke-width="1" stroke-linecap="square"></path>
            <path d="M496.5,205.5 L496.5,256.5" id="Line-Copy-7" stroke="#BBBBBB" stroke-width="1" stroke-linecap="square"></path>
            <path d="M369.5,205.5 L369.5,256.5" id="Line-Copy-11" stroke="#BBBBBB" stroke-width="1" stroke-linecap="square"></path>
            <path d="M231.5,205.5 L231.5,256.5" id="Line-Copy-12" stroke="#BBBBBB" stroke-width="1" stroke-linecap="square"></path>
            <path d="M95.5,205.5 L95.5,256.5" id="Line-Copy-13" stroke="#BBBBBB" stroke-width="1" stroke-linecap="square"></path>
            <path d="M632.5,205.5 L632.5,256.5" id="Line-Copy-9" stroke="#BBBBBB" stroke-width="1" stroke-linecap="square"></path>
            <path d="M728.537722,205.333333 L9,205.333333" id="Line" stroke="#BBBBBB" stroke-width="1" stroke-linecap="square"></path>
            <g id="Group" stroke-width="1" fill-rule="evenodd" transform="translate(4.439075, 94.000000)">
                <g id="Clipped" transform="translate(0.000000, 0.842413)">
                    <g id="Group">
                        <g transform="translate(0.000000, -0.000000)">
                            <g transform="translate(0.000000, 35.054480)">
                                <g transform="translate(0.000000, 0.000000)">
                                    <g transform="translate(135.273092, 0.834630)"></g>
                                    <g transform="translate(0.000000, 68.717909)"></g>
                                </g>
                            </g>
                            <g>
                                <g>
                                    <g transform="translate(201.470562, 0.000000)"></g>
                                    <g transform="translate(67.636546, 15.579769)"></g>
                                    <g transform="translate(135.273092, 3.338522)"></g>
                                    <g transform="translate(0.000000, 51.634248)"></g>
                                </g>
                            </g>
                        </g>
                    </g>
                </g>
            </g>
            <polygon id="Combined-Shape-Copy-3" fill="#17788D" fill-rule="nonzero" transform="translate(31.000000, 162.669998) rotate(-360.000000) translate(-31.000000, -162.669998) " points="21 205.339996 21 120 41 120 41 205.339996"></polygon>
            <polygon id="Combined-Shape-Copy-4" fill="#17788D" fill-rule="nonzero" transform="translate(163.000000, 134.230003) rotate(-360.000000) translate(-163.000000, -134.230003) " points="153 205.460007 153 63 173 63 173 205.460007"></polygon>
            <polygon id="Combined-Shape-Copy-5" fill="#17788D" fill-rule="nonzero" transform="translate(231.000000, 130.309998) rotate(-360.000000) translate(-231.000000, -130.309998) " points="221 205.619995 221 55 241 55 241 205.619995"></polygon>
            <polygon id="Combined-Shape-Copy-6" fill="#17788D" fill-rule="nonzero" transform="translate(95.000000, 145.990002) rotate(-360.000000) translate(-95.000000, -145.990002) " points="85 204.980003 85 87 105 87 105 204.980003"></polygon>
            <polygon id="Combined-Shape-Copy-7" fill="#17788D" fill-rule="nonzero" transform="translate(369.000000, 176.559999) rotate(-360.000000) translate(-369.000000, -176.559999) " points="359 205.119999 359 148 379 148 379 205.119999"></polygon>
            <polygon id="Combined-Shape-Copy-8" fill="#17788D" fill-rule="nonzero" transform="translate(433.000000, 149.099998) rotate(-360.000000) translate(-433.000000, -149.099998) " points="423 205.199997 423 93 443 93 443 205.199997"></polygon>
            <polygon id="Combined-Shape-Copy-9" fill="#17788D" fill-rule="nonzero" transform="translate(558.000000, 168.720001) rotate(-360.000000) translate(-558.000000, -168.720001) " points="548 205.440002 548 132 568 132 568 205.440002"></polygon>
            <polygon id="Combined-Shape-Copy-10" fill="#17788D" fill-rule="nonzero" transform="translate(298.000000, 171.169998) rotate(-360.000000) translate(-298.000000, -171.169998) " points="288 205.339996 288 137 308 137 308 205.339996"></polygon>
            <polygon id="Combined-Shape-Copy-11" fill="#17788D" fill-rule="nonzero" transform="translate(632.000000, 173.620001) rotate(-360.000000) translate(-632.000000, -173.620001) " points="622 205.240002 622 142 642 142 642 205.240002"></polygon>
            <polygon id="Combined-Shape-Copy-12" fill="#17788D" fill-rule="nonzero" transform="translate(703.000000, 178.690001) rotate(-360.000000) translate(-703.000000, -178.690001) " points="693 205.380001 693 152 713 152 713 205.380001"></polygon>
            <polygon id="Combined-Shape-Copy-13" fill="#17788D" fill-rule="nonzero" transform="translate(497.000000, 180.820000) rotate(-360.000000) translate(-497.000000, -180.820000) " points="487 205.639999 487 156 507 156 507 205.639999"></polygon>
            <text id="251" font-size="14" font-weight="bold" fill="#224A61">
                <tspan x="19.0131836" y="115">251</tspan>
            </text>
            <text id="347" font-size="14" font-weight="bold" fill="#224A61">
                <tspan x="84.0131836" y="83">347</tspan>
            </text>
            <text id="419" font-size="14" font-weight="bold" fill="#224A61">
                <tspan x="151.013184" y="59">419</tspan>
            </text>
            <text id="443" font-size="14" font-weight="bold" fill="#224A61">
                <tspan x="219.013184" y="50">443</tspan>
            </text>
            <text id="201" font-size="14" font-weight="bold" fill="#224A61">
                <tspan x="287.013184" y="131">201</tspan>
            </text>
            <text id="168" font-size="14" font-weight="bold" fill="#224A61">
                <tspan x="356.013184" y="143">168</tspan>
            </text>
            <text id="330" font-size="14" font-weight="bold" fill="#224A61">
                <tspan x="421.013184" y="87">330</tspan>
            </text>
            <text id="146" font-size="14" font-weight="bold" fill="#224A61">
                <tspan x="484.013184" y="151">146</tspan>
            </text>
            <text id="216" font-size="14" font-weight="bold" fill="#224A61">
                <tspan x="546.013184" y="127">216</tspan>
            </text>
            <text id="186" font-size="14" font-weight="bold" fill="#224A61">
                <tspan x="619.013184" y="137">186</tspan>
            </text>
            <text id="157" font-size="14" font-weight="bold" fill="#224A61">
                <tspan x="690.013184" y="146">157</tspan>
            </text>
            <text id="Areas-of-expertise-o" font-size="17" font-weight="normal" line-spacing="26" fill="#313131">
                <tspan x="238.376709" y="16">Areas of expertise offered by sellers</tspan>
            </text>
        </g>
    </g>
</svg>