<?xml version="1.0" encoding="UTF-8" standalone="no"?>
<svg width="273px" height="246px" viewBox="0 0 273 246" version="1.1" xmlns="http://www.w3.org/2000/svg" xmlns:xlink="http://www.w3.org/1999/xlink">
    <!-- Generator: Sketch 48.2 (47327) - http://www.bohemiancoding.com/sketch -->
    <title>787 189 entities have registered</title>
    <desc>Created with Sketch.</desc>
    <defs></defs>
    <g id="Jan-monthly-report-less-than-767px" stroke="none" stroke-width="1" fill="none" fill-rule="evenodd" transform="translate(-25.000000, -763.000000)">
        <g id="189-entities-have-registered" transform="translate(23.000000, 759.000000)">
            <g id="Group-2" stroke-width="1" fill-rule="evenodd" transform="translate(62.220334, 69.220334) rotate(-38.000000) translate(-62.220334, -69.220334) translate(2.220334, 9.220334)" stroke="#FFFFFF">
                <path d="M59.9546207,60.2856 L1.3222069,72.6771429 C-5.56124138,40.4801143 15.1104828,8.83165714 47.4918621,1.98754286 C51.5070345,1.13931429 55.8497931,0.685371429 59.9546207,0.685371429 L59.9546207,60.2856 Z" id="Fill-1" fill="#F17465"></path>
                <path d="M59.9546207,60.2856 L48.5173793,118.790057 C24.3394483,114.1176 6.44289655,96.6318857 1.3222069,72.6771429 L59.9546207,60.2856 Z" id="Fill-4" fill="#6C81DA"></path>
                <path d="M59.9546207,60.2856 L71.3925517,118.790057 C63.3656552,120.341829 56.5442759,120.341829 48.5173793,118.790057 L59.9546207,60.2856 Z" id="Fill-6" fill="#4E9774"></path>
                <path d="M59.9546207,60.2856 L107.189793,96.9795429 C97.8966897,108.806743 86.2111724,115.9272 71.3925517,118.790057 L59.9546207,60.2856 Z" id="Fill-8" fill="#0C7B92"></path>
                <path d="M59.9546207,60.2856 L59.9546207,0.685371429 C93.0601379,0.685371429 119.897379,27.3692571 119.897379,60.2856 C119.897379,74.3736 115.913931,85.8771429 107.189793,96.9795429 L59.9546207,60.2856 Z" id="Fill-10" fill="#C35D8E"></path>
            </g>
            <text id="210-entities-have-re" font-family="OpenSans-Bold, Open Sans" font-size="16" font-weight="bold" line-spacing="22" fill="#4A4A4A">
                <tspan x="146" y="27">210 entities </tspan>
                <tspan x="146" y="49">have registered,</tspan>
                <tspan x="275.367188" y="49" font-family="OpenSans, Open Sans" font-weight="normal"> </tspan>
                <tspan x="146" y="71" font-family="OpenSans, Open Sans" font-weight="normal">47% of which are </tspan>
                <tspan x="146" y="93" font-family="OpenSans, Open Sans" font-weight="normal">Commonwealth </tspan>
                <tspan x="146" y="115" font-family="OpenSans, Open Sans" font-weight="normal">government</tspan>
            </text>
            <path d="M132,62 L132,72" id="Line-Copy-15" stroke="#224A61" stroke-width="2" stroke-linecap="round" transform="translate(132.000000, 67.000000) rotate(-90.000000) translate(-132.000000, -67.000000) "></path>
            <text id="Commonwealth-CCE" font-family=".HelveticaNeueDeskInterface-Regular, SFNS Display" font-size="14" font-weight="normal" fill="#808184">
                <tspan x="24" y="170">Commonwealth </tspan>
                <tspan x="24" y="187">CCE</tspan>
            </text>
            <text id="State-/-Territory-Copy-2" font-family=".HelveticaNeueDeskInterface-Regular, SFNS Display" font-size="14" font-weight="normal" fill="#808184">
                <tspan x="24" y="220">State / Territory</tspan>
            </text>
            <text id="Commonwealth-NCCE" font-family=".HelveticaNeueDeskInterface-Regular, SFNS Display" font-size="14" font-weight="normal" fill="#808184">
                <tspan x="168" y="170">Commonwealth </tspan>
                <tspan x="168" y="187">NCCE</tspan>
            </text>
            <text id="Local-Copy" font-family=".HelveticaNeueDeskInterface-Regular, SFNS Display" font-size="14" font-weight="normal" fill="#808184">
                <tspan x="168" y="220">Local</tspan>
            </text>
            <rect id="Rectangle-3-Copy-11" fill="#0C7B92" fill-rule="evenodd" x="2" y="158" width="16" height="16"></rect>
            <rect id="Rectangle-3-Copy-12" fill="#6C81DA" fill-rule="evenodd" x="2" y="206" width="16" height="16"></rect>
            <rect id="Rectangle-3-Copy-13" fill="#C35D8E" fill-rule="evenodd" x="146" y="158" width="16" height="16"></rect>
            <rect id="Rectangle-3-Copy-14" fill="#F17465" fill-rule="evenodd" x="146" y="206" width="16" height="16"></rect>
            <text id="Other-Copy-2" font-family=".HelveticaNeueDeskInterface-Regular, SFNS Display" font-size="14" font-weight="normal" fill="#808184">
                <tspan x="23" y="248">Other</tspan>
            </text>
            <rect id="Rectangle-3-Copy-15" fill="#4E9774" fill-rule="evenodd" x="2" y="234" width="16" height="16"></rect>
            <circle id="Oval" fill="#FFFFFF" fill-rule="evenodd" cx="63" cy="69" r="25"></circle>
            <path d="M150.121009,64.8548308 C142.490856,37.7415874 117.486187,17.8578413 87.8169706,17.8578413 C52.0860134,17.8578413 23.1203494,46.6965203 23.1203494,82.2708337 C23.1203494,82.9376506 23.1305265,83.602101 23.1507345,84.2640392" id="Oval-2" stroke="#224A61" stroke-width="2" stroke-linecap="round" transform="translate(86.620679, 51.060940) rotate(55.000000) translate(-86.620679, -51.060940) "></path>
        </g>
    </g>
</svg>