<?xml version="1.0" encoding="UTF-8" standalone="no"?>
<svg font-family='-apple-system, BlinkMacSystemFont, "Segoe UI", Roboto, Helvetica, Arial, sans-serif, "Apple Color Emoji", "Segoe UI Emoji", "Segoe UI Symbol"' width="741px" height="284px" viewBox="0 0 741 284" version="1.1" xmlns="http://www.w3.org/2000/svg" xmlns:xlink="http://www.w3.org/1999/xlink" style="background: #FFFFFF;">
    <!-- Generator: Sketch 48.2 (47327) - http://www.bohemiancoding.com/sketch -->
    <title>&gt;768 number of sellers per area of expertise</title>
    <desc>Created with Sketch.</desc>
    <defs></defs>
    <g id="Symbols" stroke="none" stroke-width="1" fill="none" fill-rule="evenodd">
        <g id="&gt;768-number-of-sellers-per-area-of-expertise">
            <g>
                <text id="Strategy-and-policy" font-size="11" font-weight="normal" fill="#224A61">
                    <tspan x="0.158691406" y="228">Strategy and </tspan>
                    <tspan x="16.4465332" y="241">policy</tspan>
                </text>
                <text id="User-research-and-de" font-size="11" font-weight="normal" fill="#224A61">
                    <tspan x="61.6909032" y="269">User research </tspan>
                    <tspan x="68.2490087" y="282">and design</tspan>
                </text>
                <text id="Agile-delivery-and-g" font-size="11" font-weight="normal" fill="#224A61">
                    <tspan x="121.956504" y="228">Agile delivery and </tspan>
                    <tspan x="135.757529" y="241">governance</tspan>
                </text>
                <text id="Software-engineering" font-size="11" font-weight="normal" fill="#224A61">
                    <tspan x="180.233423" y="269">Software engineering </tspan>
                    <tspan x="189.251489" y="282">and development</tspan>
                </text>
                <text id="Support-and-operatio" font-size="11" font-weight="normal" fill="#224A61">
                    <tspan x="266.122023" y="228">Support and </tspan>
                    <tspan x="270.298048" y="241">operations</tspan>
                </text>
                <text id="Content-and-publishi" font-size="11" font-weight="normal" fill="#224A61">
                    <tspan x="339.022658" y="269">Content and </tspan>
                    <tspan x="343.781447" y="282">publishing</tspan>
                </text>
                <text id="Change,-training,-tr" font-size="11" font-weight="normal" fill="#224A61">
                    <tspan x="391.398777" y="228">Change, training, </tspan>
                    <tspan x="397.621189" y="241">transformation</tspan>
                </text>
                <text id="Marketing,-communica" font-size="11" font-weight="normal" fill="#224A61">
                    <tspan x="427.800207" y="269">Marketing, communications </tspan>
                    <tspan x="453.240393" y="282">and engagement</tspan>
                </text>
                <text id="Cyber-security" font-size="11" font-weight="normal" fill="#224A61">
                    <tspan x="523.059767" y="228">Cyber security</tspan>
                </text>
                <text id="Data-science" font-size="11" font-weight="normal" fill="#224A61">
                    <tspan x="600.698683" y="269">Data science</tspan>
                </text>
                <text id="Emerging-technologie" font-size="11" font-weight="normal" fill="#224A61">
                    <tspan x="679.937941" y="228">Emerging </tspan>
                    <tspan x="671.92964" y="241">technologies</tspan>
                </text>
                <path d="M30.5,204.5 L30.5,210.5" id="Line" stroke="#BBBBBB" stroke-linecap="square"></path>
                <path d="M163.5,205.5 L163.5,215.5" id="Line-Copy-2" stroke="#BBBBBB" stroke-linecap="square"></path>
                <path d="M295.5,205.5 L295.5,215.5" id="Line-Copy-4" stroke="#BBBBBB" stroke-linecap="square"></path>
                <path d="M433.5,205.5 L433.5,215.5" id="Line-Copy-6" stroke="#BBBBBB" stroke-linecap="square"></path>
                <path d="M558.5,205.5 L558.5,215.5" id="Line-Copy-8" stroke="#BBBBBB" stroke-linecap="square"></path>
                <path d="M702.5,204.5 L702.5,214.5" id="Line-Copy-10" stroke="#BBBBBB" stroke-linecap="square"></path>
                <path d="M496.5,205.5 L496.5,256.5" id="Line-Copy-7" stroke="#BBBBBB" stroke-linecap="square"></path>
                <path d="M369.5,205.5 L369.5,256.5" id="Line-Copy-11" stroke="#BBBBBB" stroke-linecap="square"></path>
                <path d="M231.5,205.5 L231.5,256.5" id="Line-Copy-12" stroke="#BBBBBB" stroke-linecap="square"></path>
                <path d="M95.5,205.5 L95.5,256.5" id="Line-Copy-13" stroke="#BBBBBB" stroke-linecap="square"></path>
                <path d="M632.5,205.5 L632.5,256.5" id="Line-Copy-9" stroke="#BBBBBB" stroke-linecap="square"></path>
                <path d="M728.537722,205.333333 L9,205.333333" id="Line" stroke="#BBBBBB" stroke-linecap="square"></path>
                <g id="Group" transform="translate(4.439075, 94.000000)">
                    <g id="Clipped" transform="translate(0.000000, 0.842413)">
                        <g id="Group">
                            <g transform="translate(0.000000, -0.000000)">
                                <g transform="translate(0.000000, 35.054480)">
                                    <g transform="translate(0.000000, 0.000000)">
                                        <g transform="translate(135.273092, 0.834630)"></g>
                                        <g transform="translate(0.000000, 68.717909)"></g>
                                    </g>
                                </g>
                                <g>
                                    <g>
                                        <g transform="translate(201.470562, 0.000000)"></g>
                                        <g transform="translate(67.636546, 15.579769)"></g>
                                        <g transform="translate(135.273092, 3.338522)"></g>
                                        <g transform="translate(0.000000, 51.634248)"></g>
                                    </g>
                                </g>
                            </g>
                        </g>
                    </g>
                </g>
                <polygon id="Combined-Shape-Copy-3" fill="#17788D" fill-rule="nonzero" transform="translate(31.000000, 162.705002) rotate(-360.000000) translate(-31.000000, -162.705002) " points="21 204.410004 21 121 41 121 41 204.410004"></polygon>
                <polygon id="Combined-Shape-Copy-4" fill="#17788D" fill-rule="nonzero" transform="translate(163.000000, 133.675003) rotate(-360.000000) translate(-163.000000, -133.675003) " points="153 204.350006 153 63 173 63 173 204.350006"></polygon>
                <polygon id="Combined-Shape-Copy-5" fill="#17788D" fill-rule="nonzero" transform="translate(231.000000, 130.415001) rotate(-360.000000) translate(-231.000000, -130.415001) " points="221 204.830002 221 56 241 56 241 204.830002"></polygon>
                <polygon id="Combined-Shape-Copy-6" fill="#17788D" fill-rule="nonzero" transform="translate(95.000000, 146.154999) rotate(-360.000000) translate(-95.000000, -146.154999) " points="85 205.309998 85 87 105 87 105 205.309998"></polygon>
                <polygon id="Combined-Shape-Copy-7" fill="#17788D" fill-rule="nonzero" transform="translate(369.000000, 176.920000) rotate(-360.000000) translate(-369.000000, -176.920000) " points="359 204.84 359 149 379 149 379 204.84"></polygon>
                <polygon id="Combined-Shape-Copy-8" fill="#17788D" fill-rule="nonzero" transform="translate(433.000000, 148.840000) rotate(-360.000000) translate(-433.000000, -148.840000) " points="423 204.68 423 93 443 93 443 204.68"></polygon>
                <polygon id="Combined-Shape-Copy-9" fill="#17788D" fill-rule="nonzero" transform="translate(558.000000, 168.645000) rotate(-360.000000) translate(-558.000000, -168.645000) " points="548 205.290001 548 132 568 132 568 205.290001"></polygon>
                <polygon id="Combined-Shape-Copy-10" fill="#17788D" fill-rule="nonzero" transform="translate(298.000000, 170.855000) rotate(-360.000000) translate(-298.000000, -170.855000) " points="288 204.709999 288 137 308 137 308 204.709999"></polygon>
                <polygon id="Combined-Shape-Copy-11" fill="#17788D" fill-rule="nonzero" transform="translate(632.000000, 173.410000) rotate(-360.000000) translate(-632.000000, -173.410000) " points="622 204.82 622 142 642 142 642 204.82"></polygon>
                <polygon id="Combined-Shape-Copy-12" fill="#17788D" fill-rule="nonzero" transform="translate(703.000000, 178.525000) rotate(-360.000000) translate(-703.000000, -178.525000) " points="693 205.049999 693 152 713 152 713 205.049999"></polygon>
                <polygon id="Combined-Shape-Copy-13" fill="#17788D" fill-rule="nonzero" transform="translate(497.000000, 179.780001) rotate(-360.000000) translate(-497.000000, -179.780001) " points="487 204.560001 487 155 507 155 507 204.560001"></polygon>
                <text id="239" font-size="14" font-weight="bold" fill="#224A61">
                    <tspan x="19" y="115">239</tspan>
                </text>
                <text id="339" font-size="14" font-weight="bold" fill="#224A61">
                    <tspan x="84" y="81">339</tspan>
                </text>
                <text id="405" font-size="14" font-weight="bold" fill="#224A61">
                    <tspan x="151" y="57">405</tspan>
                </text>
                <text id="426" font-size="14" font-weight="bold" fill="#224A61">
                    <tspan x="219" y="50">426</tspan>
                </text>
                <text id="194" font-size="14" font-weight="bold" fill="#224A61">
                    <tspan x="286" y="130">194</tspan>
                </text>
                <text id="160" font-size="14" font-weight="bold" fill="#224A61">
                    <tspan x="356" y="143">160</tspan>
                </text>
                <text id="320" font-size="14" font-weight="bold" fill="#224A61">
                    <tspan x="421" y="87">320</tspan>
                </text>
                <text id="142" font-size="14" font-weight="bold" fill="#224A61">
                    <tspan x="484" y="149">142</tspan>
                </text>
                <text id="210" font-size="14" font-weight="bold" fill="#224A61">
                    <tspan x="546" y="126">210</tspan>
                </text>
                <text id="180" font-size="14" font-weight="bold" fill="#224A61">
                    <tspan x="619" y="136">180</tspan>
                </text>
                <text id="152" font-size="14" font-weight="bold" fill="#224A61">
                    <tspan x="690" y="146">152</tspan>
                </text>
                <text id="Areas-of-expertise-o" font-size="17" font-weight="normal" line-spacing="26" fill="#313131">
                    <tspan x="238.376709" y="16">Areas of expertise offered by sellers</tspan>
                </text>
            </g>
        </g>
    </g>
</svg>