<?xml version="1.0" encoding="UTF-8" standalone="no"?>
<svg font-family='-apple-system, BlinkMacSystemFont, "Segoe UI", Roboto, Helvetica, Arial, sans-serif, "Apple Color Emoji", "Segoe UI Emoji", "Segoe UI Symbol"' width="741px" height="284px" viewBox="0 0 741 284" version="1.1" xmlns="http://www.w3.org/2000/svg" xmlns:xlink="http://www.w3.org/1999/xlink" style="background: #FFFFFF;">
    <!-- Generator: Sketch 45.2 (43514) - http://www.bohemiancoding.com/sketch -->
    <title>&gt;768 number of sellers per area of expertise</title>
    <desc>Created with Sketch.</desc>
    <defs></defs>
    <g id="Symbols" stroke="none" stroke-width="1" fill="none" fill-rule="evenodd">
        <g id="&gt;768-number-of-sellers-per-area-of-expertise">
            <g>
                <text id="Strategy-and-policy"  font-size="11" font-weight="normal" fill="#224A61">
                    <tspan x="0.158691406" y="228">Strategy and </tspan>
                    <tspan x="16.4465332" y="241">policy</tspan>
                </text>
                <text id="User-research-and-de"  font-size="11" font-weight="normal" fill="#224A61">
                    <tspan x="61.6909032" y="269">User research </tspan>
                    <tspan x="68.2490087" y="282">and design</tspan>
                </text>
                <text id="Agile-delivery-and-g"  font-size="11" font-weight="normal" fill="#224A61">
                    <tspan x="121.956504" y="228">Agile delivery and </tspan>
                    <tspan x="135.757529" y="241">governance</tspan>
                </text>
                <text id="Software-engineering"  font-size="11" font-weight="normal" fill="#224A61">
                    <tspan x="180.233423" y="269">Software engineering </tspan>
                    <tspan x="189.251489" y="282">and development</tspan>
                </text>
                <text id="Support-and-operatio"  font-size="11" font-weight="normal" fill="#224A61">
                    <tspan x="266.122023" y="228">Support and </tspan>
                    <tspan x="270.298048" y="241">operations</tspan>
                </text>
                <text id="Content-and-publishi"  font-size="11" font-weight="normal" fill="#224A61">
                    <tspan x="339.022658" y="269">Content and </tspan>
                    <tspan x="343.781447" y="282">publishing</tspan>
                </text>
                <text id="Change,-training,-tr"  font-size="11" font-weight="normal" fill="#224A61">
                    <tspan x="391.398777" y="228">Change, training, </tspan>
                    <tspan x="397.621189" y="241">transformation</tspan>
                </text>
                <text id="Marketing,-communica"  font-size="11" font-weight="normal" fill="#224A61">
                    <tspan x="427.800207" y="269">Marketing, communications </tspan>
                    <tspan x="453.240393" y="282">and engagement</tspan>
                </text>
                <text id="Cyber-security"  font-size="11" font-weight="normal" fill="#224A61">
                    <tspan x="523.059767" y="228">Cyber security</tspan>
                </text>
                <text id="Data-science"  font-size="11" font-weight="normal" fill="#224A61">
                    <tspan x="600.698683" y="269">Data science</tspan>
                </text>
                <text id="Emerging-technologie"  font-size="11" font-weight="normal" fill="#224A61">
                    <tspan x="679.937941" y="228">Emerging </tspan>
                    <tspan x="671.92964" y="241">technologies</tspan>
                </text>
                <path d="M30.5,204.5 L30.5,210.5" id="Line" stroke="#BBBBBB" stroke-linecap="square"></path>
                <path d="M163.5,205.5 L163.5,215.5" id="Line-Copy-2" stroke="#BBBBBB" stroke-linecap="square"></path>
                <path d="M295.5,205.5 L295.5,215.5" id="Line-Copy-4" stroke="#BBBBBB" stroke-linecap="square"></path>
                <path d="M433.5,205.5 L433.5,215.5" id="Line-Copy-6" stroke="#BBBBBB" stroke-linecap="square"></path>
                <path d="M558.5,205.5 L558.5,215.5" id="Line-Copy-8" stroke="#BBBBBB" stroke-linecap="square"></path>
                <path d="M702.5,204.5 L702.5,214.5" id="Line-Copy-10" stroke="#BBBBBB" stroke-linecap="square"></path>
                <path d="M496.5,205.5 L496.5,256.5" id="Line-Copy-7" stroke="#BBBBBB" stroke-linecap="square"></path>
                <path d="M369.5,205.5 L369.5,256.5" id="Line-Copy-11" stroke="#BBBBBB" stroke-linecap="square"></path>
                <path d="M231.5,205.5 L231.5,256.5" id="Line-Copy-12" stroke="#BBBBBB" stroke-linecap="square"></path>
                <path d="M95.5,205.5 L95.5,256.5" id="Line-Copy-13" stroke="#BBBBBB" stroke-linecap="square"></path>
                <path d="M632.5,205.5 L632.5,256.5" id="Line-Copy-9" stroke="#BBBBBB" stroke-linecap="square"></path>
                <path d="M728.537722,205.333333 L9,205.333333" id="Line" stroke="#BBBBBB" stroke-linecap="square"></path>
                <g id="Group" transform="translate(4.439075, 94.000000)">
                    <g id="Clipped" transform="translate(0.000000, 0.842413)">
                        <g id="Group">
                            <g transform="translate(0.000000, -0.000000)">
                                <g transform="translate(0.000000, 35.054480)">
                                    <g transform="translate(0.000000, 0.000000)">
                                        <g transform="translate(135.273092, 0.834630)"></g>
                                        <g transform="translate(0.000000, 68.717909)"></g>
                                    </g>
                                </g>
                                <g>
                                    <g>
                                        <g transform="translate(201.470562, 0.000000)"></g>
                                        <g transform="translate(67.636546, 15.579769)"></g>
                                        <g transform="translate(135.273092, 3.338522)"></g>
                                        <g transform="translate(0.000000, 51.634248)"></g>
                                    </g>
                                </g>
                            </g>
                        </g>
                    </g>
                </g>
                <path d="M21,198.21934 L21,204.739998 L41,204.739998 L41,198.21934 L41,120 L21,120 L21,198.21934 Z" id="Combined-Shape-Copy-3" fill="#17788D" fill-rule="nonzero" transform="translate(31.000000, 162.369999) rotate(-360.000000) translate(-31.000000, -162.369999) "></path>
                <path d="M153,108.478538 L153,204.160004 L173,204.160004 L173,108.478538 L173,59 L153,59 L153,108.478538 Z" id="Combined-Shape-Copy-4" fill="#17788D" fill-rule="nonzero" transform="translate(163.000000, 131.580002) rotate(-360.000000) translate(-163.000000, -131.580002) "></path>
                <path d="M221,115.107026 L221,204.830002 L241,204.830002 L241,115.107026 L241,56 L221,56 L221,115.107026 Z" id="Combined-Shape-Copy-5" fill="#17788D" fill-rule="nonzero" transform="translate(231.000000, 130.415001) rotate(-360.000000) translate(-231.000000, -130.415001) "></path>
                <path d="M85,124.849681 L85,204.360001 L105,204.360001 L105,124.849681 L105,82 L85,82 L85,124.849681 Z" id="Combined-Shape-Copy-6" fill="#17788D" fill-rule="nonzero" transform="translate(95.000000, 143.180000) rotate(-360.000000) translate(-95.000000, -143.180000) "></path>
                <path d="M359,192.777907 L359,204.720001 L379,204.720001 L379,192.777907 L379,150 L359,150 L359,192.777907 Z" id="Combined-Shape-Copy-7" fill="#17788D" fill-rule="nonzero" transform="translate(369.000000, 177.360001) rotate(-360.000000) translate(-369.000000, -177.360001) "></path>
                <path d="M423,140.844746 L423,204.900002 L443,204.900002 L443,140.844746 L443,89 L423,89 L423,140.844746 Z" id="Combined-Shape-Copy-8" fill="#17788D" fill-rule="nonzero" transform="translate(433.000000, 146.950001) rotate(-360.000000) translate(-433.000000, -146.950001) "></path>
                <path d="M548,172.746569 L548,204.339996 L568,204.339996 L568,172.746569 L568,131 L548,131 L548,172.746569 Z" id="Combined-Shape-Copy-9" fill="#17788D" fill-rule="nonzero" transform="translate(558.000000, 167.669998) rotate(-360.000000) translate(-558.000000, -167.669998) "></path>
                <path d="M286,201.256452 L286,204.5 L306,204.5 L306,201.256452 L306,138 L286,138 L286,201.256452 Z" id="Combined-Shape-Copy-10" fill="#17788D" fill-rule="nonzero" transform="translate(296.000000, 171.250000) rotate(-360.000000) translate(-296.000000, -171.250000) "></path>
                <path d="M622,180.919208 L622,204.799999 L642,204.799999 L642,180.919208 L642,144 L622,144 L622,180.919208 Z" id="Combined-Shape-Copy-11" fill="#17788D" fill-rule="nonzero" transform="translate(632.000000, 174.400000) rotate(-360.000000) translate(-632.000000, -174.400000) "></path>
                <path d="M693,203.569669 L693,204.720001 L713,204.720001 L713,203.569669 L713,150 L693,150 L693,203.569669 Z" id="Combined-Shape-Copy-12" fill="#17788D" fill-rule="nonzero" transform="translate(703.000000, 177.360001) rotate(-360.000000) translate(-703.000000, -177.360001) "></path>
                <path d="M487,200.962756 L487,204.639999 L507,204.639999 L507,200.962756 L507,156 L487,156 L487,200.962756 Z" id="Combined-Shape-Copy-13" fill="#17788D" fill-rule="nonzero" transform="translate(497.000000, 180.320000) rotate(-360.000000) translate(-497.000000, -180.320000) "></path>
                <text id="223"  font-size="14" font-weight="bold" fill="#224A61">
                    <tspan x="19" y="115">223</tspan>
                </text>
                <text id="322"  font-size="14" font-weight="bold" fill="#224A61">
                    <tspan x="84" y="76">322</tspan>
                </text>
                <text id="382"  font-size="14" font-weight="bold" fill="#224A61">
                    <tspan x="152" y="54">382</tspan>
                </text>
                <text id="390"  font-size="14" font-weight="bold" fill="#224A61">
                    <tspan x="219" y="52">390</tspan>
                </text>
                <text id="175"  font-size="14" font-weight="bold" fill="#224A61">
                    <tspan x="284" y="134">175</tspan>
                </text>
                <text id="144"  font-size="14" font-weight="bold" fill="#224A61">
                    <tspan x="356" y="145">144</tspan>
                </text>
                <text id="305"  font-size="14" font-weight="bold" fill="#224A61">
                    <tspan x="421" y="83">305</tspan>
                </text>
                <text id="128"  font-size="14" font-weight="bold" fill="#224A61">
                    <tspan x="483" y="151">128</tspan>
                </text>
                <text id="193"  font-size="14" font-weight="bold" fill="#224A61">
                    <tspan x="546" y="126">193</tspan>
                </text>
                <text id="160"  font-size="14" font-weight="bold" fill="#224A61">
                    <tspan x="618" y="139">160</tspan>
                </text>
                <text id="144"  font-size="14" font-weight="bold" fill="#224A61">
                    <tspan x="691" y="145">144</tspan>
                </text>
                <text id="Areas-of-expertise-o"  font-size="17" font-weight="normal" line-spacing="26" fill="#313131">
                    <tspan x="238.376709" y="16">Areas of expertise offered by sellers</tspan>
                </text>
            </g>
        </g>
    </g>
</svg>
