<?xml version="1.0" encoding="UTF-8" standalone="no"?>
<svg font-family='-apple-system, BlinkMacSystemFont, "Segoe UI", Roboto, Helvetica, Arial, sans-serif, "Apple Color Emoji", "Segoe UI Emoji", "Segoe UI Symbol"' width="289px" height="251px" viewBox="0 0 289 251" version="1.1" xmlns="http://www.w3.org/2000/svg" xmlns:xlink="http://www.w3.org/1999/xlink" style="background: #FFFFFF;">
    <!-- Generator: Sketch 49 (51002) - http://www.bohemiancoding.com/sketch -->
    <title>Entities registered</title>
    <desc>Created with Sketch.</desc>
    <defs></defs>
    <g id="Entities-registered" stroke="none" stroke-width="1" fill="none" fill-rule="evenodd">
        <text id="217-entities-have-re" font-size="16" font-weight="bold" line-spacing="22" fill="#4A4A4A">
            <tspan x="146" y="27">217 entities </tspan>
            <tspan x="146" y="49">have registered,</tspan>
            <tspan x="275.367188" y="49" font-weight="normal"> </tspan>
            <tspan x="146" y="71" font-weight="normal">48% of which are </tspan>
            <tspan x="146" y="93" font-weight="normal">Commonwealth </tspan>
            <tspan x="146" y="115" font-weight="normal">government</tspan>
        </text>
        <path d="M132,62 L132,72" id="Line-Copy-15" stroke="#224A61" stroke-width="2" stroke-linecap="round" transform="translate(132.000000, 67.000000) rotate(-90.000000) translate(-132.000000, -67.000000) "></path>
        <text id="Commonwealth-CCE" font-size="14" font-weight="normal" fill="#808184">
            <tspan x="24" y="170">Commonwealth </tspan>
            <tspan x="24" y="187">CCE</tspan>
        </text>
        <text id="State-/-Territory-Copy-2" font-size="14" font-weight="normal" fill="#808184">
            <tspan x="24" y="220">State / Territory</tspan>
        </text>
        <text id="Commonwealth-NCCE" font-size="14" font-weight="normal" fill="#808184">
            <tspan x="168" y="170">Commonwealth </tspan>
            <tspan x="168" y="187">NCCE</tspan>
        </text>
        <text id="Local-Copy" font-size="14" font-weight="normal" fill="#808184">
            <tspan x="168" y="220">Local</tspan>
        </text>
        <rect id="Rectangle-3-Copy-11" fill="#0C7B92" x="2" y="158" width="16" height="16"></rect>
        <rect id="Rectangle-3-Copy-12" fill="#6C81DA" x="2" y="206" width="16" height="16"></rect>
        <rect id="Rectangle-3-Copy-13" fill="#C35D8E" x="146" y="158" width="16" height="16"></rect>
        <rect id="Rectangle-3-Copy-14" fill="#F17465" x="146" y="206" width="16" height="16"></rect>
        <text id="Other-Copy-2" font-size="14" font-weight="normal" fill="#808184">
            <tspan x="23" y="248">Other</tspan>
        </text>
        <rect id="Rectangle-3-Copy-15" fill="#4E9774" x="2" y="234" width="16" height="16"></rect>
        <g id="Group" transform="translate(-23.000000, -15.000000)">
            <g id="Group-17" transform="translate(85.000000, 85.000000) rotate(-40.000000) translate(-85.000000, -85.000000) translate(25.000000, 25.000000)" stroke="#FFFFFF">
                <path d="M60,59.6923722 L0.591374671,68 C-4.0201129,35.353699 18.8400504,5.1688943 51.6505803,0.58110912 C54.5052959,0.181712884 57.1172359,0 60,0 L60,59.6923722 Z" id="Fill-1" fill="#F17465"></path>
                <path d="M60,60 L45.5862789,118 C21.4809785,111.969965 4.45718842,93.001392 1,68.3192063 L60,60 Z" id="Fill-3" fill="#6C81DA"></path>
                <path d="M59.6005371,60 L68,119.389766 C60.111258,120.491405 52.7294748,120.106953 45,118.191858 L59.6005371,60 Z" id="Fill-5" fill="#4E9774"></path>
                <path d="M60,60 L108,95.8561484 C98.0716678,108.916638 84.7014056,116.723591 68.3647268,119 L60,60 Z" id="Fill-8" fill="#0C7B92"></path>
                <path d="M60,59.9318956 L60,0 C93.1368312,0 120,26.8323658 120,59.9318956 C120,73.8006032 116.274078,84.9236517 107.918026,96 L60,59.9318956 Z" id="Fill-10" fill="#C35D8E"></path>
            </g>
            <circle id="Oval" fill="#FFFFFF" cx="85" cy="85" r="25"></circle>
        </g>
        <path d="M110.561882,113.206853 C120.787258,101.722372 127,86.5867177 127,70 C127,34.1014913 97.8985087,5 62,5 C46.4273871,5 32.1338271,10.476277 20.9400573,19.608094" id="Oval-4-Copy-3" stroke="#224A61" stroke-width="2" stroke-linecap="round"></path>
    </g>
</svg>