<?xml version="1.0" encoding="UTF-8" standalone="no"?>
<svg font-family='-apple-system, BlinkMacSystemFont, "Segoe UI", Roboto, Helvetica, Arial, sans-serif, "Apple Color Emoji", "Segoe UI Emoji", "Segoe UI Symbol"' width="275px" height="160px" viewBox="0 0 275 160" version="1.1" xmlns="http://www.w3.org/2000/svg" xmlns:xlink="http://www.w3.org/1999/xlink" style="background: #FFFFFF;">
    <!-- Generator: Sketch 49 (51002) - http://www.bohemiancoding.com/sketch -->
    <title>Percentage of briefs open to all</title>
    <desc>Created with Sketch.</desc>
    <defs></defs>
    <g id="Percentage-of-briefs-open-to-all" stroke="none" stroke-width="1" fill="none" fill-rule="evenodd">
        <g id="Group-9" transform="translate(155.000000, 14.000000)" stroke="#FFFFFF">
            <path d="M114.17004,59.757085 L59.757085,35.4514482 C69.4441881,13.6231132 90.3538593,0 114.17004,0 L114.17004,59.757085 Z" id="Fill-1" fill="#152D3B" transform="translate(86.963563, 29.878543) scale(-1, 1) translate(-86.963563, -29.878543) "></path>
            <path d="M120,59.8221243 L67.0618093,87.9352227 C57.9832281,70.8816605 57.3616929,53.1103159 65.2271359,35.465587 L120,59.8221243 Z" id="Fill-3" fill="#870F48" transform="translate(89.878543, 61.700405) scale(-1, 1) translate(-89.878543, -61.700405) "></path>
            <path d="M52.8529512,59.757085 L52.8529512,0 C85.9126703,0 112.712551,26.7539833 112.712551,59.757085 C112.712551,92.7601867 85.9126703,119.51417 52.8529512,119.51417 C30.0086117,119.51417 10.7245812,107.947188 0,87.8114325 L52.8529512,59.757085 Z" id="Fill-5" fill="#17788D" transform="translate(56.356275, 59.757085) scale(-1, 1) translate(-56.356275, -59.757085) "></path>
        </g>
        <path d="M138,74 L148,74" id="Line-Copy-15" stroke="#224A61" stroke-width="2" stroke-linecap="round" transform="translate(143.000000, 75.000000) scale(-1, 1) translate(-143.000000, -75.000000) "></path>
        <text id="68%-of-all-briefs-ha" font-size="16" font-weight="bold" line-spacing="22" fill="#333333">
            <tspan x="1" y="59">68% </tspan>
            <tspan x="37.8359375" y="59" font-weight="normal">of all briefs </tspan>
            <tspan x="1" y="81" font-weight="normal">have been</tspan>
            <tspan x="78.4453125" y="81"> open </tspan>
            <tspan x="1" y="103">to all</tspan>
        </text>
        <text id="One" font-size="11" font-weight="bold" fill="#FFFFFF">
            <tspan x="246" y="77">One</tspan>
        </text>
        <text id="Some" font-size="11" font-weight="bold" fill="#FFFFFF">
            <tspan x="223" y="40">Some</tspan>
        </text>
        <text id="All" font-size="11" font-weight="bold" fill="#FFFFFF">
            <tspan x="167" y="77">All</tspan>
        </text>
        <path d="M228.445919,138.726192 C255.807052,131.25763 275.920221,106.226181 275.920221,76.4970501 C275.920221,40.8746837 247.042587,11.9970501 211.420221,11.9970501 C181.056703,11.9970501 155.593494,32.9777628 148.737083,61.2326971" id="Oval-3" stroke="#224A61" stroke-width="2" stroke-linecap="round" transform="translate(212.328652, 75.361621) rotate(-165.000000) translate(-212.328652, -75.361621) "></path>
        <circle id="Oval-Copy" fill="#FFFFFF" cx="215" cy="74" r="25"></circle>
    </g>
</svg>