<?xml version="1.0" encoding="UTF-8" standalone="no"?>
<svg font-family='-apple-system, BlinkMacSystemFont, "Segoe UI", Roboto, Helvetica, Arial, sans-serif, "Apple Color Emoji", "Segoe UI Emoji", "Segoe UI Symbol"' width="251px" height="148px" viewBox="0 0 251 157" version="1.1" xmlns="http://www.w3.org/2000/svg" xmlns:xlink="http://www.w3.org/1999/xlink" style="background: #FFFFFF;">
    <!-- Generator: Sketch 49 (51002) - http://www.bohemiancoding.com/sketch -->
    <title>Percentage of briefs for digital specialists</title>
    <desc>Created with Sketch.</desc>
    <defs></defs>
    <g id="Percentage-of-briefs-for-digital-specialists" stroke="none" stroke-width="1" fill="none" fill-rule="evenodd">
        <text id="63%-of-briefs-have-b" font-size="16" font-weight="bold" line-spacing="22" fill="#333333">
            <tspan x="147" y="51">63% </tspan>
            <tspan x="183.835938" y="51" font-weight="normal">of briefs </tspan>
            <tspan x="147" y="73" font-weight="normal">have been for</tspan>
            <tspan x="250.21875" y="73"> </tspan>
            <tspan x="147" y="95">digital </tspan>
            <tspan x="147" y="117">specialists</tspan>
        </text>
        <g id="Group" transform="translate(1.000000, 20.000000)">
            <g id="Group-22" stroke="#FFFFFF">
                <path d="M59.9346928,59.9346405 L18.3007059,103.047843 C-5.51027451,80.0541176 -6.17249673,42.1113725 16.8212288,18.3006536 C28.5022745,6.20470588 43.1195294,0 59.9346928,0 L59.9346928,59.9346405 Z" id="Fill-1" fill="#152D3B"></path>
                <path d="M59.9346928,59.9346405 L59.9346928,0 C93.0356078,0 119.869333,26.8337255 119.869333,59.9346405 C119.869333,93.0355556 93.0356078,119.869281 59.9346928,119.869281 C43.6821438,119.869281 29.9916863,114.338039 18.3007059,103.047843 L59.9346928,59.9346405 Z" id="Fill-3" fill="#00BFE9"></path>
            </g>
            <circle id="Oval-Copy-2" fill="#FFFFFF" transform="translate(60.000000, 60.000000) scale(-1, 1) rotate(1.000000) translate(-60.000000, -60.000000) " cx="60" cy="60" r="25"></circle>
        </g>
        <path d="M127,80 L137,80" id="Line-Copy-15" stroke="#224A61" stroke-width="2" stroke-linecap="round"></path>
        <text id="Outcome-Copy-3" font-size="11" font-weight="bold" fill="#808184">
            <tspan x="0" y="14">Outcome</tspan>
        </text>
        <text id="Specialist-Copy-2" font-size="11" font-weight="bold" fill="#808184">
            <tspan x="90" y="152">Specialist</tspan>
        </text>
        <path d="M58.1832702,151.800187 C94.081779,151.800187 123.18327,122.698696 123.18327,86.8001872 C123.18327,50.9016785 94.081779,21.8001872 58.1832702,21.8001872 C40.333387,21.8001872 24.1639953,28.9952268 12.4171042,40.6432969" id="Oval-4-Copy-4" stroke="#224A61" stroke-width="2" stroke-linecap="round" transform="translate(67.800187, 86.800187) rotate(-315.000000) translate(-67.800187, -86.800187) "></path>
    </g>
</svg>