<?xml version="1.0" encoding="UTF-8" standalone="no"?>
<svg width="276px" height="131px" viewBox="0 0 276 131" version="1.1" xmlns="http://www.w3.org/2000/svg" xmlns:xlink="http://www.w3.org/1999/xlink">
    <!-- Generator: Sketch 48.2 (47327) - http://www.bohemiancoding.com/sketch -->
    <title>67% of all briefs have been open to all</title>
    <desc>Created with Sketch.</desc>
    <defs>
        <polygon id="path-1" points="0.722180488 0.604792683 55.733022 0.604792683 55.733022 61.3024707 0.722180488 61.3024707"></polygon>
        <polygon id="path-3" points="0.191778049 0.604792683 113.455388 0.604792683 113.455388 122 0.191778049 122"></polygon>
    </defs>
    <g id="Jan-monthly-report-greater-than-768px" stroke="none" stroke-width="1" fill="none" fill-rule="evenodd" transform="translate(-372.000000, -907.000000)">
        <g id="67%-of-all-briefs-have-been-open-to-all" transform="translate(371.000000, 898.000000)">
            <g id="Page-1" stroke-width="1" fill-rule="evenodd" transform="translate(214.500000, 74.500000) rotate(119.000000) translate(-214.500000, -74.500000) translate(153.000000, 13.000000)">
                <g id="Group-3" transform="translate(5.207317, 0.139110)">
                    <mask id="mask-2" fill="white">
                        <use xlink:href="#path-1"></use>
                    </mask>
                    <g id="Clip-2"></g>
                    <path d="M55.733022,61.3024707 L0.722180488,35.6504829 C10.8094976,14.0185439 31.8656561,0.604495122 55.733022,0.604495122 L55.733022,61.3024707 Z" id="Fill-1" stroke="#FFFFFF" fill="#870F48" mask="url(#mask-2)"></path>
                </g>
                <path d="M60.940339,61.4415805 L8.37470488,91.7905683 C-1.88296585,74.0232024 -2.74068537,54.3826902 5.92949756,35.7895927 L60.940339,61.4415805 Z" id="Fill-4" stroke="#FFFFFF" fill="#152D3B"></path>
                <g id="Group-8" transform="translate(8.182927, 0.139110)">
                    <mask id="mask-4" fill="white">
                        <use xlink:href="#path-3"></use>
                    </mask>
                    <g id="Clip-7"></g>
                    <path d="M52.7574122,61.3024707 L52.7574122,0.604495122 C86.2798878,0.604495122 113.455388,27.7799951 113.455388,61.3024707 C113.455388,94.8249463 86.2798878,122.000446 52.7574122,122.000446 C30.0966561,122.000446 11.5221561,111.276349 0.191778049,91.6514585 L52.7574122,61.3024707 Z" id="Fill-6" stroke="#FFFFFF" fill="#17788D" mask="url(#mask-4)"></path>
                </g>
            </g>
            <path d="M138,74 L148,74" id="Line-Copy-15" stroke="#224A61" stroke-width="2" stroke-linecap="round" transform="translate(143.000000, 75.000000) scale(-1, 1) translate(-143.000000, -75.000000) "></path>
            <text id="67%-of-all-briefs-ha" font-family="OpenSans-Bold, Open Sans" font-size="16" font-weight="bold" line-spacing="22" fill="#333333">
                <tspan x="1" y="59">67% </tspan>
                <tspan x="37.8359375" y="59" font-family="OpenSans, Open Sans" font-weight="normal">of all briefs </tspan>
                <tspan x="1" y="81" font-family="OpenSans, Open Sans" font-weight="normal">have been</tspan>
                <tspan x="78.4453125" y="81"> open </tspan>
                <tspan x="1" y="103">to all</tspan>
            </text>
            <text id="One" font-family=".HelveticaNeueDeskInterface-Bold, SFNS Display" font-size="11" font-weight="bold" fill="#FFFFFF">
                <tspan x="246" y="77">One</tspan>
            </text>
            <text id="Some" font-family=".HelveticaNeueDeskInterface-Bold, SFNS Display" font-size="11" font-weight="bold" fill="#FFFFFF">
                <tspan x="220" y="40">Some</tspan>
            </text>
            <text id="All" font-family=".HelveticaNeueDeskInterface-Bold, SFNS Display" font-size="11" font-weight="bold" fill="#FFFFFF">
                <tspan x="166" y="77">All</tspan>
            </text>
            <path d="M228.445919,138.726192 C255.807052,131.25763 275.920221,106.226181 275.920221,76.4970501 C275.920221,40.8746837 247.042587,11.9970501 211.420221,11.9970501 C181.056703,11.9970501 155.593494,32.9777628 148.737083,61.2326971" id="Oval-3" stroke="#224A61" stroke-width="2" stroke-linecap="round" transform="translate(212.328652, 75.361621) rotate(-165.000000) translate(-212.328652, -75.361621) "></path>
            <circle id="Oval-Copy" fill="#FFFFFF" fill-rule="evenodd" cx="214" cy="74" r="25"></circle>
        </g>
    </g>
</svg>