<svg font-family="-apple-system, BlinkMacSystemFont, &quot;Segoe UI&quot;, Roboto, Helvetica, Arial, sans-serif, &quot;Apple Color Emoji&quot;, &quot;Segoe UI Emoji&quot;, &quot;Segoe UI Symbol&quot;" width="322" height="562" viewBox="0 0 322 562" xmlns="http://www.w3.org/2000/svg"><title>767-top-10-sellers-awarded-contracts-over-3-months</title><g fill="none" fill-rule="evenodd"><text transform="translate(309 466)" font-size="11" fill="#224A61"><tspan x=".421" y="10">10</tspan></text><text transform="translate(174 477)" font-size="11" fill="#224A61" font-weight="bold"><tspan x="0" y="10">Number of briefs won</tspan></text><text transform="translate(146 465)" font-size="11" fill="#224A61"><tspan x=".71" y="10">0</tspan></text><path fill="#17788D" fill-rule="nonzero" d="M148 80h136.254v20H148z"/><g font-size="11" fill="#224A61"><text transform="translate(0 82)"><tspan x=".403" y="10">Adelphi Digital Consulting</tspan></text><text transform="translate(0 82)"><tspan x="99.365" y="25">Group</tspan></text></g><text transform="translate(101 122)" font-size="11" fill="#224A61"><tspan x=".498" y="10">Paxus</tspan></text><text transform="translate(9 162)" font-size="11" fill="#224A61"><tspan x=".84" y="10">2XM Technology Pty Ltd</tspan></text><g font-size="11" fill="#224A61"><text transform="translate(28 201)"><tspan x=".096" y="10">SMS Management &amp;</tspan></text><text transform="translate(28 201)"><tspan x="45.364" y="25">Technology</tspan></text></g><text transform="translate(51 241)" font-size="11" fill="#224A61"><tspan x=".514" y="10">Zen Ex Machina</tspan></text><text transform="translate(94 281)" font-size="11" fill="#224A61"><tspan x=".263" y="10">Oakton</tspan></text><text transform="translate(51 361)" font-size="11" fill="#224A61"><tspan x=".02" y="10">Tobias &amp; Tobias</tspan></text><text transform="translate(71 321)" font-size="11" fill="#224A61"><tspan x=".457" y="10">Paper Giant</tspan></text><text transform="translate(61 400)" font-size="11" fill="#224A61"><tspan x=".682" y="10">AUREC Group</tspan></text><text transform="translate(76 439)" font-size="11" fill="#224A61"><tspan x=".925" y="10">ThinkPlace</tspan></text><path d="M148 120h85.159v20H148v-20zm0 39h68.127v20H148v-20z" fill="#17788D" fill-rule="nonzero"/><path stroke="#17788D" stroke-width="2" d="M149 199h66.127v18H149z"/><path d="M148 438h34.063v20H148v-20zm0-40h34.063v20H148v-20zm0-40h34.063v20H148v-20zm0-40h51.095v20H148v-20z" fill="#17788D" fill-rule="nonzero"/><path d="M148 278h51.095v20H148z" fill-rule="nonzero" fill="#FFF"/><path stroke="#17788D" stroke-width="2" d="M149 279h49.095v18H149z"/><path fill="#17788D" fill-rule="nonzero" d="M148 238h68.127v20H148z"/><path d="M148.46 462.5h172.181" stroke="#BBB" stroke-linecap="square"/><text transform="translate(290 81)" font-size="14" fill="#224A61" font-weight="bold"><tspan x="0" y="14">8</tspan></text><text transform="translate(239 120)" font-size="14" fill="#224A61" font-weight="bold"><tspan x="0" y="14">5</tspan></text><text transform="translate(221 160)" font-size="14" fill="#224A61" font-weight="bold"><tspan x="0" y="14">4</tspan></text><text transform="translate(221 199)" font-size="14" fill="#224A61" font-weight="bold"><tspan x="0" y="14">4</tspan></text><text transform="translate(221 239)" font-size="14" fill="#224A61" font-weight="bold"><tspan x="0" y="14">4</tspan></text><text transform="translate(204 279)" font-size="14" fill="#224A61" font-weight="bold"><tspan x="0" y="14">3</tspan></text><text transform="translate(204 319)" font-size="14" fill="#224A61" font-weight="bold"><tspan x="0" y="14">3</tspan></text><text transform="translate(187 359)" font-size="14" fill="#224A61" font-weight="bold"><tspan x="0" y="14">2</tspan></text><text transform="translate(187 399)" font-size="14" fill="#224A61" font-weight="bold"><tspan x="0" y="14">2</tspan></text><text transform="translate(187 439)" font-size="14" fill="#224A61" font-weight="bold"><tspan x="0" y="14">2</tspan></text><text transform="translate(170 512)" font-size="14" fill="#808184"><tspan x="0" y="14">SME</tspan></text><text transform="translate(170 544)" font-size="14" fill="#808184"><tspan x="0" y="14">Large Enterprise</tspan></text><path fill="#17788D" fill-rule="nonzero" d="M148 514h16v16h-16z"/><path d="M231 514h16v16h-16z" fill-rule="nonzero" fill="#FFF"/><path stroke="#17788D" stroke-width="2" d="M149 547h14v14h-14z"/><path fill="#FFF" fill-rule="nonzero" d="M82 0h169v54H82z"/><g font-size="17" fill="#313131"><text transform="translate(27 13)"><tspan x=".909" y="16">Top 10 sellers awarded contracts</tspan></text><text transform="translate(27 13)"><tspan x="57.546" y="43">June - August 2017</tspan></text></g></g></svg>